<svg width="299" height="286" viewBox="0 0 299 286" fill="none" xmlns="http://www.w3.org/2000/svg">
<g clip-path="url(#clip0_902_4735)">
<path d="M205.726 21.2218C207.358 11.2527 200.593 1.84863 190.616 0.217242C180.638 -1.41414 171.226 5.34492 169.593 15.314C167.96 25.2832 174.725 34.6872 184.703 36.3186C194.681 37.95 204.093 31.1909 205.726 21.2218Z" fill="#EBEBEB"/>
<path d="M205.764 21.5146C207.324 11.9936 200.863 3.01215 191.334 1.45408C181.804 -0.103981 172.815 6.35131 171.256 15.8724C169.696 25.3935 176.157 34.3749 185.686 35.9329C195.216 37.491 204.205 31.0357 205.764 21.5146Z" fill="#DBDBDB"/>
<path d="M194.658 33.8609C203.039 30.4502 207.066 20.8969 203.653 12.523C200.239 4.14911 190.678 0.125627 182.296 3.53632C173.915 6.94701 169.888 16.5003 173.302 24.8742C176.716 33.2481 186.277 37.2716 194.658 33.8609Z" fill="white"/>
<path d="M188.683 3.5625H188.272V6.02861H188.683V3.5625Z" fill="#EBEBEB"/>
<path d="M181.12 5.46103L180.764 5.6665L181.997 7.8024L182.354 7.59693L181.12 5.46103Z" fill="#EBEBEB"/>
<path d="M175.436 10.9331L175.23 11.2891L177.368 12.5219L177.574 12.1659L175.436 10.9331Z" fill="#EBEBEB"/>
<path d="M175.794 18.4961H173.325V18.9071H175.794V18.4961Z" fill="#EBEBEB"/>
<path d="M177.364 24.8319L175.227 26.0654L175.433 26.4213L177.57 25.1878L177.364 24.8319Z" fill="#EBEBEB"/>
<path d="M181.99 29.5482L180.757 31.6846L181.114 31.8899L182.346 29.7535L181.99 29.5482Z" fill="#EBEBEB"/>
<path d="M188.683 31.3745H188.272V33.8406H188.683V31.3745Z" fill="#EBEBEB"/>
<path d="M195.044 29.5679L194.688 29.7734L195.922 31.9091L196.279 31.7035L195.044 29.5679Z" fill="#EBEBEB"/>
<path d="M199.557 24.8418L199.351 25.1978L201.489 26.4308L201.695 26.0749L199.557 24.8418Z" fill="#EBEBEB"/>
<path d="M203.63 18.4961H201.162V18.9071H203.63V18.4961Z" fill="#EBEBEB"/>
<path d="M201.498 10.9193L199.36 12.1523L199.566 12.5083L201.703 11.2752L201.498 10.9193Z" fill="#EBEBEB"/>
<path d="M195.911 5.4554L194.678 7.5918L195.034 7.7971L196.267 5.66071L195.911 5.4554Z" fill="#EBEBEB"/>
<path d="M190.912 13.3939L183.731 27.498L184.097 27.6844L191.278 13.5803L190.912 13.3939Z" fill="#EBEBEB"/>
<path d="M187.631 13.0536L187.093 13.1611L190.146 28.4096L190.684 28.3021L187.631 13.0536Z" fill="#DBDBDB"/>
<path d="M134.793 136.595H17.072V0.821777H134.793V136.595ZM19.8145 133.855H132.051V3.5619H19.8145V133.855Z" fill="#EBEBEB"/>
<path d="M76.1727 4.24707H73.4302V135.225H76.1727V4.24707Z" fill="#EBEBEB"/>
<path d="M137.193 6.30225H14.5352V10.1384H137.193V6.30225Z" fill="#EBEBEB"/>
<path d="M137.193 10.6182H14.5352V14.4543H137.193V10.6182Z" fill="#EBEBEB"/>
<path d="M137.193 14.9336H14.5352V18.7698H137.193V14.9336Z" fill="#EBEBEB"/>
<path d="M137.193 19.1807H14.5352V23.0168H137.193V19.1807Z" fill="#EBEBEB"/>
<path d="M137.193 23.4966H14.5352V27.3328H137.193V23.4966Z" fill="#EBEBEB"/>
<path d="M137.193 27.812H14.5352V31.6482H137.193V27.812Z" fill="#EBEBEB"/>
<path d="M137.193 32.0596H14.5352V35.8957H137.193V32.0596Z" fill="#EBEBEB"/>
<path d="M137.193 36.375H14.5352V40.2112H137.193V36.375Z" fill="#EBEBEB"/>
<path d="M137.193 40.6909H14.5352V44.5271H137.193V40.6909Z" fill="#EBEBEB"/>
<path d="M129.103 5.54883H128.417V93.5067H129.103V5.54883Z" fill="#263238"/>
<path d="M129.994 96.7261H127.526L128.143 93.2324H129.377L129.994 96.7261Z" fill="#263238"/>
<path d="M131.571 5.54883H130.885V132.759H131.571V5.54883Z" fill="#263238"/>
<path d="M132.462 135.362H129.994L130.611 131.868H131.845L132.462 135.362Z" fill="#263238"/>
<path d="M141.512 0.273926H10.2843V8.28878H141.512V0.273926Z" fill="#DBDBDB"/>
<path d="M155.294 212.839H291.115L293.995 157.146H152.482L155.294 212.839Z" fill="#EBEBEB"/>
<path d="M284.739 182.698H227.969L226.872 163.38H285.973L284.739 182.698ZM228.587 182.013H284.053L285.219 164.065H227.558L228.587 182.013Z" fill="#DBDBDB"/>
<path d="M283.642 204.893H230.095L229.204 187.424H284.67L283.642 204.893ZM230.781 204.208H283.025L284.053 188.109H230.026L230.781 204.208Z" fill="#DBDBDB"/>
<path d="M261.771 175.094H252.241L251.623 170.436H262.388L261.771 175.094ZM252.858 174.409H261.222L261.634 171.121H252.446L252.858 174.409Z" fill="#DBDBDB"/>
<path d="M261.771 198.522H252.241L251.623 193.864H262.388L261.771 198.522ZM252.858 197.837H261.222L261.634 194.549H252.446L252.858 197.837Z" fill="#DBDBDB"/>
<path d="M217.891 182.698H161.121L160.024 163.38H219.125L217.891 182.698ZM161.807 182.013H217.274L218.439 164.065H160.778L161.807 182.013Z" fill="#DBDBDB"/>
<path d="M216.862 204.893H163.315L162.424 187.424H217.891L216.862 204.893ZM164.001 204.208H216.245L217.274 188.109H163.178L164.001 204.208Z" fill="#DBDBDB"/>
<path d="M194.991 175.094H185.461L184.844 170.436H195.608L194.991 175.094ZM186.078 174.409H194.443L194.854 171.121H185.667L186.078 174.409Z" fill="#DBDBDB"/>
<path d="M194.991 198.522H185.461L184.844 193.864H195.608L194.991 198.522ZM186.078 197.837H194.443L194.854 194.549H185.667L186.078 197.837Z" fill="#DBDBDB"/>
<path d="M167.498 212.839L166.675 218.936L164.961 231.129H161.601V212.839H167.498Z" fill="#EBEBEB"/>
<path d="M167.498 212.839L166.675 218.936H161.601V212.839H167.498Z" fill="#DBDBDB"/>
<path d="M278.98 212.839L279.803 218.936L281.517 231.129H284.876V212.839H278.98Z" fill="#EBEBEB"/>
<path d="M278.98 212.839L279.803 218.936H284.876V212.839H278.98Z" fill="#DBDBDB"/>
<path d="M150.494 286C218.804 286 274.18 278.793 274.18 269.902C274.18 261.011 218.804 253.804 150.494 253.804C82.1841 253.804 26.8078 261.011 26.8078 269.902C26.8078 278.793 82.1841 286 150.494 286Z" fill="#EBEBEB"/>
<path d="M37.0236 252.228C57.4712 252.228 74.0472 248.272 74.0472 243.391C74.0472 238.511 57.4712 234.554 37.0236 234.554C16.576 234.554 0 238.511 0 243.391C0 248.272 16.576 252.228 37.0236 252.228Z" fill="#EBEBEB"/>
<path d="M1.98831 231.129L39.1491 230.924H76.2412L150.494 230.787L224.747 230.924H261.908L299 231.129L261.908 231.266L224.747 231.335L150.494 231.472L76.2412 231.335L39.1491 231.266L1.98831 231.129Z" fill="#263238"/>
<path d="M38.1206 112.482C38.1206 112.482 19.6774 109.879 23.9968 87.6841C23.9968 87.6841 44.6341 92.2738 38.1206 112.482Z" fill="#FFC727"/>
<path opacity="0.1" d="M38.1206 112.482C38.1206 112.482 19.6774 109.879 23.9968 87.6841C23.9968 87.6841 44.6341 92.2738 38.1206 112.482Z" fill="black"/>
<path d="M37.2293 107.824C36.8865 106.728 36.4751 105.563 35.9952 104.536C35.9952 104.399 35.9266 104.262 35.9266 104.125C35.9266 103.851 35.8581 103.508 35.8581 103.234C35.7895 102.549 35.7895 101.933 35.721 101.248C35.6524 99.9462 35.5838 98.5761 35.5153 97.2746C35.5153 97.2061 35.3781 97.2061 35.3781 97.2746C35.3781 98.5761 35.3781 99.9462 35.3781 101.248C35.3781 101.933 35.4467 102.549 35.5153 103.234C35.5153 103.371 35.5153 103.508 35.5153 103.645C34.4868 101.453 33.2527 99.3296 31.8129 97.3431C31.1958 96.4525 30.5102 95.6305 29.8246 94.8084C29.0704 93.9864 28.3162 93.1644 27.562 92.3423C27.4935 92.2738 27.4249 92.3423 27.4935 92.4108C28.8647 93.8494 29.9617 95.4935 31.0587 97.1376C31.6072 97.9596 32.1557 98.8501 32.6357 99.7407C32.5671 99.7407 32.4985 99.6722 32.43 99.6722C32.2243 99.6037 32.0186 99.4667 31.7443 99.3982C31.2644 99.1926 30.7159 98.9871 30.236 98.8501C29.2761 98.5076 28.2477 98.0966 27.2878 97.7541C27.2192 97.7541 27.2192 97.8226 27.2192 97.8911C28.1791 98.3021 29.139 98.7131 30.1674 99.1241C30.6474 99.3296 31.1273 99.5352 31.6072 99.7407C31.8129 99.8092 32.0872 99.9462 32.2928 100.015C32.43 100.083 32.6357 100.152 32.7728 100.22C33.1156 100.905 33.527 101.59 33.8698 102.207C34.6925 103.919 35.5153 105.7 36.1323 107.481C36.2009 107.619 36.2009 107.756 36.2695 107.893C35.7895 107.619 35.241 107.413 34.7611 107.139C34.144 106.865 33.4584 106.591 32.8413 106.248C31.5387 105.632 30.236 105.084 29.0019 104.33C28.9333 104.262 28.8647 104.399 28.9333 104.399C30.1674 105.084 31.4701 105.837 32.7042 106.522C33.3213 106.865 34.0069 107.207 34.624 107.481C35.1725 107.756 35.7895 108.098 36.338 108.167C36.8865 109.879 37.3665 111.592 37.5721 113.373C37.7778 115.907 37.7778 118.442 37.8464 120.977C37.8464 121.045 37.9149 121.045 37.9149 120.977C38.1206 118.716 38.1892 116.387 38.1892 114.058C38.3263 111.934 37.8464 109.879 37.2293 107.824Z" fill="#263238"/>
<path d="M34.3497 94.7399C34.2126 96.0415 34.0755 97.343 34.144 98.6446C34.144 98.7131 34.2126 98.7131 34.2126 98.6446C34.2812 97.343 34.2812 96.0415 34.4183 94.7399C34.4868 94.7399 34.3497 94.6714 34.3497 94.7399Z" fill="#263238"/>
<path d="M29.0704 95.9044C28.2477 95.5619 27.4249 95.2194 26.6708 94.7399C26.6022 94.6714 26.5336 94.8084 26.6022 94.8084C27.3564 95.2879 28.1106 95.6989 29.0019 95.9729C29.0704 95.9729 29.139 95.9044 29.0704 95.9044Z" fill="#263238"/>
<path d="M38.7377 147.761C38.7377 145.706 38.6691 143.719 38.6691 141.664C38.6006 134.883 38.6006 128.169 38.4634 121.387C38.3949 116.044 38.2577 110.632 38.1206 105.289C38.1206 105.289 38.1206 105.221 38.0521 105.221C38.0521 103.782 38.0521 102.275 38.0521 100.837C38.0521 100.768 37.9835 100.768 37.9835 100.768C37.9149 100.768 37.9149 100.768 37.9149 100.837C37.9149 102.275 37.9149 103.782 37.9149 105.221L37.8464 105.289C37.5721 114.811 37.3664 124.402 37.2979 133.924C37.2979 135.842 37.2979 137.828 37.2979 139.746C37.2293 145.98 37.2293 152.214 37.2293 158.448C37.2293 159.407 37.2293 160.434 37.2293 161.393C37.2293 167.079 37.2979 172.765 37.2979 178.519C37.2979 178.793 37.6407 178.998 37.9835 178.998C38.3949 178.998 38.8062 178.861 38.8062 178.519C38.8062 172.217 38.8748 165.983 38.8748 159.681C38.7377 155.707 38.7377 151.734 38.7377 147.761Z" fill="#263238"/>
<path d="M30.9902 141.596C30.9902 141.596 22.1456 135.019 13.7125 139.472C5.34787 143.925 3.97662 160.982 3.97662 160.982C3.97662 160.982 16.3178 162.763 24.1339 155.365C31.6072 148.241 30.9902 141.596 30.9902 141.596Z" fill="#FFC727"/>
<path d="M33.4584 142.007C31.8815 141.322 30.0988 141.185 28.3162 141.322C27.9734 141.253 27.562 141.253 27.2192 141.185C26.8079 141.185 26.3965 141.116 25.9851 141.116C25.0938 141.048 24.2711 140.979 23.3797 140.911C21.5971 140.774 19.8831 140.705 18.1005 140.5C18.0319 140.5 18.0319 140.637 18.1005 140.637C19.8145 140.842 21.5286 141.116 23.3112 141.253C24.2025 141.322 25.0938 141.459 25.9851 141.527C26.1908 141.527 26.3965 141.596 26.6022 141.596C26.3279 141.664 26.0537 141.733 25.848 141.801C24.4767 142.212 23.1055 142.76 21.8028 143.445C21.1172 143.582 20.4316 143.788 19.7459 143.925C18.649 144.199 17.552 144.473 16.455 144.747C14.3295 145.295 12.2041 145.911 10.0101 146.596C9.94155 146.596 9.94155 146.733 10.0101 146.733C12.1355 146.185 14.261 145.706 16.455 145.226C17.4834 144.952 18.5118 144.747 19.5403 144.473C19.8145 144.404 20.0888 144.336 20.363 144.267C17.9633 145.706 15.8379 147.624 14.0553 149.747C12.2727 151.871 10.9014 154.2 9.6673 156.666C9.6673 156.735 9.73586 156.803 9.73586 156.735C11.1757 154.2 12.9583 151.871 15.0152 149.816C14.9466 149.953 14.9466 150.021 14.878 150.158C14.7409 150.706 14.5352 151.186 14.3981 151.734C14.0553 152.762 13.7125 153.789 13.4382 154.885C13.4382 154.954 13.5068 154.954 13.5753 154.885C13.9182 153.858 14.3295 152.83 14.6723 151.871C14.878 151.391 15.0152 150.843 15.2208 150.364C15.2894 150.09 15.4265 149.816 15.4951 149.61C15.4951 149.542 15.5637 149.473 15.5637 149.405C16.5921 148.446 17.6205 147.555 18.7175 146.733C20.1573 145.637 21.7343 144.747 23.4483 144.062C23.4483 144.199 23.3797 144.336 23.3797 144.541C23.3112 144.952 23.1741 145.363 23.1055 145.774C22.8998 146.596 22.7627 147.487 22.6256 148.309C22.2828 150.021 22.0771 151.734 21.7343 153.447C21.7343 153.515 21.8028 153.515 21.8714 153.447C22.2828 151.734 22.7627 150.021 23.1741 148.309C23.3797 147.418 23.5854 146.596 23.7226 145.706C23.7911 145.295 23.8597 144.884 23.9968 144.473C24.0654 144.267 24.0654 143.993 24.1339 143.788C24.2711 143.719 24.4767 143.651 24.6139 143.582C26.945 142.692 29.4818 142.075 32.0186 142.555C34.4183 143.034 36.4066 144.61 37.3664 146.802C37.435 147.007 37.7778 146.87 37.7093 146.665C37.1608 144.404 35.3781 142.829 33.4584 142.007Z" fill="#263238"/>
<path d="M19.8831 149.337C19.6088 150.433 19.4031 151.597 19.1289 152.693C18.9232 153.789 18.5804 154.885 18.5118 155.981C18.5118 156.05 18.5804 156.05 18.5804 155.981C18.9232 154.954 19.1289 153.789 19.3346 152.693C19.5402 151.597 19.7459 150.501 20.0202 149.337C19.9516 149.268 19.8831 149.268 19.8831 149.337Z" fill="#263238"/>
<path d="M11.3128 152.145C10.2158 152.693 9.11878 153.378 7.88466 153.858C7.8161 153.858 7.88466 153.995 7.95322 153.926C9.05022 153.378 10.2158 152.899 11.3128 152.145C11.3128 152.214 11.3128 152.145 11.3128 152.145Z" fill="#263238"/>
<path d="M33.047 129.54C33.047 129.54 22.2142 130.225 17.1406 123.1C12.067 115.976 13.2325 105.769 13.2325 105.769C13.2325 105.769 24.6139 107.139 29.139 112.277C33.6641 117.415 33.047 129.54 33.047 129.54Z" fill="#FFC727"/>
<path d="M38.1206 140.226C37.7778 139.061 37.2979 137.897 36.8179 136.801C36.4066 135.705 35.9266 134.609 35.4467 133.581C34.4868 131.389 33.3898 129.265 32.2243 127.21C31.4701 125.909 30.6473 124.607 29.8246 123.374C29.8246 123.169 29.756 122.963 29.756 122.826C29.6875 122.484 29.6875 122.141 29.6189 121.799C29.4818 121.114 29.4132 120.429 29.2761 119.744C29.0018 118.236 28.7276 116.729 28.4533 115.291C28.4533 115.222 28.3162 115.222 28.3162 115.291C28.5219 116.798 28.659 118.236 28.8647 119.744C28.9333 120.497 29.0704 121.182 29.139 121.936C29.2075 122.21 29.2075 122.484 29.2761 122.689C27.6306 120.292 25.848 117.962 23.9282 115.77C23.654 115.496 23.3797 115.154 23.1055 114.88C23.1055 114.811 23.0369 114.743 23.0369 114.606C22.9684 114.4 22.8998 114.195 22.8312 113.989C22.6941 113.578 22.4884 113.099 22.3513 112.688C22.0771 111.866 21.8028 110.975 21.5286 110.085C21.5286 110.016 21.3914 110.016 21.3914 110.085C21.5971 110.975 21.8714 111.866 22.0771 112.756C22.2142 113.167 22.3513 113.578 22.4884 113.989C22.4884 114.058 22.557 114.126 22.557 114.195C21.1857 112.688 19.7459 111.249 18.2376 109.811C18.169 109.742 18.1004 109.811 18.169 109.879C20.9801 112.756 23.5169 115.976 25.848 119.264C25.5737 119.196 25.2995 119.127 25.0252 119.059C24.2025 118.922 23.3797 118.784 22.4884 118.647C20.7058 118.442 18.9918 118.168 17.2091 117.894C17.1406 117.894 17.1406 117.962 17.2091 118.031C18.8546 118.373 20.5687 118.716 22.2142 119.127C22.9684 119.333 23.7911 119.47 24.6139 119.607C25.2995 119.744 25.9165 119.949 26.5336 120.155C26.7393 120.429 26.8764 120.634 27.0821 120.908C27.9048 122.073 28.659 123.237 29.4132 124.402C29.0704 124.333 28.659 124.265 28.3162 124.196C27.4935 124.059 26.6707 123.854 25.7794 123.717C24.1339 123.443 22.4884 123.169 20.8429 122.758C20.7744 122.758 20.7744 122.826 20.8429 122.895C22.4884 123.306 24.1339 123.717 25.7794 124.196C26.6022 124.402 27.3563 124.607 28.1791 124.744C28.5905 124.813 29.0018 124.95 29.4132 125.018C29.6189 125.087 29.756 125.087 29.8932 125.087C31.4701 127.621 32.9785 130.293 34.3497 132.965C34.9668 134.129 35.5153 135.362 36.1323 136.527C36.6808 137.76 37.2293 138.993 37.7093 140.226C37.7778 140.637 38.1892 140.5 38.1206 140.226Z" fill="#263238"/>
<path d="M27.0135 115.36C26.8079 114.332 26.6022 113.305 26.3279 112.277C26.3279 112.208 26.1908 112.208 26.1908 112.277C26.3965 113.305 26.6022 114.332 26.8079 115.36C27.0135 116.387 27.1507 117.415 27.4249 118.374C27.4249 117.346 27.2192 116.319 27.0135 115.36Z" fill="#263238"/>
<path d="M20.7058 115.017C20.2259 114.743 19.6774 114.538 19.1289 114.332C18.8546 114.195 18.5804 114.127 18.3061 113.99C18.169 113.921 18.0319 113.853 17.8948 113.853C17.7576 113.784 17.552 113.716 17.4148 113.647C17.3463 113.579 17.2777 113.716 17.3463 113.716C17.4834 113.716 17.6891 113.853 17.8262 113.921C17.9633 113.99 18.1005 114.058 18.2376 114.127C18.5118 114.264 18.7861 114.332 19.0603 114.469C19.6088 114.675 20.0888 114.949 20.6373 115.086C20.7058 115.154 20.7744 115.086 20.7058 115.017Z" fill="#263238"/>
<path d="M44.0856 121.045C44.0856 121.045 50.6675 108.783 60.6091 106.933C70.6191 105.015 76.7212 115.291 76.7212 115.291C76.7212 115.291 69.4536 124.607 60.2662 126.183C51.1475 127.758 44.0856 121.045 44.0856 121.045Z" fill="#FFC727"/>
<path d="M67.3282 112.414C64.7228 112.071 62.1174 112.071 59.5121 112.482C59.6492 112.414 59.7863 112.345 59.9234 112.276C60.6776 111.934 61.4318 111.523 62.1174 111.112C63.6258 110.29 65.2027 109.468 66.7797 108.851C66.8482 108.851 66.7797 108.714 66.7111 108.783C65.1342 109.536 63.5572 110.084 61.9803 110.838C61.2261 111.18 60.4034 111.591 59.6492 112.002C59.1693 112.277 58.6208 112.482 58.1408 112.825C55.9468 113.304 53.8214 113.989 51.7645 114.948C52.1759 114.469 52.5873 114.058 52.9986 113.578C53.9585 112.551 54.8498 111.523 55.8783 110.564C55.9468 110.495 55.8783 110.427 55.8097 110.495C54.7813 111.454 53.6843 112.345 52.6558 113.304C52.1759 113.784 51.696 114.263 51.216 114.811C51.0103 115.085 50.7361 115.359 50.5304 115.633C46.211 117.962 42.5086 121.524 40.0404 125.84C38.6691 128.306 37.7093 130.909 37.1608 133.649C37.1608 133.718 37.2293 133.786 37.2979 133.718C38.6691 129.128 41.2745 124.744 44.6341 121.319C48.2679 117.62 52.9301 114.88 58.0037 113.578C61.0204 112.825 64.1057 112.551 67.2596 112.756C67.4653 112.619 67.4653 112.414 67.3282 112.414Z" fill="#263238"/>
<path opacity="0.1" d="M76.7212 115.291C76.7212 115.291 69.4536 124.607 60.2662 126.183C53.2729 127.416 47.5137 123.785 45.1825 122.004L44.7026 121.182C44.7026 121.182 49.4334 117.209 58.3465 114.88C67.3282 112.551 76.7212 115.291 76.7212 115.291Z" fill="black"/>
<path d="M61.5689 108.029C60.8148 108.509 60.0606 108.92 59.3749 109.468C58.6893 110.016 58.0037 110.564 57.4552 111.249C57.3866 111.318 57.4552 111.386 57.5238 111.318C58.2094 110.77 58.8264 110.153 59.5121 109.605C60.1977 109.057 60.8833 108.509 61.6375 108.098C61.6375 108.098 61.5689 107.961 61.5689 108.029Z" fill="#263238"/>
<path d="M66.9853 110.084C66.6425 110.221 66.2312 110.358 65.8884 110.495C65.5455 110.633 65.1342 110.77 64.7914 110.975C64.7228 110.975 64.7228 111.112 64.8599 111.112C65.2027 110.975 65.6141 110.838 65.9569 110.632C66.2997 110.495 66.7111 110.29 67.0539 110.153C67.1225 110.153 67.0539 110.084 66.9853 110.084Z" fill="#263238"/>
<path d="M42.7829 136.458C42.7829 136.458 44.5655 148.583 53.6843 152.831C62.803 157.078 73.9787 152.831 73.9787 152.831C73.9787 152.831 69.5907 126.525 42.7829 136.458Z" fill="#FFC727"/>
<path d="M67.671 144.953C66.8482 144.884 65.9569 144.747 65.1342 144.542C64.7228 144.473 64.3114 144.405 63.9 144.336C63.6944 144.268 63.4887 144.268 63.283 144.199C63.0087 143.994 62.8031 143.72 62.5288 143.514C60.8147 142.007 58.895 140.637 56.9067 139.473C55.8097 138.856 54.7127 138.24 53.5471 137.76C53.6157 137.76 53.6843 137.76 53.7528 137.76C54.7813 137.828 55.7411 137.828 56.7696 137.897C58.7579 137.965 60.8147 138.034 62.8031 138.171C62.8716 138.171 62.8716 138.034 62.8031 138.034C60.8147 137.897 58.7579 137.691 56.7696 137.486C55.8097 137.417 54.8498 137.28 53.8214 137.212C53.3415 137.143 52.793 137.143 52.313 137.075C52.1759 137.075 52.0388 137.075 51.9017 137.006C51.3532 136.801 50.8732 136.595 50.3247 136.458C47.8565 135.705 45.114 135.362 42.5772 136.047C40.2461 136.664 37.9835 138.171 37.3665 140.569C37.3665 140.637 37.5036 140.706 37.5036 140.637C38.3949 138.582 40.5889 137.623 42.6457 137.143C44.017 136.869 45.3882 136.869 46.7595 137.075C46.828 137.691 47.0337 138.308 47.2394 138.925C47.5137 139.747 47.7194 140.637 47.9936 141.459C48.5421 143.172 49.0906 144.884 49.5705 146.597C49.5705 146.665 49.7077 146.665 49.7077 146.597C49.2963 144.884 48.9535 143.172 48.5421 141.459C48.3364 140.637 48.1307 139.815 47.925 138.925C47.7879 138.377 47.6508 137.76 47.4451 137.212C48.2679 137.349 49.022 137.554 49.8448 137.76C51.216 138.171 52.6558 138.651 53.9585 139.267C54.0956 140.158 54.3013 140.98 54.507 141.87C54.7813 142.966 55.0555 143.994 55.3983 145.021C55.3983 145.09 55.5355 145.09 55.4669 145.021C55.4669 144.953 55.4669 144.884 55.3983 144.816C55.1926 143.857 54.987 142.829 54.7813 141.87C54.6441 141.048 54.4385 140.295 54.3013 139.473C55.4669 139.952 56.5639 140.569 57.6609 141.185C57.6609 141.459 57.7294 141.665 57.798 141.939C57.8666 142.35 57.9351 142.761 58.0037 143.172C58.2094 144.131 58.3465 145.021 58.6208 145.98C59.0321 147.761 59.5121 149.543 60.1977 151.255V151.324L60.2663 151.392C60.3348 151.461 60.4034 151.392 60.3348 151.324C59.9234 149.542 59.4435 147.761 59.0321 145.912C58.8264 145.021 58.6208 144.131 58.4836 143.172C58.4151 142.692 58.2779 142.281 58.2094 141.802C58.2094 141.665 58.1408 141.528 58.1408 141.391C59.3749 142.144 60.5405 142.898 61.7061 143.788C63.6258 145.227 65.5455 146.939 67.1225 148.789C67.191 148.857 67.3282 148.789 67.2596 148.652C66.574 147.761 65.8884 146.871 65.0656 145.98C64.5857 145.501 64.1057 145.021 63.6258 144.542C63.6944 144.542 63.6944 144.542 63.7629 144.542C64.1743 144.61 64.6542 144.679 65.0656 144.747C65.8884 144.884 66.7797 144.953 67.6024 145.021C67.7395 145.021 67.7395 144.953 67.671 144.953Z" fill="#263238"/>
<path d="M61.2261 149.063C61.2261 148.926 61.2261 148.858 61.1575 148.721C61.1575 148.583 61.089 148.446 61.0204 148.309C60.8147 147.487 60.6776 146.665 60.5405 145.843C60.5405 145.775 60.4719 145.775 60.4719 145.843C60.5405 147.008 60.8147 148.035 61.2261 149.063C61.2261 149.132 61.2947 149.132 61.2261 149.063Z" fill="#263238"/>
<path d="M53.6157 148.858C53.6157 148.789 53.5471 148.789 53.6157 148.858C53.2729 147.761 53.0672 146.665 52.8615 145.569C52.7244 145.021 52.6558 144.405 52.5187 143.857C52.4501 143.583 52.3816 143.24 52.3816 142.966C52.313 142.692 52.313 142.418 52.1759 142.144C52.1759 142.076 52.1073 142.144 52.1073 142.144C52.0388 142.624 52.2445 143.24 52.313 143.788C52.4501 144.405 52.5187 144.953 52.6558 145.569C52.9301 146.734 53.2043 147.967 53.5471 149.132C53.5471 149.2 53.6843 149.2 53.6843 149.132C53.6157 149.063 53.6157 148.926 53.6157 148.858Z" fill="#263238"/>
<path d="M66.8482 141.459C65.2027 141.253 63.4887 140.979 61.8432 140.774C61.7746 140.774 61.7746 140.842 61.8432 140.911C63.4887 141.185 65.2027 141.39 66.8482 141.596C66.9168 141.527 66.9168 141.459 66.8482 141.459Z" fill="#263238"/>
<path d="M38.1206 107.961C38.1206 107.961 32.4985 83.4368 58.895 73.5039C58.895 73.5039 66.1626 105.769 38.1206 107.961Z" fill="#FFC727"/>
<path d="M43.8113 94.0546C43.8799 93.9861 44.017 93.9176 44.0856 93.8491C44.5655 93.5751 45.0454 93.3011 45.5939 93.0271L48.6792 91.3145C50.6675 90.2184 52.6558 89.0539 54.7127 87.8893C54.7813 87.8208 54.7127 87.7523 54.6441 87.8208C52.5873 88.9169 50.5304 89.9444 48.4735 91.0405L45.4568 92.616C45.0454 92.8215 44.634 93.0271 44.2227 93.3011C45.114 91.657 46.0739 90.0129 47.1023 88.4374C48.4735 86.3138 49.9819 84.3272 51.5588 82.4091C51.6274 82.3406 51.4903 82.2036 51.4217 82.2721C49.0906 84.4642 47.1023 87.0673 45.3197 89.7389C45.3197 89.6704 45.3197 89.5334 45.3197 89.4649C45.3197 88.8484 45.3882 88.2319 45.3882 87.6153C45.3882 86.4508 45.3197 85.2177 45.3882 84.0532C45.3882 83.9847 45.2511 83.9847 45.2511 84.0532C45.1825 85.2177 45.0454 86.3823 44.9769 87.6153C44.9769 88.2319 44.9083 88.7799 44.9083 89.3964C44.9083 89.7389 44.8397 90.0814 44.9083 90.4239C44.3598 91.3145 43.8113 92.1365 43.3314 93.0271C42.4401 94.6026 41.6859 96.2467 41.0002 97.9593C41.0002 97.3427 40.9317 96.7262 40.9317 96.1097C40.8631 94.7396 40.6574 93.4381 40.6574 92.068C40.6574 91.9995 40.5203 91.9995 40.5203 92.068C40.5203 93.4381 40.4517 94.7396 40.5203 96.1097C40.5203 96.7947 40.5889 97.4798 40.5889 98.0963C40.5889 98.3703 40.5889 98.5758 40.6574 98.8498C39.8347 101.042 39.1491 103.303 38.6691 105.563C38.1892 108.029 37.9149 110.495 37.7093 112.961C37.9149 110.769 38.532 108.509 39.0805 106.385C39.4233 105.221 39.7661 104.056 40.1089 102.96C41.2059 102.412 42.2344 101.795 43.3314 101.179C44.4284 100.562 45.5254 99.9459 46.6224 99.3978C48.8163 98.1648 51.0103 96.9317 53.2729 95.9042C53.3415 95.9042 53.2729 95.7672 53.2043 95.8357C50.8732 96.8632 48.6107 97.8908 46.3481 98.9868C45.2511 99.5348 44.0855 100.151 43.0571 100.768C42.1658 101.316 41.2059 101.795 40.3146 102.412C40.5889 101.658 40.8631 100.905 41.1374 100.151C41.8916 98.0278 42.7829 96.0412 43.8113 94.0546Z" fill="#263238"/>
<path d="M41.6173 88.4376C41.6173 88.3691 41.4802 88.3691 41.4802 88.4376C41.5487 89.8077 41.6173 91.2462 41.7544 92.6163C41.7544 92.6848 41.8916 92.6848 41.8916 92.6163C41.823 91.2462 41.6859 89.8762 41.6173 88.4376Z" fill="#263238"/>
<path d="M54.2328 93.1642C52.5873 93.8492 50.9418 94.4657 49.2963 95.1508C49.2277 95.1508 49.2963 95.2193 49.2963 95.2193C50.9418 94.6027 52.5873 93.9177 54.2328 93.3012C54.3013 93.2327 54.3013 93.0957 54.2328 93.1642Z" fill="#263238"/>
<path d="M56.701 81.793C55.0555 82.5465 53.5471 83.3685 52.0388 84.3276C51.9702 84.3961 52.0388 84.4646 52.1073 84.4646C53.6157 83.574 55.1926 82.6835 56.7696 81.93C56.8381 81.8615 56.7696 81.793 56.701 81.793Z" fill="#263238"/>
<path d="M56.3582 160.982H18.3062V201.057H56.3582V160.982Z" fill="#455A64"/>
<path d="M17.6205 175.163H15.7008V243.734H17.6205V175.163Z" fill="#263238"/>
<path d="M58.6893 175.163H56.7696V243.734H58.6893V175.163Z" fill="#263238"/>
<path d="M39.2176 175.163H37.2979V243.734H39.2176V175.163Z" fill="#263238"/>
<path d="M57.798 198.454H16.6606V204.002H57.798V198.454Z" fill="#263238"/>
<path d="M209.252 221.333V250.858C209.252 256.475 209.183 261.476 208.909 264.01C208.909 264.01 208.909 264.01 208.909 264.079C208.772 265.038 208.704 265.654 208.498 265.791C208.498 265.791 208.498 265.791 208.498 265.86C206.852 267.025 161.738 268.532 160.093 268.052C158.516 267.573 159.75 262.983 161.464 261.544C163.178 260.106 180.182 251.748 180.182 251.748L180.456 222.292L209.252 221.333Z" fill="#AD6359"/>
<path d="M209.252 244.761V250.79C209.252 256.407 209.183 261.407 208.909 263.942C208.909 263.942 208.909 263.942 208.909 264.011C208.772 264.97 208.635 265.586 208.498 265.723C208.498 265.723 208.498 265.723 208.498 265.792C206.852 266.956 161.738 268.463 160.093 267.984C158.516 267.504 159.75 262.915 161.464 261.476C163.178 260.037 180.182 251.68 180.182 251.68L180.113 245.515L209.252 244.761Z" fill="#C7C7C7"/>
<path d="M160.093 268.052C161.67 268.532 206.784 266.956 208.498 265.86C209.115 265.449 209.321 258.873 209.252 250.926C209.252 250.858 209.252 250.789 209.252 250.652L180.113 251.337V251.817C180.113 251.817 163.11 260.106 161.396 261.613C159.75 262.983 158.447 267.573 160.093 268.052Z" fill="#263238"/>
<path d="M160.504 266.271C168.115 265.792 198.762 264.764 206.304 264.901C206.372 264.901 206.372 264.97 206.304 264.97C198.762 265.586 168.115 266.408 160.504 266.477C160.367 266.408 160.367 266.271 160.504 266.271Z" fill="#455A64"/>
<path d="M177.713 251.954C180.662 251.269 184.364 251.611 186.695 253.666C186.764 253.735 186.695 253.872 186.558 253.872C183.541 253.05 180.799 252.57 177.713 252.365C177.508 252.296 177.508 251.954 177.713 251.954Z" fill="#455A64"/>
<path d="M175.588 253.324C178.536 252.639 182.238 252.982 184.57 255.037C184.638 255.105 184.57 255.242 184.432 255.242C181.416 254.42 178.673 253.941 175.588 253.735C175.382 253.667 175.382 253.324 175.588 253.324Z" fill="#455A64"/>
<path d="M173.462 254.694C176.411 254.009 180.113 254.352 182.444 256.407C182.513 256.475 182.444 256.612 182.307 256.612C179.29 255.79 176.548 255.311 173.462 255.105C173.257 255.037 173.257 254.763 173.462 254.694Z" fill="#455A64"/>
<path d="M211.789 111.934V113.92L210.692 200.097V200.44L210.006 252.091L178.468 251.474L184.57 112.071L184.638 110.221L184.912 93.9858H211.583L211.789 111.934Z" fill="#455A64"/>
<path d="M179.77 246.199C184.707 246.131 183.267 246.131 188.203 246.131C190.603 246.131 206.441 246.199 208.703 246.61C208.772 246.61 208.772 246.679 208.703 246.679C206.441 247.021 190.603 246.679 188.203 246.61C183.267 246.473 184.707 246.473 179.77 246.336C179.702 246.336 179.702 246.199 179.77 246.199Z" fill="#263238"/>
<path d="M193.894 121.045C193.894 120.976 193.757 120.976 193.757 121.045C193.757 129.265 193.414 133.923 193.208 142.143C193.003 150.364 192.797 158.653 192.523 166.873C192.043 183.382 191.426 199.823 190.809 216.332C190.466 225.58 190.055 234.828 189.506 244.076C189.506 244.144 189.575 244.144 189.575 244.076C190.74 227.635 191.906 211.126 192.591 194.617C193.277 178.108 193.688 161.667 193.826 145.158C193.963 135.91 193.894 130.292 193.894 121.045Z" fill="#263238"/>
<path d="M211.789 111.934L210.692 200.097L189.506 93.9858H211.583L211.789 111.934Z" fill="#263238"/>
<path d="M244.63 219.757L248.607 249.008C249.429 254.625 249.978 259.489 250.047 262.092C250.047 262.092 250.047 262.092 250.047 262.161C250.047 263.12 250.047 263.736 249.909 263.942C249.909 263.942 249.909 263.942 249.909 264.01C248.401 265.38 203.904 272.984 202.259 272.71C200.613 272.436 201.23 267.778 202.739 266.065C204.247 264.421 219.948 253.872 219.948 253.872L216.245 224.621L244.63 219.757Z" fill="#AD6359"/>
<path d="M247.784 242.98C247.784 242.98 248.607 248.94 248.607 249.008C249.429 254.625 249.978 259.489 250.047 262.092C250.047 262.092 250.047 262.092 250.047 262.161C250.047 263.12 249.978 263.736 249.909 263.942C249.909 263.942 249.909 263.942 249.909 264.01C248.401 265.38 203.904 272.984 202.259 272.71C200.613 272.436 201.23 267.778 202.739 266.065C204.247 264.421 219.948 253.872 219.948 253.872L219.056 247.775L247.784 242.98Z" fill="#C7C7C7"/>
<path d="M202.259 272.641C203.904 272.915 248.401 265.312 249.909 263.942C250.458 263.462 249.772 256.886 248.675 249.008C248.675 248.939 248.675 248.871 248.607 248.734L219.879 253.324L219.948 253.803C219.948 253.803 204.247 264.353 202.739 265.997C201.23 267.709 200.613 272.367 202.259 272.641Z" fill="#263238"/>
<path d="M202.464 270.792C209.938 269.353 240.174 264.147 247.715 263.256C247.784 263.256 247.784 263.256 247.715 263.325C240.311 264.969 210.075 269.901 202.533 270.929C202.327 270.997 202.327 270.86 202.464 270.792Z" fill="#455A64"/>
<path d="M217.548 254.283C220.428 253.255 224.061 253.049 226.735 254.762C226.804 254.831 226.735 254.968 226.667 254.968C223.582 254.557 220.77 254.42 217.685 254.625C217.411 254.694 217.342 254.351 217.548 254.283Z" fill="#455A64"/>
<path d="M215.628 255.927C218.508 254.899 222.142 254.694 224.816 256.406C224.884 256.475 224.816 256.612 224.747 256.612C221.662 256.201 218.851 256.064 215.765 256.269C215.491 256.338 215.423 256.064 215.628 255.927Z" fill="#455A64"/>
<path d="M213.709 257.571C216.588 256.543 220.222 256.338 222.896 258.05C222.964 258.119 222.896 258.256 222.827 258.256C219.742 257.845 216.931 257.708 213.846 257.913C213.571 257.982 213.503 257.708 213.709 257.571Z" fill="#455A64"/>
<path d="M187.655 93.9858C187.792 94.5339 189.643 103.234 191.563 110.632C192.934 116.044 194.443 120.839 195.265 121.319C196.225 121.867 200.75 123.922 202.327 124.538L209.321 191.466L218.782 253.529L249.772 248.734L227.695 112.961L224.13 93.9858H187.655Z" fill="#455A64"/>
<path d="M218.988 247.364C223.856 246.611 222.416 246.748 227.352 245.994C229.752 245.652 245.453 243.323 247.715 243.391C247.784 243.391 247.784 243.46 247.715 243.46C245.521 244.145 229.821 246.2 227.421 246.474C222.553 247.09 223.924 246.885 219.056 247.433C218.919 247.501 218.919 247.364 218.988 247.364Z" fill="#263238"/>
<path d="M236.951 228.8C236.197 224.484 235.443 220.168 234.62 215.921C233.043 207.29 231.398 198.727 229.821 190.096C226.598 172.901 223.376 155.639 220.222 138.444C218.439 128.717 218.508 129.607 216.931 119.88C216.931 119.811 216.794 119.811 216.794 119.88C218.302 128.58 217.548 126.662 218.988 135.362C220.359 143.993 221.867 152.556 223.376 161.187C226.461 178.45 229.752 195.644 233.043 212.907C233.934 217.702 234.894 222.566 235.854 227.361C236.814 232.293 237.911 237.157 238.939 242.089C238.939 242.226 239.145 242.158 239.145 242.089C238.391 237.637 237.705 233.184 236.951 228.8Z" fill="#263238"/>
<path d="M228.381 120.497C227.558 120.291 226.667 120.223 225.844 120.086C225.158 119.949 224.473 119.88 223.787 119.743C222.553 119.469 221.25 119.058 220.222 118.236C219.056 117.346 218.439 115.976 217.891 114.605C217.548 113.852 217.205 113.03 216.862 112.276C216.725 111.865 216.52 111.523 216.314 111.18C216.108 110.769 215.834 110.29 215.697 109.81C215.697 109.742 215.56 109.81 215.628 109.81C215.765 110.084 215.834 110.495 215.903 110.769C216.04 111.18 216.108 111.523 216.245 111.934C216.451 112.619 216.657 113.304 216.862 113.92C217.274 115.153 217.617 116.387 218.302 117.483C219.536 119.469 221.799 120.291 223.993 120.565C224.61 120.634 225.296 120.702 225.913 120.702C226.735 120.771 227.558 120.839 228.312 120.702C228.518 120.702 228.518 120.497 228.381 120.497Z" fill="#263238"/>
<path d="M192.797 120.085C196.088 121.181 199.242 122.825 202.259 124.469C202.396 124.538 202.327 124.743 202.19 124.675C199.036 123.305 195.745 122.003 192.66 120.496C192.386 120.359 192.591 120.017 192.797 120.085Z" fill="#263238"/>
<path d="M191.837 98.3698C191.837 98.2328 192.043 98.2328 192.043 98.3698C192.043 102.138 192.249 105.494 192.591 108.988C192.728 110.632 194.031 119.674 196.911 118.989C197.391 118.852 197.596 118.441 197.734 117.688C197.802 116.797 197.528 115.77 197.322 114.948C196.979 113.029 196.774 111.18 196.568 109.262C196.294 105.7 196.225 102.138 196.705 98.5753C196.705 98.4383 196.911 98.4383 196.911 98.5753C196.911 103.508 197.048 108.44 197.802 113.372C198.145 115.701 199.31 119.263 196.911 119.606C194.374 119.948 192.797 114.057 192.454 112.413C191.563 107.823 191.494 102.891 191.837 98.3698Z" fill="#263238"/>
<path d="M196.842 119.195C197.116 119.811 197.322 120.428 197.459 121.044C197.596 121.524 197.802 122.072 197.734 122.551C197.734 122.62 197.596 122.688 197.528 122.62C197.185 122.209 197.048 121.592 196.842 121.113C196.637 120.565 196.431 119.948 196.225 119.4C196.088 119.058 196.637 118.852 196.842 119.195Z" fill="#263238"/>
<path d="M228.038 114.948C224.267 114.674 184.57 110.153 184.57 110.153L184.912 93.9858H187.655H224.13L227.695 112.961L228.038 114.948Z" fill="#263238"/>
<path d="M200.27 56.8574C195.745 71.0376 188.066 85.6972 185.804 88.5743C179.839 96.3152 161.944 103.987 156.459 104.947C154.128 105.358 148.437 90.1499 149.877 88.0263C151.317 85.9027 173.6 77.4083 174.697 76.3123C175.451 75.5588 184.844 63.4337 191.152 56.1724C199.105 47.13 201.436 53.1583 200.27 56.8574Z" fill="#AD6359"/>
<path d="M154.676 85.0804L163.452 102.891C163.452 102.891 182.17 94.8079 186.558 89.0536C190.946 83.2994 199.105 63.7075 200.27 57.4737C201.436 51.24 199.379 46.7873 191.014 55.8982C182.65 65.0091 175.725 74.0515 174.217 75.627C172.845 77.1341 154.676 85.0804 154.676 85.0804Z" fill="#EBEBEB"/>
<path d="M155.431 84.19L165.989 102.617C165.989 102.617 182.444 94.7394 186.626 89.6017C190.809 84.3955 197.734 68.5713 199.928 60.0769C202.122 51.514 200.819 45.4858 191.152 55.8982C181.484 66.3107 175.999 73.983 174.011 75.6271C173.051 76.4491 155.431 84.19 155.431 84.19Z" fill="#37474F"/>
<path d="M159.887 85.9025C160.417 85.9025 160.847 85.4731 160.847 84.9434C160.847 84.4138 160.417 83.9844 159.887 83.9844C159.357 83.9844 158.927 84.4138 158.927 84.9434C158.927 85.4731 159.357 85.9025 159.887 85.9025Z" fill="#263238"/>
<path d="M164.412 83.7789C164.942 83.7789 165.372 83.3495 165.372 82.8199C165.372 82.2902 164.942 81.8608 164.412 81.8608C163.882 81.8608 163.452 82.2902 163.452 82.8199C163.452 83.3495 163.882 83.7789 164.412 83.7789Z" fill="#263238"/>
<path d="M199.859 60.0769C197.665 68.6398 190.809 84.464 186.558 89.6017C184.775 91.7938 180.73 94.534 176.685 96.8631L197.871 50.4865C201.23 49.596 201.367 54.2542 199.859 60.0769Z" fill="#263238"/>
<path d="M230.163 108.166C230.026 108.303 182.65 108.44 182.17 107.961C181.553 107.276 192.249 55.9669 197.116 49.5961C198.145 48.2261 201.573 47.8836 204.521 48.2261C205.344 48.2946 206.098 48.5001 206.784 48.7056H206.852C207.538 48.9111 208.086 49.1851 208.498 49.5276C216.588 56.0354 223.444 78.6414 225.09 85.4917C227.695 96.6577 230.506 107.755 230.163 108.166Z" fill="#EBEBEB"/>
<path d="M208.361 48.9111C208.361 48.9111 204.521 69.9416 203.836 75.4218C203.15 80.902 204.178 109.742 204.178 109.742L233.934 111.934C233.934 111.934 227.49 92.8216 227.421 91.5885C227.421 91.5885 222.073 68.7085 217.068 59.1181C213.846 52.9528 208.361 48.9111 208.361 48.9111Z" fill="#37474F"/>
<path d="M233.934 111.934L220.428 110.906L210.76 50.9663V51.0348L216.794 58.7757C216.862 58.9127 216.931 59.0497 217 59.1182C222.005 68.7086 227.352 91.5886 227.352 91.5886C227.49 92.8216 233.934 111.934 233.934 111.934Z" fill="#263238"/>
<path d="M196.842 49.3223C196.842 49.3223 193.688 70.6267 193.346 72.4078C193.003 74.1889 188.203 108.92 188.203 108.92L180.73 109.125L184.638 93.2327C184.638 93.2327 193.277 53.912 196.842 49.3223Z" fill="#37474F"/>
<path d="M201.162 61.036L199.036 56.9258L196.362 59.8714L196.979 62.8855L199.722 63.2281L201.162 61.036Z" fill="#263238"/>
<path d="M199.722 63.2283L200.956 93.4381L195.334 103.44L192.386 92.205L196.979 62.8857L199.722 63.2283Z" fill="#263238"/>
<path d="M198.471 146.769L198.435 182.254L257.124 182.314L257.16 146.829L198.471 146.769Z" fill="#FFC727"/>
<path opacity="0.1" d="M198.48 146.77L198.463 163.485L257.152 163.544L257.169 146.83L198.48 146.77Z" fill="black"/>
<path d="M197.106 158.118L258.538 158.18L258.555 141.602L197.123 141.54L197.106 158.118Z" fill="#FFC727"/>
<path d="M214.943 132.142L214.874 141.596H219.331V136.184H236.334V141.596H240.791V132.142H214.943Z" fill="#263238"/>
<path d="M246.096 162.158L250.072 162.162L250.08 154.215L246.104 154.211L246.096 162.158Z" fill="#263238"/>
<path d="M205.547 162.075L209.523 162.079L209.532 154.133L205.555 154.129L205.547 162.075Z" fill="#263238"/>
<path d="M214.874 55.2132C228.107 67.2012 236.471 84.3269 237.088 87.8206C238.46 96.178 240.174 110.838 239.899 117.277C239.762 119.674 221.73 116.797 221.73 114.194C221.867 106.248 220.77 88.7111 220.702 88.3686C220.359 86.245 216.451 76.5861 212.474 66.1051C208.566 55.6927 209.321 50.1439 214.874 55.2132Z" fill="#AD6359"/>
<path d="M219.879 139.198C221.662 140.088 223.102 138.581 223.102 138.581C223.102 138.581 223.856 139.951 225.364 140.362C227.01 140.842 228.518 138.444 228.518 138.444C228.518 138.444 229.615 139.677 231.192 139.951C232.837 140.225 234.689 138.033 234.689 138.033C234.689 138.033 236.334 138.581 237.842 137.896C239.557 137.074 240.996 132.21 241.339 129.402C241.682 126.593 240.036 118.236 239.899 116.66L221.799 114.263C221.799 114.263 216.588 126.456 216.657 129.813C216.657 132.621 217.891 138.17 219.879 139.198Z" fill="#AD6359"/>
<path d="M222.759 138.444C222.005 135.43 222.142 132.347 222.142 129.265C222.142 129.196 222.279 129.196 222.279 129.265C222.279 132.347 222.827 135.362 222.964 138.376C222.896 138.513 222.759 138.513 222.759 138.444Z" fill="#263238"/>
<path d="M228.175 138.376C228.038 137.691 228.107 136.937 228.107 136.252C228.107 135.498 228.175 134.745 228.244 133.991C228.381 132.484 228.518 130.977 228.724 129.539C228.724 129.47 228.861 129.47 228.861 129.539C228.724 131.046 228.655 132.553 228.587 133.991C228.587 134.745 228.518 135.498 228.518 136.252C228.518 136.937 228.518 137.691 228.381 138.376C228.381 138.444 228.244 138.444 228.175 138.376Z" fill="#263238"/>
<path d="M234.551 137.965C234.414 137.348 234.551 136.663 234.62 136.047C234.689 135.362 234.757 134.677 234.826 133.992C234.963 132.622 235.031 131.252 235.169 129.881C235.169 129.813 235.306 129.813 235.306 129.881C235.237 131.252 235.169 132.69 235.1 134.06C235.031 134.745 235.031 135.43 234.963 136.115C234.894 136.732 234.894 137.485 234.551 137.965C234.62 138.033 234.62 138.033 234.551 137.965Z" fill="#263238"/>
<path d="M220.908 114.263L240.928 115.359C240.928 115.359 239.419 93.438 237.842 87.3412C236.266 81.2444 222.69 60.9675 214.668 53.5692C207.127 46.6504 207.127 52.4047 210.006 60.488C212.817 68.5714 219.948 88.2317 220.153 89.6703C220.428 91.1774 220.908 114.263 220.908 114.263Z" fill="#37474F"/>
<path d="M221.799 110.221C222.553 110.153 223.307 110.221 224.13 110.221C224.884 110.221 225.638 110.221 226.461 110.29C227.969 110.358 229.409 110.427 230.918 110.564C232.426 110.632 233.866 110.769 235.374 110.838C236.883 110.906 238.46 110.975 239.968 111.18C240.036 111.18 240.036 111.317 239.968 111.317C238.46 111.386 236.883 111.249 235.374 111.18C233.866 111.112 232.357 111.043 230.849 110.975C229.341 110.906 227.832 110.838 226.324 110.769C225.57 110.701 224.816 110.701 224.13 110.564C223.376 110.495 222.622 110.495 221.867 110.358C221.73 110.358 221.73 110.221 221.799 110.221Z" fill="#263238"/>
<path d="M199.79 56.3781C200.545 56.3781 205.755 52.2679 207.332 49.1168C207.469 48.9112 207.058 46.6506 206.647 43.9105C206.441 42.2665 206.235 40.4169 206.167 38.7043C206.167 38.3618 205.001 39.0468 205.001 39.0468L202.807 39.6633L195.54 41.6499C195.54 41.6499 196.705 45.2121 196.774 48.1577C196.774 48.4317 196.774 48.6372 196.705 48.8427C196.705 48.8427 196.705 48.9112 196.705 48.9798C196.637 50.3498 198.488 56.4466 199.79 56.3781Z" fill="#AD6359"/>
<path d="M196.842 48.9114C196.842 48.9114 196.842 48.9799 196.842 49.0484C197.185 49.1169 197.528 49.1169 197.939 49.0484C205.138 48.6374 205.755 39.458 205.755 39.458L202.944 39.6635L195.677 41.6501C195.677 41.6501 196.842 45.2123 196.911 48.1579C196.842 48.4319 196.842 48.7059 196.842 48.9114Z" fill="#263238"/>
<path d="M205.961 24.25C207.675 27.8121 207.401 38.9781 205.138 41.7867C201.847 45.8969 195.54 47.1985 191.837 43.0198C188.272 38.9781 188.889 24.4555 191.563 21.7839C195.334 17.8792 203.356 18.9753 205.961 24.25Z" fill="#AD6359"/>
<path d="M196.362 32.402C196.362 32.3335 196.431 32.402 196.362 32.402C196.362 33.2241 196.431 34.1146 197.116 34.3201V34.3886C196.294 34.2516 196.225 33.0871 196.362 32.402Z" fill="#263238"/>
<path d="M197.048 31.6484C198.282 31.5799 198.282 33.9775 197.185 34.046C196.088 34.1145 196.019 31.6484 197.048 31.6484Z" fill="#263238"/>
<path d="M192.043 32.6076C192.043 32.5391 191.974 32.6076 192.043 32.6076C192.043 33.4296 191.906 34.3202 191.289 34.5257V34.5942C192.111 34.4572 192.18 33.2926 192.043 32.6076Z" fill="#263238"/>
<path d="M191.357 31.854C190.123 31.7855 190.123 34.1831 191.22 34.2516C192.317 34.3201 192.386 31.854 191.357 31.854Z" fill="#263238"/>
<path d="M198.008 30.4837C197.665 30.4152 197.391 30.2782 197.048 30.1412C196.705 30.0042 196.362 29.9357 196.157 29.6617C196.019 29.5247 196.088 29.1822 196.225 29.0452C196.568 28.7026 197.048 28.7711 197.528 28.9081C198.008 29.0452 198.351 29.2507 198.625 29.7302C198.899 30.0727 198.419 30.6207 198.008 30.4837Z" fill="#263238"/>
<path d="M190.397 30.6206C190.74 30.5521 191.014 30.4151 191.357 30.3466C191.7 30.2096 192.043 30.2096 192.317 29.8671C192.454 29.7301 192.454 29.3876 192.249 29.2506C191.906 28.9081 191.426 28.9081 190.946 29.0451C190.466 29.1821 190.123 29.3876 189.849 29.7986C189.575 30.1411 189.917 30.6891 190.397 30.6206Z" fill="#263238"/>
<path d="M197.185 39.3208C196.979 39.5263 196.842 39.7318 196.568 39.8003C196.294 39.8003 196.019 39.7318 195.745 39.5948C195.745 39.5948 195.677 39.5948 195.745 39.6633C195.951 39.9373 196.362 40.1428 196.705 40.0743C197.048 40.0058 197.185 39.7318 197.254 39.3893C197.254 39.3208 197.254 39.3208 197.185 39.3208Z" fill="#263238"/>
<path d="M196.362 37.1284C195.951 37.8135 195.334 38.156 194.648 38.293C194.374 38.3615 194.031 38.3615 193.757 38.3615C193.688 38.3615 193.62 38.3615 193.551 38.3615C193.483 38.3615 193.414 38.3615 193.414 38.3615C193.346 38.3615 193.277 38.293 193.277 38.2245V38.156V38.0875C193.277 37.5395 193.277 36.6489 193.277 36.6489C193.071 36.7859 191.974 37.2654 192.043 36.9914C192.18 34.4568 192.249 31.7167 192.866 29.2506C192.866 29.1821 193.003 29.1821 193.003 29.2506C193.003 31.6482 192.591 34.0458 192.523 36.4434C192.866 36.3064 193.414 36.0324 193.757 36.0324C193.826 36.0324 193.62 37.745 193.688 38.019C194.648 38.156 195.402 37.8135 196.294 37.1284C196.362 36.9914 196.431 37.0599 196.362 37.1284Z" fill="#263238"/>
<path d="M194.1 38.019C194.1 38.019 194.648 38.704 195.334 38.9095C195.608 38.978 195.882 39.0465 196.157 38.978C196.774 38.841 196.774 38.293 196.637 37.8134C196.568 37.4024 196.362 37.1284 196.362 37.1284C196.362 37.1284 195.471 37.9505 194.1 38.019Z" fill="#263238"/>
<path d="M195.334 38.9779C195.608 39.0464 195.882 39.1149 196.157 39.0464C196.774 38.9094 196.774 38.3614 196.637 37.8818C196.019 37.8818 195.402 38.3614 195.334 38.9779Z" fill="#EB9481"/>
<path d="M189.917 25.5516C190.329 24.5925 190.74 23.6335 191.357 23.428C191.906 23.2225 192.317 24.5925 193.62 24.661C195.402 24.7295 196.225 23.0854 198.693 22.8799C202.259 22.5374 203.836 25.4831 204.041 30.4838C204.178 34.9365 206.921 35.3475 206.921 35.3475C206.921 35.3475 208.361 25.4145 205.55 22.1949C202.67 18.9753 196.294 17.6737 192.043 20.8248C190.466 22.0579 189.917 25.5516 189.917 25.5516Z" fill="#263238"/>
<path d="M204.59 33.6349C204.59 33.6349 206.578 29.7987 208.292 30.4838C210.006 31.1688 208.841 36.512 207.058 37.4026C205.275 38.3616 204.384 36.7176 204.384 36.7176L204.59 33.6349Z" fill="#AD6359"/>
<path d="M207.949 31.9907C206.715 32.7443 206.167 34.0458 205.892 35.4159C206.235 34.8678 206.715 34.5253 207.401 34.9364C207.469 34.9364 207.401 35.0049 207.401 35.0049C206.852 34.9364 206.441 35.1419 206.167 35.6214C205.961 35.9639 205.824 36.3749 205.687 36.7174C205.618 36.8544 205.413 36.7859 205.481 36.6489C205.138 34.9364 206.167 32.4017 207.949 31.9907Z" fill="#263238"/>
<path d="M196.774 49.1851L199.379 55.5559L207.195 47.541L209.458 50.0756C209.458 50.0756 201.779 62.8172 201.779 62.2007L199.173 56.7889L195.402 60.5566L195.677 51.0347L196.774 49.1851Z" fill="#EBEBEB"/>
<path d="M195.265 55.8297C195.334 54.2541 195.402 52.6785 195.608 51.103C195.608 51.0345 195.677 51.0345 195.745 51.103C196.088 52.61 195.677 58.6383 195.677 60.0769C195.814 59.9399 199.173 56.7202 199.173 56.7887C199.722 57.6793 201.642 61.5839 201.779 61.9949C203.013 60.0084 207.606 52.61 209.046 50.6919C209.115 50.6234 209.183 50.6919 209.115 50.7605C208.018 52.884 201.916 62.817 201.779 62.7485C201.71 62.817 199.31 57.8848 199.036 56.9942C198.488 57.6793 195.128 61.2414 195.128 61.0359C195.06 59.3918 195.128 57.4052 195.265 55.8297Z" fill="#263238"/>
<path d="M108.191 55.6932C116.83 72.6819 125.606 113.647 126.429 119.127C126.977 122.826 107.437 126.183 107.437 123.648C107.437 120.36 103.46 81.7243 103.872 66.4481C104.009 58.0223 106.409 52.1995 108.191 55.6932Z" fill="#EB9481"/>
<path d="M107.3 121.935C106.957 124.196 107.711 131.937 109.22 137.691C109.905 140.5 112.853 148.309 115.047 147.967C117.241 147.556 116.624 145.226 116.624 145.226C116.624 145.226 118.338 148.378 120.532 147.761C122.726 147.145 121.561 143.514 121.561 143.514C121.561 143.514 123.549 146.597 125.675 145.843C127.8 145.089 126.086 141.596 126.086 141.596C126.086 141.596 127.8 144.473 129.308 143.171C131.091 141.527 127.389 136.527 126.703 133.375C126.566 132.69 124.783 118.716 124.783 118.716L107.3 121.935Z" fill="#EB9481"/>
<path d="M126.086 141.596C123.343 137.897 122.795 135.842 122.452 131.32C122.452 131.252 122.315 131.252 122.315 131.32C122.247 135.773 122.589 138.513 125.949 141.733C126.086 141.938 126.223 141.801 126.086 141.596Z" fill="#263238"/>
<path d="M121.629 143.788C119.093 139.678 118.476 137.486 117.79 132.759C117.79 132.69 117.653 132.69 117.653 132.759C117.996 137.417 118.338 140.157 121.424 143.856C121.492 143.993 121.698 143.925 121.629 143.788Z" fill="#263238"/>
<path d="M116.419 144.952C114.293 140.842 113.471 138.376 113.402 133.718C113.402 133.581 113.265 133.581 113.265 133.718C112.922 138.445 113.882 141.527 116.35 145.021C116.419 145.226 116.556 145.158 116.419 144.952Z" fill="#263238"/>
<path d="M126.292 118.1C126.292 118.1 129.446 122.895 130.337 125.361C131.228 127.827 131.365 138.034 129.103 138.239C126.223 138.445 124.989 132.485 124.783 129.54C124.783 129.54 118.133 130.019 116.35 125.909C114.636 121.799 126.292 118.1 126.292 118.1Z" fill="#EB9481"/>
<path d="M128.349 137.965C125.606 136.253 125.537 132.348 125.126 129.471C125.126 129.266 124.92 129.197 124.715 129.266C121.904 129.266 117.996 128.444 116.282 126.046C116.213 125.977 116.144 126.046 116.144 126.114C117.584 128.923 121.424 130.088 124.44 129.882C124.989 132.828 125.195 136.732 128.349 137.965C128.349 138.034 128.417 138.034 128.349 137.965Z" fill="#263238"/>
<path d="M128.28 116.935L106.066 120.36C106.066 120.36 102.501 79.1211 102.363 65.2835C102.226 51.4459 107.231 48.0208 112.579 62.2009C117.927 76.381 128.28 116.935 128.28 116.935Z" fill="#FFC727"/>
<path d="M105.997 116.935C115.116 114.88 124.989 114.126 126.703 113.852C126.772 113.852 126.772 113.989 126.703 113.989C124.989 114.126 113.813 116.25 105.997 117.072C105.929 117.072 105.86 116.935 105.997 116.935Z" fill="#263238"/>
<path d="M155.225 267.984C153.648 268.463 108.465 267.778 106.82 266.682C106.614 266.545 106.614 262.503 106.683 256.886L104.489 223.662L133.079 223.731L135.342 252.502C135.342 252.502 141.787 255.448 147.066 258.051C150.357 259.626 153.168 261.065 153.785 261.613C155.499 263.051 156.802 267.504 155.225 267.984Z" fill="#EB9481"/>
<path d="M155.225 267.984C153.648 268.463 108.465 267.778 106.82 266.682C106.614 266.545 106.614 262.503 106.683 256.886C117.858 259.352 147.615 263.394 148.506 261.065C148.849 260.106 148.163 259.078 147.066 258.119C150.357 259.695 153.168 261.133 153.785 261.681C155.499 263.052 156.802 267.504 155.225 267.984Z" fill="#263238"/>
<path d="M92.3533 102.686C92.3533 102.686 100.444 188.589 100.649 189.616C100.649 189.753 100.718 191.329 100.787 193.932C101.266 208.112 102.363 252.297 102.363 252.297H136.37C136.37 252.297 134.176 199.96 132.874 187.767C131.228 172.217 121.287 102.686 121.287 102.686H92.3533Z" fill="#37474F"/>
<path d="M104.695 192.562C103.666 174.751 102.089 156.94 99.9638 139.198C98.7982 129.197 97.3584 119.195 95.9186 109.262C95.9186 109.194 95.7815 109.194 95.7815 109.262C98.3868 127.005 100.307 144.884 101.884 162.763C103.46 180.642 104.626 198.522 105.312 216.401C105.723 226.539 106.066 236.678 106.34 246.816C106.34 247.09 106.751 247.022 106.683 246.816C106.271 228.663 105.792 210.578 104.695 192.562Z" fill="#263238"/>
<path d="M134.245 246.816C133.354 246.679 132.394 246.748 131.502 246.679C130.474 246.611 129.446 246.611 128.417 246.611C126.429 246.542 124.509 246.474 122.521 246.474C118.544 246.405 114.568 246.405 110.591 246.542C109.494 246.611 108.397 246.611 107.3 246.679C106.134 246.748 104.969 246.816 103.803 246.816C103.735 246.816 103.735 246.953 103.803 246.953C105.792 246.953 107.848 247.159 109.837 247.227C111.825 247.296 113.745 247.364 115.733 247.364C119.71 247.433 123.686 247.364 127.663 247.227C128.76 247.159 129.857 247.159 130.954 247.159C131.571 247.159 132.119 247.09 132.668 247.09C133.216 247.09 133.696 247.09 134.245 247.022C134.313 246.953 134.313 246.885 134.245 246.816Z" fill="#263238"/>
<path d="M116.899 102.686L101.404 214.62C101.198 206.263 100.992 198.59 100.787 194.001C100.718 191.397 100.649 189.822 100.649 189.685C100.444 188.657 92.3533 102.755 92.3533 102.755H116.899V102.686Z" fill="#263238"/>
<path d="M98.3183 273.944C96.6728 273.807 55.1926 255.79 54.0956 254.146C53.9585 253.941 55.5354 250.173 57.7294 245.035L66.8482 212.839L93.3132 223.457L85.8399 252.023C85.8399 252.023 90.6393 257.229 94.5473 261.613C96.947 264.353 99.0039 266.751 99.4153 267.504C100.444 269.491 99.8952 274.081 98.3183 273.944Z" fill="#EB9481"/>
<path d="M98.3183 273.943C96.6728 273.806 55.1926 255.79 54.0956 254.146C53.9585 253.941 55.5354 250.173 57.7294 245.035C67.0539 251.611 93.039 266.751 94.753 264.97C95.4386 264.216 95.1644 262.983 94.5473 261.681C96.947 264.421 99.0039 266.819 99.4153 267.573C100.444 269.491 99.8952 274.08 98.3183 273.943Z" fill="#263238"/>
<path d="M54.7127 241.747L87.8968 252.023C87.8968 252.023 104.078 195.234 105.312 181.876C106.546 168.655 107.711 141.664 108.26 122.073C108.26 122.073 113.813 118.784 115.185 117.003C116.487 115.291 117.859 108.783 120.601 102.618H80.0121C70.3449 121.456 77.6125 129.813 77.6125 133.924C77.6125 153.721 74.5957 180.026 73.6359 183.931C71.7161 192.151 54.7127 241.747 54.7127 241.747Z" fill="#37474F"/>
<path d="M87.8282 244.761C87.0055 244.419 86.0456 244.213 85.2229 243.939C84.263 243.665 83.2346 243.391 82.2747 243.049C80.4235 242.501 78.5038 241.884 76.584 241.405C72.7445 240.308 68.9051 239.281 65.0656 238.39C63.9686 238.116 62.9401 237.911 61.8431 237.637C60.6776 237.363 59.5806 237.157 58.415 236.883C58.3465 236.883 58.2779 236.952 58.415 236.952C60.3348 237.431 62.2545 238.185 64.1743 238.733C66.0254 239.281 67.9452 239.829 69.8649 240.377C73.7044 241.473 77.5439 242.432 81.3834 243.323C82.4804 243.597 83.5088 243.802 84.5373 244.076C85.0858 244.213 85.7028 244.35 86.2513 244.487C86.7312 244.624 87.2797 244.761 87.7597 244.83C87.8968 244.898 87.8968 244.83 87.8282 244.761Z" fill="#263238"/>
<path d="M116.144 116.661C114.156 117.483 112.374 118.716 110.659 119.88C108.808 121.113 107.163 122.552 105.449 123.922C105.38 123.991 105.449 124.059 105.517 124.059C107.368 122.895 109.288 121.867 111.139 120.634C112.922 119.469 114.773 118.305 116.282 116.798C116.282 116.729 116.213 116.592 116.144 116.661Z" fill="#263238"/>
<path d="M116.419 105.221C116.213 106.454 115.87 107.755 115.596 108.988C115.322 110.153 115.185 111.386 114.842 112.551C114.568 113.647 114.088 114.743 113.196 115.496C112.716 115.907 112.236 116.318 111.756 116.729C111.482 116.935 111.208 117.14 110.934 117.346C111.002 117.209 111.002 117.003 111.002 116.866C111.071 116.387 111.139 115.907 111.277 115.428C111.482 114.332 111.619 113.304 111.756 112.208C112.099 110.085 112.374 108.029 112.785 105.906C112.785 105.837 112.648 105.769 112.648 105.906C112.099 107.961 111.551 110.016 111.071 112.071C110.865 113.099 110.042 118.099 110.042 118.442C109.974 118.784 109.974 119.195 109.974 119.538C109.974 119.88 109.905 120.291 109.974 120.634C109.974 120.702 110.111 120.702 110.111 120.634C110.317 120.291 110.317 119.88 110.454 119.538C110.522 119.195 110.659 118.784 110.659 118.442C110.659 118.305 110.728 118.168 110.728 118.031C111.208 117.757 111.688 117.346 112.168 117.003C112.648 116.661 113.196 116.318 113.676 115.907C114.568 115.154 115.116 114.195 115.459 113.099C115.802 111.934 115.939 110.701 116.076 109.468C116.213 108.029 116.35 106.591 116.556 105.221C116.556 105.152 116.419 105.152 116.419 105.221Z" fill="#263238"/>
<path d="M115.596 50.6238C114.91 58.7072 114.156 66.9276 112.236 74.8054C110.797 80.9022 107.437 85.6974 100.787 86.3139C94.6159 86.9304 86.0456 85.6289 81.5205 80.9707C79.3951 78.7786 78.9837 76.0385 79.5322 73.1613C80.2864 69.1197 86.5941 47.2672 88.5139 40.4854C89.6794 36.3067 90.845 32.128 92.6962 28.2234C96.6728 20.003 100.924 20.688 101.541 20.551C102.089 20.277 105.586 19.318 109.974 21.3731C112.442 22.5376 114.019 24.5242 114.842 27.0588C117.241 34.3886 116.213 43.02 115.596 50.6238Z" fill="#263238"/>
<path d="M100.032 21.5788C94.6159 23.2913 92.6276 28.7031 90.7079 33.4983C88.0339 40.2116 85.4971 46.9934 83.2346 53.8437C82.1376 57.1318 81.1777 60.4884 80.2864 63.8451C79.3951 67.0647 78.2981 70.4899 78.0924 73.778C77.681 79.3268 82.3433 82.4779 87.1426 83.9165C87.3483 83.985 87.4854 83.6425 87.2797 83.574C84.6058 82.6149 81.8633 81.5189 80.0807 79.1898C77.8182 76.1756 78.5723 72.819 79.3265 69.4623C80.6292 63.7081 82.2747 58.0908 84.1944 52.4736C86.0456 46.8564 88.1025 41.3761 90.2279 35.8274C92.2848 30.6211 94.2045 23.6338 100.101 21.6473C100.101 21.6473 100.101 21.5102 100.032 21.5788Z" fill="#263238"/>
<path d="M116.419 33.2241C116.007 28.9084 114.43 24.5242 110.18 22.7432C115.596 25.3463 116.144 31.7171 116.213 37.0603C116.282 42.609 116.076 48.2263 115.733 53.775C115.39 59.1183 114.91 64.53 114.088 69.8047C113.196 75.4905 111.414 80.7652 107.368 85.0124C107.3 85.0809 107.368 85.2179 107.506 85.1494C111.345 81.7927 113.196 76.655 114.156 71.7913C115.39 65.352 115.87 58.7072 116.282 52.1309C116.556 45.8287 116.967 39.3894 116.419 33.2241Z" fill="#263238"/>
<path d="M99.7581 51.7197C100.032 52.4047 104.009 56.5834 107.231 56.0354C108.26 55.8299 107.506 50.0756 107.506 50.0756L107.574 49.6646L108.123 43.4993L100.512 39.8687L99.4153 39.3892C99.4153 39.3892 99.3467 41.1017 99.3467 43.2253C99.3467 43.2938 99.3467 43.4308 99.3467 43.4993C99.3467 43.6363 99.3467 43.7048 99.3467 43.8419C99.3467 44.1844 99.3467 44.4584 99.3467 44.8009C99.3467 45.0749 99.3467 45.2804 99.3467 45.5544C99.3467 45.8284 99.3467 46.0339 99.3467 46.308C99.3467 48.7741 99.6209 51.3772 99.7581 51.7197Z" fill="#EB9481"/>
<path d="M99.2781 43.157C101.609 47.6782 105.654 49.1167 107.506 49.5962L108.054 43.431L100.444 39.8003L99.3467 39.3208C99.4153 39.3208 99.3467 41.0334 99.2781 43.157Z" fill="#263238"/>
<path d="M115.939 34.32C116.83 45.1435 110.385 46.856 108.054 47.0615C105.929 47.1986 98.6611 47.5411 96.7413 36.8546C94.753 26.1681 99.5524 22.332 104.352 21.7154C109.22 21.0989 115.116 23.4965 115.939 34.32Z" fill="#EB9481"/>
<path d="M114.156 31.991C113.882 31.991 113.676 31.9225 113.402 31.854C113.128 31.7855 112.922 31.7855 112.648 31.58C112.511 31.443 112.511 31.2375 112.648 31.1005C112.853 30.8265 113.265 30.8265 113.608 30.895C113.95 30.9635 114.225 31.1005 114.499 31.3745C114.705 31.6485 114.43 32.0595 114.156 31.991Z" fill="#263238"/>
<path d="M106.889 32.1966C107.163 32.1966 107.368 32.0596 107.643 32.0596C107.917 31.9911 108.123 31.9911 108.328 31.7856C108.465 31.6486 108.397 31.4431 108.328 31.3061C108.054 31.0321 107.711 31.0321 107.368 31.1006C107.026 31.1691 106.751 31.3061 106.477 31.5801C106.271 31.7856 106.546 32.1966 106.889 32.1966Z" fill="#263238"/>
<path d="M108.603 34.8682C108.603 34.8682 108.534 34.9367 108.603 34.8682C108.603 35.6902 108.534 36.5122 107.848 36.7862V36.8547C108.671 36.7177 108.74 35.6217 108.603 34.8682Z" fill="#263238"/>
<path d="M107.917 34.1831C106.751 34.1146 106.683 36.5122 107.848 36.5807C108.877 36.5807 108.945 34.1831 107.917 34.1831Z" fill="#263238"/>
<path d="M107.437 34.2516C107.231 34.3886 107.026 34.5941 106.751 34.6626C106.477 34.6626 106.271 34.4571 106.066 34.1831H105.997C105.997 34.6626 106.134 35.1421 106.683 35.2107C107.163 35.2792 107.437 34.8681 107.574 34.3886C107.643 34.3201 107.506 34.2516 107.437 34.2516Z" fill="#263238"/>
<path d="M112.716 34.731C112.716 34.731 112.785 34.7995 112.716 34.731C112.716 35.553 112.853 36.375 113.471 36.649V36.7175C112.648 36.5805 112.579 35.416 112.716 34.731Z" fill="#263238"/>
<path d="M113.402 33.9775C114.567 33.909 114.636 36.3066 113.539 36.3751C112.442 36.4436 112.373 34.046 113.402 33.9775Z" fill="#263238"/>
<path d="M113.882 34.1145C114.088 34.2516 114.293 34.4571 114.499 34.4571C114.773 34.4571 114.979 34.183 115.116 33.9775H115.185C115.185 34.4571 115.047 34.9366 114.636 35.0051C114.225 35.0736 113.95 34.7311 113.813 34.2516C113.745 34.183 113.813 34.046 113.882 34.1145Z" fill="#263238"/>
<path d="M108.534 40.7593C108.671 40.9648 108.877 41.1703 109.151 41.2388C109.425 41.3073 109.7 41.1703 109.974 41.1018C109.974 41.1018 110.042 41.1018 109.974 41.1703C109.768 41.4443 109.357 41.5813 109.014 41.5128C108.671 41.4443 108.534 41.1703 108.465 40.8278C108.465 40.7593 108.534 40.7593 108.534 40.7593Z" fill="#263238"/>
<path d="M111.619 38.0879C111.619 38.0879 111.756 39.1839 111.756 39.732C111.756 39.8005 111.619 39.8005 111.482 39.8005C110.591 39.9375 109.631 39.6635 109.083 38.9099C109.014 38.8414 109.083 38.7729 109.151 38.8414C109.837 39.3209 110.591 39.4579 111.414 39.4579C111.482 39.3209 111.071 37.6084 111.139 37.5399C111.414 37.5399 111.962 37.6769 112.305 37.8139C112.031 35.4848 111.414 33.2242 111.208 30.9636C111.208 30.8951 111.345 30.8266 111.345 30.8951C112.168 33.2242 112.511 35.8273 112.853 38.2249C112.922 38.5674 111.825 38.1564 111.619 38.0879Z" fill="#263238"/>
<path d="M112.442 35.4849C112.305 33.7038 113.059 32.1967 114.293 32.0597C115.459 31.9227 116.556 33.2928 116.693 35.0739C116.83 36.855 116.076 38.362 114.842 38.499C113.745 38.5675 112.648 37.1975 112.442 35.4849ZM112.922 35.4164C113.059 36.9235 113.95 38.088 114.842 38.0195C115.802 37.951 116.419 36.6494 116.282 35.0739C116.144 33.5668 115.253 32.4023 114.362 32.4708C113.402 32.6078 112.785 33.9093 112.922 35.4164Z" fill="#263238"/>
<path d="M104.42 36.2384C104.283 34.4573 105.449 32.8818 107.094 32.7448C108.74 32.6077 110.248 33.9093 110.385 35.6904C110.522 37.4715 109.357 39.047 107.711 39.184C106.066 39.321 104.557 37.951 104.42 36.2384ZM104.832 36.1699C104.969 37.677 106.271 38.8415 107.643 38.7045C109.083 38.5675 110.111 37.1974 109.974 35.6904C109.837 34.1833 108.534 33.0188 107.163 33.1558C105.723 33.2928 104.695 34.6628 104.832 36.1699Z" fill="#263238"/>
<path d="M110.248 35.3478C111.825 34.6627 112.579 35.0737 112.579 35.0737L112.785 34.7312C112.716 34.7312 111.825 34.1147 110.042 34.9367L110.248 35.3478Z" fill="#263238"/>
<path d="M104.626 35.8957L104.695 35.4847C104.42 35.4847 97.7698 34.8682 97.0156 34.8682C96.2614 34.8682 94.6159 36.0327 94.4102 36.1697L94.6845 36.5122C95.1644 36.1697 96.4671 35.3477 97.0156 35.2792C97.5641 35.2792 102.226 35.6902 104.626 35.8957Z" fill="#263238"/>
<path d="M97.0841 36.1013C98.2497 36.0328 101.335 32.8131 101.404 27.1274C101.404 27.1274 100.992 32.1966 100.581 32.9501C100.169 33.7036 102.295 31.1005 102.432 26.5793C102.432 26.5793 104.969 28.4289 107.163 29.0454C109.357 29.662 110.659 29.662 110.797 29.4565C110.934 29.3195 107.78 28.2919 106.889 27.3329C106.889 27.3329 112.648 30.0045 115.322 30.21C115.596 30.21 116.007 23.9077 111.894 21.2361C107.78 18.5645 101.266 21.4416 99.5524 23.1542C99.5524 23.1542 97.4955 23.4282 95.3015 26.5108C92.9704 29.4565 95.7815 36.1698 97.0841 36.1013Z" fill="#263238"/>
<path d="M98.5239 37.5396C98.5239 37.5396 96.1928 34.1144 94.6159 34.9365C93.039 35.7585 94.8216 40.6907 96.6042 41.3758C98.3868 42.0608 99.0724 40.4167 99.0724 40.4167L98.5239 37.5396Z" fill="#EB9481"/>
<path d="M95.1644 36.375C95.1644 36.375 95.1644 36.4435 95.1644 36.375C96.3985 36.923 97.0841 38.1561 97.5641 39.3206C97.2213 38.8411 96.6728 38.5671 96.0557 39.0466V39.1151C96.6042 38.9781 96.947 39.1151 97.2898 39.5261C97.5641 39.8002 97.7012 40.2112 97.9069 40.5537C97.9755 40.6907 98.1811 40.6222 98.1126 40.4852C98.1126 38.8411 96.8785 36.5805 95.1644 36.375Z" fill="#263238"/>
<path d="M98.1811 41.1702C98.1811 41.5812 97.8383 41.9922 97.3584 41.9922C96.947 41.9922 96.5356 41.6497 96.5356 41.1702C96.5356 40.7592 96.8785 40.3481 97.3584 40.3481C97.7698 40.3481 98.1811 40.7592 98.1811 41.1702Z" fill="white"/>
<path d="M122.384 106.317C122.384 106.317 85.8399 106.865 76.7897 106.248C76.7897 106.248 84.1944 64.3929 93.9303 53.8434C94.3417 53.4324 94.6845 53.0214 95.0958 52.6789C95.7129 52.1994 95.6443 48.1577 95.9186 47.8837C96.1928 47.6097 108.054 49.1167 108.191 49.4593C108.328 49.7333 108.945 53.5009 108.945 53.5009C111.619 56.9261 120.258 68.7771 121.287 73.6408C122.315 78.573 119.093 83.9163 119.093 83.9163L122.384 106.317Z" fill="#FFC727"/>
<path d="M91.1878 61.3104C89.0624 71.7228 90.2965 94.2603 95.3015 98.302C103.529 105.015 123.275 107.002 128.828 107.618C131.228 107.892 135.959 92.3422 134.382 90.3556C132.805 88.369 108.465 85.2179 107.3 84.1904C106.477 83.4368 102.706 69.8732 99.4838 62.2009C95.0273 51.857 92.0105 57.4742 91.1878 61.3104Z" fill="#EB9481"/>
<path d="M130.2 89.0539C130.2 89.0539 137.467 88.9854 142.267 89.1909C144.941 89.2594 149.466 89.876 151.385 90.835C154.265 92.2736 165.372 100.151 163.521 102.892C161.875 105.358 158.516 102.138 158.516 102.138C158.516 102.138 162.493 105.358 160.024 107.276C157.556 109.262 153.717 104.604 153.717 104.604C153.717 104.604 158.173 107.755 155.362 109.536C152.962 111.112 147.889 106.248 147.889 106.248C147.889 106.248 152.894 108.988 150.563 110.906C148.026 112.961 139.456 106.591 139.456 106.591C133.354 107.961 129.514 107.961 125.058 107.207C124.235 107.07 130.2 89.0539 130.2 89.0539Z" fill="#EB9481"/>
<path d="M154.951 105.632C154.608 105.289 154.265 104.947 153.991 104.604C153.374 103.919 152.757 103.234 152.003 102.618C151.317 102.001 150.631 101.453 149.877 100.905C149.123 100.357 148.3 99.8089 147.546 99.2609C147.477 99.1924 147.409 99.3294 147.477 99.3294C148.232 99.8774 148.917 100.562 149.603 101.179C150.288 101.795 150.974 102.412 151.66 103.029C152.345 103.645 153.031 104.193 153.717 104.81C154.059 105.084 154.402 105.426 154.745 105.7C155.019 105.974 155.362 106.317 155.705 106.591C155.773 106.591 155.773 106.591 155.773 106.522C155.499 106.248 155.225 105.974 154.951 105.632Z" fill="#263238"/>
<path d="M159.339 102.754C158.927 102.069 156.459 99.6033 155.773 98.9868C154.471 97.8222 153.1 96.7947 151.591 95.9727C151.523 95.9727 151.454 96.0412 151.523 96.0412C152.825 97.2057 154.128 98.3018 155.431 99.4663C156.048 100.014 158.859 102.617 159.202 102.891C159.27 102.96 159.407 102.891 159.339 102.754Z" fill="#263238"/>
<path d="M150.906 108.44C150.494 107.824 148.163 105.494 147.477 105.015C146.86 104.535 144.118 102.754 143.295 102.343C143.227 102.343 143.158 102.412 143.227 102.412C144.529 103.371 145.9 104.33 147.203 105.426C147.82 105.905 150.22 108.098 150.837 108.577C150.837 108.577 150.906 108.509 150.906 108.44Z" fill="#263238"/>
<path d="M123.343 108.235L132.051 87.9579C132.051 87.9579 108.191 83.9848 107.506 83.5052C106.82 83.0257 102.432 67.2015 99.621 61.0362C96.8099 54.8025 92.0105 51.1718 90.1594 64.5299C88.3082 77.888 90.9821 94.1232 93.656 97.4798C96.947 101.659 109.837 106.796 123.343 108.235Z" fill="#FFC727"/>
<path d="M111.071 105.7C107.506 104.741 104.009 103.029 100.649 101.659C97.7012 100.426 94.753 98.9185 93.1075 96.0414C92.2848 94.6028 91.8734 93.0273 91.5306 91.3832C91.1878 89.6021 90.845 87.7525 90.5707 85.9029C90.2279 83.7794 89.9537 81.7243 89.748 79.6007C89.6109 78.5046 89.4737 77.4086 89.4052 76.381C89.2681 75.285 89.0624 74.1889 89.0624 73.0929C89.0624 73.0244 88.9252 73.0244 88.9252 73.0929C88.9938 74.1204 88.9252 75.0795 88.9938 76.107C88.9938 76.792 89.0624 77.4086 89.1309 78.0936C89.0624 77.9566 88.9938 77.8196 88.9252 77.6826C88.7196 77.2031 88.5824 76.7235 88.4453 76.1755C88.4453 76.107 88.3082 76.107 88.3767 76.1755C88.5139 76.7235 88.651 77.2031 88.7881 77.6826C88.8567 77.9566 88.9252 78.1621 89.0624 78.4361C89.1309 78.5731 89.1995 78.7786 89.2681 78.9156C89.4052 80.9022 89.6794 82.8203 89.8851 84.8069C90.1594 86.725 90.4336 88.5746 90.7764 90.4241C91.0507 92.0682 91.3935 93.7123 92.0791 95.2879C92.6962 96.7949 93.656 98.028 94.8902 99.124C96.1243 100.152 97.5641 100.974 99.0039 101.659C102.295 103.234 105.792 104.467 109.357 105.495C113.471 106.796 114.773 106.728 111.071 105.7Z" fill="#263238"/>
<path d="M120.053 85.903C119.161 85.766 108.808 83.6424 108.397 83.5054C107.917 83.3684 107.711 83.0944 107.574 82.6149C107.231 81.7929 106.957 80.9023 106.683 80.0803C106.134 78.6417 105.654 77.2032 105.106 75.7646C105.106 75.4221 105.037 75.0796 105.037 74.8055C104.969 74.3945 104.9 74.052 104.9 73.641C104.763 72.819 104.489 71.9969 104.42 71.1749C104.42 71.1064 104.283 71.1064 104.283 71.1749C104.557 71.9969 104.557 72.819 104.626 73.641C104.626 73.9835 104.695 74.326 104.695 74.6C104.352 73.778 104.077 72.8875 103.735 72.0654C103.323 71.1064 102.912 70.0788 102.569 69.1198C102.569 69.0513 102.432 69.1198 102.501 69.1198C102.843 70.0103 103.118 70.9694 103.392 71.8599C103.666 72.819 104.009 73.7095 104.283 74.6C104.9 76.4496 105.517 78.2307 106.134 80.0118C106.409 80.9023 106.751 81.7929 107.026 82.6149C107.3 83.2999 107.643 83.7109 108.397 83.9164C110.18 84.396 119.024 85.8345 120.053 85.903C120.19 85.903 120.121 86.1085 120.053 85.903Z" fill="#263238"/>
<path d="M127.663 88.3004C126.292 91.246 124.92 94.1232 123.686 97.0688C122.452 100.014 121.287 102.96 120.395 106.043C120.395 106.111 120.464 106.111 120.464 106.111C121.835 103.234 123.069 100.288 124.235 97.3428C125.469 94.3972 126.566 91.383 127.8 88.4374C127.869 88.3004 127.663 88.1634 127.663 88.3004Z" fill="#263238"/>
<path d="M153.305 85.9716C152.277 86.5881 146.243 84.8755 143.844 86.7251C142.198 87.9582 140.621 90.8353 140.278 94.603C139.936 98.5076 143.021 98.3021 144.186 96.6581C146.106 93.7809 147.82 89.8078 147.82 89.8078C149.329 90.0818 151.043 90.6983 151.043 90.6983L153.305 85.9716Z" fill="#AD6359"/>
<path d="M145.9 99.6723C144.049 97.7542 134.793 104.879 137.673 108.098C140.621 111.318 148.026 101.864 145.9 99.6723Z" fill="#AD6359"/>
<path d="M148.986 102.413C147.135 100.494 137.879 107.619 140.758 110.838C143.638 114.058 151.111 104.673 148.986 102.413Z" fill="#AD6359"/>
<path d="M151.454 103.44C149.466 101.933 142.061 109.674 145.146 112.208C148.3 114.743 153.648 105.153 151.454 103.44Z" fill="#AD6359"/>
<path d="M154.128 103.783C151.865 102.961 147.135 112.208 150.768 113.716C154.334 115.223 156.665 104.81 154.128 103.783Z" fill="#AD6359"/>
<path d="M145.626 102.823C145.078 103.166 144.666 103.577 144.186 103.988C143.706 104.399 143.227 104.878 142.747 105.358C142.335 105.837 141.855 106.317 141.512 106.796C141.101 107.344 140.758 107.961 140.347 108.44C140.278 108.509 140.415 108.577 140.415 108.509C140.758 107.961 141.307 107.481 141.718 107.07C142.198 106.591 142.609 106.111 143.021 105.632C143.432 105.152 143.844 104.673 144.324 104.262C144.803 103.782 145.283 103.371 145.695 102.892C145.695 102.892 145.695 102.823 145.626 102.823Z" fill="#263238"/>
<path d="M149.329 103.714C148.917 104.331 147.546 106.66 147.135 107.276C146.723 107.893 146.243 108.441 145.832 109.057C145.352 109.674 144.941 110.29 144.461 110.838C144.392 110.907 144.461 110.975 144.529 110.907C145.078 110.359 145.626 109.879 146.106 109.263C146.586 108.715 147.066 108.098 147.477 107.482C147.889 106.865 149.26 104.399 149.534 103.714C149.466 103.714 149.329 103.646 149.329 103.714Z" fill="#263238"/>
<path d="M151.934 105.015C151.523 105.906 151.18 106.865 150.768 107.756C150.563 108.235 150.357 108.646 150.151 109.126C150.083 109.331 149.946 109.537 149.877 109.811C149.74 110.016 149.671 110.359 149.534 110.564C149.466 110.633 149.603 110.701 149.603 110.633C149.74 110.359 149.946 110.085 150.083 109.879C150.22 109.674 150.357 109.468 150.426 109.263C150.631 108.852 150.837 108.372 151.043 107.961C151.454 107.071 151.797 106.111 152.071 105.221C152.071 105.015 151.934 104.947 151.934 105.015Z" fill="#263238"/>
<path d="M157.967 27.1954C157.008 36.5118 148.643 43.2936 139.318 42.3345C135.548 41.9235 132.188 40.3479 129.583 37.9503L121.081 39.1834L125.332 31.8536C124.303 29.319 123.892 26.5788 124.166 23.7017C125.126 14.3853 133.491 7.60352 142.815 8.56256C152.14 9.5216 158.927 17.879 157.967 27.1954Z" fill="white"/>
<path d="M157.967 27.1956C157.625 30.2782 156.459 33.3608 154.539 35.827C154.059 36.4435 153.511 36.9915 153.031 37.608C152.414 38.1561 151.865 38.7041 151.248 39.1151C150.014 40.0741 148.574 40.8277 147.135 41.3757C145.695 41.9922 144.118 42.2662 142.541 42.4717C141.787 42.5402 140.964 42.6087 140.21 42.5402C139.387 42.5402 138.633 42.4717 137.879 42.2662C134.793 41.7182 131.845 40.2796 129.446 38.0876L129.651 38.1561L121.149 39.4576L120.532 39.5261L120.875 38.9781L125.126 31.6483V31.9223C123.069 27.0586 123.549 21.3043 126.155 16.7831C127.457 14.5225 129.308 12.6044 131.502 11.0974C133.696 9.65881 136.165 8.69977 138.77 8.35725C141.375 8.01474 143.981 8.22025 146.449 9.04228C148.917 9.86432 151.18 11.2344 153.031 13.084C156.596 16.7146 158.516 22.0579 157.967 27.1956ZM157.967 27.1956C158.516 22.0579 156.528 16.7831 152.825 13.221C150.974 11.4399 148.712 10.1383 146.243 9.3848C143.775 8.63126 141.17 8.42576 138.701 8.83677C136.165 9.24779 133.765 10.1383 131.708 11.5769C129.651 13.0155 127.869 14.9335 126.634 17.1256C125.332 19.3177 124.646 21.7838 124.509 24.3185C124.372 26.8531 124.783 29.3877 125.675 31.7168L125.743 31.8538L125.675 31.9908L121.424 39.3206L121.149 38.8411L129.651 37.6765H129.788L129.857 37.745C132.119 39.8686 134.931 41.3072 138.016 41.9237C138.77 42.0607 139.524 42.1977 140.347 42.1977C141.101 42.2662 141.924 42.1977 142.678 42.1977C144.186 42.0607 145.763 41.7867 147.203 41.1702C148.643 40.6222 150.083 39.9371 151.317 38.9781C152.003 38.5671 152.551 38.019 153.1 37.471C153.648 36.923 154.197 36.375 154.676 35.6899C156.391 33.2923 157.556 30.2782 157.967 27.1956Z" fill="#263238"/>
<path d="M139.044 35.0736L131.777 27.7437L134.245 25.3461L138.496 29.6618L147.272 15.8242L150.151 17.6738L139.044 35.0736Z" fill="#FFC727"/>
</g>
<defs>
<clipPath id="clip0_902_4735">
<rect width="299" height="286" fill="white"/>
</clipPath>
</defs>
</svg>
