<svg width="28" height="29" viewBox="0 0 28 29" fill="none" xmlns="http://www.w3.org/2000/svg">
<path d="M21.0041 25.2844C20.7936 24.8333 20.6264 24.3769 20.5077 23.9099C24.1388 21.7447 26.5613 17.8229 26.5613 13.3438C26.5613 6.52448 20.9447 1 14.0116 1C7.07853 1.00531 1.46191 6.52979 1.46191 13.3492C1.46191 20.1685 7.07853 25.693 14.0116 25.693C14.9558 25.693 15.8784 25.5869 16.7687 25.3958C18.4035 27.3965 20.9393 28.4685 23.5075 28.2881C22.4608 27.5345 21.5922 26.5209 21.0041 25.2844ZM9.39315 14.7926C8.74031 14.7926 8.21696 14.2726 8.21696 13.6357C8.21696 12.9989 8.7457 12.4788 9.39315 12.4788C10.0406 12.4788 10.5694 12.9989 10.5694 13.6357C10.5694 14.2726 10.046 14.7926 9.39315 14.7926ZM14.0116 14.7926C13.3588 14.7926 12.8354 14.2726 12.8354 13.6357C12.8354 12.9989 13.3642 12.4788 14.0116 12.4788C14.6645 12.4788 15.1878 12.9989 15.1878 13.6357C15.1878 14.2726 14.6645 14.7926 14.0116 14.7926ZM18.5168 14.7926C17.8639 14.7926 17.3406 14.2726 17.3406 13.6357C17.3406 12.9989 17.8693 12.4788 18.5168 12.4788C19.1642 12.4788 19.693 12.9989 19.693 13.6357C19.693 14.2726 19.1696 14.7926 18.5168 14.7926Z" stroke="#7A7C82" stroke-miterlimit="10"/>
</svg>
