<svg width="144" height="145" viewBox="0 0 144 145" fill="none" xmlns="http://www.w3.org/2000/svg">
<path d="M120.762 119.575H132.55V115.806H120.762V119.575Z" fill="#EBEBEB"/>
<path d="M127.327 124.314C129.27 124.28 134.293 124.213 136.168 124.179H139.082L138.915 124.347V120.578L139.082 120.747C137.14 120.747 132.15 120.713 130.241 120.679L127.294 120.646L127.361 120.578L127.327 124.314ZM127.327 124.314L127.26 120.545V120.478H127.327C128.801 120.444 131.748 120.41 133.221 120.41L139.116 120.377H139.283V120.545V124.314V124.482H139.116H136.135C134.26 124.448 129.27 124.347 127.327 124.314Z" fill="#EBEBEB"/>
<path d="M19.357 40.959C21.2994 40.9253 26.3228 40.858 28.1982 40.8244H31.1118L30.9444 40.9926V37.2236L31.1118 37.3919C29.1694 37.3919 24.1795 37.3582 22.2706 37.3246L19.3235 37.2909L19.3905 37.2236L19.357 40.959ZM19.357 40.959L19.29 37.19V37.1227H19.357C20.8306 37.089 23.7776 37.0554 25.2512 37.0554L31.1453 37.0217H31.3128V37.19V40.959V41.1272H31.1453H28.1647C26.2893 41.0936 21.2994 40.9926 19.357 40.959Z" fill="#EBEBEB"/>
<path d="M25.921 45.7038C27.8634 45.6702 32.8868 45.6029 34.7622 45.5692H37.6758L37.5083 45.7375V41.9685L37.6758 42.1368C35.7334 42.1368 30.7435 42.1031 28.8346 42.0695L25.8875 42.0358L25.9545 41.9685L25.921 45.7038ZM25.921 45.7038L25.854 41.9349V41.8676H25.921C27.3945 41.8339 30.3416 41.8003 31.8151 41.8003L37.7093 41.7666H37.8767V41.9349V45.7038V45.8721H37.7093H34.7287C32.8533 45.8384 27.8634 45.7375 25.921 45.7038Z" fill="#EBEBEB"/>
<path d="M32.4617 40.9822H44.25V37.2132H32.4617V40.9822Z" fill="#EBEBEB"/>
<path d="M0.560342 124.327H12.3486V120.558H0.560342V124.327Z" fill="#EBEBEB"/>
<path d="M7.13212 8.02661L18.9204 8.02661V4.25764L7.13212 4.25764V8.02661Z" fill="#EBEBEB"/>
<path d="M0.56942 12.7926C2.51181 12.7589 7.53523 12.6916 9.41064 12.658H12.3242L12.1568 12.8262V9.05726L12.3242 9.22551C10.3818 9.22551 5.3919 9.19186 3.483 9.15821L0.535931 9.12456L0.60291 9.05726L0.56942 12.7926ZM0.56942 12.7926L0.502441 9.0236V8.9563H0.56942C2.04296 8.92265 4.99003 8.889 6.46357 8.889L12.3577 8.85535H12.5252V9.0236V12.7926V12.9608H12.3577H9.37715C7.50174 12.8935 2.51181 12.8262 0.56942 12.7926Z" fill="#EBEBEB"/>
<path d="M120.763 8.04771C122.706 8.01405 127.729 7.94675 129.604 7.9131H132.518L132.351 8.08136V4.31238L132.518 4.48064L126.624 4.44699C125.15 4.44699 122.203 4.41334 120.73 4.37969L120.797 4.31238L120.763 8.04771ZM120.763 8.04771L120.696 4.27873V4.21143H120.763C122.237 4.17778 125.184 4.14413 126.657 4.14413L132.552 4.11047H132.719V4.27873V8.04771V8.21596H132.552H129.571C127.696 8.14866 122.706 8.08136 120.763 8.04771Z" fill="#EBEBEB"/>
<path d="M134.389 23.8468C137.015 16.2636 133.125 8.01207 125.7 5.41655C118.276 2.82103 110.129 6.86435 107.503 14.4476C104.877 22.0308 108.768 30.2823 116.192 32.8778C123.617 35.4734 131.764 31.43 134.389 23.8468Z" fill="#EBEBEB"/>
<path d="M131.413 22.8057C133.461 16.8901 130.434 10.4558 124.652 8.43436C118.869 6.4129 112.521 9.56974 110.473 15.4854C108.425 21.401 111.452 27.8352 117.234 29.8567C123.017 31.8782 129.365 28.7213 131.413 22.8057Z" fill="white"/>
<path d="M128.967 19.0181C129.001 23.5274 125.418 27.229 120.997 27.2963C116.576 27.3636 112.96 23.7629 112.926 19.2873C112.893 14.8116 116.476 11.0763 120.897 11.009C125.317 10.9417 128.934 14.5424 128.967 19.0181Z" fill="#EBEBEB"/>
<path d="M125.819 19.0854C125.853 21.8112 123.676 24.0995 120.963 24.1332C118.284 24.1668 116.074 21.9795 116.04 19.2537C116.007 16.5279 118.184 14.2396 120.896 14.2059C123.609 14.1723 125.819 16.3596 125.819 19.0854Z" fill="white"/>
<path d="M123.107 19.1191C123.107 20.3306 122.136 21.3401 120.963 21.3738C119.758 21.4074 118.787 20.4315 118.787 19.1864C118.787 17.975 119.758 16.9654 120.93 16.9318C122.136 16.9318 123.107 17.9077 123.107 19.1191Z" fill="#EBEBEB"/>
<path d="M100.033 8.02696L99.9243 8.23572L120.818 19.2116L120.926 19.0029L100.033 8.02696Z" fill="#C7C7C7"/>
<path d="M99.0617 8.61978L99.0952 8.58613L100.066 8.31692L98.191 7.30737L97.1528 7.61024L99.0617 8.61978Z" fill="#C7C7C7"/>
<path d="M97.9565 6.09595L98.2914 7.10549L100.167 8.08139C100.033 7.77852 99.8989 7.44201 99.832 7.07184L97.9565 6.09595Z" fill="#C7C7C7"/>
<path d="M121.399 18.9172L120.997 19.6239L119.959 19.5566L120.662 18.9845L120.729 18.0759L121.399 18.9172Z" fill="#C7C7C7"/>
<path d="M77.2603 54.2849C77.2603 55.7319 76.5236 56.977 75.3849 57.7174H71.1318C69.9931 57.0107 69.2563 55.7319 69.2563 54.2849C69.2563 52.0639 71.0648 50.2467 73.2751 50.2467C75.4519 50.2804 77.2603 52.0639 77.2603 54.2849Z" fill="#EBEBEB"/>
<path d="M77.4946 57.7174H68.9883V58.9625H77.4946V57.7174Z" fill="#EBEBEB"/>
<path d="M81.8481 74.7114H64.6011V75.9565H81.8481V74.7114Z" fill="#DBDBDB"/>
<path d="M81.8481 78.1438H64.6011V79.3889H81.8481V78.1438Z" fill="#DBDBDB"/>
<path d="M81.2455 75.9229H65.271V78.1439H81.2455V75.9229Z" fill="#EBEBEB"/>
<path d="M76.6906 58.9624H69.7583V60.2075H76.6906V58.9624Z" fill="#DBDBDB"/>
<path d="M80.2744 74.7113H66.1753C66.1753 74.7113 69.3903 71.4808 70.0601 67.6109C70.6294 64.3467 70.8973 60.2075 70.8973 60.2075H75.5523C75.5523 60.2075 75.8203 64.3467 76.3896 67.6109C77.0594 71.4808 80.2744 74.7113 80.2744 74.7113Z" fill="#EBEBEB"/>
<path d="M43.7373 53.7802C43.6703 53.6119 43.6368 53.4773 43.5698 53.3091L43.9047 53.2081C43.9717 53.3764 44.0052 53.511 44.0722 53.6793L43.7373 53.7802Z" fill="#DBDBDB"/>
<path d="M43.3017 52.3332C43.2348 52.0304 43.1343 51.6938 43.0673 51.3573L43.4022 51.29C43.4692 51.5929 43.5362 51.9294 43.6031 52.2323L43.3017 52.3332ZM42.8999 50.3814C42.8664 50.0449 42.7994 49.7421 42.7994 49.4055L43.1343 49.3719C43.1678 49.7084 43.2013 50.0113 43.2348 50.3478L42.8999 50.3814ZM42.7324 48.4296C42.7324 48.1604 42.7324 47.8912 42.7324 47.622V47.4201H43.0673V47.622C43.0673 47.8912 43.0673 48.1268 43.0673 48.396L42.7324 48.4296ZM43.0673 46.4779L42.7324 46.4442C42.7659 46.1077 42.7659 45.7712 42.7994 45.4683L43.1343 45.502C43.1343 45.8048 43.1008 46.1413 43.0673 46.4779ZM43.3017 44.5261L42.9668 44.4588C43.0338 44.1222 43.0673 43.8194 43.1343 43.4829L43.4692 43.5502C43.4022 43.8867 43.3352 44.2232 43.3017 44.5261ZM43.7036 42.6416L43.3687 42.5406C43.4692 42.2378 43.5362 41.9012 43.6366 41.5984L43.9715 41.6993C43.8711 42.0022 43.7706 42.3051 43.7036 42.6416ZM44.3064 40.7907L44.005 40.6561C44.139 40.3533 44.2394 40.0504 44.3734 39.7475L44.6748 39.8822C44.5409 40.185 44.4069 40.4879 44.3064 40.7907ZM45.0767 39.0072L44.7753 38.839C44.9427 38.5361 45.0767 38.2669 45.2441 37.964L45.5455 38.1323C45.4116 38.4351 45.2441 38.738 45.0767 39.0072ZM46.0814 37.3583L45.8135 37.1564C46.0144 36.8872 46.1818 36.618 46.3828 36.3487L46.6507 36.5507C46.4498 36.8199 46.2823 37.0891 46.0814 37.3583ZM47.287 35.8103L47.0526 35.5748C47.287 35.3392 47.4879 35.1036 47.7224 34.8681L47.9568 35.1036C47.7224 35.3392 47.4879 35.5748 47.287 35.8103ZM48.6601 34.4643L48.4256 34.195C48.6601 33.9931 48.928 33.7576 49.1959 33.5557L49.3968 33.8249C49.1289 34.0268 48.8945 34.2623 48.6601 34.4643Z" fill="#DBDBDB"/>
<path d="M50.2004 33.2863L49.9995 33.0171C50.1335 32.9162 50.2674 32.8489 50.4349 32.7479L50.6023 33.0508C50.4684 33.0844 50.3344 33.1854 50.2004 33.2863Z" fill="#DBDBDB"/>
<path d="M44.7085 53.3427C44.8759 53.8138 44.6415 54.3186 44.2061 54.4868C43.7708 54.6551 43.2349 54.4195 43.0675 53.982C42.9 53.5109 43.1345 53.0061 43.5698 52.8379C44.0387 52.6696 44.541 52.9052 44.7085 53.3427Z" fill="#DBDBDB"/>
<path d="M50.9374 33.6566C51.3728 33.421 51.5068 32.8826 51.2723 32.4451C51.0379 32.0076 50.5021 31.873 50.0667 32.1086C49.6313 32.3442 49.4974 32.8826 49.7318 33.32C49.9662 33.7575 50.5021 33.8921 50.9374 33.6566Z" fill="#DBDBDB"/>
<path d="M101.573 25.4457C101.472 25.3111 101.339 25.2102 101.205 25.1092L101.473 24.8737C101.606 24.9746 101.707 25.1092 101.841 25.2438L101.573 25.4457Z" fill="#DBDBDB"/>
<path d="M102.913 53.8813L102.645 53.6794C102.846 53.4101 103.047 53.1409 103.248 52.8717L103.515 53.0736C103.348 53.3428 103.114 53.6121 102.913 53.8813ZM104.085 52.1987L103.783 52.0304C103.951 51.7276 104.118 51.4584 104.286 51.1555L104.587 51.3237C104.453 51.593 104.286 51.8958 104.085 52.1987ZM105.056 50.3815L104.755 50.2469C104.889 49.944 105.023 49.6412 105.156 49.3047L105.458 49.4393C105.357 49.7758 105.223 50.0786 105.056 50.3815ZM105.86 48.497L105.558 48.3961C105.659 48.0932 105.759 47.7567 105.86 47.4202L106.195 47.5211C106.061 47.824 105.96 48.1605 105.86 48.497ZM106.429 46.5116L106.094 46.4443C106.161 46.1078 106.262 45.7712 106.329 45.4684L106.663 45.5357C106.563 45.8385 106.496 46.1751 106.429 46.5116ZM106.831 44.4925L106.496 44.4252C106.563 44.0887 106.597 43.7521 106.63 43.4156L106.965 43.4493C106.931 43.8195 106.864 44.156 106.831 44.4925ZM107.065 42.4397L106.73 42.4061C106.764 42.0696 106.764 41.7331 106.797 41.3965H107.132C107.099 41.7667 107.065 42.1032 107.065 42.4397ZM106.797 40.4206C106.797 40.0841 106.797 39.7476 106.764 39.4111H107.099C107.099 39.7476 107.132 40.0841 107.132 40.4206H106.797ZM106.697 38.3679C106.663 38.0314 106.63 37.6949 106.597 37.3584L106.931 37.3247C106.965 37.6612 106.998 37.9977 107.032 38.3342L106.697 38.3679ZM106.463 36.3488C106.396 36.0123 106.362 35.6758 106.295 35.3393L106.63 35.272C106.697 35.6085 106.764 35.945 106.797 36.2815L106.463 36.3488ZM106.061 34.3634C105.994 34.0268 105.893 33.6903 105.793 33.3875L106.128 33.2865C106.228 33.623 106.295 33.9595 106.396 34.2961L106.061 34.3634ZM105.525 32.4116C105.424 32.0751 105.324 31.7722 105.19 31.4693L105.491 31.3684C105.625 31.6712 105.726 32.0078 105.826 32.3443L105.525 32.4116ZM104.822 30.5271C104.688 30.2242 104.554 29.9214 104.42 29.6185L104.721 29.4839C104.855 29.7868 105.023 30.0896 105.156 30.4261L104.822 30.5271ZM103.951 28.7099C103.783 28.407 103.616 28.1042 103.448 27.835L103.716 27.6667C103.884 27.9359 104.085 28.2388 104.252 28.5416L103.951 28.7099ZM102.879 26.9937C102.678 26.7245 102.477 26.4553 102.276 26.186L102.544 25.9841C102.745 26.2533 102.98 26.5226 103.181 26.7918L102.879 26.9937Z" fill="#DBDBDB"/>
<path d="M101.875 55.0254L101.64 54.7898C101.741 54.6552 101.875 54.5543 101.975 54.4197L102.209 54.6552C102.109 54.7898 102.009 54.9245 101.875 55.0254Z" fill="#DBDBDB"/>
<path d="M100.803 25.6812C100.435 25.3447 100.401 24.8063 100.702 24.4361C101.037 24.066 101.573 24.0323 101.942 24.3352C102.31 24.6717 102.343 25.2101 102.042 25.5803C101.741 25.9841 101.171 26.0177 100.803 25.6812Z" fill="#DBDBDB"/>
<path d="M101.171 54.2514C100.836 54.5879 100.803 55.16 101.171 55.4965C101.506 55.833 102.075 55.8667 102.41 55.4965C102.745 55.16 102.779 54.5879 102.41 54.2514C102.075 53.9149 101.539 53.9149 101.171 54.2514Z" fill="#DBDBDB"/>
<path d="M69.0887 13.2974L68.8208 13.0955C68.9213 12.9609 69.0217 12.8263 69.1222 12.6917L69.3901 12.8936C69.2897 13.0282 69.1892 13.1628 69.0887 13.2974Z" fill="#DBDBDB"/>
<path d="M69.993 12.1196L69.7251 11.9177C69.9595 11.6485 70.1605 11.3793 70.3949 11.1437L70.6293 11.3793C70.4619 11.6148 70.2274 11.8504 69.993 12.1196ZM71.3996 10.6389L71.1651 10.4034C71.4331 10.1678 71.6675 9.93225 71.9354 9.73034L72.1363 9.99955C71.8684 10.2015 71.634 10.437 71.3996 10.6389ZM72.9401 9.39382L72.7391 9.12461C73.0071 8.9227 73.3085 8.75444 73.6099 8.55254L73.7773 8.8554C73.5094 9.02366 73.208 9.19191 72.9401 9.39382ZM74.648 8.35063L74.5141 8.04776C74.8155 7.8795 75.1504 7.7449 75.4518 7.64394L75.5858 7.94681C75.2509 8.08141 74.9495 8.21602 74.648 8.35063ZM85.3647 7.91316C85.0298 7.8122 84.7284 7.71125 84.3935 7.61029L84.494 7.27378C84.8288 7.37473 85.1302 7.47569 85.4651 7.57664L85.3647 7.91316ZM76.5235 7.61029L76.423 7.27378C76.7579 7.17282 77.0928 7.07187 77.4277 7.00456L77.4947 7.34108C77.1598 7.44203 76.8249 7.50934 76.5235 7.61029ZM83.4223 7.40838C83.0874 7.34108 82.7525 7.27378 82.4511 7.24012L82.4846 6.90361C82.8195 6.93726 83.1544 7.00456 83.4893 7.07187L83.4223 7.40838ZM78.4658 7.17282L78.4324 6.83631C78.7673 6.80265 79.1021 6.769 79.437 6.73535L79.4705 7.07187C79.1356 7.10552 78.8007 7.13917 78.4658 7.17282ZM81.4464 7.10552C81.1115 7.07187 80.7766 7.07187 80.4417 7.07187V6.73535C80.7766 6.73535 81.1115 6.769 81.4799 6.769L81.4464 7.10552Z" fill="#DBDBDB"/>
<path d="M86.8048 8.45159C86.6374 8.38429 86.5034 8.31698 86.3359 8.28333L86.4699 7.98047C86.6374 8.04777 86.7713 8.11507 86.9388 8.18238L86.8048 8.45159Z" fill="#DBDBDB"/>
<path d="M69.7251 13.6676C69.4572 14.0714 68.9214 14.1723 68.486 13.9031C68.0841 13.6339 67.9837 13.0955 68.2516 12.658C68.5195 12.2542 69.0553 12.1533 69.4907 12.4225C69.8926 12.7253 69.993 13.2638 69.7251 13.6676Z" fill="#DBDBDB"/>
<path d="M86.5033 9.12464C86.9722 9.2929 87.4745 9.09099 87.6419 8.61987C87.8094 8.14875 87.6085 7.64398 87.1396 7.47572C86.6708 7.30746 86.1684 7.50937 86.001 7.98049C85.8 8.41796 86.0344 8.92274 86.5033 9.12464Z" fill="#DBDBDB"/>
<path d="M0 142.452L17.448 142.351H34.9295L69.8255 142.284L104.755 142.351H122.237L139.685 142.452L122.237 142.519L104.755 142.553L69.8255 142.62L34.9295 142.553L17.448 142.519L0 142.452Z" fill="#263238"/>
<path d="M129.805 112.334C129.471 113.781 129.102 115.228 129.035 116.709C129.069 116.776 129.069 117.045 129.035 116.978C129.035 117.213 128.667 117.18 128.667 116.944C128.667 116.776 128.667 116.641 128.667 116.473C127.83 115.396 126.59 114.723 125.586 113.815C124.782 113.074 124.213 112.166 123.878 111.089C123.041 108.228 123.811 105.166 122.84 102.306C121.969 99.8492 120.428 97.6955 119.122 95.4408C117.749 93.0852 116.711 90.595 116.611 87.8019C116.544 85.6818 116.778 82.8551 118.386 81.2398C120.093 79.5573 122.203 80.8024 123.509 82.3167C127.294 86.6914 129.069 92.2102 129.772 97.8637C130.174 100.993 130.576 104.123 130.475 107.286C130.442 109.036 130.174 110.685 129.805 112.334Z" fill="#FFC727"/>
<path d="M129.035 117.886C129.236 114.925 129.203 111.964 128.935 109.036V109.002C128.968 106.613 129.169 104.224 129.069 101.835C128.968 99.2434 128.6 96.6859 128.031 94.1284C128.031 94.0947 127.964 94.0947 127.997 94.1284C128.466 96.6186 128.734 99.1424 128.834 101.666C128.868 103.012 128.868 104.358 128.801 105.738C128.767 106.176 128.734 106.613 128.7 107.051C127.729 100.32 125.251 93.9264 121.601 88.2057C121.567 88.1384 121.4 88.2057 121.467 88.3066C124.112 92.614 126.021 97.3589 127.227 102.272C125.418 98.8732 122.639 96.0801 120.596 92.8159C120.596 92.7823 120.562 92.8159 120.562 92.8496C122.404 96.484 125.418 99.3443 127.361 102.911C127.696 104.358 127.964 105.839 128.165 107.32C128.433 109.339 128.566 111.392 128.6 113.444C127.495 111.358 126.323 109.373 125.418 107.152C125.385 107.084 125.318 107.118 125.318 107.185C126.088 109.473 127.126 111.93 128.6 113.882C128.6 115.329 128.566 116.776 128.466 118.223C128.232 122.093 127.595 125.895 127.294 129.765C127.294 129.866 127.461 129.9 127.461 129.799C128.332 125.895 128.767 121.824 129.035 117.886Z" fill="#263238"/>
<path d="M124.95 88.0375C124.95 88.0038 124.883 88.0375 124.916 88.0712C125.619 90.0229 126.021 92.0084 126.524 93.9938C126.557 94.0948 126.691 94.0611 126.658 93.9602C126.457 91.9411 125.753 89.922 124.95 88.0375Z" fill="#263238"/>
<path d="M142.799 96.2485C142.33 97.3926 141.795 98.5031 141.192 99.58C139.919 101.902 138.613 104.022 138.379 106.68C138.278 107.892 138.245 109.103 137.876 110.248C137.575 111.257 137.039 112.166 136.47 113.041C135.097 115.06 133.389 116.776 132.116 118.862C130.81 121.016 129.805 123.405 129.236 125.862C129.203 125.996 129.002 125.963 129.035 125.828V125.795C129.035 125.795 129.035 125.795 129.035 125.761C128.834 120.006 129.303 114.185 131.044 108.666C131.815 106.243 132.752 103.854 133.824 101.565C134.762 99.5463 135.934 97.6282 137.575 96.1475C138.647 95.1716 140.957 93.3545 142.464 94.3304C143.134 94.7678 143.101 95.5082 142.799 96.2485Z" fill="#FFC727"/>
<path d="M137.039 109.305C136.068 110.988 134.896 112.569 133.69 114.117C133.121 114.858 132.585 115.564 132.016 116.305C131.748 116.641 131.446 116.978 131.212 117.348C131.379 116.742 131.513 116.137 131.681 115.531C132.417 112.603 133.121 109.675 134.226 106.882C135.297 104.157 136.738 101.565 138.211 99.0416C138.245 98.9743 138.144 98.9406 138.111 98.9743C136.905 100.993 135.666 102.979 134.661 105.099C134.092 106.277 133.623 107.488 133.188 108.733C133.69 106.075 134.293 103.551 135.13 100.993C135.13 100.96 135.097 100.96 135.097 100.993C134.025 103.517 133.288 106.344 133.054 109.07C132.819 109.81 132.585 110.584 132.35 111.324C131.446 114.555 130.642 117.819 129.906 121.083C129.906 118.93 130.04 116.81 130.475 114.656C130.475 114.622 130.408 114.589 130.408 114.656C129.872 116.843 129.638 119.165 129.839 121.42C129.571 122.665 129.303 123.91 129.035 125.155C128.466 127.814 127.762 130.506 127.461 133.232C127.461 133.299 127.561 133.332 127.561 133.265C127.963 131.818 128.198 130.304 128.499 128.823C128.834 127.343 129.169 125.862 129.504 124.381C130.006 122.227 130.508 120.107 131.044 117.954C131.413 117.18 132.082 116.473 132.618 115.834C133.188 115.127 133.757 114.387 134.293 113.646C135.331 112.267 136.269 110.853 137.039 109.339C137.106 109.305 137.072 109.272 137.039 109.305Z" fill="#263238"/>
<path d="M137.273 106.849C136.034 108.464 134.896 110.214 134.025 112.065C134.025 112.098 134.058 112.098 134.058 112.098C135.164 110.382 136.235 108.632 137.34 106.882C137.34 106.849 137.307 106.815 137.273 106.849Z" fill="#263238"/>
<path d="M112.86 101.7C113.596 102.979 114.467 104.527 114.132 106.075C113.931 107.051 113.228 107.858 113.094 108.834C112.793 111.021 115.003 112.502 116.577 113.545C120.529 116.137 125.92 118.458 126.624 123.775C126.657 123.977 126.959 123.91 126.959 123.742V123.708C126.959 123.708 126.992 123.708 126.992 123.674C127.494 120.982 127.494 118.257 126.925 115.564C126.322 112.839 125.15 110.382 123.744 107.959C121.366 103.887 118.854 99.7482 115.271 96.6186C114.266 95.7437 112.257 94.1957 111.453 96.1475C110.649 98.032 111.955 100.152 112.86 101.7Z" fill="#FFC727"/>
<path d="M116.476 110.315C119.089 113.142 123.241 114.757 125.485 117.92C124.146 113.041 121.935 108.666 118.553 104.83C118.452 104.729 118.586 104.594 118.687 104.695C121.165 107.084 123.007 109.877 124.346 112.94C123.744 110.752 122.906 108.7 121.902 106.68C121.868 106.613 121.969 106.546 122.002 106.613C123.275 108.767 124.112 111.19 124.614 113.646C127.561 120.848 127.863 129.294 127.227 136.9C127.227 137.001 127.059 137.001 127.059 136.9C127.227 130.91 127.126 124.819 125.72 118.963C125.686 118.829 125.653 118.728 125.619 118.593C123.174 115.161 119.022 113.579 116.376 110.315C116.409 110.349 116.443 110.281 116.476 110.315Z" fill="#263238"/>
<path d="M115.874 107.892C117.247 109.171 118.586 110.449 119.959 111.728C119.959 111.728 119.959 111.762 119.926 111.762C118.419 110.752 116.912 109.406 115.773 107.993C115.74 107.892 115.807 107.825 115.874 107.892Z" fill="#263238"/>
<path d="M115.639 102.407C116.878 104.426 118.184 106.31 119.758 108.094C119.792 108.128 119.758 108.161 119.725 108.128C118.05 106.512 116.577 104.56 115.572 102.474C115.539 102.407 115.606 102.373 115.639 102.407Z" fill="#263238"/>
<path d="M121.801 142.284H133.824L132.216 126.03H123.677L121.801 142.284Z" fill="#455A64"/>
<path d="M123.375 128.688H132.485L132.217 126.03H123.677L123.375 128.688Z" fill="#263238"/>
<path d="M122.188 126.837H133.441V124.246H122.188V126.837Z" fill="#455A64"/>
<path d="M97.1529 15.1145V48.3959H56.3627L52.3774 53.5446V48.3959V15.1145H97.1529Z" fill="white"/>
<path d="M97.153 15.1145C97.153 15.1818 97.22 48.3959 97.22 48.4632C97.22 48.4969 56.3629 48.4632 56.3294 48.4969L56.4298 48.4632L52.4781 53.6119L52.2437 53.8811V53.511C52.2437 53.4437 52.2771 15.0809 52.2771 15.0136C52.3441 14.9799 97.086 15.1818 97.153 15.1145ZM97.153 15.1145L52.3776 15.1818C52.5785 14.6434 52.4446 53.6456 52.5116 53.511L52.2771 53.4436L56.2289 48.295C56.2624 48.194 97.0526 48.295 97.1195 48.295C96.9856 48.8334 97.1865 15.0136 97.153 15.1145Z" fill="#263238"/>
<path d="M97.1529 15.1145H52.3774V16.999H97.1529V15.1145Z" fill="#37474F"/>
<path d="M54.1523 16.0567C54.1523 16.2586 53.9849 16.4269 53.7839 16.4269C53.583 16.4269 53.4155 16.2586 53.4155 16.0567C53.4155 15.8548 53.583 15.6865 53.7839 15.6865C53.9849 15.6865 54.1523 15.8884 54.1523 16.0567Z" fill="#C7C7C7"/>
<path d="M55.6259 16.0567C55.6259 16.2586 55.4585 16.4269 55.2575 16.4269C55.0566 16.4269 54.8892 16.2586 54.8892 16.0567C54.8892 15.8548 55.0566 15.6865 55.2575 15.6865C55.4585 15.7202 55.6259 15.8884 55.6259 16.0567Z" fill="white"/>
<path d="M57.0659 16.0567C57.0659 16.2586 56.8984 16.4269 56.6975 16.4269C56.4966 16.4269 56.3291 16.2586 56.3291 16.0567C56.3291 15.8548 56.4966 15.6865 56.6975 15.6865C56.8984 15.7202 57.0659 15.8884 57.0659 16.0567Z" fill="#FFC727"/>
<path d="M75.2514 30.6952C75.2514 34.3632 73.0411 37.5265 69.8596 38.9062L66.4102 30.6952H75.2514Z" fill="#FFC727"/>
<path d="M65.2378 30.0894L68.6872 38.3004C68.6872 38.3004 68.6872 38.3004 68.6537 38.3004C68.3858 38.4014 68.1179 38.5023 67.85 38.6033C66.9792 38.8725 66.1085 39.0071 65.2043 39.0071C64.3001 39.0071 63.3959 38.8725 62.5586 38.6033C59.779 37.7283 57.6022 35.541 56.7315 32.7479C56.4635 31.9066 56.3296 31.0317 56.3296 30.0894C56.3296 29.1808 56.4635 28.2722 56.7315 27.4309C57.6022 24.6379 59.779 22.4505 62.5586 21.5756C63.3959 21.3064 64.2666 21.1718 65.2043 21.1718C66.1085 21.1718 67.0127 21.3064 67.85 21.5756C70.6296 22.4505 72.8064 24.6379 73.6771 27.4309C73.945 28.2722 74.079 29.1472 74.079 30.0894H65.2378Z" fill="#FFC727"/>
<path d="M65.2378 30.0894L68.6872 38.3004C68.6872 38.3004 68.6872 38.3004 68.6537 38.3004C68.3858 38.4014 68.1179 38.5023 67.85 38.6033C66.9792 38.8725 66.1085 39.0071 65.2043 39.0071C64.3001 39.0071 63.3959 38.8725 62.5586 38.6033C59.8125 37.7283 57.6022 35.5073 56.7315 32.7479C56.4635 31.9066 56.3296 31.0317 56.3296 30.0894C56.3296 29.1808 56.4635 28.2722 56.7315 27.4309C57.6022 24.6715 59.8125 22.4505 62.5586 21.5756C63.3959 21.3064 64.2666 21.1718 65.2043 21.1718C66.1085 21.1718 67.0127 21.3064 67.85 21.5756C70.5961 22.4505 72.8064 24.6715 73.6771 27.4309C73.945 28.2722 74.079 29.1472 74.079 30.0894H65.2378Z" fill="#DBDBDB"/>
<path d="M65.238 30.0894L59.4443 36.8534C57.5019 35.1708 56.3633 32.6806 56.3633 30.0894C56.3633 25.2099 60.3485 21.1718 65.238 21.1718C70.094 21.1718 74.1127 25.1763 74.1127 30.0894H65.238Z" fill="#455A64"/>
<path d="M79.8057 41.9011H73.1413L64.8359 33.5555L64.9699 33.4546L73.2083 41.7329H79.8057V41.9011Z" fill="#263238"/>
<path d="M65.3718 33.0508H64.4341V33.993H65.3718V33.0508Z" fill="#263238"/>
<path d="M79.8055 35.44H72.2704L68.687 31.8392L68.821 31.7383L72.3374 35.2717H79.8055V35.44Z" fill="#263238"/>
<path d="M69.2229 31.3345H68.2852V32.2767H69.2229V31.3345Z" fill="#263238"/>
<path d="M79.8393 29.0798H68.4194V29.2481H79.8393V29.0798Z" fill="#263238"/>
<path d="M68.7541 28.676H67.8164V29.6183H68.7541V28.676Z" fill="#263238"/>
<path d="M90.7234 28.205H82.418V28.9789H90.7234V28.205Z" fill="#EBEBEB"/>
<path d="M93.1681 29.8539H82.418V30.6279H93.1681V29.8539Z" fill="#EBEBEB"/>
<path d="M88.1781 31.4691H82.418V32.2431H88.1781V31.4691Z" fill="#EBEBEB"/>
<path d="M80.7768 28.205H78.9014V30.0894H80.7768V28.205Z" fill="#455A64"/>
<path d="M91.728 34.4978H82.418V35.2718H91.728V34.4978Z" fill="#EBEBEB"/>
<path d="M90.1875 36.113H82.418V36.887H90.1875V36.113Z" fill="#EBEBEB"/>
<path d="M93.1681 37.7284H82.418V38.5024H93.1681V37.7284Z" fill="#EBEBEB"/>
<path d="M80.7768 34.4978H78.9014V36.3823H80.7768V34.4978Z" fill="#FFC727"/>
<path d="M91.728 40.757H82.418V41.5309H91.728V40.757Z" fill="#EBEBEB"/>
<path d="M90.1875 42.3722H82.418V43.1462H90.1875V42.3722Z" fill="#EBEBEB"/>
<path d="M93.1681 43.9875H82.418V44.7615H93.1681V43.9875Z" fill="#EBEBEB"/>
<path d="M80.7768 40.757H78.9014V42.6414H80.7768V40.757Z" fill="#DBDBDB"/>
<path d="M50.1675 28.0031C50.1675 32.4787 46.5506 36.1131 42.0965 36.1131C40.2881 36.1131 38.6136 35.5073 37.274 34.4978L33.3223 35.5073L34.9632 31.8057C34.3604 30.6615 33.9921 29.3491 33.9921 27.9694C33.9921 23.4937 37.6089 19.8594 42.063 19.8594C46.5171 19.8594 50.1675 23.5274 50.1675 28.0031Z" fill="white"/>
<path d="M50.1673 28.003C50.2343 32.7143 46.0146 36.5842 41.3931 36.1804C39.886 36.0794 38.4125 35.5073 37.2069 34.6324L37.3074 34.666L33.3556 35.7092L33.0542 35.7766L33.1882 35.5073L34.8291 31.8057V31.9403C32.9537 28.6088 33.8579 24.0995 36.805 21.7102C42.0964 17.3018 50.1673 21.1045 50.1673 28.003ZM50.1673 28.003C50.2008 22.8207 45.1439 18.8498 40.154 20.2295C35.231 21.4746 32.6858 27.2964 35.0971 31.772L35.1305 31.8393L35.0971 31.9066L33.4226 35.6083L33.2551 35.4064L37.2069 34.4305H37.2739C38.7474 35.5746 40.6228 36.1804 42.4647 36.0794C46.7179 35.9448 50.2008 32.2095 50.1673 28.003Z" fill="#263238"/>
<path d="M39.2497 28.003C39.2497 28.3732 38.9483 28.676 38.5799 28.676C38.2116 28.676 37.9102 28.3732 37.9102 28.003C37.9102 27.6328 38.2116 27.33 38.5799 27.33C38.9483 27.33 39.2497 27.6328 39.2497 28.003Z" fill="#263238"/>
<path d="M42.7663 28.003C42.7663 28.3732 42.4649 28.676 42.0965 28.676C41.7282 28.676 41.4268 28.3732 41.4268 28.003C41.4268 27.6328 41.7282 27.33 42.0965 27.33C42.4649 27.33 42.7663 27.6328 42.7663 28.003Z" fill="#263238"/>
<path d="M46.2492 28.003C46.2492 28.3732 45.9478 28.676 45.5795 28.676C45.2111 28.676 44.9097 28.3732 44.9097 28.003C44.9097 27.6328 45.2111 27.33 45.5795 27.33C45.9478 27.33 46.2492 27.6328 46.2492 28.003Z" fill="#263238"/>
<g opacity="0.5">
<path d="M105.793 14.4415C104.219 19.7584 99.3631 20.4314 99.3631 20.4314C98.8607 21.1718 97.99 23.1909 97.99 23.1909L91.9954 21.9121C91.9954 21.9121 91.9954 19.7248 91.8614 18.8162C91.8614 18.8162 87.7087 16.225 88.4455 10.7062C88.9479 6.86987 92.7991 1.88944 99.0952 3.23551H99.1621C105.391 4.58157 106.898 10.7398 105.793 14.4415Z" fill="#FFC727"/>
</g>
<g opacity="0.7">
<path d="M105.023 14.3069C103.583 19.1864 99.1287 19.7921 99.1287 19.7921C98.6599 20.4651 97.6887 23.1236 97.6887 23.1236L92.1964 21.9458C92.1964 21.9458 92.3973 19.1191 92.2299 18.3114C92.2299 18.3114 88.4456 15.9222 89.0819 10.8744C89.5507 7.37469 93.0671 2.79808 98.8273 4.04318H98.8943C104.688 5.28829 106.028 10.9081 105.023 14.3069Z" fill="#FFC727"/>
</g>
<path d="M93.3155 12.8465L93.0562 22.7371L93.7257 22.7548L93.9851 12.8642L93.3155 12.8465Z" fill="white"/>
<path d="M99.8034 14.1097L96.0137 23.2415L96.6319 23.5005L100.422 14.3688L99.8034 14.1097Z" fill="white"/>
<path d="M96.4163 16.7971C96.3493 16.7971 96.2823 16.7971 96.2153 16.7634C95.646 16.6288 95.2776 16.0567 95.0767 15.35C94.8758 15.4846 94.7083 15.5183 94.5074 15.4846C93.5697 15.2827 93.6032 13.3309 93.6032 13.23H93.8711C93.8711 13.7348 93.9716 15.0808 94.5744 15.2154C94.7083 15.2491 94.8423 15.1818 95.0097 15.0472C94.8423 14.4078 94.8423 13.7348 94.9428 13.2636C95.1102 12.4897 95.5456 12.4897 95.713 12.5233C95.9474 12.557 96.1149 12.7252 96.1819 12.9271C96.3493 13.4992 95.9474 14.4078 95.4451 14.9462C95.4116 15.0135 95.3446 15.0472 95.3111 15.0808C95.5121 15.7539 95.847 16.3259 96.2823 16.4269C96.6842 16.5278 97.1531 16.225 97.5214 15.7539C97.4545 15.6529 97.421 15.5519 97.3875 15.451C97.1531 14.7107 97.287 13.7348 97.6889 13.2973C97.8563 13.0954 98.0573 13.0281 98.2917 13.0954C98.4591 13.129 98.8275 13.2973 98.6601 14.1386C98.5596 14.6097 98.2582 15.2827 97.8563 15.7875C97.9568 15.9558 98.1243 16.0567 98.3587 16.124C98.8275 16.225 99.5308 15.2491 99.8657 14.5761L100.1 14.677C99.9997 14.8789 99.1289 16.4942 98.3252 16.3259C98.0908 16.2586 97.8898 16.1577 97.7224 15.9558C97.287 16.4942 96.8517 16.7971 96.4163 16.7971ZM98.1243 13.3982C98.0238 13.3982 97.9233 13.4319 97.8563 13.5329C97.5214 13.903 97.421 14.8116 97.6219 15.451C97.6554 15.5183 97.6554 15.5519 97.6889 15.6192C98.0238 15.1818 98.2582 14.6097 98.3587 14.1386C98.3922 13.9367 98.4592 13.4319 98.1912 13.3982C98.1577 13.3982 98.1577 13.3982 98.1243 13.3982ZM95.5456 12.8262C95.3111 12.8262 95.2107 13.129 95.1437 13.3646C95.0432 13.8021 95.0767 14.3405 95.1772 14.8789L95.2107 14.8453C95.713 14.3068 96.0144 13.4655 95.8805 13.0617C95.847 12.9271 95.7465 12.8598 95.6125 12.8262C95.5791 12.8598 95.5791 12.8262 95.5456 12.8262Z" fill="white"/>
<path d="M98.7511 23.3778L91.2188 21.7587L90.336 25.9051L97.8683 27.5242L98.7511 23.3778Z" fill="#455A64"/>
<path d="M96.9856 27.3299C96.3828 28.0366 95.3781 28.5414 93.7706 28.2049C92.1631 27.8684 91.4598 26.9598 91.1919 26.0848L96.9856 27.3299Z" fill="#455A64"/>
<path d="M96.9854 27.3299C96.8179 27.5319 96.617 27.7001 96.3491 27.8684L91.2587 26.3541C91.2252 26.2531 91.1917 26.1858 91.1582 26.0848L96.9854 27.3299Z" fill="#37474F"/>
<path d="M98.7602 24.2004L90.6558 23.2245L90.7227 22.8879L98.8607 23.8302L98.7602 24.2004Z" fill="#37474F"/>
<path d="M98.5258 25.3109L90.4214 24.335L90.4884 23.9648L98.6263 24.9407L98.5258 25.3109Z" fill="#37474F"/>
<path d="M98.325 26.4214L90.187 25.4455L90.254 25.0753L98.3919 26.0512L98.325 26.4214Z" fill="#37474F"/>
<g opacity="0.5">
<path d="M90.5554 9.83116C90.8233 9.93211 91.4931 8.58605 93.3685 7.27364C94.2057 6.66791 96.9854 6.3314 96.9854 5.42281C96.9854 4.54787 94.5071 4.91803 93.0671 5.99488C90.7228 7.77841 90.321 9.76386 90.5554 9.83116Z" fill="white"/>
<path d="M104.052 13.0617C104.554 13.1627 104.722 12.3887 104.219 12.2541C103.717 12.1531 103.55 12.9608 104.052 13.0617Z" fill="white"/>
<path d="M100.335 18.4797C100.569 18.7489 102.176 17.8066 103.114 16.4269C103.884 15.3164 104.286 13.7684 103.985 13.6002C103.65 13.4319 102.98 15.5183 102.411 16.225C101.641 17.1336 100.067 18.1768 100.335 18.4797Z" fill="white"/>
</g>
<path d="M25.9044 101.201H28.751V99.1822H25.9044V101.201Z" fill="#A6A6A6"/>
<path d="M24.7655 119.399H29.9229L29.9229 101.193H24.7655V119.399Z" fill="#C7C7C7"/>
<path d="M29.8965 112.329H32.1738V111.353H29.8965V112.329Z" fill="#A6A6A6"/>
<path d="M32.1707 112.834H36.7588V110.849H32.1707V112.834Z" fill="#C7C7C7"/>
<path d="M24.0873 125.425H30.7183V119.401H24.0873V125.425Z" fill="#C7C7C7"/>
<path d="M26.658 137.943H28.031L28.8348 122.026H25.8877L26.658 137.943Z" fill="#A6A6A6"/>
<path d="M45.479 136.294L46.7181 135.352L30.7437 121.151V125.424L45.479 136.294Z" fill="#A6A6A6"/>
<path d="M9.3436 136.294L8.10449 135.352L24.1125 121.151V125.424L9.3436 136.294Z" fill="#A6A6A6"/>
<path d="M24.7655 119.418H29.9229V117.836H24.7655V119.418Z" fill="#A6A6A6"/>
<path d="M45.5457 142.452C47.3953 142.452 48.8947 140.945 48.8947 139.087C48.8947 137.228 47.3953 135.722 45.5457 135.722C43.6962 135.722 42.1968 137.228 42.1968 139.087C42.1968 140.945 43.6962 142.452 45.5457 142.452Z" fill="#263238"/>
<path d="M43.9717 139.087C43.9717 139.962 44.675 140.669 45.5457 140.669C46.4164 140.669 47.1197 139.962 47.1197 139.087C47.1197 138.212 46.4164 137.505 45.5457 137.505C44.675 137.472 43.9717 138.212 43.9717 139.087Z" fill="white"/>
<path d="M9.27668 142.452C11.1263 142.452 12.6256 140.945 12.6256 139.087C12.6256 137.228 11.1263 135.722 9.27668 135.722C7.42711 135.722 5.92773 137.228 5.92773 139.087C5.92773 140.945 7.42711 142.452 9.27668 142.452Z" fill="#263238"/>
<path d="M7.70264 139.087C7.70264 139.962 8.40592 140.669 9.27664 140.669C10.1474 140.669 10.8506 139.962 10.8506 139.087C10.8506 138.212 10.1474 137.505 9.27664 137.505C8.40592 137.472 7.70264 138.212 7.70264 139.087Z" fill="white"/>
<path d="M26.3218 142.442H28.4316V136.89H26.3218V142.442Z" fill="#263238"/>
<path d="M4.08594 99.1426H57.1667V95.1044H37.3075L30.6096 54.4869H6.12879L4.08594 99.1426Z" fill="#FFC727"/>
<path opacity="0.3" d="M4.08594 99.1426H57.1667V95.1044H37.3075L30.6096 54.4869H6.12879L4.08594 99.1426Z" fill="black"/>
<path opacity="0.2" d="M37.3073 95.1044H7.70264L9.47758 54.4869H30.6094L37.3073 95.1044Z" fill="black"/>
<path opacity="0.5" d="M57.1666 95.1044H26.2559V99.1426H57.1666V95.1044Z" fill="#FFC727"/>
<path d="M68.4525 142.149C67.4479 142.25 42.3977 135.621 41.527 134.712C41.1921 134.376 41.9289 130.405 42.9671 125.66L46.3495 112.267L62.4244 116.204L59.7118 130.203C59.7118 130.203 67.6488 137.034 68.486 138.145C69.3233 139.154 69.4907 142.048 68.4525 142.149Z" fill="#AD6359"/>
<path d="M68.4527 142.149C67.448 142.25 42.3979 135.621 41.5272 134.712C41.1923 134.376 41.929 130.405 42.9337 125.626C42.9337 125.626 43.0342 125.155 43.2351 124.415L59.9799 128.554L59.6785 130.136C59.6785 130.136 67.6155 136.967 68.4527 138.044C69.3234 139.154 69.4909 142.048 68.4527 142.149Z" fill="#EBEBEB"/>
<path d="M68.8549 142.553C67.8837 142.62 42.0968 135.924 41.2931 135.049C40.9917 134.712 41.7954 130.708 42.8336 126.097L60.2481 130.472C60.2481 130.472 67.9507 137.202 68.7209 138.246C69.5247 139.322 69.8261 142.486 68.8549 142.553Z" fill="#FFC727"/>
<path opacity="0.5" d="M68.8549 142.553C67.8837 142.62 42.0968 135.924 41.2931 135.049C40.9917 134.712 41.7954 130.708 42.8336 126.097L60.2481 130.472C60.2481 130.472 67.9507 137.202 68.7209 138.246C69.5247 139.322 69.8261 142.486 68.8549 142.553Z" fill="black"/>
<path d="M68.7542 141.409C64.4676 140.164 47.0531 135.621 42.6994 134.746C42.6659 134.746 42.6659 134.746 42.6994 134.78C46.9191 136.092 64.4006 140.5 68.7542 141.51C68.8212 141.51 68.8547 141.443 68.7542 141.409Z" fill="#263238"/>
<path d="M67.4816 137.27C66.477 136.967 65.3383 137.202 64.635 137.674C63.9318 138.111 63.262 138.818 63.061 139.726C63.061 139.76 63.0945 139.76 63.128 139.726C63.7978 138.077 65.7402 137.001 67.4816 137.303C67.5151 137.303 67.5151 137.27 67.4816 137.27Z" fill="#263238"/>
<path d="M61.8219 131.482C60.1809 130.775 58.0041 130.607 56.4301 131.549C56.3631 131.583 56.4301 131.684 56.4971 131.65C58.3055 131.482 59.9465 131.482 61.7549 131.684C61.8889 131.684 61.9559 131.515 61.8219 131.482Z" fill="#263238"/>
<path d="M62.8937 132.491C61.2527 131.784 59.0759 131.616 57.5019 132.558C57.4349 132.592 57.5019 132.693 57.5688 132.659C59.3773 132.491 61.0183 132.491 62.8267 132.693C62.9941 132.727 63.0276 132.525 62.8937 132.491Z" fill="#263238"/>
<path d="M63.9987 133.501C62.3577 132.794 60.1808 132.626 58.6068 133.568C58.5399 133.602 58.6068 133.703 58.6738 133.669C60.4823 133.501 62.1232 133.501 63.9317 133.703C64.0656 133.736 64.0991 133.568 63.9987 133.501Z" fill="#263238"/>
<path opacity="0.1" d="M48.9618 137.505C44.8091 136.327 41.5606 135.352 41.2592 135.049C41.0248 134.78 41.4601 132.222 42.1634 128.891L48.9618 137.505Z" fill="black"/>
<path d="M59.9126 130.169L42.833 126.064C42.833 126.064 47.8564 96.8205 47.1196 95.811C45.7465 93.9265 24.8826 94.3303 18.4526 87.9029C11.6543 81.1053 14.6014 72.4905 14.6014 72.4905H33.255C33.255 72.4905 34.5276 75.721 34.8625 75.822C39.0821 77.0671 54.4538 78.1776 60.4819 83.0234C62.0224 84.2685 64.6681 87.5327 65.2039 90.7969C66.8784 101.094 59.9126 130.169 59.9126 130.169Z" fill="#263238"/>
<path d="M43.9715 122.934C44.5073 122.934 45.0097 123.069 45.512 123.17C46.0478 123.271 46.5502 123.372 47.086 123.473C48.1577 123.708 49.2293 123.91 50.301 124.146C52.4443 124.583 54.5542 125.054 56.664 125.559C57.8696 125.828 59.0418 126.165 60.2139 126.501C60.2474 126.501 60.2474 126.569 60.1804 126.569C55.8603 125.862 51.6406 124.886 47.3874 123.91C46.8181 123.775 46.2153 123.641 45.646 123.506C45.0767 123.372 44.4738 123.237 43.938 123.002C43.9045 123.002 43.9045 122.934 43.9715 122.934Z" fill="#37474F"/>
<path d="M42.4646 94.6335C35.5992 93.6576 23.1412 92.6144 18.4526 87.9368C11.6543 81.1392 14.6014 72.5244 14.6014 72.5244H27.9302L42.4646 94.6335Z" fill="#37474F"/>
<path d="M46.048 121.353C46.0145 121.588 46.1485 121.756 46.2155 121.353C48.2248 112.132 49.6649 100.657 49.8323 99.1425C49.8993 98.4022 49.9663 97.6282 49.9998 96.8879C50.0333 96.5177 50.0333 96.1475 50.0333 95.7437C50.0333 95.3735 49.9998 94.9697 49.8993 94.5996C49.8658 94.4986 49.8323 94.3976 49.7988 94.2967C49.7319 94.1957 49.6649 94.0948 49.5644 94.0275C49.397 93.8929 49.2295 93.8256 49.0286 93.7246C48.6602 93.59 48.2918 93.4554 47.9569 93.3881C47.2202 93.1862 46.4834 93.0516 45.7466 92.917C44.2731 92.6478 42.7995 92.4122 41.326 92.1766C38.3789 91.7392 35.3984 91.3017 32.4848 90.7633C29.5712 90.1912 26.6241 89.5855 23.8445 88.5086C22.4714 87.9702 21.0984 87.2972 20.1607 86.1194C19.156 85.0425 18.2853 83.7974 17.6825 82.4177C16.4768 79.6919 16.1084 76.596 16.5438 73.6346C16.075 76.596 16.3764 79.7256 17.5485 82.485C18.1513 83.8647 18.9885 85.1435 19.9932 86.254C20.2611 86.5232 20.4956 86.8261 20.797 87.0616C21.0984 87.2972 21.3998 87.5327 21.7347 87.7346C22.371 88.1385 23.0743 88.4413 23.7775 88.7442C25.1841 89.3163 26.6241 89.7201 28.0642 90.0902C29.5042 90.4604 30.9778 90.7633 32.4513 91.0325C35.3984 91.6046 38.3454 92.042 41.2925 92.4795C42.7661 92.7151 44.2396 92.917 45.7131 93.1862C46.4499 93.3208 47.1867 93.4554 47.8899 93.6573C48.2583 93.7583 48.5932 93.8592 48.9281 93.9938C49.0956 94.0611 49.263 94.1284 49.397 94.2294C49.464 94.263 49.4974 94.3304 49.5309 94.3977C49.5644 94.465 49.5979 94.5323 49.5979 94.6332C49.6984 94.9697 49.6984 95.3399 49.6984 95.7101C49.6984 96.0802 49.6984 96.4504 49.6984 96.8206C49.6649 97.5609 49.5979 98.3012 49.5309 99.0752C49.397 100.556 49.196 102.07 48.9951 103.551C48.5932 106.546 46.5839 118.391 46.048 121.353Z" fill="#37474F"/>
<path d="M48.0575 142.082C47.0863 142.385 24.9832 142.048 23.9451 141.342C23.5432 141.072 23.3757 137.068 23.2753 132.188C23.2753 132.121 23.2753 132.087 23.2753 132.02C23.2418 131.011 23.2418 129.967 23.2418 128.924C23.2418 128.79 23.2418 128.621 23.2418 128.487C23.2083 121.453 23.9786 114.319 23.9786 114.319L41.728 114.353L41.1586 128.554L41.1252 129.126L41.0247 132.054V132.357C41.0247 132.357 46.1151 137.236 47.1533 138.111C48.1914 138.986 49.0287 141.779 48.0575 142.082Z" fill="#AD6359"/>
<path d="M49.0288 142.183C48.091 142.486 24.7824 142.284 23.7777 141.611C23.4093 141.375 23.2084 137.27 23.1079 132.558H41.4266C41.4266 132.558 47.1199 137.505 48.158 138.347C49.1627 139.188 49.9665 141.88 49.0288 142.183Z" fill="#FFC727"/>
<path opacity="0.5" d="M49.0288 142.183C48.091 142.486 24.7824 142.284 23.7777 141.611C23.4093 141.375 23.2084 137.27 23.1079 132.558H41.4266C41.4266 132.558 47.1199 137.505 48.158 138.347C49.1627 139.188 49.9665 141.88 49.0288 142.183Z" fill="black"/>
<path d="M48.6606 141.106C44.2065 140.971 29.4711 140.803 25.0505 141.005C25.017 141.005 25.017 141.039 25.0505 141.039C29.4711 141.274 44.173 141.308 48.6606 141.207C48.7276 141.173 48.7276 141.106 48.6606 141.106Z" fill="#263238"/>
<path d="M47.6893 138.246C45.2445 137.034 42.4649 136.731 40.6565 137.135C38.915 137.505 37.1736 138.38 36.5708 139.894C36.5373 139.928 36.6712 139.995 36.7047 139.962C38.5801 137.438 43.4026 136.664 47.6223 138.347C47.7562 138.38 47.7897 138.313 47.6893 138.246Z" fill="#263238"/>
<path d="M41.9292 135.217C39.2835 134.51 36.2025 134.544 33.5903 135.52C33.4899 135.553 33.6238 135.688 33.6908 135.654C36.4369 135.352 38.9821 135.15 41.8957 135.486C42.0966 135.52 42.1301 135.284 41.9292 135.217Z" fill="#263238"/>
<path d="M40.9917 134.073C38.346 133.366 35.265 133.4 32.6528 134.376C32.5524 134.409 32.6863 134.544 32.7533 134.51C35.4994 134.207 38.0446 134.005 40.9582 134.342C41.1591 134.376 41.1926 134.14 40.9917 134.073Z" fill="#263238"/>
<path d="M40.0537 132.929C37.408 132.222 34.327 132.256 31.7148 133.231C31.6144 133.265 31.7483 133.4 31.8153 133.366C34.5614 133.063 37.1066 132.861 40.0202 133.198C40.2212 133.231 40.2547 132.996 40.0537 132.929Z" fill="#263238"/>
<path d="M41.594 132.861L22.8064 132.727C22.8064 132.727 22.9403 101.666 22.0026 99.2098C21.0649 96.6859 17.649 94.936 13.5298 90.1238C7.23378 82.8215 12.7261 72.5577 12.7261 72.5577H31.1118C31.1118 72.5577 33.4895 78.615 33.3556 81.0716C33.3556 81.0716 31.3797 81.2062 30.2076 81.2062C30.2076 81.2062 38.7474 88.3067 40.9577 94.9697C42.7661 100.623 41.594 132.861 41.594 132.861Z" fill="#263238"/>
<path d="M24.9502 81.5763C26.6581 81.1389 28.3996 81.0043 30.141 80.9706C31.916 80.937 33.6909 81.0379 35.4324 81.2398C35.4659 81.2398 35.4659 81.3071 35.4324 81.3071C33.6909 81.3744 31.916 81.4754 30.1745 81.5427C28.4331 81.6436 26.6916 81.7783 24.9502 81.7783C24.8497 81.7783 24.8162 81.61 24.9502 81.5763Z" fill="#37474F"/>
<path d="M15.9749 79.1534C16.8122 79.0861 17.5824 78.8169 18.3862 78.615C19.056 78.4131 19.6253 78.2112 20.1276 77.6728C21.0653 76.6632 21.4337 75.3171 22.1705 74.173C22.204 74.1393 22.2375 74.173 22.2375 74.2066C22.07 74.9806 21.8356 75.7883 21.5677 76.5286C21.3332 77.168 20.9984 77.8074 20.563 78.2785C19.4244 79.4899 17.5155 79.3217 16.0084 79.288C15.8745 79.3217 15.8745 79.1871 15.9749 79.1534Z" fill="#37474F"/>
<path d="M23.8112 129.025C24.3471 128.924 24.8829 128.924 25.4187 128.89C25.9546 128.89 26.5239 128.857 27.0597 128.857C28.1649 128.823 29.3035 128.823 30.4087 128.789C32.6525 128.756 34.8628 128.722 37.1066 128.722C38.3792 128.722 39.6183 128.789 40.8909 128.857C40.9244 128.857 40.9244 128.924 40.8909 128.924C36.4368 129.193 31.9492 129.227 27.4951 129.193C26.8923 129.193 26.2895 129.193 25.6532 129.193C25.0504 129.193 24.4141 129.193 23.8112 129.092C23.7778 129.092 23.7778 129.025 23.8112 129.025Z" fill="#37474F"/>
<path d="M32.5188 73.2644C32.4183 74.3749 32.3848 75.4854 32.2174 76.5959C32.1504 77.1344 32.1169 77.6391 32.0164 78.1776C31.9829 78.3795 31.916 78.615 31.7485 78.7833C31.5811 78.9179 31.3131 78.9852 31.0787 79.0188C30.5764 79.0862 30.2415 78.8506 30.1745 78.3122C30.074 77.3026 30.3754 73.7692 30.3754 73.4663C30.3754 73.399 30.1745 73.399 30.1745 73.4663C29.9066 75.6873 29.5382 78.5477 30.007 79.0188C30.5429 79.5573 31.4136 79.5909 31.9494 79.1535C32.2174 78.9179 32.3178 78.5814 32.3848 78.2449C32.4518 77.7737 32.4853 77.269 32.5188 76.7642C32.6192 75.5864 32.7197 74.4422 32.7197 73.2644C32.6862 73.1635 32.5188 73.1635 32.5188 73.2644Z" fill="#37474F"/>
<path d="M30.8443 79.1871C30.8108 79.3217 30.7773 79.4563 30.7438 79.6246C30.7103 79.7592 30.6768 79.8938 30.6433 80.0621C30.6098 80.1967 30.5763 80.3313 30.5428 80.4995C30.5094 80.6341 30.4759 80.7687 30.4424 80.937C30.4424 81.0043 30.5094 81.038 30.5428 80.9706C30.6098 80.836 30.6768 80.7014 30.7103 80.5668C30.7438 80.4322 30.8108 80.2976 30.8443 80.1294C30.8777 79.9948 30.9112 79.8601 30.9447 79.6919C30.9782 79.5573 31.0117 79.389 31.0117 79.2544C31.0452 79.1198 30.8777 79.0862 30.8443 79.1871Z" fill="#37474F"/>
<path d="M13.4296 74.2739C13.0947 76.6632 12.8937 79.0524 12.9942 81.4754C13.0612 82.6868 13.1952 83.8983 13.597 85.0424C13.798 85.6145 14.1329 86.1529 14.4678 86.624C14.8026 87.1288 15.2045 87.5999 15.5729 88.0374C17.1134 89.8882 18.8214 91.5708 20.4959 93.287C21.3331 94.162 22.1703 95.0033 22.9406 95.9119C23.309 96.3493 23.7108 96.8205 24.0122 97.3252C24.3137 97.7964 24.4141 98.4021 24.5481 98.9742C24.749 100.152 24.883 101.33 24.9834 102.541C25.0839 103.719 25.1509 104.93 25.2179 106.142C25.3183 108.531 25.3853 110.281 25.4523 112.67C25.5193 115.06 25.4188 124.819 25.3853 127.073C25.3853 127.208 25.5863 127.241 25.5863 127.073C25.6532 124.684 25.6532 122.261 25.6867 119.872C25.7202 117.483 25.7202 115.06 25.6867 112.67C25.6532 110.281 25.6197 108.531 25.5193 106.142C25.4523 104.93 25.3853 103.753 25.3183 102.541C25.2179 101.33 25.1174 100.152 24.883 98.9405C24.816 98.6376 24.749 98.3348 24.682 98.0319C24.6151 97.7291 24.4811 97.4262 24.3137 97.157C23.9788 96.6186 23.6104 96.1474 23.2085 95.71C22.4048 94.8014 21.601 93.9264 20.7638 93.0851C19.0893 91.3689 17.3813 89.6863 15.8073 87.9028C15.4055 87.4653 15.0371 86.9942 14.7022 86.5231C14.3673 86.052 14.0324 85.5472 13.8315 84.9751C13.3961 83.8646 13.2621 82.6532 13.1952 81.4754C12.9942 79.0524 13.1617 76.6632 13.4296 74.2739Z" fill="#37474F"/>
<path d="M24.615 51.7274C29.404 58.5587 36.6712 66.0966 38.781 66.9379C41.4602 67.9811 54.5211 65.7264 55.1908 65.5245C56.296 65.2217 54.9229 54.4532 53.8848 54.6214C50.7702 55.2272 42.4314 57.2126 41.6611 56.8761C40.8239 56.5059 34.8962 53.1744 28.6002 49.2372C24.2466 46.5114 21.6344 47.4873 24.615 51.7274Z" fill="#AD6359"/>
<path d="M54.454 65.6928C55.6262 65.6928 61.018 65.2554 62.4915 64.8179C63.965 64.3468 68.0843 62.7315 67.8498 61.5873C67.6154 60.4095 66.3763 60.8134 66.3763 60.8134C66.3763 60.8134 68.0173 59.8375 67.6824 58.6933C67.3475 57.5492 65.4051 58.1885 65.4051 58.1885C65.4051 58.1885 67.0126 57.078 66.5772 55.9339C66.1419 54.8234 64.3334 55.7993 64.3334 55.7993C64.3334 55.7993 65.8405 54.857 65.1037 54.0831C64.233 53.1408 61.6208 55.2272 59.9463 55.5974C59.5779 55.6983 52.1768 56.8088 52.1768 56.8088L54.454 65.6928Z" fill="#AD6359"/>
<path d="M64.5007 55.6983C62.5918 57.2127 61.4867 57.5492 59.0754 57.7847C59.0419 57.7847 59.0419 57.852 59.0754 57.852C61.4532 57.8184 62.8932 57.6165 64.5677 55.7657C64.6682 55.6983 64.6012 55.5974 64.5007 55.6983Z" fill="#263238"/>
<path d="M65.5722 58.0203C63.4289 59.4337 62.2568 59.7702 59.7785 60.2413C59.745 60.2413 59.745 60.3086 59.7785 60.3086C62.2568 60.0731 63.6968 59.8375 65.6392 58.1549C65.7062 58.054 65.6392 57.953 65.5722 58.0203Z" fill="#263238"/>
<path d="M66.242 60.7798C64.0652 61.9912 62.7926 62.4287 60.3144 62.5633C60.2474 62.5633 60.2474 62.6643 60.3144 62.6643C62.8261 62.7989 64.4671 62.2268 66.2755 60.8471C66.4095 60.7461 66.376 60.7125 66.242 60.7798Z" fill="#263238"/>
<path d="M50.5356 55.7657C50.5356 55.7657 52.8464 53.7466 54.052 53.0736C55.2577 52.4005 60.6495 51.5592 60.9174 52.737C61.2188 54.2514 58.2047 55.3282 56.6642 55.6647C56.6642 55.6647 57.401 59.1308 55.3916 60.4096C53.3488 61.6547 50.5356 55.7657 50.5356 55.7657Z" fill="#AD6359"/>
<path d="M60.8505 53.1746C60.1472 54.7562 58.1044 55.059 56.5973 55.5302C56.4969 55.5638 56.4634 55.6648 56.5304 55.7321C56.7313 57.2127 56.5973 59.3664 55.4587 60.4096C55.4252 60.4433 55.4587 60.4769 55.4922 60.4769C56.8653 59.5011 57.1667 57.4147 56.8318 55.7994C58.3723 55.3619 60.4151 54.9581 60.8505 53.1746Z" fill="#263238"/>
<path d="M51.3061 54.0834L53.2819 66.9047C53.2819 66.9047 41.5606 68.8901 38.7475 67.6113C35.9679 66.2989 27.9639 56.9438 24.7489 52.1316C21.5339 47.3195 24.2466 46.3436 28.0309 48.6655C31.8152 50.9875 41.1253 56.5063 41.5606 56.54C41.9625 56.5736 51.3061 54.0834 51.3061 54.0834Z" fill="#FFC727"/>
<path d="M49.3973 62.2604C49.1629 60.8133 48.9619 59.3663 48.694 57.9193C48.5266 57.1117 48.3926 56.2704 48.2252 55.4627C48.2252 55.4291 48.1582 55.4291 48.1582 55.4627C48.3257 56.9098 48.4931 58.3904 48.7275 59.8374C48.9619 61.2845 49.1964 62.7315 49.4308 64.1785C49.5648 64.9861 49.7322 65.8274 49.9331 66.6351H49.9666C49.8327 65.188 49.5982 63.741 49.3973 62.2604Z" fill="#263238"/>
<path opacity="0.1" d="M40.2547 67.9475C39.6519 67.8802 39.1161 67.7792 38.7477 67.611C35.9681 66.2986 27.9641 56.9434 24.7491 52.1313C22.4383 48.6651 23.2086 47.2181 25.1845 47.4873C29.7725 53.6119 35.1308 60.948 40.2547 67.9475Z" fill="black"/>
<path d="M9.44417 79.1199C9.51115 79.1872 35.0301 75.9903 35.2645 75.7211C35.5994 75.3509 32.1835 54.487 28.0308 48.6652C26.9926 47.2182 23.3423 47.0163 21.6008 48.2614C12.9941 54.487 9.24323 78.8507 9.44417 79.1199Z" fill="#FFC727"/>
<path d="M19.1228 50.5834C12.09 57.28 4.18647 70.8079 5.6935 73.8029C7.36797 77.1681 17.1469 67.7793 17.1469 67.2072C17.1469 66.7698 19.6251 58.7943 22.3713 52.4342C25.0839 46.1077 20.8642 48.9344 19.1228 50.5834Z" fill="#F7A9A0"/>
<path d="M17.2139 67.2072C17.5488 66.2649 21.2996 55.4964 22.7396 51.8621C24.0122 48.5979 23.4429 47.2181 20.6298 49.1699C15.4724 52.7707 7.16704 63.7074 5.09069 69.6301C3.11481 75.3508 6.93261 75.5528 10.9179 73.0289C14.1998 70.9425 17.2139 67.2072 17.2139 67.2072Z" fill="#FFC727"/>
<path d="M16.5439 68.8224C17.9505 64.3467 19.558 59.9384 21.3329 55.631C19.9264 60.1066 18.3189 64.515 16.5439 68.8224Z" fill="#263238"/>
<path d="M20.4624 58.2222C20.6968 57.6501 21.0652 57.1453 21.4336 56.6742C21.2327 57.2126 20.8643 57.751 20.4624 58.2222Z" fill="#263238"/>
<path d="M21.668 49.0017C21.8689 49.2709 22.1033 49.5738 22.3378 49.843C22.5722 50.1122 22.8066 50.3814 23.041 50.6506C23.5099 51.1554 24.0122 51.6938 24.5146 52.165C25.0169 52.6361 25.5527 53.1072 26.0886 53.5447C26.6244 53.9821 27.1937 54.386 27.7631 54.7898L27.5621 54.8234C27.5621 54.7898 27.5956 54.7561 27.5956 54.7225C27.5956 54.6888 27.6291 54.6552 27.6291 54.5879C27.6626 54.4869 27.6961 54.4196 27.6961 54.3187C27.7296 54.1504 27.7965 53.9485 27.83 53.7802C27.897 53.4101 27.964 53.0399 28.031 52.6697C28.0979 52.2996 28.1314 51.9294 28.1984 51.5592L28.3659 50.4487C28.3659 50.8189 28.3324 51.1891 28.3324 51.5592C28.2989 51.9294 28.2654 52.2996 28.2319 52.6697C28.1984 53.0399 28.1314 53.4101 28.0645 53.7802C28.031 53.9821 27.9975 54.1504 27.9305 54.3523C27.897 54.4533 27.897 54.5542 27.8635 54.6215C27.8635 54.6552 27.83 54.7225 27.83 54.7561C27.83 54.7898 27.7965 54.7898 27.7965 54.8234C27.7965 54.8571 27.7631 54.8571 27.7631 54.8907L27.6961 55.0253L27.5621 54.958C26.9928 54.5542 26.39 54.1504 25.8542 53.7129C25.5862 53.4774 25.3183 53.2418 25.0504 53.0062C24.9164 52.8716 24.7825 52.7707 24.6485 52.6361C24.5146 52.5015 24.3806 52.4005 24.2801 52.2659C23.7778 51.7611 23.309 51.2227 22.8401 50.6843C22.4717 50.2132 22.0364 49.6411 21.668 49.0017Z" fill="#263238"/>
<path d="M26.4235 52.6697C25.3184 52.6024 23.2086 50.3141 22.4718 48.4633C22.4383 48.3287 22.7397 47.1172 23.0746 45.6029C23.2755 44.6943 23.4765 43.6511 23.5769 42.7089L29.3371 44.8626C29.3371 44.8626 28.5334 46.7807 28.3324 48.4296C28.3324 48.5642 28.3324 48.6988 28.3324 48.8334C28.3324 48.8671 28.3324 48.8671 28.3324 48.9007C28.3659 49.6747 28.165 52.7707 26.4235 52.6697Z" fill="#AD6359"/>
<path d="M28.3323 48.8334C28.3323 48.8671 28.3323 48.867 28.3323 48.9007C28.1314 48.9007 27.9305 48.9007 27.7295 48.8671C24.3806 48.3959 24.0457 44.1558 24.0122 42.8771L29.337 44.8625C29.337 44.8625 28.5333 46.7807 28.3323 48.4296C28.2989 48.5978 28.2989 48.7324 28.3323 48.8334Z" fill="#263238"/>
<path d="M23.2085 36.3151C22.5052 38.4352 23.443 44.5934 24.9165 46.0068C27.0263 48.0595 30.6097 48.3624 32.3511 45.7712C34.0591 43.281 32.686 35.2383 31.0451 33.9595C28.6003 32.0414 24.2467 33.2192 23.2085 36.3151Z" fill="#AD6359"/>
<path d="M27.964 39.411C28.1315 39.3437 28.2989 39.2764 28.4664 39.2091C28.6673 39.1418 28.8348 39.0745 28.9352 38.9062C29.0022 38.8052 28.9687 38.637 28.8683 38.5697C28.6673 38.4014 28.3994 38.4351 28.165 38.536C27.8971 38.637 27.7296 38.7716 27.5957 39.0072C27.4952 39.2091 27.7296 39.4783 27.964 39.411Z" fill="#263238"/>
<path d="M32.2173 38.9399C32.0163 38.9399 31.8489 38.9062 31.6814 38.8726C31.4805 38.8389 31.313 38.8389 31.1456 38.7043C31.0451 38.637 31.0451 38.4351 31.1121 38.3678C31.2796 38.1659 31.5475 38.1323 31.7819 38.1659C32.0498 38.1996 32.2508 38.3005 32.4517 38.5024C32.6526 38.637 32.4852 38.9735 32.2173 38.9399Z" fill="#263238"/>
<path d="M28.7676 44.1896C28.868 44.2905 28.9685 44.4252 29.136 44.4252C29.2699 44.4252 29.4374 44.3578 29.5713 44.2905C29.5713 44.2905 29.6048 44.2905 29.6048 44.3242C29.5043 44.4925 29.2699 44.5934 29.1025 44.5934C28.9015 44.5598 28.8011 44.4252 28.7341 44.2569C28.7006 44.1896 28.7341 44.1559 28.7676 44.1896Z" fill="#263238"/>
<path d="M29.1027 42.8772C29.3707 43.2137 29.7055 43.4156 30.1074 43.4492C30.2749 43.4829 30.4423 43.4492 30.6098 43.4492C30.6433 43.4492 30.6767 43.4492 30.7102 43.4156C30.7437 43.4156 30.7772 43.4156 30.8107 43.3819C30.8442 43.3819 30.8777 43.3146 30.8777 43.281V43.2473V43.2137C30.8777 42.8772 30.8107 42.406 30.8107 42.406C30.9447 42.4733 31.5475 42.6753 31.514 42.507C31.3465 41.1273 31.1456 39.5793 30.6433 38.2332C30.6433 38.1996 30.5763 38.1996 30.5763 38.2332C30.7102 39.5793 31.0451 40.8917 31.1791 42.2378C30.9781 42.1705 30.6767 42.0695 30.5093 42.0695C30.4758 42.0695 30.6433 43.0118 30.6433 43.1464C30.1074 43.2473 29.7055 43.1127 29.1362 42.7762C29.1027 42.8435 29.0692 42.8772 29.1027 42.8772Z" fill="#263238"/>
<path d="M29.0691 40.3196L29.0356 40.3532C29.1026 40.757 29.0691 41.2618 28.7007 41.4301V41.4637C29.203 41.3628 29.203 40.7234 29.0691 40.3196Z" fill="#263238"/>
<path d="M28.6671 39.9158C27.9973 39.9158 28.0643 41.2618 28.7006 41.2618C29.3034 41.2618 29.2364 39.9158 28.6671 39.9158Z" fill="#263238"/>
<path d="M31.4805 40.0503L31.514 40.0839C31.514 40.4878 31.5809 40.9925 31.9828 41.0935V41.1271C31.514 41.0598 31.447 40.4541 31.4805 40.0503Z" fill="#263238"/>
<path d="M31.8489 39.5792C32.5187 39.5119 32.6191 40.858 32.0163 40.9253C31.4135 40.9926 31.2795 39.6465 31.8489 39.5792Z" fill="#263238"/>
<path d="M30.4757 43.3146C30.4757 43.3146 30.2078 43.7184 29.8394 43.8867C29.7054 43.954 29.538 43.9876 29.3705 43.954C29.0356 43.8867 29.0021 43.5838 29.0356 43.3146C29.0691 43.079 29.1696 42.9108 29.1696 42.9108C29.1696 42.9108 29.6719 43.3482 30.4757 43.3146Z" fill="#263238"/>
<path d="M29.8394 43.9203C29.7054 43.9876 29.538 44.0213 29.3705 43.9876C29.0356 43.9203 29.0021 43.6175 29.0356 43.3483C29.404 43.3483 29.7724 43.5502 29.8394 43.9203Z" fill="#FF9BBC"/>
<path d="M23.2085 41.9349C24.1797 42.0695 24.7825 40.6225 24.95 40.0167C25.1174 39.411 24.7156 36.8535 25.0505 35.9449C25.3854 35.0363 26.2561 34.4979 27.0598 34.6325C27.8636 34.7671 28.9687 35.6084 29.5046 35.5074C30.0404 35.3728 30.0404 34.1614 30.4088 34.0941C31.2795 33.9931 32.2172 36.1131 32.4851 37.0217C32.4851 37.0217 32.3512 32.8153 27.8971 32.9836C23.8448 33.1182 22.8402 35.743 22.6727 36.9881C22.3043 39.3437 23.2085 41.9349 23.2085 41.9349Z" fill="#263238"/>
<path d="M28.1654 42.6752C27.2946 42.6416 26.5244 42.0358 26.3234 41.1609C26.089 40.1177 26.7253 39.0745 27.7635 38.8389C28.8017 38.6034 29.8398 39.2428 30.0743 40.286C30.3087 41.3292 29.6724 42.3724 28.6342 42.6079C28.4668 42.6752 28.3328 42.6752 28.1654 42.6752ZM28.2323 39.0745C28.0984 39.0745 27.9644 39.0745 27.8305 39.1082C26.9263 39.3101 26.3569 40.2187 26.5914 41.1272C26.7923 42.0358 27.6965 42.6079 28.6007 42.3724C29.5049 42.1704 30.0743 41.2619 29.8398 40.3533C29.6724 39.6129 29.0026 39.0745 28.2323 39.0745Z" fill="#37474F"/>
<path d="M32.5521 42.2377C31.8154 42.2041 31.1791 41.4301 31.0786 40.4542C31.0451 39.9494 31.1456 39.4446 31.3465 39.0745C31.581 38.6707 31.9158 38.4351 32.3177 38.4014C32.7196 38.3678 33.088 38.536 33.3894 38.8726C33.6908 39.2091 33.8582 39.6802 33.9252 40.185C34.0257 41.2618 33.4564 42.1704 32.6861 42.2377C32.6526 42.2377 32.6191 42.2377 32.5521 42.2377ZM32.4517 38.637C32.4182 38.637 32.3847 38.637 32.3512 38.637C32.0498 38.6707 31.7819 38.8726 31.581 39.1754C31.38 39.5119 31.2795 39.9494 31.3465 40.4205C31.447 41.3291 32.0163 42.0358 32.6861 41.9685C33.3224 41.9012 33.7913 41.0936 33.6908 40.185C33.6573 39.7475 33.4899 39.31 33.2219 39.0072C32.9875 38.7716 32.7196 38.637 32.4517 38.637Z" fill="#37474F"/>
<path d="M30.0405 40.5552L29.873 40.3869C30.141 40.1177 30.7773 39.7139 31.3131 40.185L31.1456 40.3869C30.6433 39.9494 30.074 40.5215 30.0405 40.5552Z" fill="#37474F"/>
<path d="M21.5342 41.8339L21.2998 41.733C21.3333 41.632 21.7687 40.6225 22.3045 40.4879C22.8403 40.3533 26.3232 40.3533 26.4572 40.3533V40.6225C25.4525 40.6225 22.7733 40.6561 22.3715 40.7571C22.0031 40.858 21.6347 41.5647 21.5342 41.8339Z" fill="#37474F"/>
<path d="M24.381 41.3627C24.381 41.3627 23.0079 39.3773 22.1037 39.8484C21.1995 40.3195 22.2041 43.2136 23.2758 43.6174C24.314 44.0212 24.7158 43.0453 24.7158 43.0453L24.381 41.3627Z" fill="#AD6359"/>
<path d="M22.4053 40.656C22.4053 40.656 22.4053 40.6897 22.4053 40.656C23.142 40.9925 23.5104 41.6992 23.7783 42.4059C23.5774 42.1367 23.276 41.9684 22.9076 42.2376C22.8741 42.2376 22.9076 42.2713 22.9411 42.2713C23.2425 42.204 23.4769 42.2713 23.6779 42.5068C23.8118 42.6751 23.9123 42.9107 24.0128 43.1126C24.0463 43.1799 24.1802 43.1462 24.1467 43.0789C24.1467 43.0789 24.1467 43.0789 24.1467 43.0453C24.1467 42.103 23.41 40.757 22.4053 40.656Z" fill="#263238"/>
<path d="M28.3993 48.3959L26.9257 51.7274L22.6056 47.42L21.333 48.7661C21.333 48.7661 25.4857 55.5637 25.5192 55.2609L27.0262 52.4005L29.1026 54.4532L29.0356 49.4055L28.3993 48.3959Z" fill="#EBEBEB"/>
<path d="M29.2032 51.9629C29.1697 51.1217 29.1362 50.2804 29.0692 49.4727C29.0692 49.4391 29.0023 49.4391 29.0023 49.4727C28.8013 50.2804 29.0023 53.4773 28.9688 54.2176C28.8683 54.1166 27.0599 52.4341 27.0264 52.4341C26.6915 52.8715 25.5863 54.9916 25.5194 55.1598C24.8496 54.083 22.0699 49.8093 21.2662 48.7997C21.2327 48.7661 21.1992 48.7997 21.1992 48.8334C21.7685 49.9775 25.3854 55.5973 25.4524 55.5973C25.4859 55.631 26.8589 53.0398 27.0264 52.5687C27.3278 52.9388 29.1697 54.857 29.1697 54.756C29.2702 53.8474 29.2367 52.7706 29.2032 51.9629Z" fill="#263238"/>
<path d="M5.99478 74.1058C8.1716 75.6538 15.1374 74.5433 25.5861 72.8607C27.0262 72.6252 27.8299 61.6884 26.2559 61.8567C24.28 62.0586 14.1662 63.6065 13.5969 63.7748C9.07581 65.1209 4.52125 73.0626 5.99478 74.1058Z" fill="#AD6359"/>
<path d="M38.6137 63.7748C38.4463 65.0535 35.3987 64.3805 35.3987 64.3805C35.3987 64.3805 36.0685 64.9526 36.169 65.7939C36.2694 66.7697 34.8294 67.3418 34.8294 67.3418C34.8294 67.3418 35.3987 68.0485 35.3987 68.9571C35.3987 69.8993 34.0256 70.707 34.0256 70.707C34.0256 70.707 34.1931 71.6492 33.6573 72.4569C32.1502 74.7115 25.2179 73.7693 23.2755 73.0962L22.0029 62.7652C22.0029 62.7652 28.3324 59.8039 31.1456 60.0731C32.6861 60.174 38.8481 61.8566 38.6137 63.7748Z" fill="#AD6359"/>
<path d="M35.3651 64.3131C33.7911 63.6065 32.0497 63.2699 30.3752 63.0007C30.3417 63.0007 30.3417 63.0344 30.3752 63.068C32.0162 63.4719 33.6907 64.0776 35.3651 64.4141C35.3651 64.4141 35.3986 64.3468 35.3651 64.3131Z" fill="#263238"/>
<path d="M34.7622 67.2408C34.3939 67.1062 33.992 67.0726 33.6236 67.0053C33.2217 66.938 32.7864 66.9043 32.3845 66.8707C31.5472 66.8033 30.71 66.736 29.8728 66.7024C29.8393 66.7024 29.8393 66.7697 29.8728 66.7697C30.71 66.837 31.5138 66.938 32.351 67.0389C32.7529 67.1062 33.1882 67.1399 33.5901 67.2072C33.9585 67.2745 34.3604 67.3418 34.7622 67.3418C34.8292 67.3754 34.8292 67.2745 34.7622 67.2408Z" fill="#263238"/>
<path d="M33.9587 70.6396C33.6573 70.505 33.2554 70.505 32.9205 70.505C32.5522 70.4714 32.1503 70.4377 31.7819 70.4041C31.0116 70.3368 30.2749 70.2695 29.5046 70.2021C29.4711 70.2021 29.4711 70.2695 29.5046 70.2695C30.2749 70.3704 31.0451 70.4714 31.8154 70.5387C32.1838 70.5723 32.5856 70.606 32.954 70.6733C33.2889 70.7069 33.6573 70.7742 33.9922 70.7069C33.9922 70.6733 33.9922 70.6733 33.9587 70.6396Z" fill="#263238"/>
<path d="M24.4139 61.0154L19.357 75.7548C19.357 75.7548 6.89895 75.8557 5.29146 73.9376C4.11933 72.5579 8.53994 64.9526 13.5968 63.4383L24.4139 61.0154Z" fill="#FFC727"/>
<path d="M8.23828 67.3755C8.74062 66.4669 10.683 64.3805 13.5966 63.4719C13.6301 63.4719 13.6301 63.5056 13.6301 63.5056C11.5202 64.3805 8.87458 66.5679 8.30526 67.4092C8.27177 67.4092 8.23828 67.3755 8.23828 67.3755Z" fill="#263238"/>
<path d="M17.3475 73.5674C17.7159 72.1204 18.1847 70.6734 18.6201 69.2263C19.089 67.7793 19.5243 66.3323 20.0267 64.9189C20.2946 64.1113 20.5625 63.3037 20.8974 62.496C20.8974 62.4624 20.9309 62.496 20.9309 62.496C20.5625 63.9431 20.0936 65.3901 19.6583 66.8371C19.2229 68.2841 18.7541 69.7311 18.2852 71.1445C18.0173 71.9521 17.7159 72.7598 17.4145 73.5674C17.381 73.601 17.314 73.601 17.3475 73.5674Z" fill="#263238"/>
<path d="M24.3802 60.8807C23.8108 60.948 23.2415 61.0826 22.6722 61.2173C22.1029 61.3519 21.5336 61.5201 20.9642 61.6547C19.8591 61.9576 14.8692 62.7652 12.9268 63.6738C12.8933 63.6738 13.0607 63.7411 13.0942 63.7411C13.9984 63.27 23.7439 61.2846 24.3132 61.0826C24.3132 61.1163 24.0118 62.0585 24.0118 62.1258C24.0118 62.1595 24.0453 62.1931 24.0788 62.1595C24.1122 62.0922 24.4471 61.1163 24.4806 61.0153C24.4806 60.948 24.4471 60.8807 24.3802 60.8807Z" fill="#263238"/>
<path d="M20.1606 73.4327C19.9262 74.2404 19.6917 75.0817 19.4238 75.8893C18.1177 75.8893 11.1519 76.0912 7.23367 75.0144C6.89878 74.9134 6.63086 74.7788 6.63086 74.7788C12.4915 75.8557 17.6489 75.5864 19.3569 75.6874L19.2564 75.7547C19.5578 74.9471 19.8592 74.1731 20.1606 73.4327Z" fill="#263238"/>
<path d="M96.7843 79.3889H73.2412V142.385H96.7843V79.3889Z" fill="#455A64"/>
<path opacity="0.3" d="M96.7843 79.3889H73.2412V142.385H96.7843V79.3889Z" fill="black"/>
<path d="M23.5431 79.3889H0V142.385H23.5431V79.3889Z" fill="#455A64"/>
<path d="M96.7844 79.3889H23.543V86.725H96.7844V79.3889Z" fill="#455A64"/>
<path opacity="0.2" d="M96.7844 79.3889H23.543V86.725H96.7844V79.3889Z" fill="black"/>
<path opacity="0.1" d="M23.6768 83.057C47.0859 82.8887 73.3416 82.8887 96.7508 83.057C73.3751 83.2252 47.0859 83.2252 23.6768 83.057Z" fill="black"/>
<path d="M26.7245 79.3889H23.543V142.385H26.7245V79.3889Z" fill="#455A64"/>
<path opacity="0.2" d="M26.7245 79.3889H23.543V142.385H26.7245V79.3889Z" fill="black"/>
<path d="M96.7845 79.3889H93.603V142.385H96.7845V79.3889Z" fill="#455A64"/>
<path opacity="0.2" d="M96.7845 79.3889H93.603V142.385H96.7845V79.3889Z" fill="black"/>
<path d="M75.1786 79.3805H80.5034V65.6843H75.1786V79.3805Z" fill="#FFC727"/>
<path opacity="0.4" d="M75.1784 79.3805H76.7524V65.6843H75.1784V79.3805Z" fill="white"/>
<path d="M81.6898 79.3862H87.0146V67.9784H81.6898V79.3862Z" fill="#FFC727"/>
<path opacity="0.4" d="M81.6902 79.3862H83.2642V67.9784H81.6902V79.3862Z" fill="white"/>
<path d="M88.2352 79.3911H93.5601V61.152H88.2352V79.3911Z" fill="#FFC727"/>
<path opacity="0.4" d="M88.2351 79.3911H89.8091V61.152H88.2351V79.3911Z" fill="white"/>
<path d="M94.7797 79.3904H100.104V58.0553H94.7797V79.3904Z" fill="#FFC727"/>
<path opacity="0.4" d="M94.78 79.3904H96.354V58.0553H94.78V79.3904Z" fill="white"/>
<path d="M84.3602 67.1397L75.0166 63.1689L75.2845 62.5295L84.1592 66.3321L90.6897 59.1643L98.6602 55.5636L98.9281 56.1693L91.0915 59.7027L84.3602 67.1397Z" fill="#455A64"/>
<path d="M98.9283 56.9097L100.1 55.2944L98.1245 55.0925L98.9283 56.9097Z" fill="#455A64"/>
<path d="M63.6299 79.389H40.0199L38.2114 63.2699H61.8215L63.6299 79.389Z" fill="#A6A6A6"/>
<path d="M62.3572 78.3122H41.0579L39.4839 64.3468H60.7832L62.3572 78.3122Z" fill="white"/>
<path d="M70.5624 78.3121H40.1875V79.389H70.5624V78.3121Z" fill="#A6A6A6"/>
<path d="M74.6479 78.3121H46.7847V79.389H74.6479V78.3121Z" fill="#DBDBDB"/>
<path d="M41.8281 65.7938C47.6553 65.7265 53.449 65.7265 59.2761 65.7938C53.449 65.8611 47.6553 65.8611 41.8281 65.7938Z" fill="#C7C7C7"/>
<path d="M41.9287 66.5341C47.7559 66.4668 53.5496 66.4668 59.3767 66.5341C53.5496 66.5678 47.7224 66.5678 41.9287 66.5341Z" fill="#C7C7C7"/>
<path d="M42.0293 67.2408C47.8565 67.1735 53.6501 67.1735 59.4773 67.2408C53.6501 67.2744 47.823 67.2744 42.0293 67.2408Z" fill="#C7C7C7"/>
<path d="M42.0962 67.9474C47.9234 67.8801 53.717 67.8801 59.5442 67.9474C53.717 68.0148 47.9234 68.0148 42.0962 67.9474Z" fill="#C7C7C7"/>
<path d="M42.1963 68.6541C48.0235 68.5868 53.8171 68.5868 59.6443 68.6541C53.8171 68.7214 48.0235 68.7214 42.1963 68.6541Z" fill="#C7C7C7"/>
<path d="M42.2969 69.3945C48.124 69.3272 53.9177 69.3272 59.7449 69.3945C53.9177 69.4281 48.0906 69.4281 42.2969 69.3945Z" fill="#C7C7C7"/>
<path d="M42.3638 70.1011C48.1909 70.0338 53.9846 70.0338 59.8118 70.1011C53.9846 70.1348 48.1909 70.1348 42.3638 70.1011Z" fill="#C7C7C7"/>
<path d="M42.4644 70.8078C48.2915 70.7405 54.0852 70.7405 59.9124 70.8078C54.0852 70.8751 48.2915 70.8751 42.4644 70.8078Z" fill="#C7C7C7"/>
<path d="M42.5649 71.5145C48.3921 71.4472 54.1858 71.4472 60.013 71.5145C54.1858 71.5818 48.3586 71.5818 42.5649 71.5145Z" fill="#C7C7C7"/>
<path d="M42.6318 72.2213C48.459 72.154 54.2527 72.154 60.0798 72.2213C54.2527 72.2886 48.459 72.2886 42.6318 72.2213Z" fill="#C7C7C7"/>
<path d="M42.7324 72.9615C48.5596 72.8942 54.3533 72.8942 60.1804 72.9615C54.3533 72.9951 48.5596 72.9951 42.7324 72.9615Z" fill="#C7C7C7"/>
<path d="M42.833 73.6683C48.6602 73.601 54.4539 73.601 60.281 73.6683C54.4539 73.7356 48.6267 73.7019 42.833 73.6683Z" fill="#C7C7C7"/>
<path d="M42.8999 74.3749C48.7271 74.3076 54.5207 74.3076 60.3479 74.3749C54.5542 74.4422 48.7271 74.4422 42.8999 74.3749Z" fill="#C7C7C7"/>
<path d="M43.0005 75.0816C48.8277 75.0143 54.6213 75.0143 60.4485 75.0816C54.6213 75.1489 48.8277 75.1489 43.0005 75.0816Z" fill="#C7C7C7"/>
<path d="M43.1006 75.822C48.9278 75.7547 54.7214 75.7547 60.5486 75.822C54.7214 75.8556 48.8943 75.8556 43.1006 75.822Z" fill="#C7C7C7"/>
<path d="M45.6457 70.8079H44.3062L45.0429 76.6296H46.3825L45.6457 70.8079Z" fill="#FFC727"/>
<path d="M47.8896 69.3945H46.5835L47.4877 76.6296H48.8273L47.8896 69.3945Z" fill="#FFC727"/>
<path d="M50.435 70.1348H49.1289L49.9661 76.6295H51.2722L50.435 70.1348Z" fill="#FFC727"/>
<path d="M52.6452 67.9475H51.3057L52.4108 76.6296H53.7169L52.6452 67.9475Z" fill="#FFC727"/>
<path d="M55.2241 69.1252H53.918L54.8557 76.6295H56.1618L55.2241 69.1252Z" fill="#FFC727"/>
<path d="M57.3674 66.5341H56.0278L57.3004 76.6295H58.64L57.3674 66.5341Z" fill="#FFC727"/>
<path d="M42.23 65.3226C42.4309 66.736 42.8328 69.5627 43.0337 70.9761C43.3016 72.8606 43.5361 74.7451 43.7705 76.6296L43.67 76.5286C49.3297 76.4949 54.9895 76.5286 60.6492 76.6296C54.9895 76.7305 49.3297 76.7642 43.67 76.7305H43.5696V76.6296C43.1007 72.9952 42.6319 68.9907 42.23 65.3226Z" fill="#C7C7C7"/>
<path d="M46.4494 77.3698H45.1434L45.1099 77.2352H46.4494V77.3698Z" fill="#C7C7C7"/>
<path d="M48.8945 77.3698H47.5884V77.2352H48.8945V77.3698Z" fill="#C7C7C7"/>
<path d="M51.3728 77.3698H50.0332V77.2352H51.3393L51.3728 77.3698Z" fill="#C7C7C7"/>
<path d="M53.8171 77.3698H52.4775V77.2352H53.7836L53.8171 77.3698Z" fill="#C7C7C7"/>
<path d="M56.2619 77.3698H54.9559L54.9224 77.2352H56.2619V77.3698Z" fill="#C7C7C7"/>
<path d="M58.7068 77.3698H57.4007L57.3672 77.2352H58.7068V77.3698Z" fill="#C7C7C7"/>
<path d="M60.8502 65.0198L60.7832 64.3468H39.4839L39.5509 65.0198H60.8502Z" fill="#263238"/>
<path d="M41.2588 64.6833C41.2588 64.7842 41.3593 64.8515 41.4262 64.8515C41.4932 64.8515 41.5602 64.7842 41.5602 64.6833C41.5602 64.5823 41.4597 64.515 41.3927 64.515C41.3258 64.515 41.2588 64.616 41.2588 64.6833Z" fill="#C7C7C7"/>
<path d="M40.6558 64.6833C40.6558 64.7842 40.7562 64.8515 40.8232 64.8515C40.8902 64.8515 40.9572 64.7842 40.9572 64.6833C40.9572 64.5823 40.8567 64.515 40.7897 64.515C40.7227 64.515 40.6558 64.616 40.6558 64.6833Z" fill="white"/>
<path d="M40.0531 64.6833C40.0531 64.7842 40.1536 64.8515 40.2206 64.8515C40.2876 64.8515 40.3546 64.7842 40.3546 64.6833C40.3546 64.5823 40.2541 64.515 40.1871 64.515C40.0866 64.515 40.0197 64.616 40.0531 64.6833Z" fill="#FFC727"/>
<path d="M117.28 99.1425H114.434V101.162H117.28V99.1425Z" fill="#A6A6A6"/>
<path d="M118.452 101.195H113.295V119.401H118.452V101.195Z" fill="#C7C7C7"/>
<path d="M113.295 111.392H111.018V112.367H113.295V111.392Z" fill="#A6A6A6"/>
<path d="M111.018 110.887H106.43V112.872H111.018V110.887Z" fill="#C7C7C7"/>
<path d="M119.089 119.401H112.458V125.424H119.089V119.401Z" fill="#C7C7C7"/>
<path d="M116.544 137.943H115.17L114.367 122.026H117.314L116.544 137.943Z" fill="#A6A6A6"/>
<path d="M97.7225 136.294L96.4834 135.351L112.458 121.151V125.424L97.7225 136.294Z" fill="#A6A6A6"/>
<path d="M133.858 136.294L135.097 135.351L119.089 121.151V125.424L133.858 136.294Z" fill="#A6A6A6"/>
<path d="M118.452 117.819H113.295V119.401H118.452V117.819Z" fill="#A6A6A6"/>
<path d="M101.005 139.087C101.005 140.938 99.4975 142.452 97.6556 142.452C95.8137 142.452 94.3066 140.938 94.3066 139.087C94.3066 137.236 95.8137 135.722 97.6556 135.722C99.531 135.688 101.005 137.202 101.005 139.087Z" fill="#263238"/>
<path d="M99.2296 139.087C99.2296 139.962 98.5263 140.668 97.6556 140.668C96.7848 140.668 96.0815 139.962 96.0815 139.087C96.0815 138.212 96.7848 137.505 97.6556 137.505C98.5263 137.472 99.2296 138.212 99.2296 139.087Z" fill="white"/>
<path d="M133.925 142.452C135.774 142.452 137.274 140.945 137.274 139.087C137.274 137.228 135.774 135.722 133.925 135.722C132.075 135.722 130.576 137.228 130.576 139.087C130.576 140.945 132.075 142.452 133.925 142.452Z" fill="#263238"/>
<path d="M135.499 139.087C135.499 139.962 134.795 140.668 133.925 140.668C133.054 140.668 132.351 139.962 132.351 139.087C132.351 138.212 133.054 137.505 133.925 137.505C134.795 137.472 135.499 138.212 135.499 139.087Z" fill="white"/>
<path d="M116.878 136.9H114.769V142.452H116.878V136.9Z" fill="#263238"/>
<path d="M139.115 99.1424H86.0347V95.1042H105.894L112.592 54.4868H137.073L139.115 99.1424Z" fill="#FFC727"/>
<path opacity="0.3" d="M139.115 99.1424H86.0347V95.1042H105.894L112.592 54.4868H137.073L139.115 99.1424Z" fill="black"/>
<path opacity="0.2" d="M105.894 95.1042H135.499L133.724 54.4868H112.592L105.894 95.1042Z" fill="black"/>
<path opacity="0.5" d="M86.0375 99.1536H116.948V95.1154H86.0375V99.1536Z" fill="#FFC727"/>
<path d="M66.8119 130.876C67.6492 131.347 93.1012 136.698 94.1728 136.294C94.5747 136.126 95.5794 132.458 96.6511 127.982C96.8855 127.006 97.1199 126.03 97.3543 124.987C98.8614 118.391 100.301 111.358 100.301 111.358L83.2888 107.724L80.8105 121.453L80.2747 124.482C80.2747 124.482 69.6251 126.804 68.4529 127.41C67.3143 127.982 66.0082 130.405 66.8119 130.876Z" fill="#F7A9A0"/>
<path d="M96.2489 129.698C95.3447 133.366 94.5409 136.159 94.1725 136.294C93.0674 136.698 67.6154 131.347 66.8116 130.876C65.9744 130.405 67.314 127.982 68.4526 127.41C69.1559 127.04 73.5095 126.03 76.7245 125.29C73.9114 125.963 68.687 127.881 79.5041 128.655C88.4458 129.294 94.3735 129.597 96.2489 129.698Z" fill="#263238"/>
<path d="M89.7856 143.966C90.7233 144.236 116.678 142.889 117.615 142.183C117.984 141.914 116.979 131.448 116.711 130.438C115.773 127.04 111.386 116.742 111.386 116.742L94.0053 117.583L101.139 134.308C101.139 134.308 91.4266 139.289 90.4554 140.164C89.5512 141.039 88.8814 143.697 89.7856 143.966Z" fill="#F7A9A0"/>
<path d="M117.649 142.183C116.678 142.856 90.7232 144.202 89.819 143.966C88.8813 143.697 89.5511 141.039 90.5223 140.197C90.9911 139.793 93.3354 138.515 95.7131 137.236C92.7326 138.919 88.0105 142.688 117.414 135.991C117.615 138.952 117.816 142.048 117.649 142.183Z" fill="#263238"/>
<path d="M130.074 92.3448C124.883 98.1329 107.502 93.5563 106.463 95.8783C105.559 97.8974 117.415 130.573 117.415 130.573L98.426 132.626C98.426 132.626 82.0497 96.5513 87.9103 86.153C91.0583 80.5332 105.023 82.7542 113.429 81.7446C115.975 81.4417 117.147 76.1584 117.147 76.1584H132.183C132.183 76.1584 136.001 85.7491 130.074 92.3448Z" fill="#263238"/>
<path d="M93.168 82.9224L109.109 95.1716C114.4 95.0706 125.988 96.8878 130.073 92.3448C136.001 85.7155 132.183 76.1584 132.183 76.1584H117.146C117.146 76.1584 115.941 81.4081 113.429 81.7446C107.501 82.4513 98.8947 81.5763 93.168 82.9224Z" fill="#37474F"/>
<path d="M97.6892 128.352C98.225 128.184 103.148 127.645 104.22 127.511C106.396 127.275 113.228 126.636 114.467 126.636C114.501 126.636 114.501 126.703 114.467 126.703C113.396 126.939 109.009 127.443 107.937 127.544C105.76 127.78 98.292 128.487 97.6892 128.453C97.6557 128.453 97.6557 128.386 97.6892 128.352Z" fill="#37474F"/>
<path d="M104.153 93.9601C105.358 93.3544 114.635 93.6573 121.266 93.0179C123.443 92.816 125.586 92.3449 127.26 90.9315C128.734 89.6527 129.705 87.8692 130.207 86.052C130.844 83.7637 130.777 81.4081 130.676 79.0525C130.643 78.4804 130.609 77.9084 130.576 77.3363C130.576 77.3026 130.643 77.3026 130.643 77.3363C131.145 81.5091 131.547 86.1866 128.834 89.821C127.629 91.4026 125.954 92.4795 123.978 93.0179C119.96 94.0611 104.923 93.8255 104.387 94.2294C103.751 94.7005 113.496 124.482 113.697 125.054C113.731 125.155 113.563 125.222 113.496 125.121C112.525 122.833 103.114 94.4986 104.153 93.9601Z" fill="#37474F"/>
<path d="M87.2068 87.1625C88.111 84.8742 90.1539 83.4608 93.1345 82.9224C93.2014 82.9224 93.1679 82.9897 93.1345 82.9897C90.5223 83.7637 88.6469 84.8068 87.6087 87.0279C87.1398 88.071 86.8719 89.5181 86.738 91.4699C86.1017 101.229 94.5745 123.338 94.7419 123.742C94.7419 123.775 94.7085 123.809 94.675 123.775C93.5363 121.756 83.523 96.5849 87.2068 87.1625Z" fill="#37474F"/>
<path d="M80.3413 120.612L94.7083 123.674C94.7083 123.674 83.3554 89.6527 88.6802 85.278C90.1537 84.0665 93.3687 83.6291 97.1865 85.3117C102.913 87.8019 109.511 92.8496 115.74 94.7004C121.567 96.4167 128.499 94.835 130.877 92.2102C135.9 86.6577 132.116 76.1921 132.116 76.1921L111.453 75.4181C111.453 75.4181 111.754 75.6537 110.783 76.5622C110.783 76.5622 98.6266 73.8028 93.3352 77.0334C83.8912 82.8214 80.3413 120.612 80.3413 120.612Z" fill="#263238"/>
<path d="M123.275 77.37C123.275 77.3363 123.342 77.3363 123.342 77.37C123.376 78.144 123.342 78.9179 123.51 79.6919C123.677 80.4323 124.012 81.0716 124.548 81.6437C125.686 82.7879 127.294 83.1917 128.801 83.6628C128.868 83.6965 128.868 83.8311 128.768 83.7974C127.127 83.5282 125.385 83.1244 124.179 81.8793C123.61 81.3072 123.242 80.5669 123.108 79.7929C122.974 79.0189 123.007 78.1103 123.275 77.37Z" fill="#37474F"/>
<path d="M89.0825 84.605C91.2928 83.2253 94.7422 84.2685 96.4167 84.9079C96.4502 84.9079 96.4502 84.9752 96.3832 84.9752C94.8762 84.4367 91.0584 83.5955 89.049 85.0425C84.3605 88.374 90.623 111.156 94.7422 123.674C94.8092 123.876 94.6418 123.809 94.5748 123.641C93.905 122.16 88.6137 106.31 87.2406 95.8446C87.0062 94.1957 85.901 86.6241 89.0825 84.605Z" fill="#37474F"/>
<path d="M81.9825 116.742C82.4179 116.742 86.1352 117.55 86.9725 117.752C88.6134 118.122 92.4312 119.098 93.302 119.468C93.3354 119.468 93.302 119.535 93.302 119.535C92.4647 119.468 90.4554 119.03 89.6516 118.829C88.0106 118.458 82.3844 117.079 81.9825 116.877C81.9155 116.809 81.949 116.742 81.9825 116.742Z" fill="#37474F"/>
<path d="M89.7854 84.0329C91.2589 83.2253 93.0338 83.0907 94.7083 83.2926C96.4498 83.4945 98.1242 84.1339 99.7317 84.8742C103.081 86.4222 106.296 88.3067 109.678 89.8547C113.027 91.369 116.61 92.5804 120.294 92.6814C123.442 92.7823 127.428 92.2103 129.47 89.3835C132.585 84.9752 130.776 77.4036 130.743 76.9325C130.743 76.8988 130.776 76.8988 130.81 76.9325C133.221 86.2539 130.107 89.8547 127.997 91.369C126.322 92.5804 123.911 92.8833 122.337 93.0179C118.653 93.3208 115.003 92.4122 111.587 91.0661C108.104 89.6864 104.822 87.8019 101.473 86.0857C98.2582 84.4368 94.7083 82.7542 91.0245 83.6964C90.6226 83.7974 90.1872 83.9656 89.8188 84.1002C89.7854 84.0666 89.7519 84.0329 89.7854 84.0329Z" fill="#37474F"/>
<path d="M129.404 61.9911L128.098 61.9238C128.064 61.5537 127.964 61.2171 127.863 60.9143C127.328 59.6355 126.289 58.626 125.452 57.5828C126.222 58.5923 126.959 59.8374 127.361 61.0825C127.462 61.3517 127.495 61.621 127.528 61.8565L126.691 61.8229C126.658 61.0489 126.457 60.2749 126.055 59.5682C126.055 59.5346 126.021 59.5682 126.021 59.6019C126.356 60.3085 126.423 61.0489 126.423 61.7892L119.29 61.3854C119.19 60.746 119.123 60.1066 119.123 59.4336C119.123 59.3663 119.022 59.3663 119.022 59.4336C119.022 60.073 119.056 60.746 119.123 61.3854L118.52 61.3517C118.453 60.2412 118.453 59.1644 118.687 57.9866C118.687 57.9529 118.654 57.9529 118.62 57.9866C118.386 59.0634 118.218 60.2076 118.218 61.3517L113.262 61.0825C113.563 60.3759 113.798 59.6019 113.999 58.8952C114.032 58.8279 113.932 58.8279 113.898 58.8615C113.664 59.6692 113.329 60.3759 112.994 61.0489L112.257 61.0152C112.827 59.7701 113.295 58.4914 113.396 57.1117C113.396 57.0443 113.329 57.0443 113.295 57.1117C113.095 58.5587 112.358 59.7701 111.621 60.9816L109.746 60.8806C110.415 59.7701 111.554 58.7606 111.721 57.4145C111.922 55.9338 110.549 55.1935 110.147 53.9148C109.478 51.7947 110.583 50.2467 111.922 48.8334C113.162 47.521 113.061 45.973 113.396 44.2904C113.63 43.0453 113.999 41.6656 114.669 40.5887C116.745 37.2572 120.362 37.7957 120.362 37.8293C121.232 37.863 122.036 38.1322 122.74 38.5696C122.773 38.6033 122.84 38.637 122.873 38.6706C123.61 39.209 124.247 39.983 124.749 40.9589C124.883 41.2281 125.017 41.531 125.151 41.8675C125.352 42.4059 125.385 43.1799 125.553 44.0549C125.553 44.0885 125.553 44.0885 125.553 44.0885C125.787 45.3336 126.323 46.7806 127.964 48.093C129.94 49.6747 129.37 52.1312 127.729 54.5878C127.06 55.631 127.026 56.304 127.261 56.9097C127.294 56.977 127.328 57.0443 127.395 57.1453C127.763 57.7847 128.466 58.3568 128.935 59.2317C129.37 60.1066 129.471 61.0489 129.404 61.9911Z" fill="#263238"/>
<path d="M117.013 38.4014C115.539 39.1754 114.434 40.4541 113.865 42.1367C113.429 43.4155 113.396 44.8288 112.826 46.0739C112.291 47.2517 111.386 48.1267 110.65 49.1362C109.678 50.4823 109.076 52.1312 109.846 53.6792C110.315 54.6551 111.42 55.5973 111.353 56.8088C111.286 58.2221 110.047 59.6018 109.377 60.746C109.344 60.8133 109.411 60.8806 109.478 60.8133C110.382 59.5009 111.956 57.751 111.453 56.0011C111.219 55.1935 110.683 54.5878 110.281 53.9147C109.478 52.6023 109.645 51.189 110.482 49.8429C111.587 48.0257 113.027 46.8479 113.53 44.6606C113.798 43.4155 113.932 42.103 114.568 40.9589C115.171 39.882 116.041 39.0407 117.08 38.4687C117.08 38.4687 117.046 38.4014 117.013 38.4014Z" fill="#263238"/>
<path d="M128.164 58.9288C127.662 58.1885 126.992 57.6164 127.294 56.5059C127.495 55.7319 128.031 55.0589 128.399 54.3522C129.303 52.636 129.839 50.4486 128.968 48.6314C128.466 47.6219 127.629 47.3863 126.892 46.646C126.021 45.7374 125.72 44.3577 125.452 43.1126C125.05 41.1944 124.514 39.0407 122.605 38.6033C122.605 38.6033 122.572 38.6369 122.605 38.6369C125.05 39.3773 124.983 42.5742 125.686 44.7952C125.921 45.5355 126.256 46.2758 126.758 46.8142C127.595 47.6555 128.6 47.9584 129.002 49.2708C129.404 50.5159 129.203 51.8956 128.767 53.1071C128.365 54.1839 127.629 55.0925 127.26 56.1357C127.026 56.7751 126.959 57.4481 127.294 58.0202C127.528 58.4913 127.93 58.7942 128.198 59.2317C128.533 59.8374 128.667 60.5104 128.633 61.2508C128.633 61.3181 128.734 61.3181 128.734 61.2508C128.801 60.4095 128.633 59.6355 128.164 58.9288Z" fill="#263238"/>
<path d="M111.822 70.404L110.415 76.5959C110.415 76.5959 111.286 76.6632 114.099 76.8315L115.037 74.6105L116.108 76.9661L132.886 77.6055C132.886 77.6055 128.399 59.8711 125.184 56.0348C122.639 52.9725 119.491 53.0398 117.381 54.9916C116.845 55.4964 111.386 62.6978 110.616 65.7265C109.913 68.3849 111.822 70.404 111.822 70.404Z" fill="#455A64"/>
<path d="M119.29 69.4955C118.151 69.4955 117.046 69.5628 115.907 69.7647C115.338 69.8656 114.802 70.0003 114.266 70.1349C113.998 70.2022 113.73 70.2695 113.429 70.3031C113.161 70.3704 112.86 70.4041 112.558 70.4041C112.525 70.4041 112.525 70.4377 112.558 70.4377C112.826 70.4714 113.094 70.505 113.396 70.505C113.663 70.505 113.931 70.4714 114.199 70.4377C114.769 70.3368 115.338 70.2358 115.874 70.1349C117.012 69.933 118.151 69.731 119.29 69.6301C119.357 69.5964 119.357 69.4955 119.29 69.4955Z" fill="#263238"/>
<path d="M121.935 70.8751C121.031 70.6732 120.094 70.5386 119.189 70.4377C118.72 70.404 118.252 70.3704 117.783 70.3704C117.548 70.3704 117.347 70.3704 117.113 70.3704C116.879 70.3704 116.611 70.4377 116.376 70.4377C116.343 70.4377 116.343 70.4713 116.376 70.4713C116.611 70.4713 116.845 70.505 117.079 70.5386C117.314 70.5723 117.548 70.5723 117.783 70.6059C118.252 70.6396 118.72 70.6732 119.156 70.7069C120.094 70.7742 120.998 70.8415 121.935 70.9424C122.002 70.9761 122.002 70.8751 121.935 70.8751Z" fill="#263238"/>
<path d="M118.385 56.9434C117.213 59.0634 116.075 61.2171 115.07 63.4381C113.931 65.9283 113.061 67.8465 115.572 69.8656L115.606 69.8992V69.9329C115.505 70.7068 115.438 71.4808 115.338 72.2548C115.237 73.0288 115.137 73.8028 115.037 74.5768C115.103 73.8028 115.17 73.0288 115.237 72.2212C115.304 71.4472 115.371 70.6732 115.472 69.8656L115.505 69.9329C112.893 67.8465 113.73 65.8947 114.97 63.3035C115.974 61.1835 117.146 59.0298 118.385 56.9434Z" fill="#263238"/>
<path d="M116.745 60.4431C116.711 60.6114 116.845 60.746 117.013 60.7796C117.18 60.8133 117.314 60.6787 117.348 60.5104C117.381 60.3422 117.247 60.2075 117.08 60.1739C116.912 60.1402 116.778 60.2748 116.745 60.4431Z" fill="#263238"/>
<path d="M115.606 63.6401C115.573 63.8083 115.707 63.9429 115.874 63.9766C116.042 64.0102 116.176 63.8756 116.209 63.7074C116.243 63.5391 116.109 63.4045 115.941 63.3708C115.774 63.3708 115.64 63.5055 115.606 63.6401Z" fill="#263238"/>
<path d="M114.601 66.6014C114.568 66.7696 114.702 66.9042 114.869 66.9379C115.037 66.9715 115.171 66.8369 115.204 66.6687C115.238 66.5004 115.104 66.3658 114.936 66.3322C114.769 66.3322 114.601 66.4331 114.601 66.6014Z" fill="#263238"/>
<path d="M116.142 69.529C116.108 69.6972 116.242 69.8318 116.41 69.8655C116.577 69.8991 116.711 69.7645 116.745 69.5963C116.778 69.428 116.644 69.2934 116.477 69.2598C116.309 69.2598 116.175 69.3607 116.142 69.529Z" fill="#263238"/>
<path d="M115.941 72.5577C115.907 72.7259 116.041 72.8605 116.209 72.8942C116.376 72.9278 116.51 72.7932 116.544 72.625C116.577 72.4567 116.443 72.3221 116.276 72.2885C116.108 72.2885 115.974 72.4231 115.941 72.5577Z" fill="#263238"/>
<path d="M122.337 54.3187C122.27 54.7225 120.596 57.4819 118.787 57.5492C118.184 57.5829 117.95 54.3187 117.95 54.3187L117.883 54.0831L116.845 50.7852L120.562 47.9249L121.098 47.5547C121.098 47.5547 121.332 48.4633 121.6 49.6074C121.6 49.6747 121.634 49.7084 121.634 49.7757C121.634 49.843 121.667 49.9103 121.667 49.9776C121.701 50.1459 121.768 50.3141 121.801 50.4824C121.835 50.617 121.868 50.7516 121.902 50.8862C121.935 51.0208 121.969 51.1554 122.002 51.29C122.203 52.6697 122.337 54.1167 122.337 54.3187Z" fill="#F7A9A0"/>
<path d="M121.567 49.6075C120.83 52.3669 118.82 53.612 117.849 54.0831L116.811 50.7853L120.528 47.9249L121.064 47.5547C121.064 47.5211 121.299 48.4633 121.567 49.6075Z" fill="#263238"/>
<path d="M112.458 44.3241C110.884 50.1795 114.199 51.7611 115.438 52.0976C116.577 52.4005 120.495 53.3091 122.638 47.6556C124.815 42.0022 122.605 39.4447 120.026 38.6034C117.481 37.7621 113.998 38.4688 112.458 44.3241Z" fill="#F7A9A0"/>
<path d="M113.496 44.0549C113.63 44.0549 113.764 44.0549 113.898 44.0549C114.065 44.0549 114.199 44.0549 114.333 43.954C114.4 43.8867 114.434 43.7857 114.367 43.6848C114.266 43.5165 114.065 43.4492 113.864 43.4492C113.663 43.4492 113.496 43.4829 113.329 43.6175C113.195 43.7857 113.295 44.0549 113.496 44.0549Z" fill="#263238"/>
<path d="M117.448 44.6943C117.314 44.6606 117.18 44.5933 117.079 44.526C116.945 44.4587 116.811 44.4251 116.711 44.2905C116.677 44.2232 116.677 44.0886 116.778 44.0213C116.945 43.8866 117.146 43.9203 117.314 43.9876C117.515 44.0549 117.649 44.1559 117.749 44.3578C117.85 44.5597 117.649 44.7616 117.448 44.6943Z" fill="#263238"/>
<path d="M116.376 45.6702L116.409 45.7038C116.309 46.1076 116.276 46.5788 116.577 46.7807V46.8143C116.142 46.6461 116.209 46.0067 116.376 45.6702Z" fill="#263238"/>
<path d="M116.812 45.3337C117.482 45.4346 117.247 46.747 116.611 46.6461C116.042 46.5451 116.276 45.2327 116.812 45.3337Z" fill="#263238"/>
<path d="M117.046 45.4346C117.146 45.5355 117.247 45.6701 117.381 45.7038C117.548 45.7375 117.682 45.6365 117.816 45.5355C117.816 45.5355 117.85 45.5355 117.85 45.5692C117.816 45.8048 117.682 46.074 117.381 46.0403C117.146 46.0403 116.979 45.7711 116.979 45.5019C116.979 45.4682 117.012 45.4009 117.046 45.4346Z" fill="#263238"/>
<path d="M114.166 45.0645C114.166 45.0645 114.132 45.0645 114.132 45.0981C114.065 45.5019 113.931 45.973 113.563 46.0403V46.074C113.998 46.074 114.166 45.4683 114.166 45.0645Z" fill="#263238"/>
<path d="M113.864 44.5597C113.228 44.3914 112.96 45.7038 113.529 45.8384C114.132 46.0067 114.4 44.7279 113.864 44.5597Z" fill="#263238"/>
<path d="M113.596 44.5933C113.496 44.6269 113.362 44.7279 113.228 44.7279C113.094 44.6942 112.993 44.5596 112.96 44.3914H112.926C112.859 44.6269 112.893 44.9298 113.127 44.9971C113.328 45.098 113.529 44.8961 113.663 44.6606C113.663 44.6606 113.63 44.5933 113.596 44.5933Z" fill="#263238"/>
<path d="M115.773 49.1027C115.673 49.17 115.539 49.3046 115.405 49.3046C115.271 49.3046 115.103 49.2036 114.97 49.1363C114.97 49.1363 114.936 49.1363 114.936 49.17C115.037 49.3382 115.237 49.4728 115.438 49.4728C115.639 49.4728 115.74 49.3046 115.807 49.17C115.807 49.1027 115.773 49.069 115.773 49.1027Z" fill="#263238"/>
<path d="M114.367 47.2854C114.367 47.2854 114.166 47.8575 114.099 48.1604C114.099 48.194 114.166 48.2277 114.266 48.2277C114.769 48.3959 115.304 48.3286 115.673 47.9585C115.706 47.9248 115.673 47.8912 115.639 47.9248C115.204 48.1267 114.802 48.1267 114.333 48.0258C114.333 47.9585 114.702 47.0162 114.668 47.0162C114.501 46.9826 114.199 47.0162 113.998 47.0499C114.367 45.8048 114.936 44.6606 115.304 43.4155C115.304 43.3819 115.271 43.3482 115.237 43.3819C114.568 44.5597 114.099 45.973 113.663 47.2518C113.63 47.42 114.233 47.3191 114.367 47.2854Z" fill="#263238"/>
<path d="M122.572 47.9921C121.332 47.2181 121.433 45.8048 121.433 45.8048C119.859 44.8962 119.122 43.5165 119.055 43.3819C119.089 43.5165 119.256 44.4251 119.39 44.8962C115.673 43.752 114.835 40.6897 114.835 40.6897C113.462 41.8002 113.127 42.5406 112.893 42.9107C112.893 42.9107 113.127 40.5551 114.534 39.1418C116.209 37.3919 118.184 37.9976 118.184 37.9976C118.184 37.9976 121.232 37.4592 123.241 40.2186C125.385 43.2136 122.572 47.9921 122.572 47.9921Z" fill="#263238"/>
<path d="M116.544 43.9202C117.113 44.3241 117.749 44.6269 118.419 44.8625C117.381 44.425 116.477 43.752 115.807 42.8434C115.539 42.4396 115.304 42.0357 115.103 41.5983C114.903 41.1272 114.735 40.5887 114.769 40.084C114.769 40.0503 114.702 40.0503 114.702 40.084C114.668 40.6224 114.668 41.0935 114.836 41.6319C114.969 42.1367 115.237 42.6078 115.539 43.0116C115.84 43.3482 116.175 43.651 116.544 43.9202Z" fill="#263238"/>
<path d="M121.6 47.8575C121.6 47.8575 123.241 46.2422 123.978 46.8479C124.748 47.4537 123.275 49.9775 122.237 50.1794C121.198 50.3814 120.998 49.4055 120.998 49.4055L121.6 47.8575Z" fill="#F7A9A0"/>
<path d="M123.543 47.5547C123.576 47.5547 123.576 47.5883 123.543 47.5547C122.806 47.7229 122.337 48.3287 121.935 48.9344C122.203 48.6988 122.505 48.6315 122.806 48.9344C122.806 48.9344 122.806 48.968 122.773 48.968C122.505 48.8671 122.304 48.8671 122.069 49.069C121.902 49.2036 121.768 49.4055 121.634 49.5738C121.601 49.6411 121.5 49.5738 121.534 49.5065C121.668 48.5979 122.572 47.4874 123.543 47.5547Z" fill="#263238"/>
<path d="M117.85 54.083L118.955 56.8425L122.371 53.3763L123.342 54.4868C123.342 54.4868 120.027 60.0057 119.993 59.7365L118.888 57.3809L117.247 59.0298L117.381 54.8907L117.85 54.083Z" fill="white"/>
<path d="M117.146 56.9771C117.18 56.3041 117.213 55.5974 117.28 54.9243C117.28 54.8907 117.314 54.8907 117.314 54.9243C117.448 55.5974 117.247 58.1885 117.247 58.8279C117.314 58.7606 118.754 57.3809 118.754 57.4146C118.988 57.7847 119.826 59.501 119.893 59.6692C120.428 58.7943 122.639 55.3282 123.275 54.5205C123.308 54.4869 123.342 54.5205 123.308 54.5542C122.84 55.4628 119.959 60.0394 119.926 60.0057C119.893 60.0394 118.888 57.9193 118.754 57.5155C118.519 57.8184 117.046 59.3664 117.046 59.2654C117.079 58.5251 117.113 57.6501 117.146 56.9771Z" fill="#263238"/>
<path d="M126.055 59.5009C130.006 67.4427 132.284 78.3121 130.073 80.3985C127.595 82.7541 122.103 71.952 122.304 71.4472C122.438 71.077 122.438 66.1976 122.069 59.8711C121.667 53.5782 125.083 57.5491 126.055 59.5009Z" fill="#F7A9A0"/>
<path d="M122.237 71.4809C122.237 70.5723 121.835 62.294 121.768 58.727C121.667 55.1599 123.878 55.2945 126.122 59.2654C128.399 63.2699 131.178 70.9088 131.112 76.6296C131.045 82.1485 128.466 81.8456 125.82 78.4131C123.643 75.6201 122.237 71.4809 122.237 71.4809Z" fill="#455A64"/>
<path d="M122.303 72.9279C122.303 71.7838 122.27 70.6396 122.203 69.4955C122.17 68.3513 122.103 67.2071 122.069 66.0966L121.902 62.6978L121.801 60.9816C121.768 60.4095 121.734 59.8375 121.701 59.2654C121.701 59.8375 121.734 60.4095 121.734 60.9816L121.801 62.6978L121.935 66.0966C122.002 67.2408 122.036 68.385 122.103 69.4955C122.17 70.6733 122.237 71.8174 122.303 72.9279Z" fill="#263238"/>
<path d="M121.768 61.9238C121.734 61.621 121.667 61.3181 121.6 61.0489C121.567 60.9143 121.533 60.746 121.466 60.6114C121.433 60.4768 121.366 60.3422 121.333 60.174C121.333 60.4768 121.4 60.7797 121.466 61.0489C121.567 61.3854 121.667 61.6546 121.768 61.9238Z" fill="#263238"/>
<path d="M130.074 80.3985C128.131 82.0138 124.581 81.5427 114.568 80.735C113.195 80.6341 111.085 70.3367 112.559 70.404C114.434 70.4713 121.668 71.077 122.204 71.178C126.624 72.1202 131.38 79.288 130.074 80.3985Z" fill="#F7A9A0"/>
<path d="M115.84 71.1107C115.84 71.1107 112.257 69.8656 109.846 69.1926C108.506 68.7887 106.162 68.3513 105.057 68.5195C103.382 68.7551 96.6174 70.8751 97.0862 72.5241C97.5216 74.0384 103.114 71.4809 103.114 71.4809C103.114 71.4809 97.2537 73.5336 98.0909 75.2835C98.9281 76.9997 104.889 73.2644 104.889 73.2644C104.889 73.2644 98.8946 75.5191 100.067 77.168C100.938 78.4131 106.497 75.3171 106.497 75.3171C106.497 75.3171 101.373 77.3026 102.21 78.615C103.148 80.062 108.439 77.5381 108.439 77.5381C111.118 80.4995 113.63 80.8023 115.405 80.8023C115.874 80.836 115.84 71.1107 115.84 71.1107Z" fill="#F7A9A0"/>
<path d="M105.124 70.6395C104.42 70.8414 103.717 71.077 103.047 71.3462C102.377 71.6154 101.708 71.9183 101.071 72.2548C99.4973 73.0961 98.6266 73.8701 98.6601 73.8364C100.033 72.8269 102.444 71.8173 103.114 71.5145C103.784 71.2453 104.454 70.9424 105.124 70.6395C105.157 70.6732 105.124 70.6395 105.124 70.6395Z" fill="#263238"/>
<path d="M106.162 73.0961C105.291 73.399 104.387 73.7019 103.516 74.0384C102.645 74.4085 101.875 74.8124 101.038 75.2162C100.971 75.2498 101.004 75.2835 101.071 75.2498C101.909 74.8797 102.746 74.5768 103.583 74.2066C104.454 73.8365 105.325 73.4326 106.162 73.0961C106.195 73.0961 106.195 73.0625 106.162 73.0961Z" fill="#263238"/>
<path d="M107.434 75.0143C106.061 75.4181 104.789 76.0911 103.516 76.7978C103.449 76.8315 103.516 76.8651 103.583 76.8315C104.889 76.2257 105.894 75.721 107.468 75.0816C107.468 75.0479 107.468 75.0143 107.434 75.0143Z" fill="#263238"/>
<path d="M113.73 70.2694L119.457 81.9128C119.457 81.9128 128.298 82.283 130.14 80.4658C131.346 79.2544 126.724 71.7837 121.734 71.1107L113.73 70.2694Z" fill="#455A64"/>
<path d="M127.059 74.1729C126.456 73.3989 124.648 71.4808 121.768 71.0433C121.734 71.0433 121.734 71.077 121.768 71.077C123.878 71.6491 126.389 73.5336 127.059 74.1729C127.059 74.2402 127.093 74.2066 127.059 74.1729Z" fill="#263238"/>
<path d="M122.17 80.9706C121.6 79.6582 120.964 78.3794 120.328 77.1007C119.692 75.8219 119.055 74.5432 118.386 73.2644C118.017 72.5577 117.649 71.8174 117.247 71.1444C117.247 71.1107 117.213 71.1444 117.213 71.1444C117.783 72.4568 118.386 73.7355 119.022 75.0143C119.658 76.293 120.294 77.5718 120.931 78.8506C121.299 79.5572 121.667 80.2976 122.069 80.9706C122.136 81.0379 122.203 81.0043 122.17 80.9706Z" fill="#263238"/>
<path d="M113.764 70.1348C114.333 70.1011 114.869 70.1684 115.438 70.2021C115.974 70.2357 116.543 70.303 117.079 70.3703C118.184 70.5049 120.529 70.6396 122.438 71.178C122.471 71.178 122.304 71.2453 122.304 71.2453C121.399 70.9424 114.434 70.404 113.864 70.303C113.864 70.3367 113.898 70.3703 113.898 70.4376C113.898 70.4713 113.864 70.5049 113.831 70.4713C113.764 70.404 113.73 70.3367 113.697 70.2694C113.663 70.2021 113.663 70.1348 113.764 70.1348Z" fill="#263238"/>
<path d="M127.394 60.6787C129.002 64.7169 133.188 76.9997 130.14 80.4658C132.786 77.2016 128.6 64.7842 127.394 60.6787Z" fill="#263238"/>
<path d="M127.93 61.2507C128.198 61.7892 128.265 62.3949 128.198 63.0006C128.03 62.3949 127.963 61.8565 127.93 61.2507Z" fill="#263238"/>
</svg>
