<svg width="30" height="40" viewBox="0 0 30 40" fill="none" xmlns="http://www.w3.org/2000/svg">
<path d="M14.1406 20.0781C14.6094 19.2969 14.6875 16.4062 13.9844 16.4062C13.8281 16.4062 13.75 18.8281 14.1406 20.0781ZM14.0625 23.75C13.4375 25.3125 12.6562 27.1094 11.7969 28.5938C13.2812 28.0469 14.8438 27.2656 16.7188 26.9531C15.7812 26.1719 14.7656 25.0781 14.0625 23.75ZM6.71875 33.5156C6.71875 33.5156 7.73438 33.0469 9.45312 30.3125C8.90625 30.8594 7.10938 32.2656 6.71875 33.5156ZM19.375 12.5C18.2812 12.5 17.5 11.7188 17.5 10.625V0H1.875C0.78125 0 0 0.859375 0 1.875V38.125C0 39.2188 0.78125 40 1.875 40H28.125C29.1406 40 30 39.2188 30 38.125V12.5H19.375ZM18.75 25.9375C20.2344 25.7812 23.3594 25.4688 24.4531 26.4844C25.3906 27.4219 25.2344 29.9219 22.8906 29.9219C21.6406 29.9219 19.6094 29.2969 17.8906 28.3594C16.0156 28.6719 13.75 29.5312 11.7188 30.2344C9.76562 33.5938 8.35938 35 6.95312 35C6.5625 35 5.70312 34.7656 5.3125 34.2188C3.82812 32.4219 7.42188 30 9.53125 28.9062C9.53125 28.9062 9.53125 28.9062 9.60938 28.9062C10.5469 27.2656 11.875 24.375 12.7344 22.1875C12.1094 19.6875 11.7188 17.6562 12.1094 16.1719C12.5781 14.6875 15.4688 14.4531 15.8594 16.7188C16.25 18.125 15.7031 20.3125 15.3906 21.7188C16.0938 23.6719 17.1875 25 18.75 25.9375ZM29.4531 8.20312L21.7969 0.546875C21.4062 0.234375 20.9375 0 20.4688 0H20V10H30V9.53125C30 9.0625 29.7656 8.59375 29.4531 8.20312ZM23.5938 28.2031C23.9844 27.9688 23.4375 27.2656 20.3125 27.5C23.2031 28.75 23.5938 28.2031 23.5938 28.2031Z" fill="#FFB23E"/>
</svg>
