<svg width="19" height="19" viewBox="0 0 19 19" fill="none" xmlns="http://www.w3.org/2000/svg">
<path d="M12.5635 2.11328C11.8252 1.51562 10.5596 0.25 9.29395 0.25C7.99316 0.25 6.7627 1.48047 5.98926 2.11328C4.79395 3.0625 2.15723 5.20703 0.891602 6.22656C0.504883 6.54297 0.293945 7 0.293945 7.52734V16.5625C0.293945 17.5117 1.03223 18.25 1.98145 18.25H16.6064C17.5205 18.25 18.2939 17.5117 18.2939 16.5625V7.52734C18.2939 7 18.0479 6.54297 17.6611 6.22656C16.3955 5.20703 13.7588 3.0625 12.5635 2.11328ZM16.6064 17.125H1.98145C1.66504 17.125 1.41895 16.8789 1.41895 16.5625V7.52734C1.41895 7.35156 1.48926 7.17578 1.59473 7.07031C2.54395 6.33203 5.88379 3.625 6.69238 2.99219C7.3252 2.5 8.4502 1.375 9.29395 1.375C10.1025 1.375 11.2275 2.5 11.8604 2.99219C12.6689 3.625 16.0088 6.33203 16.958 7.07031C17.0635 7.17578 17.1689 7.35156 17.1689 7.52734V16.5625C17.1689 16.8789 16.8877 17.125 16.6064 17.125ZM16.29 9.53125L16.1143 9.32031C15.9736 9.14453 15.6924 9.10938 15.5166 9.25C14.708 9.91797 13.583 10.7969 11.8604 12.168C11.2627 12.6602 10.1025 13.7852 9.29395 13.75C8.4502 13.7852 7.29004 12.6602 6.69238 12.168C4.96973 10.7969 3.84473 9.91797 3.03613 9.25C2.86035 9.10938 2.5791 9.14453 2.43848 9.32031L2.2627 9.53125C2.12207 9.70703 2.15723 9.98828 2.33301 10.1289C3.1416 10.7969 4.2666 11.6758 5.98926 13.0469C6.72754 13.6445 7.99316 14.9102 9.25879 14.875C10.5596 14.9102 11.8252 13.6445 12.5635 13.0469C14.2861 11.6758 15.4111 10.7969 16.2197 10.1289C16.3955 9.98828 16.4307 9.70703 16.29 9.53125Z" fill="#131522"/>
</svg>
