<svg width="60" height="60" viewBox="0 0 60 60" fill="none" xmlns="http://www.w3.org/2000/svg">
<rect width="60" height="60" rx="30" fill="#FF6363"/>
<path d="M43.3438 30.8281C43.3438 29.9531 43.2344 29.2969 43.125 28.5859H30.2188V33.2344H37.875C37.6016 35.2578 35.5781 39.0859 30.2188 39.0859C25.5703 39.0859 21.7969 35.2578 21.7969 30.5C21.7969 22.8984 30.7656 19.3984 35.5781 24.0469L39.2969 20.4922C36.9453 18.3047 33.8281 16.9375 30.2188 16.9375C22.6719 16.9375 16.6562 23.0078 16.6562 30.5C16.6562 38.0469 22.6719 44.0625 30.2188 44.0625C38.0391 44.0625 43.3438 38.5938 43.3438 30.8281Z" fill="white"/>
</svg>
