<svg width="32" height="30" viewBox="0 0 32 30" fill="none" xmlns="http://www.w3.org/2000/svg">
<path d="M30.5004 14.3321H29.1727C28.6173 14.3321 28.1567 14.7863 28.1567 15.334V27.9981C28.1567 28.5458 27.696 29 27.1406 29H4.85452C4.29906 29 3.83844 28.5458 3.83844 27.9981V15.334C3.83844 14.7863 3.37781 14.3321 2.82236 14.3321H1.50822C0.952767 14.3321 0.830837 14.0248 1.25082 13.6641L8.13308 7.57252V3.73855C8.13308 3.32443 8.47177 2.99046 8.89175 2.99046H10.2872C10.7071 2.99046 11.0458 3.32443 11.0458 3.73855V4.99427L15.2456 1.28053C15.6656 0.906489 16.343 0.906489 16.7494 1.28053L30.7443 13.6641C31.1643 14.0248 31.0559 14.3321 30.5004 14.3321Z" stroke="#7A7C82" stroke-miterlimit="10"/>
</svg>
