<svg width="22" height="29" viewBox="0 0 22 29" fill="none" xmlns="http://www.w3.org/2000/svg">
<path d="M14.1667 3.625V4.125H14.6667H19.25C20.4975 4.125 21.5 5.12429 21.5 6.34375V26.2812C21.5 27.5007 20.4975 28.5 19.25 28.5H2.75C1.50251 28.5 0.5 27.5007 0.5 26.2812V6.34375C0.5 5.12429 1.50251 4.125 2.75 4.125H7.33333H7.83333V3.625C7.83333 1.9071 9.24834 0.5 11 0.5C12.7517 0.5 14.1667 1.9071 14.1667 3.625ZM3.625 22.6562C3.625 23.6911 4.46728 24.5156 5.5 24.5156C6.53272 24.5156 7.375 23.6911 7.375 22.6562C7.375 21.6214 6.53272 20.7969 5.5 20.7969C4.46728 20.7969 3.625 21.6214 3.625 22.6562ZM3.625 17.2188C3.625 18.2536 4.46728 19.0781 5.5 19.0781C6.53272 19.0781 7.375 18.2536 7.375 17.2188C7.375 16.1839 6.53272 15.3594 5.5 15.3594C4.46728 15.3594 3.625 16.1839 3.625 17.2188ZM3.625 11.7812C3.625 12.8161 4.46728 13.6406 5.5 13.6406C6.53272 13.6406 7.375 12.8161 7.375 11.7812C7.375 10.7464 6.53272 9.92188 5.5 9.92188C4.46728 9.92188 3.625 10.7464 3.625 11.7812ZM12.875 3.625C12.875 2.59017 12.0327 1.76562 11 1.76562C9.96728 1.76562 9.125 2.59017 9.125 3.625C9.125 4.65983 9.96728 5.48438 11 5.48438C12.0327 5.48438 12.875 4.65983 12.875 3.625ZM17.875 24.0625C18.3978 24.0625 18.8333 23.6401 18.8333 23.1094V22.2031C18.8333 21.6724 18.3978 21.25 17.875 21.25H9.625C9.10218 21.25 8.66667 21.6724 8.66667 22.2031V23.1094C8.66667 23.6401 9.10218 24.0625 9.625 24.0625H17.875ZM17.875 18.625C18.3978 18.625 18.8333 18.2026 18.8333 17.6719V16.7656C18.8333 16.2349 18.3978 15.8125 17.875 15.8125H9.625C9.10218 15.8125 8.66667 16.2349 8.66667 16.7656V17.6719C8.66667 18.2026 9.10218 18.625 9.625 18.625H17.875ZM17.875 13.1875C18.3978 13.1875 18.8333 12.7651 18.8333 12.2344V11.3281C18.8333 10.7974 18.3978 10.375 17.875 10.375H9.625C9.10218 10.375 8.66667 10.7974 8.66667 11.3281V12.2344C8.66667 12.7651 9.10218 13.1875 9.625 13.1875H17.875Z" stroke="#7A7C82"/>
</svg>
