<svg width="17" height="19" viewBox="0 0 17 19" fill="none" xmlns="http://www.w3.org/2000/svg">
<path d="M14.4814 8.125H13.9189V5.94531C13.9189 2.85156 11.3877 0.285156 8.29395 0.25C5.2002 0.25 2.66895 2.78125 2.66895 5.875V8.125H2.10645C1.15723 8.125 0.418945 8.89844 0.418945 9.8125V16.5625C0.418945 17.5117 1.15723 18.25 2.10645 18.25H14.4814C15.3955 18.25 16.1689 17.5117 16.1689 16.5625V9.8125C16.1689 8.89844 15.3955 8.125 14.4814 8.125ZM3.79395 5.875C3.79395 3.41406 5.79785 1.375 8.29395 1.375C10.7549 1.375 12.7939 3.41406 12.7939 5.875V8.125H3.79395V5.875ZM14.4814 17.125H2.10645C1.79004 17.125 1.54395 16.8789 1.54395 16.5625V9.8125C1.54395 9.53125 1.79004 9.25 2.10645 9.25H14.4814C14.7627 9.25 15.0439 9.53125 15.0439 9.8125V16.5625C15.0439 16.8789 14.7627 17.125 14.4814 17.125Z" fill="#131522"/>
</svg>
