<svg width="215" height="199" viewBox="0 0 215 199" fill="none" xmlns="http://www.w3.org/2000/svg">
<g clip-path="url(#clip0_902_2732)">
<path d="M190.132 143.663C197.379 150.758 198.595 161.754 197.075 171.433C197.024 171.636 196.72 171.585 196.72 171.382C196.72 169.203 196.771 167.024 196.771 164.845C196.72 164.744 196.72 164.642 196.669 164.541C194.794 163.173 193.021 161.602 191.956 159.474C190.74 157.092 190.284 154.406 189.321 151.923C189.22 151.67 189.473 151.771 189.676 151.872C194.085 155.116 195.504 158.663 196.771 163.325C196.72 160.893 196.517 158.46 196.01 156.028C195.048 151.568 193.173 147.16 189.98 143.866C189.828 143.764 190.031 143.562 190.132 143.663Z" fill="#263238"/>
<path d="M188.764 144.525C187.497 144.575 186.737 146.552 185.774 147.16C185.267 147.464 184.761 147.464 184.406 146.957C183.443 145.589 184.761 143.967 186.027 143.004C185.115 143.359 184.406 144.018 183.443 144.221C182.886 144.322 182.429 144.119 182.277 143.511C181.872 141.687 184.152 140.876 185.723 140.825C184.963 140.268 182.784 138.849 183.95 138.14C185.115 137.43 187.7 139.508 188.561 140.167C189.777 141.18 191.247 142.65 191.348 144.221C191.348 145.994 189.727 144.879 188.764 144.525Z" fill="#FFC727"/>
<path opacity="0.1" d="M188.764 144.525C187.497 144.575 186.737 146.552 185.774 147.16C185.267 147.464 184.761 147.464 184.406 146.957C183.443 145.589 184.761 143.967 186.027 143.004C185.115 143.359 184.406 144.018 183.443 144.221C182.886 144.322 182.429 144.119 182.277 143.511C181.872 141.687 184.152 140.876 185.723 140.825C184.963 140.268 182.784 138.849 183.95 138.14C185.115 137.43 187.7 139.508 188.561 140.167C189.777 141.18 191.247 142.65 191.348 144.221C191.348 145.994 189.727 144.879 188.764 144.525Z" fill="black"/>
<path d="M189.118 144.829C187.497 144.119 184.456 145.133 184.203 144.525C183.696 143.308 186.129 142.447 187.446 142.295C186.23 141.94 183.899 141.433 183.95 140.268C184.051 138.849 187.547 140.065 189.321 141.433C191.551 143.156 191.551 144.778 191.145 145.133C190.639 145.538 189.372 144.93 189.118 144.829Z" fill="#FFC727"/>
<path d="M206.703 142.954C199.152 149.795 197.53 160.74 198.696 170.419C198.747 170.622 199.051 170.571 199.051 170.369C199.152 168.19 199.152 166.011 199.253 163.832C199.304 163.73 199.355 163.629 199.355 163.528C201.28 162.21 203.105 160.74 204.27 158.663C205.588 156.332 206.145 153.646 207.159 151.214C207.26 150.96 207.007 151.062 206.804 151.163C202.243 154.254 200.723 157.7 199.253 162.362C199.405 159.93 199.659 157.497 200.318 155.116C201.432 150.707 203.51 146.399 206.804 143.207C207.007 143.055 206.804 142.852 206.703 142.954Z" fill="#263238"/>
<path d="M208.02 143.866C209.287 143.967 209.996 145.994 210.909 146.602C211.415 146.957 211.922 146.957 212.277 146.45C213.29 145.133 212.023 143.41 210.807 142.447C211.669 142.852 212.378 143.511 213.341 143.714C213.898 143.866 214.354 143.663 214.557 143.055C215.064 141.231 212.784 140.318 211.213 140.217C212.023 139.71 214.253 138.342 213.088 137.582C211.922 136.822 209.287 138.798 208.425 139.457C207.159 140.42 205.638 141.839 205.486 143.41C205.385 145.285 207.057 144.22 208.02 143.866Z" fill="#FFC727"/>
<path opacity="0.1" d="M208.02 143.866C209.287 143.967 209.996 145.994 210.909 146.602C211.415 146.957 211.922 146.957 212.277 146.45C213.29 145.133 212.023 143.41 210.807 142.447C211.669 142.852 212.378 143.511 213.341 143.714C213.898 143.866 214.354 143.663 214.557 143.055C215.064 141.231 212.784 140.318 211.213 140.217C212.023 139.71 214.253 138.342 213.088 137.582C211.922 136.822 209.287 138.798 208.425 139.457C207.159 140.42 205.638 141.839 205.486 143.41C205.385 145.285 207.057 144.22 208.02 143.866Z" fill="black"/>
<path d="M207.665 144.17C209.287 143.511 212.327 144.677 212.581 144.068C213.138 142.852 210.757 141.94 209.439 141.687C210.655 141.383 213.037 140.977 212.986 139.812C212.936 138.393 209.388 139.457 207.615 140.775C205.334 142.396 205.284 144.068 205.638 144.373C206.094 144.829 207.361 144.271 207.665 144.17Z" fill="#FFC727"/>
<path d="M199 160.994C198.443 164.592 197.734 168.291 196.669 171.788C196.568 172.092 196.112 172.041 196.163 171.686C196.669 168.342 197.581 165.099 198.038 161.754C198.544 158.41 198.798 154.964 198.595 151.568C198.291 145.944 196.771 140.015 193.071 135.606C192.97 135.505 193.173 135.352 193.223 135.454C200.571 144.018 199.406 154.457 199.355 155.42C200.369 151.872 201.483 147.818 205.385 144.221C205.537 144.069 205.689 144.119 205.639 144.423C204.929 150.96 203.105 154.406 199.304 157.903C199.304 158.967 199.152 159.98 199 160.994Z" fill="#263238"/>
<path d="M193.021 136.619C191.703 136.011 189.879 137.734 188.561 137.835C187.852 137.886 187.345 137.633 187.244 136.923C186.94 135.048 189.119 133.984 190.892 133.629C189.778 133.579 188.713 133.832 187.599 133.579C186.94 133.376 186.585 132.971 186.737 132.261C187.244 130.133 190.031 130.437 191.703 131.197C191.196 130.234 189.626 127.65 191.196 127.498C192.767 127.346 194.44 130.792 194.946 131.906C195.707 133.579 196.517 135.859 195.757 137.531C194.896 139.457 193.832 137.481 193.021 136.619Z" fill="#FFC727"/>
<path opacity="0.1" d="M193.021 136.619C191.703 136.011 189.879 137.734 188.561 137.835C187.852 137.886 187.345 137.633 187.244 136.923C186.94 135.048 189.119 133.984 190.892 133.629C189.778 133.579 188.713 133.832 187.599 133.579C186.94 133.376 186.585 132.971 186.737 132.261C187.244 130.133 190.031 130.437 191.703 131.197C191.196 130.234 189.626 127.65 191.196 127.498C192.767 127.346 194.44 130.792 194.946 131.906C195.707 133.579 196.517 135.859 195.757 137.531C194.896 139.457 193.832 137.481 193.021 136.619Z" fill="black"/>
<path d="M193.223 137.126C191.906 135.555 188.207 135.099 188.257 134.339C188.308 132.819 191.298 133.173 192.767 133.63C191.653 132.667 189.524 130.944 190.183 129.778C190.994 128.309 193.984 131.349 195.149 133.68C196.619 136.569 195.757 138.292 195.2 138.444C194.44 138.646 193.477 137.379 193.223 137.126Z" fill="#FFC727"/>
<path d="M203.814 162.97L207.057 187.649H187.396C187.801 185.47 191.449 162.919 191.449 162.919L203.814 162.97Z" fill="#FFC727"/>
<path d="M86.5525 116.755C86.5525 117.008 86.3498 117.262 86.0458 117.262C85.4377 117.262 84.6776 117.211 83.8668 117.16C82.4479 111.89 80.7756 107.583 81.181 109.255C81.7384 111.637 81.9918 114.981 81.7384 117.059C80.7756 117.008 78.5459 116.907 77.4311 116.806C76.6709 107.684 75.2014 100.792 75.1507 102.87C74.796 111.181 74.0358 113.816 73.1744 116.603C62.7354 115.995 49.0532 115.032 39.1716 114.12C38.5635 109.052 38.1074 103.579 37.9047 103.934C36.2831 106.569 35.4723 110.623 35.1176 113.714C31.9758 113.41 29.4927 113.106 27.9725 112.853C27.9725 112.853 27.6684 108.596 27.7191 107.228C27.8204 103.731 28.5805 100.184 29.9488 96.8904C31.3677 93.5459 33.496 90.6574 35.523 87.7183L35.5737 87.6676C36.9926 85.6406 38.0567 83.6136 38.8675 81.4853C38.8675 81.4853 38.8675 81.4853 38.8675 81.4346C39.425 79.9143 39.881 78.3434 40.1851 76.5698C41.2999 70.4888 45.3032 65.5734 51.2322 64.5599C62.0259 57.5161 73.5798 60.9113 76.0628 69.1206C76.3162 69.9314 76.5189 70.8435 76.7216 71.8064V71.857C77.4817 75.5056 77.9885 80.2184 78.4952 83.8163C78.4952 83.8163 78.4952 83.8163 78.4952 83.867C78.7486 85.5899 79.0527 87.0595 79.3567 88.073C81.3837 94.7621 87.262 99.0187 86.5525 116.755Z" fill="#263238"/>
<path d="M48.5466 65.928C44.5433 67.499 41.9589 70.1341 40.8947 74.5428C40.2866 77.1272 39.8306 79.6102 38.5637 81.992C37.2461 84.4244 35.4219 86.35 33.4962 88.225C30.4557 91.2655 28.2767 94.3566 27.4152 98.664C26.5031 103.073 26.199 108.343 27.2632 112.65H27.3139C26.5538 108.292 27.1112 102.465 28.3274 98.1572C29.6449 93.3938 32.7361 90.6574 35.9286 87.2621C38.4623 84.5764 40.236 81.4852 41.0974 77.8366C41.6042 75.6576 41.8069 73.3772 42.9217 71.4009C44.2393 69.0192 46.5196 67.651 48.7493 66.4855C49.0534 66.2321 48.8 65.8267 48.5466 65.928Z" fill="#263238"/>
<path d="M84.9311 95.5729C82.6507 91.823 80.1676 88.5798 79.0528 84.1204C78.0393 80.0664 77.6846 75.8098 76.6204 71.7558C76.6204 71.7051 76.519 71.7051 76.519 71.7558C77.9886 78.9516 77.6846 85.9954 81.5865 92.3298C83.7149 95.7756 85.7925 98.9682 87.0087 102.921C88.2756 107.127 88.5797 111.333 88.2249 115.742C88.2249 115.894 88.4276 115.894 88.4276 115.742C89.8972 108.748 88.529 101.451 84.9311 95.5729Z" fill="#263238"/>
<path d="M112.853 85.235L98.7653 111.738C98.2586 112.498 98.512 113.258 99.3228 113.461L113.917 117.059C114.728 117.261 115.792 116.805 116.299 116.045L130.386 89.5424C130.893 88.7822 130.64 88.0221 129.829 87.8194L115.235 84.2215C114.424 84.0188 113.36 84.4749 112.853 85.235Z" fill="#37474F"/>
<path d="M114.576 85.6403L100.488 112.143C99.9817 112.903 100.235 113.664 101.046 113.866L115.64 117.464C116.451 117.667 117.515 117.211 118.022 116.451L132.11 89.9477C132.616 89.1876 132.363 88.4275 131.552 88.2248L116.958 84.6268C116.198 84.4748 115.083 84.8802 114.576 85.6403Z" fill="#455A64"/>
<path d="M118.275 87.9207C118.073 88.5795 117.414 88.9849 116.704 88.8329C116.046 88.6302 115.64 87.9714 115.792 87.2619C115.995 86.6032 116.654 86.1978 117.363 86.3498C118.073 86.5525 118.478 87.2619 118.275 87.9207Z" fill="#263238"/>
<path d="M53.2595 121.873C59.3405 140.926 75.2017 166.72 83.0057 167.835C86.7049 168.392 93.242 170.115 98.7149 166.517C110.623 158.561 122.481 142.7 126.13 133.477C127.498 130.031 109.458 118.174 106.468 120.758C99.4243 126.89 90.5562 139.558 89.4414 139.356C85.4887 138.545 71.5025 123.444 61.7729 112.802C50.0164 99.8799 50.8272 114.272 53.2595 121.873Z" fill="#AD6359"/>
<path d="M130.488 116.755C130.488 109.052 129.323 107.076 132.769 100.589C135.049 96.3327 133.275 93.0895 129.171 95.8766C122.38 100.488 120.303 110.42 120.556 114.018L130.488 116.755Z" fill="#AD6359"/>
<path d="M123.748 137.886C123.748 137.886 129.525 128.663 130.386 120.454C130.944 114.778 130.843 102.312 117.11 92.2788C113.867 89.8971 107.532 88.7822 111.434 94.6098C114.221 98.7652 117.211 100.539 118.377 103.225C118.377 103.225 110.167 102.768 107.887 106.113C106.873 107.633 104.188 111.738 102.617 115.285C102.617 115.285 103.275 115.843 104.238 116.451C104.238 116.451 102.211 119.643 103.529 125.268L123.748 137.886Z" fill="#AD6359"/>
<path d="M130.032 114.981C128.309 112.549 124.559 107.431 120.049 104.339C115.032 100.894 104.441 95.6233 101.958 99.3226C100.134 102.059 103.985 104.441 103.985 104.441C103.985 104.441 99.1709 103.174 98.0054 106.012C96.9919 108.596 100.083 110.268 100.083 110.268C100.083 110.268 97.0426 110.015 96.5358 112.701C95.9277 115.893 102.465 115.944 104.644 119.745C105.151 120.555 130.032 114.981 130.032 114.981Z" fill="#AD6359"/>
<path d="M117.312 110.268C115.336 108.241 109.61 104.796 104.086 104.39C103.985 104.39 103.884 104.491 103.985 104.491C109.964 106.214 115.133 109.002 117.312 110.268C117.312 110.319 117.312 110.268 117.312 110.268Z" fill="#263238"/>
<path d="M113.664 115.184C111.738 113.613 105.708 110.37 100.134 110.116C100.032 110.116 99.9309 110.218 100.032 110.218C106.367 111.839 111.434 114.069 113.664 115.184C113.664 115.285 113.714 115.235 113.664 115.184Z" fill="#263238"/>
<path d="M61.8235 146.197L77.33 126.788C77.33 126.788 65.016 113.208 57.1108 107.532C52.702 104.39 50.1683 107.735 50.8271 112.599C52.9554 129.677 61.8235 146.197 61.8235 146.197Z" fill="#FFC727"/>
<path d="M61.8235 146.197L77.33 126.788C77.33 126.788 65.016 113.208 57.1108 107.532C52.702 104.39 50.1683 107.735 50.8271 112.599C52.9554 129.677 61.8235 146.197 61.8235 146.197Z" fill="#FFC727"/>
<path d="M72.3637 122.481C71.6036 122.481 70.9955 123.089 70.9955 123.849C70.9955 124.609 71.6036 125.218 72.3637 125.218C73.1239 125.218 73.732 124.609 73.732 123.849C73.732 123.089 73.1239 122.481 72.3637 122.481ZM72.3637 124.964C71.7556 124.964 71.2489 124.457 71.2489 123.849C71.2489 123.241 71.7556 122.734 72.3637 122.734C72.9718 122.734 73.4786 123.241 73.4786 123.849C73.4786 124.457 72.9718 124.964 72.3637 124.964ZM59.8471 126.636C59.0869 126.636 58.4788 127.245 58.4788 128.005C58.4788 128.765 59.0869 129.373 59.8471 129.373C60.6072 129.373 61.2153 128.765 61.2153 128.005C61.2153 127.245 60.6072 126.636 59.8471 126.636ZM59.8471 129.12C59.239 129.12 58.7322 128.613 58.7322 128.005C58.7322 127.397 59.239 126.89 59.8471 126.89C60.4552 126.89 60.9619 127.397 60.9619 128.005C60.9619 128.613 60.4552 129.12 59.8471 129.12ZM60.8099 115.792C60.0498 115.792 59.4417 116.4 59.4417 117.16C59.4417 117.92 60.0498 118.528 60.8099 118.528C61.57 118.528 62.1781 117.92 62.1781 117.16C62.1781 116.4 61.57 115.792 60.8099 115.792ZM60.8099 118.275C60.2018 118.275 59.695 117.768 59.695 117.16C59.695 116.552 60.2018 116.045 60.8099 116.045C61.418 116.045 61.9247 116.552 61.9247 117.16C61.9247 117.768 61.418 118.275 60.8099 118.275ZM50.7256 110.116C50.7256 110.167 50.7256 110.268 50.7256 110.37C51.1817 110.522 51.5364 110.927 51.5364 111.434C51.5364 111.941 51.2323 112.346 50.7763 112.498C50.7763 112.549 50.7763 112.6 50.7763 112.65V112.701C51.3337 112.549 51.7391 112.042 51.7391 111.383C51.7391 110.826 51.3337 110.268 50.7256 110.116ZM69.3739 136.721C69.3232 136.011 68.7151 135.454 68.0057 135.454C67.2456 135.454 66.6375 136.062 66.6375 136.822C66.6375 137.582 67.2456 138.19 68.0057 138.19C68.0564 138.19 68.1577 138.19 68.2084 138.19L68.4618 137.886C68.3097 137.937 68.1577 137.988 68.0057 137.988C67.3976 137.988 66.8909 137.481 66.8909 136.873C66.8909 136.265 67.3976 135.758 68.0057 135.758C68.6138 135.758 69.1205 136.265 69.1205 136.873C69.1205 136.923 69.1205 137.025 69.0699 137.075L69.3739 136.721Z" fill="white"/>
<path opacity="0.1" d="M75.5056 129.018L61.8234 146.197C61.8234 146.197 53.0059 129.677 50.7763 112.65C50.3709 109.306 51.3844 106.671 53.5127 106.366L75.5056 129.018Z" fill="black"/>
<path d="M73.6814 125.066C71.0463 127.853 64.1545 135.606 60.3032 141.231C60.3032 141.281 60.4046 141.383 60.4046 141.332C64.3065 137.126 71.4517 128.207 73.8334 125.167C73.9347 125.167 73.732 125.015 73.6814 125.066Z" fill="#263238"/>
<path d="M5.42236 173.511L72.2118 173.359L68.5125 150.403C68.5125 150.403 73.7827 143.967 72.8199 137.025C71.705 129.424 57.9721 110.066 56.8066 109.002C52.1445 104.644 47.2291 103.833 42.5163 105.404C20.6755 119.137 5.42236 173.511 5.42236 173.511Z" fill="#FFC727"/>
<path d="M70.8434 164.592C70.6407 164.845 70.3366 164.997 69.9819 164.997C69.3738 164.997 68.867 164.49 68.867 163.882C68.867 163.274 69.3738 162.768 69.9819 162.768C70.1846 162.768 70.3873 162.818 70.59 162.92L70.5393 162.615C70.3873 162.514 70.1846 162.514 69.9819 162.514C69.2218 162.514 68.6137 163.122 68.6137 163.882C68.6137 164.642 69.2218 165.251 69.9819 165.251C70.3366 165.251 70.6407 165.099 70.894 164.896L70.8434 164.592ZM57.3639 157.548C56.6037 157.548 55.9956 158.156 55.9956 158.916C55.9956 159.676 56.6037 160.284 57.3639 160.284C58.124 160.284 58.7321 159.676 58.7321 158.916C58.7321 158.207 58.124 157.548 57.3639 157.548ZM57.3639 160.082C56.7558 160.082 56.249 159.575 56.249 158.967C56.249 158.359 56.7558 157.852 57.3639 157.852C57.972 157.852 58.4787 158.359 58.4787 158.967C58.4787 159.575 57.972 160.082 57.3639 160.082ZM68.0056 135.454C67.2454 135.454 66.6373 136.062 66.6373 136.822C66.6373 137.582 67.2454 138.19 68.0056 138.19C68.7657 138.19 69.3738 137.582 69.3738 136.822C69.3738 136.062 68.7657 135.454 68.0056 135.454ZM68.0056 137.937C67.3975 137.937 66.8907 137.43 66.8907 136.822C66.8907 136.214 67.3975 135.707 68.0056 135.707C68.6137 135.707 69.1204 136.214 69.1204 136.822C69.1204 137.43 68.6137 137.937 68.0056 137.937ZM19.0537 169.862C18.2936 169.862 17.6855 170.47 17.6855 171.23C17.6855 171.99 18.2936 172.598 19.0537 172.598C19.8138 172.598 20.4219 171.99 20.4219 171.23C20.3712 170.47 19.7631 169.862 19.0537 169.862ZM19.0537 172.345C18.4456 172.345 17.9389 171.838 17.9389 171.23C17.9389 170.622 18.4456 170.115 19.0537 170.115C19.6618 170.115 20.1685 170.622 20.1685 171.23C20.1685 171.838 19.6618 172.345 19.0537 172.345ZM32.8879 165.403C32.1278 165.403 31.5197 166.011 31.5197 166.771C31.5197 167.531 32.1278 168.139 32.8879 168.139C33.648 168.139 34.2561 167.531 34.2561 166.771C34.2561 166.011 33.648 165.403 32.8879 165.403ZM32.8879 167.886C32.2798 167.886 31.7731 167.379 31.7731 166.771C31.7731 166.163 32.2798 165.656 32.8879 165.656C33.496 165.656 34.0028 166.163 34.0028 166.771C34.0028 167.379 33.496 167.886 32.8879 167.886ZM22.3982 130.994C22.3476 130.994 22.2462 130.994 22.1955 130.994C22.1449 131.096 22.0942 131.197 22.0435 131.248C22.1449 131.197 22.2462 131.197 22.3982 131.197C23.0063 131.197 23.5131 131.704 23.5131 132.312C23.5131 132.92 23.0063 133.427 22.3982 133.427C21.8915 133.427 21.4861 133.123 21.3341 132.667C21.2834 132.768 21.2327 132.869 21.182 132.92C21.3847 133.376 21.8408 133.68 22.3982 133.68C23.1584 133.68 23.7665 133.072 23.7665 132.312C23.7665 131.603 23.1584 130.994 22.3982 130.994ZM26.2495 141.383C25.4894 141.383 24.8813 141.991 24.8813 142.751C24.8813 143.511 25.4894 144.119 26.2495 144.119C27.0096 144.119 27.6177 143.511 27.6177 142.751C27.6177 141.991 27.0096 141.383 26.2495 141.383ZM26.2495 143.866C25.6414 143.866 25.1347 143.359 25.1347 142.751C25.1347 142.143 25.6414 141.636 26.2495 141.636C26.8576 141.636 27.3644 142.143 27.3644 142.751C27.3644 143.359 26.8576 143.866 26.2495 143.866ZM37.4487 113.106C36.6885 113.106 36.0804 113.714 36.0804 114.474C36.0804 115.235 36.6885 115.843 37.4487 115.843C38.2088 115.843 38.8169 115.235 38.8169 114.474C38.8169 113.714 38.1581 113.106 37.4487 113.106ZM37.4487 115.589C36.8406 115.589 36.3338 115.083 36.3338 114.474C36.3338 113.866 36.8406 113.36 37.4487 113.36C38.0568 113.36 38.5635 113.866 38.5635 114.474C38.5635 115.083 38.0568 115.589 37.4487 115.589ZM38.7662 136.721C38.0061 136.721 37.398 137.329 37.398 138.089C37.398 138.849 38.0061 139.457 38.7662 139.457C39.5263 139.457 40.1344 138.849 40.1344 138.089C40.1344 137.329 39.5263 136.721 38.7662 136.721ZM38.7662 139.204C38.1581 139.204 37.6514 138.697 37.6514 138.089C37.6514 137.481 38.1581 136.974 38.7662 136.974C39.3743 136.974 39.881 137.481 39.881 138.089C39.9317 138.697 39.425 139.204 38.7662 139.204ZM50.3707 110.066C49.6106 110.066 49.0025 110.674 49.0025 111.434C49.0025 112.194 49.6106 112.802 50.3707 112.802C51.1309 112.802 51.7389 112.194 51.7389 111.434C51.7389 110.674 51.1309 110.066 50.3707 110.066ZM50.3707 112.549C49.7626 112.549 49.2559 112.042 49.2559 111.434C49.2559 110.826 49.7626 110.319 50.3707 110.319C50.9788 110.319 51.4856 110.826 51.4856 111.434C51.4856 112.042 51.0295 112.549 50.3707 112.549ZM60.8097 115.792C60.0496 115.792 59.4415 116.4 59.4415 117.16C59.4415 117.92 60.0496 118.528 60.8097 118.528C61.5699 118.528 62.178 117.92 62.178 117.16C62.178 116.4 61.5699 115.792 60.8097 115.792ZM60.8097 118.275C60.2016 118.275 59.6949 117.768 59.6949 117.16C59.6949 116.552 60.2016 116.045 60.8097 116.045C61.4178 116.045 61.9246 116.552 61.9246 117.16C61.9246 117.768 61.4178 118.275 60.8097 118.275ZM56.249 168.494C55.4889 168.494 54.8808 169.102 54.8808 169.862C54.8808 170.622 55.4889 171.23 56.249 171.23C57.0091 171.23 57.6172 170.622 57.6172 169.862C57.6172 169.102 57.0091 168.494 56.249 168.494ZM56.249 170.977C55.6409 170.977 55.1342 170.47 55.1342 169.862C55.1342 169.254 55.6409 168.747 56.249 168.747C56.8571 168.747 57.3639 169.254 57.3639 169.862C57.3639 170.47 56.8571 170.977 56.249 170.977ZM43.8337 159.626C43.0736 159.626 42.4655 160.234 42.4655 160.994C42.4655 161.754 43.0736 162.362 43.8337 162.362C44.5938 162.362 45.2019 161.754 45.2019 160.994C45.1512 160.234 44.5431 159.626 43.8337 159.626ZM43.8337 162.109C43.2256 162.109 42.7188 161.602 42.7188 160.994C42.7188 160.386 43.2256 159.879 43.8337 159.879C44.4418 159.879 44.9485 160.386 44.9485 160.994C44.9485 161.602 44.4418 162.109 43.8337 162.109ZM58.4787 143.308C57.7186 143.308 57.1105 143.916 57.1105 144.677C57.1105 145.437 57.7186 146.045 58.4787 146.045C59.2388 146.045 59.8469 145.437 59.8469 144.677C59.8469 143.916 59.2388 143.308 58.4787 143.308ZM58.4787 145.791C57.8706 145.791 57.3639 145.285 57.3639 144.677C57.3639 144.069 57.8706 143.562 58.4787 143.562C59.0868 143.562 59.5935 144.069 59.5935 144.677C59.5935 145.285 59.0868 145.791 58.4787 145.791ZM59.8469 126.636C59.0868 126.636 58.4787 127.244 58.4787 128.005C58.4787 128.765 59.0868 129.373 59.8469 129.373C60.607 129.373 61.2151 128.765 61.2151 128.005C61.2151 127.244 60.607 126.636 59.8469 126.636ZM59.8469 129.119C59.2388 129.119 58.7321 128.613 58.7321 128.005C58.7321 127.396 59.2388 126.89 59.8469 126.89C60.455 126.89 60.9618 127.396 60.9618 128.005C60.9618 128.613 60.455 129.119 59.8469 129.119ZM69.2724 148.781C68.5123 148.781 67.9042 149.389 67.9042 150.149C67.9042 150.707 68.2589 151.214 68.715 151.416L68.6643 151.112C68.3603 150.91 68.1069 150.555 68.1069 150.149C68.1069 149.541 68.6137 149.035 69.2218 149.035C69.3231 149.035 69.4245 149.035 69.4751 149.085C69.5258 149.035 69.5765 148.933 69.6272 148.883C69.5258 148.781 69.3738 148.781 69.2724 148.781ZM51.5362 134.238C50.7761 134.238 50.168 134.846 50.168 135.606C50.168 136.366 50.7761 136.974 51.5362 136.974C52.2964 136.974 52.9045 136.366 52.9045 135.606C52.8538 134.846 52.2457 134.238 51.5362 134.238ZM51.5362 136.721C50.9282 136.721 50.4214 136.214 50.4214 135.606C50.4214 134.998 50.9282 134.491 51.5362 134.491C52.1443 134.491 52.6511 134.998 52.6511 135.606C52.6511 136.214 52.1443 136.721 51.5362 136.721ZM16.6213 148.781C15.8612 148.781 15.2531 149.389 15.2531 150.149C15.2531 150.91 15.8612 151.518 16.6213 151.518C17.3814 151.518 17.9895 150.91 17.9895 150.149C17.9895 149.389 17.3814 148.781 16.6213 148.781ZM16.6213 151.264C16.0132 151.264 15.5065 150.758 15.5065 150.149C15.5065 149.541 16.0132 149.035 16.6213 149.035C17.2294 149.035 17.7362 149.541 17.7362 150.149C17.7362 150.758 17.2294 151.264 16.6213 151.264ZM43.8337 172.142C43.1242 172.142 42.5161 172.7 42.4655 173.46H42.7188C42.7695 172.852 43.2256 172.396 43.8337 172.396C44.4418 172.396 44.8978 172.852 44.9485 173.46H45.2019C45.1512 172.7 44.5431 172.142 43.8337 172.142ZM33.2933 150.859C32.5332 150.859 31.9251 151.467 31.9251 152.227C31.9251 152.987 32.5332 153.595 33.2933 153.595C34.0534 153.595 34.6615 152.987 34.6615 152.227C34.6615 151.467 34.0534 150.859 33.2933 150.859ZM33.2933 153.342C32.6852 153.342 32.1785 152.835 32.1785 152.227C32.1785 151.619 32.6852 151.112 33.2933 151.112C33.9014 151.112 34.4082 151.619 34.4082 152.227C34.4588 152.835 33.9521 153.342 33.2933 153.342ZM34.0028 125.927C33.2426 125.927 32.6345 126.535 32.6345 127.295C32.6345 128.055 33.2426 128.663 34.0028 128.663C34.7629 128.663 35.371 128.055 35.371 127.295C35.371 126.535 34.7629 125.927 34.0028 125.927ZM34.0028 128.41C33.3947 128.41 32.8879 127.903 32.8879 127.295C32.8879 126.687 33.3947 126.18 34.0028 126.18C34.6109 126.18 35.1176 126.687 35.1176 127.295C35.1176 127.954 34.6109 128.41 34.0028 128.41ZM9.88155 160.538C9.7802 160.538 9.67885 160.538 9.62818 160.538C9.57751 160.639 9.5775 160.741 9.52683 160.791C9.62818 160.741 9.72953 160.741 9.88155 160.741C10.4897 160.741 10.9964 161.247 10.9964 161.855C10.9964 162.463 10.4897 162.97 9.88155 162.97C9.47616 162.97 9.12143 162.768 8.91873 162.463C8.86806 162.565 8.86806 162.666 8.81738 162.717C9.07076 163.021 9.42548 163.224 9.83088 163.224C10.591 163.224 11.1991 162.615 11.1991 161.855C11.2498 161.146 10.6417 160.538 9.88155 160.538ZM24.6786 158.257C23.9185 158.257 23.3104 158.866 23.3104 159.626C23.3104 160.386 23.9185 160.994 24.6786 160.994C25.4387 160.994 26.0468 160.386 26.0468 159.626C26.0468 158.866 25.388 158.257 24.6786 158.257ZM24.6786 160.741C24.0705 160.741 23.5638 160.234 23.5638 159.626C23.5638 159.018 24.0705 158.511 24.6786 158.511C25.2867 158.511 25.7934 159.018 25.7934 159.626C25.7934 160.234 25.2867 160.741 24.6786 160.741ZM46.3167 147.616C45.5566 147.616 44.9485 148.224 44.9485 148.984C44.9485 149.744 45.5566 150.352 46.3167 150.352C47.0769 150.352 47.685 149.744 47.685 148.984C47.685 148.224 47.0262 147.616 46.3167 147.616ZM46.3167 150.099C45.7086 150.099 45.2019 149.592 45.2019 148.984C45.2019 148.376 45.7086 147.869 46.3167 147.869C46.9248 147.869 47.4316 148.376 47.4316 148.984C47.4316 149.592 46.9248 150.099 46.3167 150.099ZM42.7695 105.353C42.5668 105.606 42.3134 105.758 41.9587 105.809C41.8574 105.86 41.756 105.961 41.6547 106.012C41.7053 106.012 41.8067 106.012 41.908 106.012C42.4655 106.012 42.9215 105.708 43.1242 105.201C42.9722 105.252 42.8709 105.302 42.7695 105.353ZM46.9755 120.454C46.2154 120.454 45.6073 121.062 45.6073 121.822C45.6073 122.582 46.2154 123.19 46.9755 123.19C47.7356 123.19 48.3437 122.582 48.3437 121.822C48.3437 121.062 47.7356 120.454 46.9755 120.454ZM46.9755 122.937C46.3674 122.937 45.8607 122.43 45.8607 121.822C45.8607 121.214 46.3674 120.707 46.9755 120.707C47.5836 120.707 48.0904 121.214 48.0904 121.822C48.0904 122.43 47.5836 122.937 46.9755 122.937Z" fill="white"/>
<path d="M64.1036 118.275C65.3705 120.403 66.8401 122.481 68.1576 124.609C67.6002 123.089 67.0934 121.62 66.4853 120.15C66.4853 120.099 66.536 120.099 66.536 120.15C67.4482 121.974 68.3096 123.799 68.8671 125.724C69.8806 127.346 70.7927 128.968 71.5528 130.69C72.465 132.768 73.1744 134.947 73.3771 137.228C73.5798 139.508 73.1744 141.788 72.4143 143.967C71.5528 146.45 70.3366 148.781 69.0191 151.112C68.8671 151.416 68.411 151.112 68.563 150.808C70.438 146.754 72.5663 142.498 72.3636 137.937C72.1609 133.427 70.0833 129.221 68.0056 125.319C66.7387 122.937 65.4718 120.556 63.9516 118.376C63.9009 118.275 64.053 118.174 64.1036 118.275Z" fill="#263238"/>
<path d="M57.9721 148.629C55.2357 148.933 52.4993 149.288 49.8642 149.947C48.5466 150.302 47.2291 150.707 45.9622 151.112C45.3034 151.315 44.6447 151.518 44.0366 151.721C43.3778 151.923 42.6684 152.075 41.9589 152.126C41.9082 152.126 41.9082 152.227 41.9589 152.227C42.6177 152.227 43.2764 152.278 43.9859 152.177C44.6447 152.126 45.2528 151.974 45.9115 151.822C47.2798 151.467 48.5973 151.112 49.9148 150.758C52.6006 150.048 55.3371 149.39 58.0735 148.883C58.1242 148.832 58.1242 148.629 57.9721 148.629Z" fill="#263238"/>
<path d="M64.7624 151.062C62.5327 150.808 60.2524 150.707 57.972 150.758C56.8571 150.758 55.6916 150.859 54.5768 150.96C54.0193 151.011 53.5126 151.062 52.9552 151.163C52.3471 151.214 51.7897 151.417 51.1816 151.467C51.1309 151.467 51.1309 151.569 51.1816 151.569C51.739 151.518 52.2964 151.569 52.8538 151.569C53.4113 151.569 53.9687 151.518 54.5261 151.518C55.6409 151.467 56.8065 151.467 57.9213 151.417C60.2017 151.315 62.4314 151.265 64.7117 151.265C64.8638 151.214 64.8638 151.062 64.7624 151.062Z" fill="#263238"/>
<path d="M34.5095 111.434C17.5334 129.272 -3.64863 166.518 0.557376 173.967C5.21946 182.227 29.5434 156.991 28.7832 155.775C28.1245 154.761 36.7899 132.16 42.9722 115.741C49.1039 99.3228 38.7155 107.025 34.5095 111.434Z" fill="#AD6359"/>
<path d="M13.6821 132.819L38.1074 137.227C38.1074 137.227 44.1884 119.897 45.4046 110.319C46.0633 104.948 42.9215 104.694 38.9182 107.583C24.9826 117.566 13.6821 132.819 13.6821 132.819Z" fill="#FFC727"/>
<path d="M22.398 130.995C21.6379 130.995 21.0298 131.603 21.0298 132.363C21.0298 133.123 21.6379 133.731 22.398 133.731C23.1581 133.731 23.7662 133.123 23.7662 132.363C23.7662 131.603 23.1581 130.995 22.398 130.995ZM22.398 133.478C21.7899 133.478 21.2832 132.971 21.2832 132.363C21.2832 131.755 21.7899 131.248 22.398 131.248C23.0061 131.248 23.5129 131.755 23.5129 132.363C23.5129 132.971 23.0568 133.478 22.398 133.478ZM37.4484 113.106C36.6883 113.106 36.0802 113.714 36.0802 114.475C36.0802 115.235 36.6883 115.843 37.4484 115.843C38.2085 115.843 38.8166 115.235 38.8166 114.475C38.8166 113.714 38.1579 113.106 37.4484 113.106ZM37.4484 115.589C36.8403 115.589 36.3336 115.083 36.3336 114.475C36.3336 113.867 36.8403 113.36 37.4484 113.36C38.0565 113.36 38.5633 113.867 38.5633 114.475C38.5633 115.083 38.0565 115.589 37.4484 115.589ZM26.756 118.478C26.5533 118.478 26.3506 118.529 26.1479 118.63C25.9452 118.833 25.7425 119.035 25.5398 119.289C25.4385 119.491 25.3878 119.643 25.3878 119.846C25.3878 120.606 25.9959 121.214 26.756 121.214C27.5162 121.214 28.1243 120.606 28.1243 119.846C28.1243 119.086 27.5162 118.478 26.756 118.478ZM26.756 120.961C26.1479 120.961 25.6412 120.454 25.6412 119.846C25.6412 119.238 26.1479 118.731 26.756 118.731C27.3641 118.731 27.8709 119.238 27.8709 119.846C27.8709 120.454 27.3641 120.961 26.756 120.961ZM37.8031 137.177L38.1072 137.228L38.1579 137.177C38.1579 137.126 38.2085 137.025 38.2592 136.822C38.0565 136.924 37.9045 137.025 37.8031 137.177ZM34.0025 125.927C33.2424 125.927 32.6343 126.535 32.6343 127.295C32.6343 128.055 33.2424 128.664 34.0025 128.664C34.7627 128.664 35.3708 128.055 35.3708 127.295C35.3708 126.535 34.7627 125.927 34.0025 125.927ZM34.0025 128.41C33.3944 128.41 32.8877 127.903 32.8877 127.295C32.8877 126.687 33.3944 126.18 34.0025 126.18C34.6106 126.18 35.1174 126.687 35.1174 127.295C35.1174 127.954 34.6106 128.41 34.0025 128.41ZM41.7051 106.012C41.7558 106.012 41.8065 106.012 41.8571 106.012C42.1612 106.012 42.4146 105.911 42.6173 105.759C42.3639 105.809 42.0598 105.911 41.7051 106.012Z" fill="white"/>
<path d="M37.9556 133.224C34.2563 132.261 24.1214 129.829 17.3309 129.17C17.2803 129.17 17.2803 129.322 17.2803 129.322C22.8545 130.741 34.1043 132.819 37.8542 133.478C37.9556 133.427 38.0063 133.224 37.9556 133.224Z" fill="#263238"/>
<path d="M35.1177 136.67C36.1312 136.771 37.1447 136.873 38.1075 137.025L37.9048 137.126C38.6142 134.44 39.425 131.805 40.2865 129.221C41.148 126.586 42.0601 124.001 43.1243 121.468C42.4655 124.153 41.7054 126.788 40.8946 129.423C40.0838 132.059 39.1717 134.694 38.2088 137.278L38.1582 137.43L38.0061 137.379C37.094 137.177 36.1312 136.923 35.1177 136.67Z" fill="#263238"/>
<path d="M41.5532 126.738C41.7559 126.18 42.06 125.674 42.364 125.218C42.7187 124.762 43.0228 124.305 43.4789 123.849C43.4282 124.153 43.3268 124.407 43.1748 124.711C43.0735 124.964 42.8708 125.218 42.7187 125.471C42.4147 125.927 42.06 126.383 41.5532 126.738Z" fill="#263238"/>
<path d="M1.06433 174.727C5.67573 179.744 16.3174 179.338 43.2258 180.909C46.925 181.112 55.5398 155.268 51.5871 154.812C46.5703 154.254 27.1112 153.241 25.6416 153.342C13.581 154.153 -2.02684 171.332 1.06433 174.727Z" fill="#AD6359"/>
<path d="M46.2154 154.305C46.2154 154.305 57.5665 154.457 63.4955 156.383C71.4514 158.967 77.2283 164.44 79.5087 166.923C84.2721 172.041 92.2788 187.7 88.1741 190.791C84.4748 193.578 77.0763 177.16 77.0763 177.16C77.0763 177.16 87.3633 192.666 82.2451 195.2C77.127 197.733 69.6778 178.173 69.6778 178.173C69.6778 178.173 79.9141 194.338 74.2385 196.163C69.9312 197.531 62.1779 180.2 62.1779 180.2C62.1779 180.2 70.8433 194.136 66.536 195.757C61.7218 197.531 53.5632 181.974 53.5632 181.974C41.8066 184.153 35.3709 180.403 31.0636 177.16C29.9487 176.349 46.2154 154.305 46.2154 154.305Z" fill="#AD6359"/>
<path d="M73.8329 171.585C75.0998 173.359 76.4173 175.132 77.5322 177.058C78.647 178.933 79.7112 180.859 80.6234 182.835C82.9037 187.7 83.5625 191.095 83.5118 190.892C81.9916 186.028 78.0896 179.237 77.0254 177.362C75.9106 175.487 74.8971 173.562 73.7823 171.636C73.7316 171.585 73.8329 171.535 73.8329 171.585Z" fill="#263238"/>
<path d="M66.9916 175.437C68.5118 177.768 70.1334 180.048 71.5523 182.43C72.9712 184.811 74.0861 187.244 75.3529 189.727C75.4543 189.93 75.3023 189.93 75.2009 189.727C73.8327 187.294 72.4138 185.166 71.0456 182.734C69.6773 180.301 68.3598 177.818 66.9409 175.487C66.8902 175.437 66.9409 175.437 66.9916 175.437Z" fill="#263238"/>
<path d="M60.4548 177.717C62.9885 181.163 64.8635 185.115 66.5864 188.967C66.6878 189.169 66.4851 189.119 66.3837 188.916C64.4074 185.115 62.8871 182.176 60.3027 177.767C60.3027 177.767 60.4041 177.666 60.4548 177.717Z" fill="#263238"/>
<path d="M15.7095 157.599C17.3311 156.281 21.9931 153.089 26.9593 153.241C27.01 153.241 27.01 153.342 26.9593 153.342C22.956 153.798 17.4324 156.535 15.7601 157.7C15.7095 157.7 15.6588 157.599 15.7095 157.599Z" fill="#263238"/>
<path d="M45.9112 105.049C46.0126 106.214 50.2693 114.424 55.4888 114.981C57.2117 115.184 58.5799 105.91 58.5799 105.91L58.8333 105.252L62.4312 96.0288L52.3469 87.11L50.8774 85.8938C50.8774 85.8938 50.0666 88.4782 49.0531 91.7214C49.0024 91.8734 48.9517 92.0254 48.9011 92.1775C48.8504 92.3802 48.7997 92.5322 48.749 92.6842C48.597 93.1403 48.445 93.647 48.293 94.1538C48.1916 94.5085 48.0903 94.9139 47.9889 95.2686C47.8876 95.674 47.7862 96.0288 47.6849 96.4342C46.57 100.437 45.8606 104.593 45.9112 105.049Z" fill="#AD6359"/>
<path d="M49.0532 91.7722C50.6241 99.7788 56.1984 103.833 58.8335 105.302L62.4314 96.0795L52.3471 87.1608L50.8775 85.9446C50.8268 85.9446 50.016 88.529 49.0532 91.7722Z" fill="#263238"/>
<path d="M78.5458 85.0831C76.2654 102.313 65.6744 102.87 61.9751 102.363C58.5799 101.907 47.1781 99.9309 47.6848 82.6001C48.1916 65.2186 56.9076 60.8606 64.6609 61.4687C72.4141 62.0768 80.8262 67.8537 78.5458 85.0831Z" fill="#AD6359"/>
<path d="M76.0624 83.208C75.657 83.056 75.3529 82.904 74.9475 82.752C74.5421 82.5493 74.1874 82.4479 73.934 82.0425C73.782 81.8398 73.8834 81.4344 74.0861 81.2824C74.5421 80.9277 75.0996 81.029 75.657 81.2317C76.2144 81.4344 76.5691 81.7892 76.8732 82.2959C77.1266 82.8533 76.5691 83.4107 76.0624 83.208Z" fill="#263238"/>
<path d="M64.4072 80.2689C64.8126 80.3196 65.218 80.2689 65.6234 80.2689C66.0795 80.2689 66.4342 80.3196 66.8396 80.0156C67.0423 79.8635 67.093 79.5088 66.9917 79.2554C66.6876 78.7487 66.1302 78.5967 65.5728 78.5967C64.9647 78.5967 64.5086 78.7487 64.0525 79.1034C63.5458 79.5088 63.8498 80.2183 64.4072 80.2689Z" fill="#263238"/>
<path d="M66.2315 84.0695C66.2315 84.0188 66.1302 84.1202 66.1302 84.1708C65.9782 85.3364 65.5728 86.6539 64.4579 86.8566C64.4073 86.8566 64.4073 86.9073 64.4579 86.9073C65.7755 86.9579 66.2822 85.1843 66.2315 84.0695Z" fill="#263238"/>
<path d="M65.4208 82.6507C63.5965 82.1946 62.7351 85.8939 64.458 86.3499C66.1303 86.806 66.9917 83.0561 65.4208 82.6507Z" fill="#263238"/>
<path d="M64.6607 82.7015C64.306 82.8535 63.9006 83.1575 63.4952 83.1069C63.0391 83.0562 62.7857 82.6001 62.583 82.144C62.583 82.0934 62.5323 82.144 62.5323 82.1947C62.3803 82.9042 62.4817 83.715 63.2418 83.9683C63.9006 84.2217 64.5593 83.715 64.9141 83.0055C64.8634 82.8535 64.8127 82.6508 64.6607 82.7015Z" fill="#263238"/>
<path d="M73.1232 85.1337C73.1232 85.083 73.2246 85.1844 73.1739 85.235C72.8698 86.4006 72.7178 87.7181 73.6806 88.3769C73.7313 88.3769 73.6806 88.4782 73.6806 88.4275C72.4644 87.9715 72.6671 86.1979 73.1232 85.1337Z" fill="#263238"/>
<path d="M74.4406 84.171C76.3156 84.475 75.6061 88.2249 73.8832 87.9209C72.1602 87.6675 72.8697 83.9176 74.4406 84.171Z" fill="#263238"/>
<path d="M75.2006 84.5763C75.454 84.8296 75.7074 85.235 76.0114 85.3364C76.4168 85.4377 76.8222 85.083 77.1263 84.7283C77.177 84.6776 77.177 84.7283 77.177 84.779C77.0756 85.4884 76.6702 86.1979 75.9608 86.1979C75.302 86.1979 74.9473 85.4884 74.9473 84.779C74.9473 84.627 75.0486 84.4749 75.2006 84.5763Z" fill="#263238"/>
<path d="M64.4072 94.0019C64.6099 94.3566 64.7619 94.762 65.1673 94.914C65.5727 95.066 66.0794 95.0154 66.4848 94.9647C66.5355 94.9647 66.5355 95.0154 66.5355 95.0154C66.1301 95.3701 65.4207 95.4714 64.9139 95.2687C64.4072 95.0154 64.3058 94.5086 64.3058 94.0019C64.2551 93.9512 64.3565 93.9512 64.4072 94.0019Z" fill="#263238"/>
<path d="M70.1335 90.8599C70.1335 90.8599 70.0321 92.6335 69.8294 93.4443C69.8294 93.5457 69.6267 93.495 69.3227 93.495C69.3227 93.495 69.3227 93.495 69.272 93.495C67.8024 93.3937 66.4342 92.6335 65.8261 91.2653C65.7754 91.164 65.9275 91.1133 65.9781 91.164C66.8903 92.1775 68.0558 92.6335 69.3227 92.9376C69.424 92.7349 69.424 89.8971 69.5761 89.8971C70.0321 89.9478 70.8429 90.4545 71.3497 90.7079C71.7044 87.0086 71.5017 83.2587 71.9071 79.6101C71.9071 79.4581 72.1098 79.4581 72.1098 79.6101C72.6165 83.5121 72.3125 87.7688 72.0085 91.5694C71.9578 92.0254 70.4375 91.0626 70.1335 90.8599Z" fill="#263238"/>
<path d="M52.3468 64.2051C51.7387 65.5733 43.9348 66.4855 40.4889 61.2153C37.0937 55.9958 41.6038 49.6108 47.8368 52.6512C51.7387 54.6276 53.6137 61.3166 52.3468 64.2051Z" fill="#263238"/>
<path d="M40.3877 54.0701C41.7559 52.5498 43.5802 51.6377 45.4552 51.3843C47.3301 51.0802 49.2051 51.739 50.3706 53.1579C51.6375 54.5768 52.2456 56.4518 52.6003 58.3774C52.7524 59.3402 52.8537 60.3031 52.803 61.3166C52.803 62.3301 52.7017 63.2929 52.347 64.2557C52.9551 63.4449 53.1578 62.3807 53.3605 61.3672C53.5125 60.3537 53.5631 59.2896 53.4618 58.2761C53.2591 56.2491 52.651 54.1207 51.2321 52.4485C50.5227 51.6377 49.6105 50.9789 48.5463 50.6242C47.4822 50.3201 46.3673 50.2695 45.3032 50.5228C43.2255 51.0296 41.4012 52.2964 40.3877 54.0701Z" fill="#263238"/>
<path d="M48.4955 83.3601C51.536 84.627 54.2725 77.6339 54.2725 77.6339C54.2725 77.6339 68.3094 79.0021 72.414 68.3604C72.414 68.3604 72.8194 75.9616 79.0018 80.9784C79.0018 80.9784 81.7889 68.8671 72.8701 64.0024C72.8701 64.0024 62.2284 56.5532 53.1069 64.1037C43.9855 71.6036 46.4685 82.4987 48.4955 83.3601Z" fill="#263238"/>
<path d="M72.7179 67.5496C72.4645 69.2725 71.755 70.8941 70.7922 72.3637C69.8294 73.8332 68.5625 75.1508 67.093 76.1136C66.7382 76.367 66.3328 76.5697 65.9275 76.7724L65.3193 77.0764C65.1166 77.1778 64.914 77.2285 64.7113 77.3298C64.3059 77.4818 63.9005 77.6338 63.4444 77.7859C63.039 77.8872 62.5829 77.9886 62.1775 78.0899C61.9748 78.1406 61.7721 78.1913 61.5187 78.2419L60.86 78.2926L59.5424 78.4446C58.681 78.4446 57.8195 78.394 56.958 78.3433C57.8195 78.1913 58.681 78.1913 59.5424 78.0392L60.8093 77.7859L61.4174 77.6845C61.6201 77.6338 61.8228 77.5832 62.0255 77.4818C62.4309 77.3298 62.8363 77.2284 63.2417 77.1271C63.6471 76.9751 64.0018 76.823 64.4072 76.6203L64.9646 76.367L65.5221 76.0629C65.8768 75.8602 66.2822 75.6575 66.5862 75.4042C68.0051 74.492 69.2213 73.3265 70.2348 71.9583C70.7416 71.2995 71.1976 70.59 71.603 69.8299C72.0591 69.1205 72.4138 68.3604 72.7179 67.5496Z" fill="#263238"/>
<path d="M47.6342 71.8569L46.2153 73.0731L49.6612 78.9007L52.7524 76.1643L47.6342 71.8569ZM50.0159 77.1778L47.4822 73.4278L47.7863 73.1238L51.0801 76.215L50.0159 77.1778Z" fill="#FFC727"/>
<path d="M49.0026 69.2725L48.1411 70.9447L53.5633 75.0494L55.3876 71.3501L49.0026 69.2725ZM53.2086 73.2758L49.4587 70.742L49.6614 70.3366L53.8674 71.9582L53.2086 73.2758Z" fill="#FFC727"/>
<path d="M50.2182 84.2722C50.2182 84.2722 47.6845 78.1405 44.9987 78.9513C42.313 79.7621 43.3771 88.0221 45.9616 89.6944C48.546 91.3666 50.1676 88.9849 50.1676 88.9849L50.2182 84.2722Z" fill="#AD6359"/>
<path d="M45.3534 81.333C45.3027 81.333 45.3027 81.3837 45.3027 81.3837C47.127 82.5999 47.7351 84.6775 48.0392 86.7552C47.6338 85.8937 46.9243 85.3363 45.7588 85.7924C45.7081 85.7924 45.7081 85.8937 45.8095 85.8937C46.671 85.8937 47.2284 86.1471 47.6338 86.9579C47.9378 87.5153 48.0392 88.1234 48.1912 88.7315C48.2419 88.9342 48.5966 88.8836 48.5459 88.6809V88.6302C49.2047 86.1471 48.0392 82.1945 45.3534 81.333Z" fill="#263238"/>
<path d="M162.418 49.9862V64.1752H158.415V49.9862C158.415 44.6147 154.31 40.206 149.294 40.206C144.277 40.206 140.172 44.6147 140.172 49.9862V64.1752H136.169V49.9862C136.118 42.2837 141.996 36 149.243 36C156.489 36 162.418 42.2837 162.418 49.9862Z" fill="#C7C7C7"/>
<path d="M136.118 53.6855L140.121 53.8376V64.1752H136.118V53.6855Z" fill="#A6A6A6"/>
<path d="M162.418 54.7497V64.1752H158.415V54.5977L162.418 54.7497Z" fill="#A6A6A6"/>
<path d="M167.537 56.1179H131V89.2592H167.537V56.1179Z" fill="#FFC727"/>
<path opacity="0.1" d="M167.537 56.1179H149.243V89.2592H167.537V56.1179Z" fill="black"/>
<path d="M150.814 73.9047L152.334 81.1512H145.848L147.368 73.9047C146.456 73.3473 145.848 72.3338 145.848 71.1682C145.848 69.3439 147.317 67.925 149.091 67.925C150.864 67.925 152.334 69.3439 152.334 71.1682C152.334 72.3338 151.726 73.2966 150.814 73.9047Z" fill="#263238"/>
</g>
<defs>
<clipPath id="clip0_902_2732">
<rect width="214.659" height="199" fill="white"/>
</clipPath>
</defs>
</svg>
