<svg width="501" height="508" viewBox="0 0 501 508" fill="none" xmlns="http://www.w3.org/2000/svg">
<path d="M173.508 170.783C208.958 178.246 246.484 175.343 281.38 162.905C372.634 130.565 447.687 172.441 466.52 198.838C488.399 229.519 491.999 269.875 481.89 306.775C471.782 343.676 448.934 377.259 421.654 406.558C400.329 429.5 375.265 450.507 345.493 462.393C316.275 474.002 284.288 476.351 252.992 477.872C212.835 479.945 171.846 480.912 133.628 471.514C102.471 463.913 70.3448 444.979 67.5753 415.127C65.2213 389.698 85.3 364.683 82.5305 339.253C78.6533 303.735 33.9261 286.183 19.1093 253.567C1.80003 215.699 23.8174 173.823 53.7279 164.84C84.8846 155.856 134.32 162.49 173.508 170.783Z" fill="#E7E7E7"/>
<path d="M194.484 146.026C170.657 187.71 94.0077 200.486 67.2813 221.908C42.8242 241.524 29.7131 286.822 31.0998 322.956C32.3605 359.091 59.213 394.968 94.3859 398.065C109.64 399.355 125.02 394.71 140.401 395.871C189.441 399.355 216.798 455.622 259.913 479.755C309.71 507.63 372.996 487.885 419.011 454.074C448.259 432.522 474.607 403.872 483.936 368.254C493.265 332.635 481.162 289.403 449.393 271.981C420.776 256.236 377.282 258.559 366.062 227.329C358.246 205.519 373.5 182.677 376.904 159.705C382.199 123.7 355.473 87.8231 321.56 76.8536C287.774 65.6261 256.635 63.6903 231.674 89.6298C220.076 101.761 202.93 131.314 194.484 146.026Z" fill="#63BD92"/>
<path d="M297.496 264.135H374.863L377.314 215.604H295.045L297.496 264.135Z" fill="#EBEBEB"/>
<path d="M300.477 221.302H369.962L368.902 237.545H301.338L300.477 221.302Z" stroke="#DBDBDB" stroke-miterlimit="10"/>
<path d="M302.597 242.326L303.325 256.931H367.974L368.902 242.326H302.597Z" stroke="#DBDBDB" stroke-miterlimit="10"/>
<path d="M342.671 230.93H328.761L328.364 227.458H343.135L342.671 230.93Z" stroke="#DBDBDB" stroke-miterlimit="10"/>
<path d="M342.671 251.364H328.761L328.364 247.893H343.135L342.671 251.364Z" stroke="#DBDBDB" stroke-miterlimit="10"/>
<path d="M308.227 264.135L307.498 269.44L305.975 280.05H302.994V264.135H308.227Z" fill="#EBEBEB"/>
<path d="M308.227 264.135L307.498 269.44H302.994V264.135H308.227Z" fill="#DBDBDB"/>
<path d="M364.132 264.135L364.861 269.44L366.384 280.05H369.365V264.135H364.132Z" fill="#EBEBEB"/>
<path d="M364.132 264.135L364.861 269.44H369.365V264.135H364.132Z" fill="#DBDBDB"/>
<path d="M343.731 207.352C344.261 211.02 344.062 214.818 343.135 218.42C342.738 220.123 342.141 221.695 341.413 223.333C340.552 225.363 339.624 227.328 339.823 229.554C340.022 229.685 339.293 229.685 339.293 229.489C333.332 226.149 325.648 225.494 321.077 219.992C318.892 217.373 317.832 214.098 317.302 210.758C316.706 207.156 316.573 203.161 317.501 199.624C318.295 196.611 320.084 193.729 322.932 192.289C325.847 190.782 329.688 190.913 332.802 191.83C339.492 193.86 342.804 200.999 343.731 207.352Z" fill="#FFC727"/>
<path d="M346.778 251.102C345.983 248.417 345.122 245.731 344.327 243.046C342.671 237.807 341.015 232.567 339.095 227.393C337.968 224.315 336.776 221.237 335.518 218.224C335.716 216.325 335.849 214.426 336.246 212.526C336.776 210.234 337.439 208.007 338.167 205.78C338.233 205.649 337.968 205.584 337.902 205.715C336.577 208.793 334.789 212.723 334.789 216.39C333.332 212.985 331.742 209.579 330.086 206.239C330.02 203.423 329.887 200.606 330.351 197.79C330.351 197.659 330.152 197.594 330.152 197.725C329.689 200.148 329.357 202.702 329.556 205.191C328.298 202.702 326.907 200.213 325.449 197.79C325.317 197.594 324.986 197.79 325.118 197.987C327.37 202.244 329.424 206.632 331.411 211.02C328.695 208.662 325.449 206.828 322.071 205.649C321.939 205.584 321.806 205.78 321.939 205.846C325.781 207.418 329.026 209.71 332.073 212.461C333.464 215.67 334.789 218.945 336.114 222.285C332.404 218.683 327.238 216.259 322.336 215.015C322.137 214.949 322.137 215.211 322.27 215.277C327.966 216.98 332.471 220.189 336.776 224.053C337.306 225.363 337.77 226.738 338.233 228.048C340.088 233.091 341.81 238.2 343.533 243.308C344.327 245.731 345.122 248.22 345.917 250.709C346.778 253.329 347.374 256.145 348.5 258.699C348.633 258.961 349.03 258.896 348.964 258.568C348.5 256.079 347.573 253.591 346.778 251.102Z" fill="#263238"/>
<path d="M336.909 202.178C335.849 203.816 335.12 205.584 334.789 207.483C334.789 207.549 334.855 207.549 334.855 207.483C335.518 205.715 336.313 203.947 337.174 202.309C337.24 202.178 336.975 202.047 336.909 202.178Z" fill="#263238"/>
<path d="M326.244 214.491C324.721 213.64 322.667 212.919 320.879 212.723C320.813 212.723 320.813 212.788 320.879 212.788C321.74 213.116 322.667 213.378 323.528 213.705C324.389 214.033 325.251 214.425 326.112 214.753C326.31 214.884 326.443 214.622 326.244 214.491Z" fill="#263238"/>
<path d="M323.264 199.689C322.734 199.362 322.138 198.903 321.541 198.641C321.475 198.576 321.343 198.707 321.475 198.772C321.939 199.231 322.601 199.558 323.197 199.886C323.197 199.951 323.33 199.755 323.264 199.689Z" fill="#263238"/>
<path d="M363.868 227.459C359.562 228.703 355.257 229.882 350.951 231.126C350.554 231.257 343.334 217.438 345.917 210.365C348.368 203.816 353.932 198.904 360.556 196.611C363.603 195.563 367.379 194.712 370.624 195.432C373.539 196.087 375.526 198.38 376.52 201.065C377.778 204.732 377.381 209.055 376.652 212.788C375.99 216.259 374.731 219.665 372.413 222.35C370.161 225.035 367.246 226.476 363.868 227.459Z" fill="#FFC727"/>
<path d="M370.094 214.36C367.379 215.735 364.597 216.718 361.682 217.635C359.827 218.224 357.774 218.748 356.052 219.665C357.84 215.67 359.894 211.74 361.947 207.876C364.729 207.09 367.644 205.846 369.763 203.881C369.896 203.75 369.763 203.619 369.631 203.684C367.312 205.256 364.795 206.239 362.278 207.352C362.874 206.304 363.404 205.256 364 204.208C364.133 203.946 363.735 203.619 363.537 203.881C361.285 207.09 359.231 210.496 357.443 214.032C356.979 210.954 356.847 207.876 356.979 204.732C356.979 204.667 356.847 204.667 356.847 204.732C356.317 208.072 356.317 211.609 356.979 214.949C355.456 217.896 354.065 220.975 352.872 224.053C352.409 222.219 351.746 220.385 351.349 218.486C350.753 215.801 350.421 213.05 350.753 210.299C350.753 210.234 350.62 210.234 350.62 210.299C349.759 215.211 350.554 220.713 352.409 225.363C351.68 227.197 351.018 229.096 350.355 230.93C347.11 240.492 345.189 250.381 344.659 260.467C344.659 260.729 344.99 260.729 344.99 260.467C346.182 250.578 348.236 240.754 351.415 231.323C352.674 227.59 354.131 223.987 355.654 220.451C358.171 219.73 360.755 218.682 363.206 217.831C365.656 216.98 368.107 216.063 370.161 214.425C370.293 214.425 370.227 214.294 370.094 214.36Z" fill="#263238"/>
<path d="M374.135 210.365C371.486 211.282 369.035 212.592 366.385 213.509C366.253 213.574 366.319 213.771 366.451 213.705C369.233 213.116 372.015 212.264 374.201 210.496C374.334 210.431 374.201 210.3 374.135 210.365Z" fill="#263238"/>
<path d="M352.674 204.733C352.674 204.602 352.475 204.536 352.475 204.667C351.746 207.09 351.283 209.579 351.945 212.068C351.945 212.133 352.144 212.199 352.144 212.068C352.21 209.579 352.077 207.156 352.674 204.733Z" fill="#263238"/>
<path d="M363.537 199.166C362.675 200.279 362.344 201.851 362.411 203.226C362.411 203.292 362.543 203.357 362.609 203.292C362.94 201.916 363.47 200.672 363.868 199.362C363.934 199.166 363.669 199.035 363.537 199.166Z" fill="#263238"/>
<path d="M312.732 233.549C313.99 237.479 316.971 242.98 321.74 243.046C324.787 243.046 327.9 242.718 331.013 242.653C334.325 242.587 337.637 242.587 340.949 242.784C341.214 242.784 340.552 233.025 332.603 228.244C330.351 226.935 327.635 226.476 325.118 225.952C322.204 225.363 319.223 224.904 316.308 225.035C314.454 225.101 312.996 225.494 312.334 227.327C311.605 229.227 312.069 231.65 312.732 233.549Z" fill="#FFC727"/>
<path d="M316.11 228.572C318.031 229.03 320.018 229.62 321.939 230.209C321.409 229.685 320.945 229.161 320.349 228.637C319.488 227.983 318.627 227.393 317.7 226.804C317.633 226.738 317.7 226.607 317.766 226.673C319.554 227.328 321.343 228.768 322.469 230.34C324.853 231.126 327.304 231.978 329.556 232.895C331.212 233.549 332.67 234.335 334.127 235.252C333.597 234.27 333.133 233.287 332.471 232.436C331.411 231.061 330.02 230.34 328.629 229.358C328.496 229.292 328.629 229.096 328.761 229.161C331.875 230.537 333.796 232.764 334.922 235.776C336.578 236.955 338.035 238.265 339.426 239.837C344.659 245.731 348.832 253.59 348.832 261.581C348.832 261.777 348.501 261.843 348.501 261.646C346.977 253.721 343.864 246.517 338.499 240.361C338.101 239.902 337.77 239.509 337.372 239.116C335.915 238.985 334.524 238.789 333.001 238.789C331.279 238.789 329.623 239.051 327.967 239.182C325.185 239.378 322.138 239.444 319.62 238.068C319.488 238.003 319.554 237.807 319.687 237.872C325.251 239.902 331.08 237.348 336.71 238.527C334.325 236.235 331.61 234.532 328.496 233.287C328.298 233.222 328.165 233.156 327.967 233.091C324.39 233.484 320.614 234.466 317.103 233.287C316.971 233.222 317.037 233.091 317.17 233.156C320.548 234.008 323.794 232.96 327.105 232.764C323.462 231.388 319.819 230.275 316.176 228.899C315.779 228.768 315.779 228.506 316.11 228.572Z" fill="#263238"/>
<path d="M314.52 232.043C316.242 232.305 317.964 232.305 319.753 232.436C319.819 232.436 319.819 232.501 319.753 232.501C318.031 232.894 316.176 232.632 314.52 232.174C314.387 232.174 314.454 232.043 314.52 232.043Z" fill="#263238"/>
<path d="M326.31 228.637C327.238 228.965 328.165 229.751 328.894 230.406C328.96 230.471 328.894 230.668 328.761 230.602C328.298 230.275 327.9 230.013 327.436 229.685C327.039 229.423 326.575 229.227 326.178 228.899C326.045 228.834 326.178 228.637 326.31 228.637Z" fill="#263238"/>
<path d="M354.329 241.409C354.263 241.54 354.462 241.671 354.528 241.54C354.528 241.605 354.594 241.605 354.66 241.605C357.84 242.26 361.086 242.981 364.331 243.308C366.981 243.57 369.962 243.701 372.28 242.195C375.393 240.164 377.447 234.728 375.791 231.257C373.803 227.131 367.776 229.358 364.795 230.864C360.158 232.96 356.449 236.759 354.329 241.409Z" fill="#FFC727"/>
<path d="M352.011 243.308C353.799 241.605 355.72 240.164 357.774 238.92C359.165 236.562 361.351 234.532 363.669 233.026C363.802 232.96 363.868 233.157 363.802 233.222C361.814 234.728 360.291 236.497 358.834 238.396C361.152 237.086 363.603 236.038 366.12 235.121C366.981 233.55 368.438 232.043 370.028 231.257C370.028 231.257 370.094 231.257 370.094 231.323C368.703 232.436 367.577 233.55 366.584 234.99C368.041 234.466 369.564 233.943 371.022 233.419C371.154 233.353 371.22 233.55 371.088 233.615C368.438 234.663 365.722 235.711 363.073 236.955C366.385 237.414 369.366 237.479 372.744 236.955C372.81 236.955 372.876 237.086 372.81 237.086C369.564 238.003 365.789 238.2 362.543 237.217C360.887 238.003 359.231 238.92 357.641 239.902C358.966 239.706 360.225 239.968 361.549 240.23C363.868 240.688 366.12 241.081 368.438 241.016C368.505 241.016 368.571 241.147 368.438 241.147C364.398 241.802 360.622 240.033 356.648 240.492C355.19 241.474 353.799 242.588 352.475 243.832C349.958 246.255 347.97 249.137 346.447 252.281C344.791 255.621 343.864 259.223 342.539 262.694C342.473 262.825 342.274 262.76 342.274 262.629C343.466 255.752 346.911 248.22 352.011 243.308Z" fill="#263238"/>
<path d="M364.133 233.877C364.398 233.419 364.795 233.026 365.193 232.633C365.524 232.305 365.921 231.912 366.385 231.781C366.451 231.781 366.451 231.847 366.451 231.847C366.12 232.24 365.656 232.502 365.325 232.829C364.994 233.157 364.663 233.615 364.331 233.943C364.133 234.008 364.067 233.943 364.133 233.877Z" fill="#263238"/>
<path d="M370.756 236.038C371.353 235.907 371.949 235.907 372.611 235.776C373.207 235.645 373.803 235.449 374.4 235.252C374.466 235.252 374.532 235.318 374.466 235.383C373.472 235.973 371.949 236.431 370.823 236.235C370.624 236.169 370.624 236.038 370.756 236.038Z" fill="#263238"/>
<path d="M335.452 254.18L335.982 260.075L337.77 280.05H353.601L355.853 260.075L356.516 254.18H335.452Z" fill="#37474F"/>
<path d="M335.452 254.18L335.982 260.075H355.853L356.516 254.18H335.452Z" fill="#263238"/>
<path d="M333.851 257.384H358.028V252.603H333.851V257.384Z" fill="#37474F"/>
<path d="M108.981 280.05L142.564 279.919L176.081 279.854L243.181 279.723L310.281 279.854L343.798 279.919L377.314 280.05L343.798 280.247L310.281 280.312L243.181 280.378L176.081 280.312L142.564 280.247L108.981 280.05Z" fill="#263238"/>
<path d="M218.142 116.513V127.516H221.057V132.559L226.157 127.516H260.667V116.513H218.142Z" fill="white"/>
<path d="M218.142 116.513C218.142 120.246 218.275 123.914 218.275 127.516L218.142 127.385H221.057H221.189V127.516V132.559L220.924 132.428L225.958 127.385C226.025 127.319 226.025 127.319 226.091 127.319C234.702 127.319 251.99 127.254 260.601 127.254L260.336 127.516V116.513L260.535 116.709C250.069 116.709 228.74 116.578 218.142 116.513ZM218.142 116.513L239.339 116.382L260.668 116.316H260.866V116.513V127.516V127.778H260.601H243.379C243.445 127.712 225.627 127.843 226.29 127.712L221.189 132.69L220.924 132.952V132.559V127.516L221.057 127.647H218.142H218.01V127.516C218.01 123.848 218.076 120.181 218.142 116.513Z" fill="#263238"/>
<path d="M225.561 120.508V122.015H225.163V120.508C225.163 119.919 224.7 119.46 224.17 119.46C223.64 119.46 223.176 119.919 223.176 120.508V122.015H222.779V120.508C222.779 119.722 223.375 119.067 224.17 119.067C224.965 119.067 225.561 119.722 225.561 120.508Z" fill="#263238"/>
<path d="M222.779 120.901H223.242V122.015H222.779V120.901Z" fill="#263238"/>
<path d="M225.561 121.032V122.015H225.164V120.967L225.561 121.032Z" fill="#263238"/>
<path d="M226.091 121.425H222.249V124.569H226.091V121.425Z" fill="#263238"/>
<path d="M232.251 120.705C231.721 121.752 230.926 122.538 229.866 123.062C230.396 122.08 231.191 121.294 232.251 120.705Z" fill="#263238"/>
<path d="M229.866 120.705C230.926 121.229 231.721 122.014 232.251 123.062C231.191 122.538 230.396 121.752 229.866 120.705Z" fill="#263238"/>
<path d="M232.715 121.883C231.589 122.211 230.462 122.211 229.336 121.883C230.462 121.556 231.655 121.556 232.715 121.883Z" fill="#263238"/>
<path d="M231.058 120.246C231.39 121.359 231.39 122.473 231.058 123.586C230.727 122.473 230.727 121.359 231.058 120.246Z" fill="#263238"/>
<path d="M238.08 120.705C237.55 121.752 236.755 122.538 235.695 123.062C236.225 122.08 237.02 121.294 238.08 120.705Z" fill="#263238"/>
<path d="M235.695 120.705C236.755 121.229 237.55 122.014 238.08 123.062C237.02 122.538 236.225 121.752 235.695 120.705Z" fill="#263238"/>
<path d="M238.61 121.883C237.484 122.211 236.358 122.211 235.231 121.883C236.291 121.556 237.484 121.556 238.61 121.883Z" fill="#263238"/>
<path d="M236.888 120.246C237.219 121.359 237.219 122.473 236.888 123.586C236.556 122.473 236.556 121.359 236.888 120.246Z" fill="#263238"/>
<path d="M243.909 120.705C243.379 121.752 242.584 122.538 241.524 123.062C242.054 122.08 242.915 121.294 243.909 120.705Z" fill="#263238"/>
<path d="M241.524 120.705C242.584 121.229 243.379 122.014 243.909 123.062C242.915 122.538 242.054 121.752 241.524 120.705Z" fill="#263238"/>
<path d="M244.439 121.883C243.313 122.211 242.187 122.211 241.061 121.883C242.187 121.556 243.313 121.556 244.439 121.883Z" fill="#263238"/>
<path d="M242.717 120.246C243.048 121.359 243.048 122.473 242.717 123.586C242.385 122.473 242.385 121.359 242.717 120.246Z" fill="#263238"/>
<path d="M249.738 120.705C249.208 121.752 248.413 122.538 247.354 123.062C247.883 122.08 248.745 121.294 249.738 120.705Z" fill="#263238"/>
<path d="M247.354 120.705C248.413 121.229 249.208 122.014 249.738 123.062C248.745 122.538 247.883 121.752 247.354 120.705Z" fill="#263238"/>
<path d="M250.268 121.883C249.142 122.211 248.016 122.211 246.89 121.883C248.016 121.556 249.142 121.556 250.268 121.883Z" fill="#263238"/>
<path d="M248.546 120.246C248.877 121.359 248.877 122.473 248.546 123.586C248.215 122.473 248.215 121.359 248.546 120.246Z" fill="#263238"/>
<path d="M255.567 120.705C255.037 121.752 254.242 122.538 253.183 123.062C253.779 122.08 254.574 121.294 255.567 120.705Z" fill="#263238"/>
<path d="M253.183 120.705C254.242 121.229 255.037 122.014 255.567 123.062C254.574 122.538 253.779 121.752 253.183 120.705Z" fill="#263238"/>
<path d="M256.097 121.883C254.971 122.211 253.845 122.211 252.719 121.883C253.845 121.556 254.971 121.556 256.097 121.883Z" fill="#263238"/>
<path d="M254.375 120.246C254.706 121.359 254.706 122.473 254.375 123.586C254.044 122.473 254.044 121.359 254.375 120.246Z" fill="#263238"/>
<path d="M171.577 249.595L133.291 280.05H135.476L179.658 249.595H171.577Z" fill="#C7C7C7"/>
<path d="M175.153 249.595L156.275 280.05H158.395L181.579 249.595H175.153Z" fill="#C7C7C7"/>
<path d="M184.427 249.595L203.305 280.05H201.186L178.002 249.595H184.427Z" fill="#C7C7C7"/>
<path d="M187.739 249.595L225.959 280.05H223.839L179.658 249.595H187.739Z" fill="#C7C7C7"/>
<path d="M251.593 238.396V229.489L199.066 227.328L171.311 154.106H107.722L130.243 238.396L183.963 253.328H187.341L251.593 238.396Z" fill="#455A64"/>
<path opacity="0.1" d="M107.722 154.106H115.008L138.457 230.93L185.95 244.225L251.593 229.489V238.396L187.341 253.328H183.963L130.243 238.396L107.722 154.106Z" fill="black"/>
<path d="M222.978 293.934C221.388 293.345 185.288 264.135 184.625 262.17C184.36 261.449 188.335 256.014 193.369 249.53C194.429 248.154 195.555 246.713 196.747 245.273C204.232 235.907 212.379 226.083 212.379 226.083L236.557 245.535L220.262 264.2L216.685 268.326C216.685 268.326 225.428 285.617 225.892 287.843C226.422 290.07 224.567 294.524 222.978 293.934Z" fill="#AD6359"/>
<path d="M222.978 293.934C221.388 293.345 185.288 264.135 184.625 262.17C184.294 261.253 190.256 253.394 196.747 245.272L220.262 264.2L216.685 268.326C216.685 268.326 225.429 285.616 225.892 287.843C226.422 290.07 224.568 294.524 222.978 293.934Z" fill="#EBEBEB"/>
<path d="M222.978 293.934C221.388 293.345 185.288 264.135 184.625 262.17C184.36 261.45 188.335 256.014 193.369 249.53L216.685 268.326C216.685 268.326 225.428 285.617 225.892 287.843C226.422 290.07 224.567 294.524 222.978 293.934Z" fill="#FFC727"/>
<path d="M223.64 292.101C217.745 287.058 193.369 267.279 187.076 262.76C187.01 262.694 187.01 262.76 187.076 262.825C192.839 267.934 217.347 287.516 223.574 292.232C223.706 292.297 223.772 292.166 223.64 292.101Z" fill="#263238"/>
<path d="M224.7 284.634C223.309 283.39 221.388 282.932 219.864 283.194C218.473 283.39 216.884 284.045 215.89 285.289C215.89 285.355 215.956 285.355 215.956 285.355C218.208 283.325 222.117 282.997 224.634 284.765C224.7 284.765 224.766 284.7 224.7 284.634Z" fill="#263238"/>
<path d="M218.54 270.815C216.155 268.85 212.644 267.409 209.531 268.13C209.399 268.13 209.465 268.326 209.531 268.326C212.644 268.981 215.426 269.833 218.341 271.143C218.54 271.208 218.738 270.946 218.54 270.815Z" fill="#263238"/>
<path d="M219.864 273.042C217.48 271.077 213.969 269.637 210.856 270.357C210.723 270.357 210.79 270.553 210.856 270.553C213.969 271.208 216.751 272.06 219.666 273.37C219.864 273.435 219.997 273.173 219.864 273.042Z" fill="#263238"/>
<path d="M221.123 275.269C218.738 273.304 215.227 271.863 212.114 272.584C211.982 272.584 212.048 272.78 212.114 272.78C215.227 273.435 218.009 274.286 220.924 275.596C221.123 275.662 221.255 275.4 221.123 275.269Z" fill="#263238"/>
<path d="M222.381 277.496C219.997 275.531 216.486 274.09 213.373 274.811C213.24 274.811 213.307 275.007 213.373 275.007C216.486 275.662 219.268 276.513 222.183 277.823C222.381 277.889 222.514 277.627 222.381 277.496Z" fill="#263238"/>
<path d="M193.369 258.306C190.653 256.145 187.208 260.271 189.924 262.498C192.64 264.659 196.084 260.467 193.369 258.306Z" fill="white"/>
<path d="M226.488 266.493C226.091 264.528 223.772 264.2 222.116 264.659C219.467 265.379 216.685 267.017 214.83 268.981C214.764 269.047 214.83 269.112 214.83 269.112C214.764 269.309 214.83 269.636 215.095 269.636C217.811 269.833 220.659 270.422 223.309 269.833C224.965 269.505 226.819 268.392 226.488 266.493ZM219.268 269.178C217.943 269.112 216.619 268.981 215.294 268.916C216.685 268.065 218.076 267.148 219.599 266.493C220.328 266.165 221.057 265.838 221.852 265.576C223.044 265.183 227.084 265.117 225.163 267.934C224.037 269.505 220.858 269.309 219.268 269.178Z" fill="#263238"/>
<path d="M208.074 265.052C209.929 267.082 212.578 268.261 214.897 269.636C215.162 269.767 215.36 269.571 215.426 269.374C215.493 269.374 215.559 269.375 215.493 269.309C215.095 266.689 213.837 263.677 212.048 261.646C210.988 260.402 208.869 259.223 207.412 260.664C206.087 261.843 207.014 263.873 208.074 265.052ZM207.743 262.498C207.809 259.092 211.055 261.45 211.783 262.432C212.247 263.087 212.711 263.742 213.108 264.462C213.903 265.903 214.499 267.41 215.228 268.916C214.102 268.196 212.976 267.541 211.85 266.82C210.459 265.969 207.743 264.332 207.743 262.498Z" fill="#263238"/>
<path d="M261.661 208.989C259.806 221.499 228.144 257.323 224.501 261.45C223.971 262.039 223.64 262.366 223.64 262.366L198.072 242.391L198.403 241.998L221.52 212.788L153.625 211.544L179.657 192.026C179.657 192.026 181.711 193.271 186.083 192.681C201.119 190.717 234.967 186.329 242.915 186.722C253.116 187.311 263.383 197.462 261.661 208.989Z" fill="#263238"/>
<path d="M229.8 201.981C228.939 202.833 228.21 203.946 227.416 204.928C226.621 205.976 225.76 206.959 224.965 208.007C225.097 207.679 225.23 207.417 225.428 207.09C225.958 206.042 226.356 204.994 226.952 204.012C227.018 203.946 226.886 203.881 226.886 203.946C226.289 204.928 225.561 205.845 224.965 206.893C224.7 207.352 224.501 207.876 224.236 208.4C224.104 208.662 223.971 208.924 223.905 209.251C223.839 209.382 223.772 209.513 223.772 209.644C223.375 210.102 223.044 210.626 222.713 211.085C221.918 212.198 221.255 213.312 220.46 214.425C220.394 214.491 220.527 214.556 220.527 214.491C221.322 213.508 222.249 212.526 223.044 211.543C223.839 210.495 224.633 209.448 225.428 208.4C226.157 207.352 226.952 206.304 227.68 205.256C228.343 204.208 229.204 203.16 229.8 201.981C229.866 201.981 229.8 201.916 229.8 201.981Z" fill="#37474F"/>
<path d="M227.217 256.472C225.759 255.228 224.17 254.049 222.646 252.87C221.123 251.691 219.533 250.512 218.009 249.399C214.896 247.106 211.783 244.749 208.67 242.456C206.948 241.212 205.225 239.968 203.437 238.854C203.371 238.789 203.304 238.92 203.371 238.985C206.351 241.474 209.465 243.766 212.578 246.059C215.691 248.351 218.804 250.643 221.984 252.935C223.706 254.18 225.428 255.424 227.217 256.603C227.217 256.668 227.283 256.538 227.217 256.472Z" fill="#37474F"/>
<path d="M172.04 159.018C179.061 172.313 187.474 186.328 195.356 188.424C202.907 190.389 220.792 171.789 223.839 165.632C224.898 163.537 210.723 154.171 208.67 155.743C204.894 158.69 196.614 168.056 195.422 167.794C194.164 167.532 184.162 158.69 175.087 151.224C169.655 146.77 167.204 149.849 172.04 159.018Z" fill="#AD6359"/>
<path d="M211.319 134.196L205.888 152.992C205.689 153.516 205.954 153.975 206.484 154.04L216.353 154.368C216.883 154.368 217.546 153.975 217.745 153.385L223.176 134.589C223.375 134.065 223.11 133.606 222.58 133.541L212.71 133.213C212.18 133.213 211.518 133.672 211.319 134.196Z" fill="#A6A6A6"/>
<path d="M212.512 134.261L207.08 153.058C206.881 153.582 207.146 154.04 207.676 154.106L217.546 154.433C218.076 154.433 218.738 154.04 218.937 153.451L224.368 134.654C224.567 134.13 224.302 133.672 223.772 133.606L213.903 133.279C213.307 133.279 212.71 133.672 212.512 134.261Z" fill="#DBDBDB"/>
<path d="M215.161 135.178C215.161 135.637 214.764 135.964 214.3 135.964C213.837 135.964 213.505 135.571 213.505 135.113C213.505 134.654 213.903 134.327 214.366 134.327C214.83 134.327 215.161 134.72 215.161 135.178Z" fill="#455A64"/>
<path d="M228.475 154.957C229.336 149.521 228.674 147.949 231.853 143.758C233.907 141.007 233.046 138.453 229.734 140.025C224.368 142.579 221.785 149.39 221.586 152.01L228.475 154.957Z" fill="#AD6359"/>
<path d="M221.322 169.3C221.322 169.3 226.488 163.341 227.945 157.643C228.939 153.713 230.198 144.806 221.454 136.226C219.401 134.196 214.963 132.755 217.148 137.274C218.672 140.483 220.659 142.121 221.189 144.151C221.189 144.151 215.36 142.972 213.373 145.133C212.512 146.116 210.127 148.735 208.604 151.093C208.604 151.093 209.001 151.552 209.663 152.076C209.663 152.076 208.008 154.237 208.339 158.363L221.322 169.3Z" fill="#AD6359"/>
<path d="M228.343 153.713C227.349 151.814 225.23 147.819 222.315 145.133C219.069 142.186 212.048 137.274 209.862 139.632C208.272 141.4 210.79 143.496 210.79 143.496C210.79 143.496 207.478 142.055 206.352 143.954C205.358 145.657 207.411 147.164 207.411 147.164C207.411 147.164 205.225 146.64 204.563 148.473C203.768 150.7 208.471 151.421 209.663 154.302C209.862 155.023 228.343 153.713 228.343 153.713Z" fill="#AD6359"/>
<path d="M219.665 148.997C218.473 147.36 214.698 144.282 210.789 143.43C210.723 143.43 210.657 143.496 210.723 143.496C214.83 145.329 218.274 147.884 219.665 148.997Z" fill="#263238"/>
<path d="M216.552 152.141C215.36 150.831 211.386 147.884 207.345 147.098C207.279 147.098 207.213 147.164 207.279 147.164C211.651 148.932 215.095 151.093 216.552 152.141Z" fill="#263238"/>
<path d="M203.835 158.166L218.606 173.688C218.606 173.688 202.974 190.978 195.687 189.21C188.335 187.376 174.491 167.793 170.053 155.35C167.006 146.704 171.841 148.145 176.942 152.337C182.042 156.594 195.356 167.073 195.952 166.876C196.482 166.68 203.835 158.166 203.835 158.166Z" fill="#FFC727"/>
<path opacity="0.1" d="M198.867 189.014C197.741 189.341 196.615 189.407 195.687 189.145C188.335 187.311 174.491 167.728 170.053 155.285C167.999 149.587 169.457 148.277 172.106 149.259C180.121 160.917 190.719 176.635 198.867 189.014Z" fill="black"/>
<path d="M213.837 176.243C211.717 174.081 203.238 165.043 201.582 162.947C201.45 162.816 201.516 162.685 201.649 162.816C208.206 169.038 211.916 173.95 213.903 176.112C213.969 176.243 213.903 176.308 213.837 176.243Z" fill="#263238"/>
<path d="M188.534 200.999C188.534 200.999 139.981 209.776 139.716 209.514C139.517 209.252 145.081 157.315 161.508 148.539C164.091 147.164 170.45 146.312 173.1 149.063C180.85 156.791 189.13 200.279 188.534 200.999Z" fill="#FFC727"/>
<path d="M188.004 196.677L140.179 204.798C140.378 203.357 140.577 201.655 140.908 199.755L187.143 191.896C187.474 193.73 187.805 195.367 188.004 196.677Z" fill="#EBEBEB"/>
<path d="M186.613 189.407L141.372 197.07C141.504 196.219 141.637 195.367 141.835 194.45L186.149 186.918C186.282 187.77 186.48 188.621 186.613 189.407Z" fill="#EBEBEB"/>
<path d="M170.98 156.922C168.264 156.922 164.82 152.01 163.826 148.408C163.76 148.146 164.621 145.985 165.615 143.234C166.211 141.597 166.807 139.763 167.205 137.995L177.472 143.234C177.472 143.234 175.484 146.574 174.822 149.587C174.756 149.849 174.756 150.111 174.756 150.307C174.756 150.373 174.756 150.373 174.756 150.438C174.623 151.945 173.63 156.922 170.98 156.922Z" fill="#AD6359"/>
<path d="M177.538 143.365C177.538 143.365 175.55 146.705 174.888 149.718C174.822 149.98 174.822 150.177 174.822 150.439C174.822 150.504 174.822 150.504 174.822 150.57C174.491 150.57 174.093 150.504 173.696 150.373C167.337 148.736 167.469 140.484 167.602 138.257L177.538 143.365Z" fill="#263238"/>
<path d="M166.807 126.206C165.151 130.004 166.012 141.531 168.529 144.347C172.239 148.474 178.863 149.521 182.572 145.002C186.149 140.614 184.824 125.616 181.91 122.931C177.604 119.132 169.258 120.639 166.807 126.206Z" fill="#AD6359"/>
<path d="M177.472 134.523L177.406 134.589C177.472 135.375 177.472 136.226 176.81 136.554V136.619C177.671 136.423 177.671 135.244 177.472 134.523Z" fill="#263238"/>
<path d="M176.677 133.803C175.418 133.803 175.551 136.292 176.743 136.292C177.869 136.292 177.737 133.803 176.677 133.803Z" fill="#263238"/>
<path d="M182.042 134.262C182.042 134.262 182.109 134.327 182.042 134.262C182.109 135.113 182.241 135.965 182.97 136.227V136.292C182.109 136.227 181.91 135.048 182.042 134.262Z" fill="#263238"/>
<path d="M182.705 133.476C183.963 133.345 184.162 135.833 183.036 135.964C181.91 136.095 181.645 133.607 182.705 133.476Z" fill="#263238"/>
<path d="M175.617 132.69C175.948 132.559 176.28 132.428 176.545 132.297C176.942 132.166 177.207 132.035 177.472 131.707C177.604 131.511 177.538 131.183 177.339 131.052C176.942 130.725 176.478 130.79 176.015 130.987C175.551 131.183 175.22 131.445 174.955 131.904C174.69 132.362 175.154 132.821 175.617 132.69Z" fill="#263238"/>
<path d="M183.632 132.166C183.301 132.1 182.97 132.035 182.638 131.969C182.241 131.904 181.91 131.838 181.645 131.576C181.512 131.445 181.512 131.118 181.645 130.921C181.976 130.528 182.506 130.528 182.97 130.594C183.499 130.659 183.831 130.856 184.228 131.249C184.493 131.642 184.096 132.166 183.632 132.166Z" fill="#263238"/>
<path d="M177.008 141.4C177.141 141.597 177.34 141.859 177.605 141.924C177.87 141.99 178.201 141.924 178.466 141.859C178.466 141.859 178.532 141.859 178.466 141.924C178.201 142.186 177.803 142.317 177.406 142.186C177.075 142.055 176.942 141.728 176.876 141.4C176.942 141.4 176.942 141.4 177.008 141.4Z" fill="#263238"/>
<path d="M177.869 139.174C178.333 139.829 178.995 140.156 179.724 140.222C180.055 140.287 180.386 140.287 180.718 140.222C180.784 140.222 180.982 140.156 181.049 140.156C181.115 140.156 181.181 140.091 181.181 139.96L181.049 138.322C181.247 138.388 182.44 138.846 182.373 138.519C182.109 135.965 181.777 133.083 180.916 130.594C180.916 130.529 180.784 130.529 180.784 130.594C180.982 133.083 181.579 135.506 181.844 137.995C181.446 137.864 180.85 137.667 180.585 137.667C180.519 137.667 180.784 139.698 180.784 139.698C179.79 139.894 178.995 139.632 178.002 138.977C177.869 139.043 177.803 139.108 177.869 139.174Z" fill="#263238"/>
<path d="M180.386 140.09C180.386 140.09 179.857 140.811 179.062 141.138C178.797 141.269 178.465 141.269 178.134 141.204C177.472 141.007 177.472 140.418 177.604 139.959C177.671 139.566 177.869 139.173 177.869 139.173C177.869 139.173 178.863 140.025 180.386 140.09Z" fill="#263238"/>
<path d="M179.062 141.138C178.797 141.269 178.465 141.269 178.134 141.204C177.472 141.007 177.472 140.418 177.604 139.959C178.333 139.959 178.995 140.418 179.062 141.138Z" fill="#FF9CBD"/>
<path d="M165.747 136.685C168.794 136.947 170.384 133.345 169.722 130.463C169.722 130.463 177.803 131.576 178.267 125.158C178.267 125.158 180.188 128.105 183.897 128.171L184.427 130.397C185.288 130.135 186.149 127.843 184.162 126.009C184.162 126.009 184.029 122.8 181.645 120.835C179.26 118.871 176.876 120.115 176.876 120.115C176.876 120.115 174.955 118.543 171.974 118.871C168.993 119.198 167.735 121.883 167.735 121.883C167.735 121.883 163.694 122.604 163.032 125.42C162.303 128.236 163.76 130.135 163.76 130.135C163.76 130.135 162.767 131.249 163.23 133.672C163.562 135.309 164.82 136.619 165.747 136.685Z" fill="#263238"/>
<path d="M178.068 124.568C178.134 125.092 178.134 125.616 178.068 126.14C178.002 126.664 177.936 127.188 177.737 127.647C177.406 128.629 176.743 129.48 175.816 129.939C174.955 130.463 173.829 130.594 172.835 130.659C172.305 130.659 171.775 130.659 171.245 130.594C170.716 130.528 170.186 130.463 169.656 130.397C170.186 130.528 170.716 130.659 171.245 130.725C171.775 130.79 172.305 130.856 172.835 130.856C173.895 130.79 175.021 130.725 176.015 130.201C177.008 129.677 177.737 128.694 178.002 127.647C178.333 126.664 178.267 125.551 178.068 124.568Z" fill="#263238"/>
<path d="M182.175 128.302C181.248 127.974 180.453 127.581 179.724 126.992C179.393 126.73 179.062 126.402 178.797 126.01C178.532 125.617 178.333 125.224 178.134 124.765C178.201 125.224 178.333 125.748 178.532 126.141C178.797 126.599 179.062 126.926 179.459 127.254C179.856 127.581 180.254 127.843 180.718 127.974C181.248 128.171 181.711 128.302 182.175 128.302Z" fill="#263238"/>
<path d="M175.948 138.453C174.425 138.387 173.1 137.274 172.769 135.767C172.371 133.934 173.564 132.165 175.418 131.772C177.273 131.379 179.062 132.558 179.459 134.392C179.856 136.226 178.664 137.994 176.809 138.387C176.478 138.453 176.213 138.453 175.948 138.453ZM176.213 132.165C175.948 132.165 175.75 132.165 175.485 132.231C173.895 132.558 172.835 134.065 173.166 135.702C173.497 137.274 175.021 138.322 176.677 137.994C178.267 137.667 179.326 136.16 178.995 134.523C178.73 133.148 177.538 132.231 176.213 132.165Z" fill="#FFC727"/>
<path d="M183.698 137.863C182.373 137.798 181.247 136.423 181.181 134.654C181.115 133.737 181.313 132.886 181.711 132.231C182.175 131.576 182.771 131.118 183.433 131.118C184.096 131.052 184.824 131.38 185.288 132.035C185.818 132.624 186.083 133.475 186.149 134.327C186.281 136.161 185.222 137.732 183.831 137.863C183.831 137.863 183.764 137.863 183.698 137.863ZM183.698 131.576C183.632 131.576 183.566 131.576 183.499 131.576C182.969 131.642 182.44 131.969 182.108 132.493C181.711 133.082 181.578 133.803 181.645 134.589C181.777 136.226 182.771 137.47 183.897 137.339C185.023 137.274 185.884 135.899 185.751 134.261C185.685 133.475 185.42 132.755 184.957 132.231C184.625 131.904 184.162 131.642 183.698 131.576Z" fill="#FFC727"/>
<path d="M179.326 134.785L178.995 134.458C179.459 133.999 180.651 133.345 181.512 134.13L181.181 134.458C180.452 133.803 179.393 134.785 179.326 134.785Z" fill="#FFC727"/>
<path d="M164.953 136.75L164.555 136.554C164.621 136.357 165.416 134.654 166.41 134.458C167.337 134.261 172.769 134.327 173.034 134.327V134.785C171.245 134.72 167.205 134.72 166.476 134.916C165.814 135.047 165.151 136.292 164.953 136.75Z" fill="#FFC727"/>
<path d="M168.596 136.488C168.596 136.488 166.344 132.559 164.555 133.345C162.767 134.131 164.224 139.632 166.145 140.483C168.066 141.4 168.927 139.632 168.927 139.632L168.596 136.488Z" fill="#AD6359"/>
<path d="M165.019 134.916C165.019 134.851 164.952 134.916 165.019 134.916C166.343 135.637 166.94 137.012 167.337 138.322C166.94 137.798 166.41 137.471 165.681 137.864C165.615 137.864 165.681 137.929 165.681 137.929C166.277 137.864 166.675 137.995 167.006 138.453C167.271 138.78 167.403 139.239 167.536 139.632C167.602 139.763 167.801 139.697 167.801 139.566C167.801 139.566 167.801 139.566 167.801 139.501C168.066 137.798 166.873 135.244 165.019 134.916Z" fill="#263238"/>
<path d="M174.889 151.748C174.756 153.91 174.359 158.953 170.782 158.298C169.325 158.036 168.132 157.053 167.139 156.071C166.079 155.088 163.893 152.338 162.369 149.325C162.369 149.259 162.237 149.325 162.303 149.39C162.568 150.242 163.164 151.683 164.025 153.058C164.82 154.368 165.814 155.612 166.94 156.66C168 157.643 169.325 158.625 170.848 158.887C172.305 159.084 173.431 158.363 174.027 157.119C174.822 155.481 175.021 153.517 174.889 151.748Z" fill="#263238"/>
<path d="M156.076 152.665C148.525 159.215 129.051 185.084 133.82 190.651C138.656 196.218 168.596 192.354 177.207 189.276C179.79 188.359 171.974 172.379 169.192 171.724C166.807 171.2 154.023 175.522 153.758 174.802C153.427 173.951 155.944 168.384 159.985 158.101C164.555 146.312 159.455 149.784 156.076 152.665Z" fill="#AD6359"/>
<path d="M181.843 168.056C187.871 167.86 189.461 168.711 194.429 165.829C197.674 163.93 200.324 165.175 198.204 168.515C194.76 173.885 187.076 175.85 184.162 175.719L181.843 168.056Z" fill="#AD6359"/>
<path d="M165.482 172.117C165.482 172.117 172.57 169.104 178.929 168.253C183.367 167.663 193.17 167.401 201.45 177.749C203.437 180.173 204.431 185.085 199.794 182.203C196.482 180.173 194.959 177.88 192.839 177.094C192.839 177.094 193.435 183.447 190.852 185.281C189.726 186.133 186.546 188.294 183.831 189.669C183.831 189.669 183.367 189.145 182.903 188.425C182.903 188.425 180.32 189.931 175.882 189.08L165.482 172.117Z" fill="#AD6359"/>
<path d="M183.235 168.384C185.222 169.628 189.329 172.444 191.846 175.85C194.694 179.649 199.132 187.704 196.284 189.735C194.164 191.241 192.243 188.294 192.243 188.294C192.243 188.294 193.369 192.027 191.183 192.944C189.196 193.795 187.805 191.437 187.805 191.437C187.805 191.437 188.07 193.795 186.017 194.254C183.5 194.843 183.301 189.735 180.254 188.163C179.591 187.835 183.235 168.384 183.235 168.384Z" fill="#AD6359"/>
<path d="M187.341 178.077C188.997 179.583 191.845 183.906 192.309 188.163C192.309 188.228 192.243 188.294 192.243 188.228C190.653 183.709 188.335 179.779 187.341 178.077C187.275 178.142 187.275 178.077 187.341 178.077Z" fill="#263238"/>
<path d="M183.5 181.089C184.758 182.53 187.54 187.115 187.871 191.437C187.871 191.503 187.805 191.568 187.805 191.503C186.414 186.656 184.493 182.792 183.5 181.089C183.5 181.089 183.5 181.024 183.5 181.089Z" fill="#263238"/>
<path d="M192.773 177.029C194.627 177.815 195.82 178.863 197.343 180.107C198.072 180.762 198.867 181.351 199.661 181.941C200.39 182.465 201.516 183.185 202.443 182.596C202.973 182.268 203.04 181.613 202.973 181.089C202.907 180.5 202.443 179.321 202.112 178.797C202.112 178.797 202.112 178.732 202.179 178.797C202.443 179.256 203.04 180.303 203.172 180.827C203.305 181.286 203.371 181.875 203.172 182.334C202.775 183.382 201.516 183.382 200.655 182.989C200.125 182.792 199.661 182.399 199.198 182.137C198.734 181.81 198.337 181.482 197.939 181.155C197.078 180.434 196.283 179.714 195.422 178.994C194.429 178.208 193.766 177.815 192.773 177.029C192.706 177.094 192.773 177.029 192.773 177.029Z" fill="#263238"/>
<path d="M196.151 184.168C195.754 183.054 193.502 178.208 192.707 177.029C192.707 177.029 192.707 176.963 192.773 176.963C194.164 178.535 196.217 182.53 196.615 183.775C197.078 185.019 197.542 186.591 197.41 187.966C197.211 189.997 195.82 190.193 195.29 190.259C194.694 190.324 194.098 190.128 193.568 189.8C193.038 189.407 192.508 188.752 192.177 188.163C192.177 188.163 192.177 188.097 192.243 188.097C192.839 188.949 193.965 189.866 195.091 189.8C195.555 189.8 196.085 189.604 196.416 189.276C196.813 188.818 196.88 188.228 196.88 187.704C196.946 186.591 196.549 185.347 196.151 184.168Z" fill="#263238"/>
<path d="M165.482 172.117L172.901 192.551C172.901 192.551 135.41 197.07 132.893 190.455C130.376 183.84 147.134 160.524 154.288 153.975C162.568 146.378 163.23 149.325 160.846 156.529C158.329 164.127 153.891 174.933 153.891 174.933L165.482 172.117Z" fill="#FFC727"/>
<path d="M142.166 179.059C143.955 178.077 145.876 177.225 147.863 176.505C149.784 175.784 151.771 175.26 153.758 174.802C154.884 174.54 156.077 174.343 157.203 174.147C157.269 174.147 157.269 174.212 157.203 174.212C155.149 174.605 153.162 175.195 151.241 175.85C149.32 176.505 147.333 177.16 145.412 177.88C144.352 178.273 143.226 178.732 142.166 179.19C142.1 179.124 142.1 179.059 142.166 179.059Z" fill="#263238"/>
<path d="M165.35 172.051C165.152 172.051 154.818 174.344 154.421 174.475C154.487 174.344 156.805 169.235 157.137 168.515C157.203 168.449 157.203 168.384 157.269 168.318C157.468 167.991 157.733 167.663 157.932 167.336C158.196 166.877 158.461 166.484 158.726 166.026C158.461 166.419 158.196 166.877 157.865 167.27C157.733 167.467 157.6 167.663 157.468 167.86C157.733 167.336 157.931 166.812 158.13 166.288C158.461 165.437 158.793 164.585 159.124 163.734C159.124 163.734 159.124 163.668 159.058 163.734C158.395 165.24 157.667 166.681 156.938 168.187C156.276 169.694 153.626 175.13 153.626 175.13C153.626 175.13 165.085 172.379 165.284 172.313C165.483 172.182 165.483 172.051 165.35 172.051Z" fill="#263238"/>
<path d="M164.754 184.888C163.959 182.596 163.164 180.304 162.237 178.077C161.707 176.767 161.243 175.523 160.713 174.213C160.713 174.147 160.581 174.213 160.647 174.213C161.376 176.505 162.104 178.863 162.899 181.155C163.694 183.447 164.555 185.74 165.416 187.966C165.88 189.276 166.41 190.521 167.006 191.765H167.072C166.41 189.473 165.549 187.18 164.754 184.888Z" fill="#263238"/>
<path d="M173.299 192.944C172.967 192.289 172.636 191.372 172.305 190.783C172.239 190.586 172.106 190.652 172.173 190.783C172.371 191.372 172.57 191.962 172.769 192.551C172.239 192.617 171.709 192.617 171.179 192.682C170.583 192.748 169.987 192.813 169.391 192.878C168.198 193.009 167.006 193.14 165.814 193.206C163.429 193.402 160.978 193.533 158.594 193.664C153.758 193.861 148.857 193.861 144.021 193.599C142.696 193.533 141.305 193.402 139.981 193.271C138.59 193.14 137.132 192.944 136.006 192.682C135.94 192.682 135.94 192.747 136.006 192.747C137.132 193.075 138.258 193.337 139.451 193.533C140.643 193.73 141.901 193.861 143.094 193.992C145.545 194.188 147.995 194.319 150.446 194.319C155.282 194.385 160.183 194.188 165.019 193.861C166.344 193.73 167.735 193.664 169.059 193.533C169.722 193.468 170.45 193.402 171.113 193.337C171.709 193.14 173.365 193.009 173.299 192.944Z" fill="#263238"/>
<path d="M221.653 192.485H174.425V194.581H221.653V192.485Z" fill="#C7C7C7"/>
<path d="M221.653 192.485V194.581H189.527L191.117 192.485H221.653Z" fill="#A6A6A6"/>
<path d="M196.019 194.581H237.352L243.313 165.764H201.98L196.019 194.581Z" fill="#A6A6A6"/>
<path d="M197.939 194.581H239.272L245.234 165.764H203.901L197.939 194.581Z" fill="#C7C7C7"/>
<path d="M225.296 179.059C225.363 180.434 224.435 181.744 223.243 181.94C222.051 182.202 221.057 181.286 221.057 179.91C220.991 178.535 221.918 177.225 223.11 177.028C224.303 176.832 225.296 177.749 225.296 179.059Z" fill="white"/>
<path d="M317.832 254.442C317.236 256.014 287.561 291.577 285.574 292.232C284.845 292.494 279.347 288.499 272.856 283.521C271.465 282.473 270.007 281.294 268.55 280.181C259.078 272.78 249.208 264.659 249.208 264.659L268.948 240.819L287.759 256.996L291.866 260.533C291.866 260.533 309.353 251.953 311.672 251.495C313.924 250.971 318.494 252.805 317.832 254.442Z" fill="#AD6359"/>
<path d="M317.832 254.442C317.236 256.014 287.561 291.577 285.574 292.232C284.646 292.559 276.764 286.599 268.55 280.181L287.76 256.996L291.866 260.533C291.866 260.533 309.353 251.953 311.672 251.495C313.924 250.971 318.494 252.805 317.832 254.442Z" fill="#EBEBEB"/>
<path d="M317.832 254.442C317.236 256.014 287.561 291.577 285.574 292.232C284.845 292.494 279.347 288.499 272.856 283.521L291.933 260.533C291.933 260.533 309.42 251.953 311.738 251.495C313.924 250.971 318.495 252.805 317.832 254.442Z" fill="#FFC727"/>
<path d="M315.977 253.721C310.877 259.55 290.74 283.586 286.17 289.743C286.104 289.808 286.17 289.808 286.236 289.743C291.469 284.045 311.341 259.878 316.11 253.787C316.176 253.721 316.11 253.656 315.977 253.721Z" fill="#263238"/>
<path d="M308.493 252.674C307.234 254.049 306.77 255.948 306.969 257.455C307.168 258.83 307.764 260.402 309.089 261.384C309.155 261.384 309.155 261.319 309.155 261.319C307.102 259.026 306.77 255.228 308.559 252.739C308.625 252.674 308.493 252.608 308.493 252.674Z" fill="#263238"/>
<path d="M294.45 258.699C292.397 261.057 290.939 264.528 291.734 267.606C291.734 267.737 291.933 267.672 291.933 267.606C292.595 264.528 293.456 261.777 294.781 258.896C294.847 258.699 294.582 258.503 294.45 258.699Z" fill="#263238"/>
<path d="M296.702 257.454C294.649 259.812 293.191 263.283 293.986 266.362C293.986 266.493 294.185 266.427 294.185 266.362C294.847 263.283 295.708 260.533 297.033 257.651C297.099 257.454 296.834 257.258 296.702 257.454Z" fill="#263238"/>
<path d="M298.954 256.21C296.9 258.568 295.443 262.039 296.238 265.117C296.238 265.248 296.437 265.183 296.437 265.117C297.099 262.039 297.96 259.288 299.285 256.407C299.351 256.21 299.086 256.014 298.954 256.21Z" fill="#263238"/>
<path d="M301.206 254.966C299.153 257.323 297.696 260.795 298.491 263.873C298.491 264.004 298.689 263.938 298.689 263.873C299.352 260.795 300.213 258.044 301.538 255.162C301.67 254.966 301.339 254.769 301.206 254.966Z" fill="#263238"/>
<path d="M281.732 283.586C279.48 286.272 283.719 289.677 285.971 286.992C288.157 284.307 283.918 280.901 281.732 283.586Z" fill="white"/>
<path d="M290.144 250.84C288.157 251.233 287.826 253.525 288.289 255.163C289.018 257.782 290.674 260.533 292.661 262.367C292.727 262.432 292.794 262.367 292.794 262.367C292.992 262.432 293.324 262.367 293.324 262.105C293.522 259.42 294.118 256.603 293.522 253.984C293.191 252.412 292.065 250.512 290.144 250.84ZM292.86 257.979C292.794 259.289 292.661 260.598 292.595 261.908C291.734 260.533 290.873 259.158 290.144 257.651C289.813 256.931 289.482 256.21 289.217 255.424C288.819 254.246 288.819 250.25 291.601 252.15C293.191 253.263 292.926 256.407 292.86 257.979Z" fill="#263238"/>
<path d="M288.555 269.047C290.608 267.213 291.8 264.593 293.191 262.301C293.324 262.039 293.125 261.843 292.926 261.777C292.926 261.712 292.926 261.646 292.86 261.712C290.211 262.039 287.164 263.349 285.11 265.052C283.785 266.1 282.659 268.196 284.117 269.636C285.375 271.012 287.362 270.095 288.555 269.047ZM286.038 269.374C282.593 269.309 285.044 266.1 285.971 265.379C286.634 264.921 287.296 264.462 288.025 264.135C289.482 263.349 291.005 262.76 292.529 262.105C291.8 263.218 291.138 264.331 290.409 265.445C289.548 266.689 287.892 269.374 286.038 269.374Z" fill="#263238"/>
<path d="M286.832 253.329L264.841 279.133L198.469 232.371L191.912 227.786C191.912 227.786 190.057 229.031 187.209 230.537C183.301 232.633 177.538 235.252 172.437 235.907C163.959 237.021 151.109 236.759 144.087 227.197C138.192 219.141 140.179 208.793 140.179 208.793L149.519 204.929C149.519 204.929 171.775 187.049 186.083 186.656C192.177 186.46 200.92 191.175 209.068 196.022C217.215 200.868 286.832 253.329 286.832 253.329Z" fill="#263238"/>
<path d="M191.845 227.786C191.845 227.786 189.991 229.03 187.142 230.537C182.241 224.577 171.841 213.77 171.576 213.377L191.845 227.786Z" fill="#37474F"/>
<path d="M157.666 198.969C156.341 199.886 155.017 200.803 153.758 201.719C152.499 202.636 151.108 203.488 149.916 204.47C148.658 205.453 147.465 206.566 146.273 207.614C145.677 208.138 145.147 208.662 144.617 209.186C144.087 209.71 143.491 210.234 143.027 210.889C142.961 210.954 143.094 211.02 143.094 210.954C143.756 210.561 144.286 210.037 144.882 209.579C145.478 209.055 146.141 208.531 146.737 208.072C147.929 207.09 149.188 206.108 150.38 205.125C151.572 204.143 152.698 203.095 153.824 202.112C155.083 200.999 156.408 200.017 157.666 198.969C157.732 198.969 157.732 198.969 157.666 198.969Z" fill="#37474F"/>
<path d="M280.009 250.84C278.684 252.215 277.426 253.721 276.167 255.162C274.909 256.603 273.65 258.109 272.458 259.616C270.007 262.563 267.49 265.576 265.105 268.523C263.781 270.16 262.456 271.863 261.197 273.566C261.131 273.631 261.263 273.762 261.33 273.631C263.979 270.815 266.43 267.802 268.881 264.855C271.332 261.908 273.783 258.895 276.233 255.883C277.558 254.245 278.949 252.608 280.142 250.84C280.142 250.84 280.075 250.774 280.009 250.84Z" fill="#37474F"/>
<path d="M230.131 254.638C226.753 251.953 219.069 246.648 215.625 244.159C212.114 241.671 208.67 239.117 205.159 236.693C204.166 235.973 203.106 235.318 202.112 234.597C201.119 233.877 200.059 233.288 198.999 232.567C198.933 232.502 198.866 232.633 198.933 232.633C199.86 233.288 200.721 234.074 201.648 234.728C202.51 235.383 203.371 236.038 204.232 236.693C205.954 237.938 207.61 239.182 209.332 240.492C212.777 243.046 216.287 245.535 219.798 248.024C221.785 249.399 227.945 253.525 229.999 254.835C230.065 254.9 230.197 254.704 230.131 254.638Z" fill="#37474F"/>
<path d="M251.924 226.935C248.811 224.315 241.723 219.272 238.411 216.849C235.099 214.425 231.853 211.937 228.475 209.513C225.163 207.09 221.918 204.667 218.606 202.244C215.426 199.886 212.247 197.528 208.868 195.432C207.014 194.319 205.159 193.271 203.172 192.289C201.251 191.372 199.33 190.389 197.277 189.8C197.21 189.8 197.21 189.865 197.21 189.931C198.866 190.848 200.655 191.699 202.311 192.616C203.967 193.533 205.623 194.45 207.213 195.432C210.591 197.528 213.704 199.82 216.883 202.178C223.441 206.959 230.065 211.806 236.689 216.521C240.398 219.206 247.817 224.642 251.659 227.066C251.857 227.262 251.99 227.066 251.924 226.935Z" fill="#37474F"/>
</svg>
