<svg width="289" height="294" viewBox="0 0 289 294" fill="none" xmlns="http://www.w3.org/2000/svg">
<path d="M191.496 264.135H268.863L271.314 215.604H189.045L191.496 264.135Z" fill="#EBEBEB"/>
<path d="M194.477 221.302H263.962L262.902 237.545H195.338L194.477 221.302Z" stroke="#DBDBDB" stroke-miterlimit="10"/>
<path d="M196.597 242.326L197.325 256.931H261.974L262.902 242.326H196.597Z" stroke="#DBDBDB" stroke-miterlimit="10"/>
<path d="M236.671 230.93H222.761L222.364 227.459H237.135L236.671 230.93Z" stroke="#DBDBDB" stroke-miterlimit="10"/>
<path d="M236.671 251.364H222.761L222.364 247.893H237.135L236.671 251.364Z" stroke="#DBDBDB" stroke-miterlimit="10"/>
<path d="M202.227 264.135L201.498 269.44L199.975 280.05H196.994V264.135H202.227Z" fill="#EBEBEB"/>
<path d="M202.227 264.135L201.498 269.44H196.994V264.135H202.227Z" fill="#DBDBDB"/>
<path d="M258.132 264.135L258.861 269.44L260.384 280.05H263.365V264.135H258.132Z" fill="#EBEBEB"/>
<path d="M258.132 264.135L258.861 269.44H263.365V264.135H258.132Z" fill="#DBDBDB"/>
<path d="M237.731 207.352C238.261 211.02 238.062 214.818 237.135 218.42C236.738 220.123 236.141 221.695 235.413 223.333C234.552 225.363 233.624 227.328 233.823 229.554C234.022 229.685 233.293 229.685 233.293 229.489C227.332 226.149 219.648 225.494 215.077 219.992C212.892 217.373 211.832 214.098 211.302 210.758C210.706 207.156 210.573 203.161 211.501 199.624C212.295 196.611 214.084 193.729 216.932 192.289C219.847 190.782 223.688 190.913 226.802 191.83C233.492 193.86 236.804 200.999 237.731 207.352Z" fill="#FFC727"/>
<path d="M240.778 251.102C239.983 248.416 239.122 245.731 238.327 243.046C236.671 237.806 235.015 232.567 233.095 227.393C231.968 224.315 230.776 221.237 229.518 218.224C229.716 216.325 229.849 214.425 230.246 212.526C230.776 210.234 231.439 208.007 232.167 205.78C232.233 205.649 231.968 205.584 231.902 205.715C230.577 208.793 228.789 212.722 228.789 216.39C227.332 212.984 225.742 209.579 224.086 206.239C224.02 203.422 223.887 200.606 224.351 197.79C224.351 197.659 224.152 197.593 224.152 197.724C223.689 200.148 223.357 202.702 223.556 205.191C222.298 202.702 220.907 200.213 219.449 197.79C219.317 197.593 218.986 197.79 219.118 197.986C221.37 202.244 223.424 206.632 225.411 211.02C222.695 208.662 219.449 206.828 216.071 205.649C215.939 205.584 215.806 205.78 215.939 205.846C219.781 207.417 223.026 209.71 226.073 212.46C227.464 215.67 228.789 218.944 230.114 222.285C226.404 218.682 221.238 216.259 216.336 215.015C216.137 214.949 216.137 215.211 216.27 215.277C221.966 216.98 226.471 220.189 230.776 224.053C231.306 225.363 231.77 226.738 232.233 228.048C234.088 233.091 235.81 238.199 237.533 243.308C238.327 245.731 239.122 248.22 239.917 250.709C240.778 253.328 241.374 256.145 242.5 258.699C242.633 258.961 243.03 258.895 242.964 258.568C242.5 256.079 241.573 253.59 240.778 251.102Z" fill="#263238"/>
<path d="M230.909 202.178C229.849 203.815 229.12 205.584 228.789 207.483C228.789 207.548 228.855 207.548 228.855 207.483C229.518 205.715 230.313 203.946 231.174 202.309C231.24 202.178 230.975 202.047 230.909 202.178Z" fill="#263238"/>
<path d="M220.244 214.491C218.721 213.639 216.667 212.919 214.879 212.722C214.813 212.722 214.813 212.788 214.879 212.788C215.74 213.115 216.667 213.377 217.528 213.705C218.389 214.032 219.251 214.425 220.112 214.753C220.31 214.884 220.443 214.622 220.244 214.491Z" fill="#263238"/>
<path d="M217.264 199.689C216.734 199.362 216.138 198.903 215.541 198.641C215.475 198.576 215.343 198.707 215.475 198.772C215.939 199.231 216.601 199.558 217.197 199.886C217.197 199.951 217.33 199.755 217.264 199.689Z" fill="#263238"/>
<path d="M257.868 227.459C253.562 228.703 249.257 229.882 244.951 231.126C244.554 231.257 237.334 217.438 239.917 210.365C242.368 203.816 247.932 198.904 254.556 196.611C257.603 195.563 261.379 194.712 264.624 195.432C267.539 196.087 269.526 198.38 270.52 201.065C271.778 204.732 271.381 209.055 270.652 212.788C269.99 216.259 268.731 219.665 266.413 222.35C264.161 225.035 261.246 226.476 257.868 227.459Z" fill="#FFC727"/>
<path d="M264.094 214.36C261.379 215.735 258.597 216.718 255.682 217.635C253.827 218.224 251.774 218.748 250.052 219.665C251.84 215.67 253.894 211.74 255.947 207.876C258.729 207.09 261.644 205.846 263.763 203.881C263.896 203.75 263.763 203.619 263.631 203.685C261.312 205.256 258.795 206.239 256.278 207.352C256.874 206.304 257.404 205.256 258 204.209C258.133 203.947 257.735 203.619 257.537 203.881C255.285 207.09 253.231 210.496 251.443 214.033C250.979 210.954 250.847 207.876 250.979 204.733C250.979 204.667 250.847 204.667 250.847 204.733C250.317 208.073 250.317 211.609 250.979 214.95C249.456 217.897 248.065 220.975 246.872 224.053C246.409 222.219 245.746 220.385 245.349 218.486C244.753 215.801 244.421 213.05 244.753 210.299C244.753 210.234 244.62 210.234 244.62 210.299C243.759 215.212 244.554 220.713 246.409 225.363C245.68 227.197 245.018 229.096 244.355 230.93C241.11 240.492 239.189 250.381 238.659 260.467C238.659 260.729 238.99 260.729 238.99 260.467C240.182 250.578 242.236 240.754 245.415 231.323C246.674 227.59 248.131 223.988 249.654 220.451C252.171 219.731 254.755 218.683 257.206 217.831C259.656 216.98 262.107 216.063 264.161 214.426C264.293 214.426 264.227 214.295 264.094 214.36Z" fill="#263238"/>
<path d="M268.135 210.365C265.486 211.282 263.035 212.592 260.385 213.509C260.253 213.574 260.319 213.771 260.451 213.705C263.233 213.116 266.015 212.264 268.201 210.496C268.334 210.431 268.201 210.3 268.135 210.365Z" fill="#263238"/>
<path d="M246.674 204.732C246.674 204.601 246.475 204.536 246.475 204.667C245.746 207.09 245.283 209.579 245.945 212.068C245.945 212.133 246.144 212.199 246.144 212.068C246.21 209.579 246.077 207.156 246.674 204.732Z" fill="#263238"/>
<path d="M257.537 199.166C256.675 200.279 256.344 201.851 256.411 203.226C256.411 203.292 256.543 203.357 256.609 203.292C256.94 201.916 257.47 200.672 257.868 199.362C257.934 199.166 257.669 199.035 257.537 199.166Z" fill="#263238"/>
<path d="M206.732 233.55C207.99 237.479 210.971 242.981 215.74 243.046C218.787 243.046 221.9 242.719 225.013 242.653C228.325 242.588 231.637 242.588 234.949 242.784C235.214 242.784 234.552 233.026 226.603 228.245C224.351 226.935 221.635 226.476 219.118 225.952C216.204 225.363 213.223 224.904 210.308 225.035C208.454 225.101 206.996 225.494 206.334 227.328C205.605 229.227 206.069 231.65 206.732 233.55Z" fill="#FFC727"/>
<path d="M210.11 228.572C212.031 229.031 214.018 229.62 215.939 230.21C215.409 229.686 214.945 229.162 214.349 228.638C213.488 227.983 212.627 227.393 211.7 226.804C211.633 226.738 211.7 226.607 211.766 226.673C213.554 227.328 215.343 228.769 216.469 230.341C218.853 231.126 221.304 231.978 223.556 232.895C225.212 233.55 226.67 234.336 228.127 235.253C227.597 234.27 227.133 233.288 226.471 232.436C225.411 231.061 224.02 230.341 222.629 229.358C222.496 229.293 222.629 229.096 222.761 229.162C225.875 230.537 227.796 232.764 228.922 235.776C230.578 236.955 232.035 238.265 233.426 239.837C238.659 245.731 242.832 253.591 242.832 261.581C242.832 261.777 242.501 261.843 242.501 261.646C240.977 253.722 237.864 246.517 232.499 240.361C232.101 239.903 231.77 239.51 231.372 239.117C229.915 238.986 228.524 238.789 227.001 238.789C225.279 238.789 223.623 239.051 221.967 239.182C219.185 239.379 216.138 239.444 213.62 238.069C213.488 238.003 213.554 237.807 213.687 237.872C219.251 239.903 225.08 237.348 230.71 238.527C228.325 236.235 225.61 234.532 222.496 233.288C222.298 233.222 222.165 233.157 221.967 233.091C218.39 233.484 214.614 234.467 211.103 233.288C210.971 233.222 211.037 233.091 211.17 233.157C214.548 234.008 217.794 232.96 221.105 232.764C217.462 231.388 213.819 230.275 210.176 228.9C209.779 228.769 209.779 228.507 210.11 228.572Z" fill="#263238"/>
<path d="M208.52 232.043C210.242 232.305 211.964 232.305 213.753 232.436C213.819 232.436 213.819 232.502 213.753 232.502C212.031 232.895 210.176 232.633 208.52 232.174C208.387 232.174 208.454 232.043 208.52 232.043Z" fill="#263238"/>
<path d="M220.31 228.638C221.238 228.965 222.165 229.751 222.894 230.406C222.96 230.471 222.894 230.668 222.761 230.602C222.298 230.275 221.9 230.013 221.436 229.686C221.039 229.424 220.575 229.227 220.178 228.9C220.045 228.834 220.178 228.638 220.31 228.638Z" fill="#263238"/>
<path d="M248.329 241.409C248.263 241.54 248.462 241.671 248.528 241.54C248.528 241.605 248.594 241.605 248.66 241.605C251.84 242.26 255.086 242.981 258.331 243.308C260.981 243.57 263.962 243.701 266.28 242.195C269.393 240.164 271.447 234.728 269.791 231.257C267.803 227.131 261.776 229.358 258.795 230.864C254.158 232.96 250.449 236.759 248.329 241.409Z" fill="#FFC727"/>
<path d="M246.011 243.308C247.799 241.605 249.72 240.164 251.774 238.92C253.165 236.562 255.351 234.532 257.669 233.026C257.802 232.96 257.868 233.157 257.802 233.222C255.814 234.728 254.291 236.497 252.834 238.396C255.152 237.086 257.603 236.038 260.12 235.121C260.981 233.55 262.438 232.043 264.028 231.257C264.028 231.257 264.094 231.257 264.094 231.323C262.703 232.436 261.577 233.55 260.584 234.99C262.041 234.466 263.564 233.943 265.022 233.419C265.154 233.353 265.22 233.55 265.088 233.615C262.438 234.663 259.722 235.711 257.073 236.955C260.385 237.414 263.366 237.479 266.744 236.955C266.81 236.955 266.876 237.086 266.81 237.086C263.564 238.003 259.789 238.2 256.543 237.217C254.887 238.003 253.231 238.92 251.641 239.902C252.966 239.706 254.225 239.968 255.549 240.23C257.868 240.688 260.12 241.081 262.438 241.016C262.505 241.016 262.571 241.147 262.438 241.147C258.398 241.802 254.622 240.033 250.648 240.492C249.19 241.474 247.799 242.588 246.475 243.832C243.958 246.255 241.97 249.137 240.447 252.281C238.791 255.621 237.864 259.223 236.539 262.694C236.473 262.825 236.274 262.76 236.274 262.629C237.466 255.752 240.911 248.22 246.011 243.308Z" fill="#263238"/>
<path d="M258.133 233.877C258.398 233.419 258.795 233.026 259.193 232.633C259.524 232.305 259.921 231.912 260.385 231.781C260.451 231.781 260.451 231.847 260.451 231.847C260.12 232.24 259.656 232.502 259.325 232.829C258.994 233.157 258.663 233.615 258.331 233.943C258.133 234.008 258.067 233.943 258.133 233.877Z" fill="#263238"/>
<path d="M264.756 236.038C265.353 235.907 265.949 235.907 266.611 235.776C267.207 235.645 267.803 235.449 268.4 235.252C268.466 235.252 268.532 235.318 268.466 235.383C267.472 235.973 265.949 236.431 264.823 236.235C264.624 236.169 264.624 236.038 264.756 236.038Z" fill="#263238"/>
<path d="M229.452 254.18L229.982 260.074L231.77 280.05H247.601L249.853 260.074L250.516 254.18H229.452Z" fill="#37474F"/>
<path d="M229.452 254.18L229.982 260.074H249.853L250.516 254.18H229.452Z" fill="#263238"/>
<path d="M227.851 257.383H252.028V252.602H227.851V257.383Z" fill="#37474F"/>
<path d="M2.98096 280.05L36.564 279.919L70.0809 279.854L137.181 279.723L204.281 279.854L237.798 279.919L271.314 280.05L237.798 280.247L204.281 280.312L137.181 280.378L70.0809 280.312L36.564 280.247L2.98096 280.05Z" fill="#263238"/>
<path d="M112.142 116.513V127.516H115.057V132.559L120.157 127.516H154.667V116.513H112.142Z" fill="white"/>
<path d="M112.142 116.513C112.142 120.246 112.275 123.914 112.275 127.516L112.142 127.385H115.057H115.189V127.516V132.559L114.924 132.428L119.958 127.385C120.025 127.319 120.025 127.319 120.091 127.319C128.702 127.319 145.99 127.254 154.601 127.254L154.336 127.516V116.513L154.535 116.709C144.069 116.709 122.74 116.578 112.142 116.513ZM112.142 116.513L133.339 116.382L154.668 116.316H154.866V116.513V127.516V127.778H154.601H137.379C137.445 127.712 119.627 127.843 120.29 127.712L115.189 132.69L114.924 132.952V132.559V127.516L115.057 127.647H112.142H112.01V127.516C112.01 123.848 112.076 120.181 112.142 116.513Z" fill="#263238"/>
<path d="M119.561 120.508V122.014H119.163V120.508C119.163 119.919 118.7 119.46 118.17 119.46C117.64 119.46 117.176 119.919 117.176 120.508V122.014H116.779V120.508C116.779 119.722 117.375 119.067 118.17 119.067C118.965 119.067 119.561 119.722 119.561 120.508Z" fill="#263238"/>
<path d="M116.779 120.901H117.242V122.014H116.779V120.901Z" fill="#263238"/>
<path d="M119.561 121.032V122.014H119.164V120.967L119.561 121.032Z" fill="#263238"/>
<path d="M120.091 121.425H116.249V124.568H120.091V121.425Z" fill="#263238"/>
<path d="M126.251 120.705C125.721 121.752 124.926 122.538 123.866 123.062C124.396 122.08 125.191 121.294 126.251 120.705Z" fill="#263238"/>
<path d="M123.866 120.705C124.926 121.229 125.721 122.014 126.251 123.062C125.191 122.538 124.396 121.752 123.866 120.705Z" fill="#263238"/>
<path d="M126.715 121.884C125.589 122.211 124.462 122.211 123.336 121.884C124.462 121.556 125.655 121.556 126.715 121.884Z" fill="#263238"/>
<path d="M125.058 120.246C125.39 121.359 125.39 122.473 125.058 123.586C124.727 122.473 124.727 121.359 125.058 120.246Z" fill="#263238"/>
<path d="M132.08 120.705C131.55 121.752 130.755 122.538 129.695 123.062C130.225 122.08 131.02 121.294 132.08 120.705Z" fill="#263238"/>
<path d="M129.695 120.705C130.755 121.229 131.55 122.014 132.08 123.062C131.02 122.538 130.225 121.752 129.695 120.705Z" fill="#263238"/>
<path d="M132.61 121.884C131.484 122.211 130.358 122.211 129.231 121.884C130.291 121.556 131.484 121.556 132.61 121.884Z" fill="#263238"/>
<path d="M130.888 120.246C131.219 121.359 131.219 122.473 130.888 123.586C130.556 122.473 130.556 121.359 130.888 120.246Z" fill="#263238"/>
<path d="M137.909 120.705C137.379 121.752 136.584 122.538 135.524 123.062C136.054 122.08 136.915 121.294 137.909 120.705Z" fill="#263238"/>
<path d="M135.524 120.705C136.584 121.229 137.379 122.014 137.909 123.062C136.915 122.538 136.054 121.752 135.524 120.705Z" fill="#263238"/>
<path d="M138.439 121.884C137.313 122.211 136.187 122.211 135.061 121.884C136.187 121.556 137.313 121.556 138.439 121.884Z" fill="#263238"/>
<path d="M136.717 120.246C137.048 121.359 137.048 122.473 136.717 123.586C136.385 122.473 136.385 121.359 136.717 120.246Z" fill="#263238"/>
<path d="M143.738 120.705C143.208 121.752 142.413 122.538 141.354 123.062C141.883 122.08 142.745 121.294 143.738 120.705Z" fill="#263238"/>
<path d="M141.354 120.705C142.413 121.229 143.208 122.014 143.738 123.062C142.745 122.538 141.883 121.752 141.354 120.705Z" fill="#263238"/>
<path d="M144.268 121.884C143.142 122.211 142.016 122.211 140.89 121.884C142.016 121.556 143.142 121.556 144.268 121.884Z" fill="#263238"/>
<path d="M142.546 120.246C142.877 121.359 142.877 122.473 142.546 123.586C142.215 122.473 142.215 121.359 142.546 120.246Z" fill="#263238"/>
<path d="M149.567 120.705C149.037 121.752 148.242 122.538 147.183 123.062C147.779 122.08 148.574 121.294 149.567 120.705Z" fill="#263238"/>
<path d="M147.183 120.705C148.242 121.229 149.037 122.014 149.567 123.062C148.574 122.538 147.779 121.752 147.183 120.705Z" fill="#263238"/>
<path d="M150.097 121.884C148.971 122.211 147.845 122.211 146.719 121.884C147.845 121.556 148.971 121.556 150.097 121.884Z" fill="#263238"/>
<path d="M148.375 120.246C148.706 121.359 148.706 122.473 148.375 123.586C148.044 122.473 148.044 121.359 148.375 120.246Z" fill="#263238"/>
<path d="M65.5766 249.595L27.2905 280.05H29.4764L73.6577 249.595H65.5766Z" fill="#C7C7C7"/>
<path d="M69.1535 249.595L50.2754 280.05H52.395L75.5786 249.595H69.1535Z" fill="#C7C7C7"/>
<path d="M78.4271 249.595L97.3052 280.05H95.1855L72.002 249.595H78.4271Z" fill="#C7C7C7"/>
<path d="M81.7389 249.595L119.959 280.05H117.839L73.6577 249.595H81.7389Z" fill="#C7C7C7"/>
<path d="M145.593 238.396V229.489L93.0655 227.328L65.3114 154.106H1.72217L24.2434 238.396L77.9631 253.328H81.3412L145.593 238.396Z" fill="#455A64"/>
<path opacity="0.1" d="M1.72217 154.106H9.00844L32.457 230.93L79.9502 244.225L145.593 229.489V238.396L81.3412 253.328H77.9631L24.2434 238.396L1.72217 154.106Z" fill="black"/>
<path d="M116.978 293.934C115.388 293.345 79.2877 264.135 78.6253 262.17C78.3604 261.45 82.3347 256.014 87.3688 249.53C88.4287 248.155 89.5547 246.714 90.747 245.273C98.232 235.907 106.379 226.083 106.379 226.083L130.557 245.535L114.262 264.2L110.685 268.327C110.685 268.327 119.428 285.617 119.892 287.844C120.422 290.07 118.567 294.524 116.978 293.934Z" fill="#AD6359"/>
<path d="M116.978 293.934C115.388 293.345 79.2879 264.135 78.6255 262.17C78.2943 261.253 84.2558 253.394 90.7472 245.273L114.262 264.2L110.685 268.326C110.685 268.326 119.429 285.617 119.892 287.843C120.422 290.07 118.568 294.524 116.978 293.934Z" fill="#EBEBEB"/>
<path d="M116.978 293.934C115.388 293.345 79.2877 264.135 78.6253 262.17C78.3604 261.45 82.3347 256.014 87.3688 249.53L110.685 268.326C110.685 268.326 119.428 285.617 119.892 287.843C120.422 290.07 118.567 294.524 116.978 293.934Z" fill="#FFC727"/>
<path d="M117.64 292.101C111.745 287.058 87.3687 267.279 81.076 262.76C81.0098 262.694 81.0098 262.76 81.076 262.825C86.8388 267.934 111.347 287.516 117.574 292.232C117.706 292.297 117.772 292.166 117.64 292.101Z" fill="#263238"/>
<path d="M118.7 284.634C117.309 283.39 115.388 282.932 113.864 283.194C112.473 283.39 110.884 284.045 109.89 285.289C109.89 285.355 109.956 285.355 109.956 285.355C112.208 283.325 116.117 282.997 118.634 284.765C118.7 284.765 118.766 284.7 118.7 284.634Z" fill="#263238"/>
<path d="M112.54 270.815C110.155 268.85 106.644 267.409 103.531 268.13C103.399 268.13 103.465 268.326 103.531 268.326C106.644 268.981 109.426 269.833 112.341 271.143C112.54 271.208 112.738 270.946 112.54 270.815Z" fill="#263238"/>
<path d="M113.864 273.042C111.48 271.077 107.969 269.637 104.856 270.357C104.723 270.357 104.79 270.553 104.856 270.553C107.969 271.208 110.751 272.06 113.666 273.37C113.864 273.435 113.997 273.173 113.864 273.042Z" fill="#263238"/>
<path d="M115.123 275.269C112.738 273.304 109.227 271.863 106.114 272.584C105.982 272.584 106.048 272.78 106.114 272.78C109.227 273.435 112.009 274.286 114.924 275.596C115.123 275.662 115.255 275.4 115.123 275.269Z" fill="#263238"/>
<path d="M116.381 277.496C113.997 275.531 110.486 274.09 107.373 274.811C107.24 274.811 107.307 275.007 107.373 275.007C110.486 275.662 113.268 276.513 116.183 277.823C116.381 277.889 116.514 277.627 116.381 277.496Z" fill="#263238"/>
<path d="M87.3687 258.306C84.6529 256.145 81.2085 260.271 83.9243 262.498C86.6401 264.659 90.0845 260.467 87.3687 258.306Z" fill="white"/>
<path d="M120.488 266.493C120.091 264.528 117.772 264.2 116.116 264.659C113.467 265.379 110.685 267.017 108.83 268.981C108.764 269.047 108.83 269.112 108.83 269.112C108.764 269.309 108.83 269.636 109.095 269.636C111.811 269.833 114.659 270.422 117.309 269.833C118.965 269.505 120.819 268.392 120.488 266.493ZM113.268 269.178C111.943 269.112 110.619 268.981 109.294 268.916C110.685 268.065 112.076 267.148 113.599 266.493C114.328 266.165 115.057 265.838 115.852 265.576C117.044 265.183 121.084 265.117 119.163 267.934C118.037 269.505 114.858 269.309 113.268 269.178Z" fill="#263238"/>
<path d="M102.074 265.052C103.929 267.082 106.578 268.261 108.897 269.636C109.162 269.767 109.36 269.571 109.426 269.374C109.493 269.374 109.559 269.375 109.493 269.309C109.095 266.689 107.837 263.677 106.048 261.646C104.988 260.402 102.869 259.223 101.412 260.664C100.087 261.843 101.014 263.873 102.074 265.052ZM101.743 262.498C101.809 259.092 105.055 261.45 105.783 262.432C106.247 263.087 106.711 263.742 107.108 264.462C107.903 265.903 108.499 267.41 109.228 268.916C108.102 268.196 106.976 267.541 105.85 266.82C104.459 265.969 101.743 264.332 101.743 262.498Z" fill="#263238"/>
<path d="M155.661 208.99C153.806 221.499 122.144 257.324 118.501 261.45C117.971 262.039 117.64 262.367 117.64 262.367L92.0717 242.391L92.4029 241.998L115.52 212.788L47.6255 211.544L73.6573 192.027C73.6573 192.027 75.7108 193.271 80.0825 192.682C95.1187 190.717 128.967 186.329 136.915 186.722C147.116 187.311 157.383 197.463 155.661 208.99Z" fill="#263238"/>
<path d="M123.8 201.982C122.939 202.833 122.21 203.947 121.416 204.929C120.621 205.977 119.76 206.959 118.965 208.007C119.097 207.68 119.23 207.418 119.428 207.09C119.958 206.042 120.356 204.994 120.952 204.012C121.018 203.947 120.886 203.881 120.886 203.947C120.289 204.929 119.561 205.846 118.965 206.894C118.7 207.352 118.501 207.876 118.236 208.4C118.104 208.662 117.971 208.924 117.905 209.252C117.839 209.383 117.772 209.513 117.772 209.644C117.375 210.103 117.044 210.627 116.713 211.085C115.918 212.199 115.255 213.312 114.46 214.425C114.394 214.491 114.527 214.556 114.527 214.491C115.322 213.509 116.249 212.526 117.044 211.544C117.839 210.496 118.633 209.448 119.428 208.4C120.157 207.352 120.952 206.304 121.68 205.256C122.343 204.209 123.204 203.161 123.8 201.982C123.866 201.982 123.8 201.916 123.8 201.982Z" fill="#37474F"/>
<path d="M121.217 256.472C119.759 255.228 118.17 254.049 116.646 252.87C115.123 251.691 113.533 250.512 112.009 249.399C108.896 247.107 105.783 244.749 102.67 242.457C100.948 241.212 99.2254 239.968 97.4369 238.855C97.3707 238.789 97.3045 238.92 97.3707 238.985C100.351 241.474 103.465 243.767 106.578 246.059C109.691 248.351 112.804 250.643 115.984 252.936C117.706 254.18 119.428 255.424 121.217 256.603C121.217 256.669 121.283 256.538 121.217 256.472Z" fill="#37474F"/>
<path d="M66.0399 159.018C73.0612 172.313 81.4735 186.329 89.3559 188.425C96.9072 190.389 114.792 171.789 117.839 165.633C118.898 163.537 104.723 154.172 102.67 155.743C98.8943 158.691 90.6145 168.056 89.4222 167.794C88.1636 167.532 78.1616 158.691 69.0869 151.224C63.6553 146.771 61.2044 149.849 66.0399 159.018Z" fill="#AD6359"/>
<path d="M105.319 134.196L99.8878 152.993C99.689 153.517 99.954 153.975 100.484 154.041L110.353 154.368C110.883 154.368 111.546 153.975 111.745 153.386L117.176 134.589C117.375 134.065 117.11 133.607 116.58 133.541L106.71 133.214C106.18 133.214 105.518 133.672 105.319 134.196Z" fill="#A6A6A6"/>
<path d="M106.512 134.261L101.08 153.058C100.881 153.582 101.146 154.04 101.676 154.106L111.546 154.433C112.076 154.433 112.738 154.04 112.937 153.451L118.368 134.654C118.567 134.13 118.302 133.672 117.772 133.607L107.903 133.279C107.307 133.279 106.71 133.672 106.512 134.261Z" fill="#DBDBDB"/>
<path d="M109.161 135.178C109.161 135.637 108.764 135.964 108.3 135.964C107.837 135.964 107.505 135.571 107.505 135.113C107.505 134.654 107.903 134.327 108.366 134.327C108.83 134.327 109.161 134.72 109.161 135.178Z" fill="#455A64"/>
<path d="M122.475 154.957C123.336 149.522 122.674 147.95 125.853 143.758C127.907 141.007 127.046 138.453 123.734 140.025C118.368 142.579 115.785 149.391 115.586 152.01L122.475 154.957Z" fill="#AD6359"/>
<path d="M115.322 169.3C115.322 169.3 120.488 163.341 121.945 157.643C122.939 153.713 124.198 144.806 115.454 136.226C113.401 134.196 108.963 132.755 111.148 137.274C112.672 140.483 114.659 142.121 115.189 144.151C115.189 144.151 109.36 142.972 107.373 145.133C106.512 146.116 104.127 148.735 102.604 151.093C102.604 151.093 103.001 151.552 103.663 152.076C103.663 152.076 102.008 154.237 102.339 158.363L115.322 169.3Z" fill="#AD6359"/>
<path d="M122.343 153.713C121.349 151.814 119.23 147.819 116.315 145.133C113.069 142.186 106.048 137.274 103.862 139.632C102.272 141.4 104.79 143.496 104.79 143.496C104.79 143.496 101.478 142.055 100.352 143.954C99.3579 145.657 101.411 147.164 101.411 147.164C101.411 147.164 99.2255 146.64 98.5631 148.473C97.7682 150.7 102.471 151.421 103.663 154.302C103.862 155.023 122.343 153.713 122.343 153.713Z" fill="#AD6359"/>
<path d="M113.665 148.998C112.473 147.36 108.698 144.282 104.789 143.431C104.723 143.431 104.657 143.496 104.723 143.496C108.83 145.33 112.274 147.884 113.665 148.998Z" fill="#263238"/>
<path d="M110.552 152.141C109.36 150.831 105.386 147.884 101.345 147.098C101.279 147.098 101.213 147.164 101.279 147.164C105.651 148.932 109.095 151.093 110.552 152.141Z" fill="#263238"/>
<path d="M97.8347 158.167L112.606 173.689C112.606 173.689 96.9736 190.979 89.6873 189.21C82.3348 187.377 68.4909 167.794 64.0529 155.35C61.0059 146.705 65.8414 148.146 70.9417 152.338C76.0421 156.595 89.3561 167.074 89.9523 166.877C90.4822 166.681 97.8347 158.167 97.8347 158.167Z" fill="#FFC727"/>
<path opacity="0.1" d="M92.8667 189.014C91.7406 189.342 90.6145 189.407 89.6872 189.145C82.3347 187.311 68.4908 167.729 64.0528 155.285C61.9994 149.587 63.4566 148.277 66.1062 149.26C74.1211 160.917 84.7193 176.636 92.8667 189.014Z" fill="black"/>
<path d="M107.837 176.243C105.717 174.082 97.2384 165.043 95.5825 162.948C95.45 162.817 95.5162 162.686 95.6487 162.817C102.206 169.039 105.916 173.951 107.903 176.112C107.969 176.243 107.903 176.308 107.837 176.243Z" fill="#263238"/>
<path d="M82.5336 200.999C82.5336 200.999 33.9805 209.776 33.7156 209.514C33.5168 209.252 39.0809 157.315 55.5081 148.539C58.0915 147.164 64.4504 146.312 67.0999 149.063C74.8499 156.791 83.1297 200.279 82.5336 200.999Z" fill="#FFC727"/>
<path d="M82.0036 196.677L34.1792 204.798C34.3779 203.357 34.5766 201.654 34.9078 199.755L81.1425 191.896C81.4737 193.73 81.8049 195.367 82.0036 196.677Z" fill="#EBEBEB"/>
<path d="M80.6127 189.407L35.3716 197.07C35.5041 196.218 35.6365 195.367 35.8353 194.45L80.149 186.918C80.2815 187.77 80.4802 188.621 80.6127 189.407Z" fill="#EBEBEB"/>
<path d="M64.9801 156.922C62.2643 156.922 58.8199 152.01 57.8263 148.408C57.7601 148.146 58.6212 145.985 59.6148 143.234C60.2109 141.597 60.8071 139.763 61.2045 137.995L71.4715 143.234C71.4715 143.234 69.4844 146.574 68.822 149.587C68.7557 149.849 68.7557 150.111 68.7557 150.307C68.7557 150.373 68.7557 150.373 68.7557 150.438C68.6233 151.945 67.6297 156.922 64.9801 156.922Z" fill="#AD6359"/>
<path d="M71.5376 143.365C71.5376 143.365 69.5505 146.705 68.8881 149.718C68.8218 149.98 68.8218 150.176 68.8218 150.438C68.8218 150.504 68.8218 150.504 68.8218 150.569C68.4907 150.569 68.0932 150.504 67.6958 150.373C61.3369 148.736 61.4693 140.483 61.6018 138.257L71.5376 143.365Z" fill="#263238"/>
<path d="M60.8072 126.206C59.1512 130.004 60.0123 141.531 62.5294 144.347C66.2388 148.474 72.8627 149.521 76.572 145.002C80.1489 140.614 78.8242 125.616 75.9097 122.931C71.6041 119.132 63.258 120.639 60.8072 126.206Z" fill="#AD6359"/>
<path d="M71.472 134.523L71.4057 134.589C71.472 135.375 71.472 136.226 70.8096 136.554V136.619C71.6707 136.423 71.6707 135.244 71.472 134.523Z" fill="#263238"/>
<path d="M70.677 133.803C69.4185 133.803 69.5509 136.292 70.7432 136.292C71.8693 136.292 71.7368 133.803 70.677 133.803Z" fill="#263238"/>
<path d="M76.0423 134.261C76.0423 134.261 76.1085 134.327 76.0423 134.261C76.1085 135.113 76.241 135.964 76.9696 136.226V136.292C76.1085 136.226 75.9098 135.047 76.0423 134.261Z" fill="#263238"/>
<path d="M76.7049 133.475C77.9634 133.344 78.1621 135.833 77.036 135.964C75.91 136.095 75.645 133.606 76.7049 133.475Z" fill="#263238"/>
<path d="M69.6172 132.69C69.9484 132.559 70.2796 132.428 70.5446 132.297C70.942 132.166 71.2069 132.035 71.4719 131.707C71.6044 131.511 71.5381 131.183 71.3394 131.052C70.942 130.725 70.4783 130.79 70.0146 130.987C69.551 131.183 69.2198 131.445 68.9548 131.904C68.6899 132.362 69.1535 132.821 69.6172 132.69Z" fill="#263238"/>
<path d="M77.6319 132.166C77.3007 132.1 76.9695 132.035 76.6384 131.969C76.2409 131.904 75.9097 131.838 75.6448 131.576C75.5123 131.445 75.5123 131.118 75.6448 130.921C75.976 130.528 76.5059 130.528 76.9695 130.594C77.4995 130.659 77.8307 130.856 78.2281 131.249C78.493 131.642 78.0956 132.166 77.6319 132.166Z" fill="#263238"/>
<path d="M71.0085 141.4C71.1409 141.597 71.3396 141.859 71.6046 141.924C71.8696 141.99 72.2008 141.924 72.4657 141.859C72.4657 141.859 72.5319 141.859 72.4657 141.924C72.2008 142.186 71.8033 142.317 71.4059 142.186C71.0747 142.055 70.9422 141.728 70.876 141.4C70.9422 141.4 70.9422 141.4 71.0085 141.4Z" fill="#263238"/>
<path d="M71.8692 139.173C72.3329 139.828 72.9953 140.156 73.7239 140.221C74.0551 140.287 74.3863 140.287 74.7175 140.221C74.7838 140.221 74.9825 140.156 75.0487 140.156C75.115 140.156 75.1812 140.09 75.1812 139.959L75.0487 138.322C75.2474 138.388 76.4397 138.846 76.3735 138.519C76.1085 135.964 75.7773 133.083 74.9162 130.594C74.9162 130.528 74.7838 130.528 74.7838 130.594C74.9825 133.083 75.5786 135.506 75.8436 137.995C75.4461 137.864 74.85 137.667 74.585 137.667C74.5188 137.667 74.7838 139.697 74.7838 139.697C73.7902 139.894 72.9953 139.632 72.0017 138.977C71.8692 139.042 71.803 139.108 71.8692 139.173Z" fill="#263238"/>
<path d="M74.3864 140.09C74.3864 140.09 73.8565 140.811 73.0616 141.138C72.7967 141.269 72.4655 141.269 72.1343 141.204C71.4719 141.007 71.4719 140.418 71.6044 139.96C71.6706 139.567 71.8693 139.174 71.8693 139.174C71.8693 139.174 72.8629 140.025 74.3864 140.09Z" fill="#263238"/>
<path d="M73.0616 141.138C72.7967 141.269 72.4655 141.269 72.1343 141.204C71.4719 141.007 71.4719 140.418 71.6044 139.959C72.333 139.959 72.9954 140.418 73.0616 141.138Z" fill="#FF9CBD"/>
<path d="M59.7474 136.685C62.7944 136.947 64.3842 133.345 63.7218 130.463C63.7218 130.463 71.8029 131.576 72.2666 125.158C72.2666 125.158 74.1875 128.105 77.8969 128.171L78.4268 130.397C79.2879 130.135 80.149 127.843 78.1618 126.009C78.1618 126.009 78.0294 122.8 75.6448 120.835C73.2602 118.871 70.8756 120.115 70.8756 120.115C70.8756 120.115 68.9546 118.543 65.9739 118.871C62.9931 119.198 61.7346 121.883 61.7346 121.883C61.7346 121.883 57.694 122.604 57.0317 125.42C56.303 128.236 57.7603 130.135 57.7603 130.135C57.7603 130.135 56.7667 131.249 57.2304 133.672C57.5616 135.309 58.8201 136.619 59.7474 136.685Z" fill="#263238"/>
<path d="M72.0681 124.569C72.1343 125.093 72.1343 125.617 72.0681 126.14C72.0019 126.664 71.9356 127.188 71.7369 127.647C71.4057 128.629 70.7433 129.481 69.816 129.939C68.9549 130.463 67.8288 130.594 66.8352 130.659C66.3053 130.659 65.7754 130.659 65.2455 130.594C64.7156 130.529 64.1857 130.463 63.6558 130.398C64.1857 130.529 64.7156 130.659 65.2455 130.725C65.7754 130.79 66.3053 130.856 66.8352 130.856C67.895 130.79 69.0211 130.725 70.0147 130.201C71.0083 129.677 71.7369 128.695 72.0019 127.647C72.333 126.664 72.2668 125.551 72.0681 124.569Z" fill="#263238"/>
<path d="M76.1748 128.302C75.2475 127.974 74.4526 127.581 73.724 126.992C73.3928 126.73 73.0616 126.402 72.7967 126.009C72.5317 125.616 72.333 125.223 72.1343 124.765C72.2005 125.223 72.333 125.747 72.5317 126.14C72.7967 126.599 73.0616 126.926 73.4591 127.254C73.8565 127.581 74.2539 127.843 74.7176 127.974C75.2475 128.171 75.7112 128.302 76.1748 128.302Z" fill="#263238"/>
<path d="M69.9483 138.453C68.4248 138.388 67.1 137.274 66.7688 135.768C66.3714 133.934 67.5637 132.166 69.4184 131.773C71.2731 131.38 73.0615 132.559 73.4589 134.393C73.8564 136.226 72.6641 137.995 70.8094 138.388C70.4782 138.453 70.2132 138.453 69.9483 138.453ZM70.2132 132.166C69.9483 132.166 69.7496 132.166 69.4846 132.231C67.8949 132.559 66.8351 134.065 67.1663 135.702C67.4974 137.274 69.0209 138.322 70.6769 137.995C72.2666 137.667 73.3265 136.161 72.9953 134.524C72.7303 133.148 71.538 132.231 70.2132 132.166Z" fill="#FFC727"/>
<path d="M77.6981 137.864C76.3733 137.798 75.2472 136.423 75.181 134.654C75.1148 133.738 75.3135 132.886 75.7109 132.231C76.1746 131.576 76.7707 131.118 77.4331 131.118C78.0955 131.052 78.8241 131.38 79.2878 132.035C79.8177 132.624 80.0827 133.476 80.1489 134.327C80.2814 136.161 79.2216 137.733 77.8306 137.864C77.8306 137.864 77.7643 137.864 77.6981 137.864ZM77.6981 131.576C77.6318 131.576 77.5656 131.576 77.4994 131.576C76.9695 131.642 76.4395 131.969 76.1084 132.493C75.7109 133.083 75.5784 133.803 75.6447 134.589C75.7772 136.226 76.7707 137.471 77.8968 137.34C79.0229 137.274 79.884 135.899 79.7515 134.262C79.6853 133.476 79.4203 132.755 78.9566 132.231C78.6254 131.904 78.1618 131.642 77.6981 131.576Z" fill="#FFC727"/>
<path d="M73.3263 134.785L72.9951 134.458C73.4588 133.999 74.6511 133.345 75.5122 134.13L75.181 134.458C74.4524 133.803 73.3926 134.785 73.3263 134.785Z" fill="#FFC727"/>
<path d="M58.9526 136.75L58.5552 136.554C58.6214 136.357 59.4163 134.655 60.4099 134.458C61.3372 134.262 66.7688 134.327 67.0337 134.327V134.786C65.2453 134.72 61.2047 134.72 60.4761 134.917C59.8137 135.048 59.1513 136.292 58.9526 136.75Z" fill="#FFC727"/>
<path d="M62.5957 136.488C62.5957 136.488 60.3436 132.559 58.5551 133.345C56.7667 134.131 58.2239 139.632 60.1449 140.483C62.0658 141.4 62.9269 139.632 62.9269 139.632L62.5957 136.488Z" fill="#AD6359"/>
<path d="M59.0187 134.917C59.0187 134.851 58.9525 134.917 59.0187 134.917C60.3435 135.637 60.9396 137.012 61.3371 138.322C60.9396 137.798 60.4097 137.471 59.6811 137.864C59.6148 137.864 59.6811 137.929 59.6811 137.929C60.2772 137.864 60.6747 137.995 61.0059 138.453C61.2708 138.781 61.4033 139.239 61.5358 139.632C61.602 139.763 61.8007 139.698 61.8007 139.567C61.8007 139.567 61.8007 139.567 61.8007 139.501C62.0657 137.798 60.8734 135.244 59.0187 134.917Z" fill="#263238"/>
<path d="M68.8886 151.748C68.7561 153.91 68.3587 158.953 64.7818 158.298C63.3245 158.036 62.1322 157.053 61.1387 156.071C60.0788 155.088 57.8929 152.338 56.3695 149.325C56.3695 149.259 56.237 149.325 56.3032 149.39C56.5682 150.242 57.1643 151.683 58.0254 153.058C58.8203 154.368 59.8139 155.612 60.9399 156.66C61.9998 157.643 63.3245 158.625 64.848 158.887C66.3053 159.084 67.4313 158.363 68.0275 157.119C68.8224 155.481 69.0211 153.517 68.8886 151.748Z" fill="#263238"/>
<path d="M50.0764 152.665C42.5252 159.215 23.051 185.084 27.8202 190.651C32.6556 196.218 62.5956 192.354 71.2066 189.276C73.7899 188.359 65.9737 172.379 63.1917 171.724C60.8071 171.2 48.023 175.522 47.7581 174.802C47.4269 173.951 49.9439 168.384 53.9845 158.101C58.555 146.312 53.4546 149.784 50.0764 152.665Z" fill="#AD6359"/>
<path d="M75.8433 168.056C81.871 167.86 83.4607 168.711 88.4286 165.829C91.6743 163.93 94.3239 165.175 92.2043 168.515C88.7598 173.885 81.0761 175.85 78.1616 175.719L75.8433 168.056Z" fill="#AD6359"/>
<path d="M59.4824 172.117C59.4824 172.117 66.57 169.104 72.9289 168.253C77.3669 167.663 87.1703 167.401 95.4501 177.749C97.4373 180.173 98.4309 185.085 93.7941 182.203C90.4822 180.173 88.9587 177.88 86.8391 177.094C86.8391 177.094 87.4352 183.447 84.8519 185.281C83.7258 186.133 80.5464 188.294 77.8306 189.669C77.8306 189.669 77.3669 189.145 76.9032 188.425C76.9032 188.425 74.3199 189.931 69.8819 189.08L59.4824 172.117Z" fill="#AD6359"/>
<path d="M77.2346 168.384C79.2218 169.628 83.3286 172.444 85.8456 175.85C88.6939 179.649 93.1319 187.704 90.2836 189.735C88.164 191.241 86.2431 188.294 86.2431 188.294C86.2431 188.294 87.3691 192.027 85.1833 192.944C83.1961 193.795 81.8051 191.437 81.8051 191.437C81.8051 191.437 82.07 193.795 80.0166 194.254C77.4995 194.843 77.3008 189.735 74.2538 188.163C73.5915 187.835 77.2346 168.384 77.2346 168.384Z" fill="#AD6359"/>
<path d="M81.3412 178.077C82.9972 179.583 85.8454 183.906 86.3091 188.163C86.3091 188.228 86.2429 188.294 86.2429 188.228C84.6531 183.709 82.3348 179.78 81.3412 178.077C81.2749 178.142 81.2749 178.077 81.3412 178.077Z" fill="#263238"/>
<path d="M77.4995 181.09C78.758 182.531 81.5401 187.115 81.8713 191.438C81.8713 191.503 81.805 191.569 81.805 191.503C80.414 186.657 78.4931 182.792 77.4995 181.09C77.4995 181.09 77.4995 181.024 77.4995 181.09Z" fill="#263238"/>
<path d="M86.7726 177.029C88.6273 177.815 89.8196 178.863 91.3431 180.107C92.0717 180.762 92.8666 181.351 93.6614 181.941C94.3901 182.465 95.5161 183.185 96.4435 182.596C96.9734 182.268 97.0396 181.613 96.9734 181.089C96.9071 180.5 96.4435 179.321 96.1123 178.797C96.1123 178.797 96.1123 178.732 96.1785 178.797C96.4435 179.256 97.0396 180.303 97.1721 180.827C97.3046 181.286 97.3708 181.875 97.1721 182.334C96.7747 183.382 95.5161 183.382 94.655 182.989C94.1251 182.792 93.6614 182.399 93.1978 182.137C92.7341 181.81 92.3367 181.482 91.9392 181.155C91.0781 180.434 90.2833 179.714 89.4222 178.994C88.4286 178.208 87.7662 177.815 86.7726 177.029C86.7064 177.094 86.7726 177.029 86.7726 177.029Z" fill="#263238"/>
<path d="M90.1511 184.168C89.7537 183.054 87.5015 178.208 86.7067 177.029C86.7067 177.029 86.7067 176.963 86.7729 176.963C88.1639 178.535 90.2173 182.53 90.6148 183.775C91.0784 185.019 91.5421 186.591 91.4096 187.966C91.2109 189.997 89.8199 190.193 89.29 190.259C88.6938 190.324 88.0977 190.128 87.5678 189.8C87.0379 189.407 86.508 188.752 86.1768 188.163C86.1768 188.163 86.1768 188.097 86.243 188.097C86.8391 188.949 87.9652 189.866 89.0913 189.8C89.5549 189.8 90.0848 189.604 90.416 189.276C90.8135 188.818 90.8797 188.228 90.8797 187.704C90.9459 186.591 90.5485 185.347 90.1511 184.168Z" fill="#263238"/>
<path d="M59.4824 172.117L66.9012 192.551C66.9012 192.551 29.41 197.07 26.8929 190.455C24.3758 183.84 41.1343 160.524 48.2881 153.975C56.5679 146.378 57.2303 149.325 54.8457 156.529C52.3286 164.127 47.8906 174.933 47.8906 174.933L59.4824 172.117Z" fill="#FFC727"/>
<path d="M36.1664 179.059C37.9548 178.077 39.8758 177.225 41.8629 176.505C43.7838 175.784 45.771 175.26 47.7582 174.802C48.8842 174.54 50.0765 174.343 51.2026 174.147C51.2688 174.147 51.2688 174.212 51.2026 174.212C49.1492 174.605 47.162 175.195 45.2411 175.85C43.3202 176.505 41.333 177.16 39.4121 177.88C38.3523 178.273 37.2262 178.732 36.1664 179.19C36.1001 179.124 36.1001 179.059 36.1664 179.059Z" fill="#263238"/>
<path d="M59.3502 172.051C59.1515 172.051 48.8183 174.343 48.4208 174.474C48.4871 174.343 50.8054 169.235 51.1366 168.514C51.2029 168.449 51.2029 168.383 51.2691 168.318C51.4678 167.991 51.7328 167.663 51.9315 167.336C52.1965 166.877 52.4614 166.484 52.7264 166.026C52.4614 166.419 52.1965 166.877 51.8653 167.27C51.7328 167.467 51.6003 167.663 51.4678 167.86C51.7328 167.336 51.9315 166.812 52.1302 166.288C52.4614 165.436 52.7926 164.585 53.1238 163.733C53.1238 163.733 53.1238 163.668 53.0576 163.733C52.3952 165.24 51.6665 166.681 50.9379 168.187C50.2755 169.693 47.626 175.129 47.626 175.129C47.626 175.129 59.0853 172.379 59.284 172.313C59.4827 172.182 59.4827 172.051 59.3502 172.051Z" fill="#263238"/>
<path d="M58.7538 184.888C57.9589 182.596 57.164 180.303 56.2367 178.077C55.7068 176.767 55.2431 175.522 54.7132 174.212C54.7132 174.147 54.5807 174.212 54.647 174.212C55.3756 176.505 56.1042 178.862 56.8991 181.155C57.694 183.447 58.5551 185.739 59.4162 187.966C59.8798 189.276 60.4097 190.52 61.0059 191.765H61.0721C60.4097 189.472 59.5486 187.18 58.7538 184.888Z" fill="#263238"/>
<path d="M67.2987 192.944C66.9675 192.289 66.6363 191.372 66.3051 190.782C66.2389 190.586 66.1064 190.651 66.1726 190.782C66.3713 191.372 66.5701 191.961 66.7688 192.551C66.2389 192.616 65.709 192.616 65.179 192.682C64.5829 192.747 63.9867 192.813 63.3906 192.878C62.1983 193.009 61.006 193.14 59.8137 193.205C57.4291 193.402 54.9783 193.533 52.5937 193.664C47.7582 193.86 42.8566 193.86 38.0211 193.598C36.6963 193.533 35.3053 193.402 33.9806 193.271C32.5895 193.14 31.1323 192.944 30.0062 192.682C29.94 192.682 29.94 192.747 30.0062 192.747C31.1323 193.074 32.2583 193.336 33.4506 193.533C34.6429 193.729 35.9015 193.86 37.0938 193.991C39.5446 194.188 41.9955 194.319 44.4463 194.319C49.2817 194.384 54.1834 194.188 59.0188 193.86C60.3436 193.729 61.7346 193.664 63.0594 193.533C63.7218 193.467 64.4504 193.402 65.1128 193.336C65.709 193.14 67.3649 193.009 67.2987 192.944Z" fill="#263238"/>
<path d="M115.653 192.485H68.4248V194.581H115.653V192.485Z" fill="#C7C7C7"/>
<path d="M115.653 192.485V194.581H83.5273L85.1171 192.485H115.653Z" fill="#A6A6A6"/>
<path d="M90.0186 194.581H131.352L137.313 165.764H95.98L90.0186 194.581Z" fill="#A6A6A6"/>
<path d="M91.9395 194.581H133.272L139.234 165.764H97.9009L91.9395 194.581Z" fill="#C7C7C7"/>
<path d="M119.296 179.059C119.363 180.434 118.435 181.744 117.243 181.941C116.051 182.203 115.057 181.286 115.057 179.91C114.991 178.535 115.918 177.225 117.11 177.029C118.303 176.832 119.296 177.749 119.296 179.059Z" fill="white"/>
<path d="M211.832 254.442C211.236 256.014 181.561 291.577 179.574 292.232C178.845 292.494 173.347 288.499 166.856 283.521C165.465 282.473 164.007 281.294 162.55 280.181C153.078 272.78 143.208 264.659 143.208 264.659L162.948 240.819L181.759 256.996L185.866 260.533C185.866 260.533 203.353 251.953 205.672 251.495C207.924 250.971 212.494 252.805 211.832 254.442Z" fill="#AD6359"/>
<path d="M211.832 254.442C211.236 256.014 181.561 291.577 179.574 292.232C178.646 292.559 170.764 286.599 162.55 280.181L181.76 256.996L185.866 260.533C185.866 260.533 203.353 251.953 205.672 251.495C207.924 250.971 212.494 252.805 211.832 254.442Z" fill="#EBEBEB"/>
<path d="M211.832 254.442C211.236 256.014 181.561 291.577 179.574 292.232C178.845 292.494 173.347 288.499 166.856 283.521L185.933 260.533C185.933 260.533 203.42 251.953 205.738 251.495C207.924 250.971 212.495 252.805 211.832 254.442Z" fill="#FFC727"/>
<path d="M209.977 253.722C204.877 259.551 184.74 283.587 180.17 289.743C180.104 289.809 180.17 289.809 180.236 289.743C185.469 284.045 205.341 259.878 210.11 253.787C210.176 253.722 210.11 253.656 209.977 253.722Z" fill="#263238"/>
<path d="M202.493 252.674C201.234 254.049 200.77 255.949 200.969 257.455C201.168 258.83 201.764 260.402 203.089 261.384C203.155 261.384 203.155 261.319 203.155 261.319C201.102 259.027 200.77 255.228 202.559 252.739C202.625 252.674 202.493 252.608 202.493 252.674Z" fill="#263238"/>
<path d="M188.45 258.699C186.397 261.057 184.939 264.528 185.734 267.606C185.734 267.737 185.933 267.672 185.933 267.606C186.595 264.528 187.456 261.777 188.781 258.896C188.847 258.699 188.582 258.503 188.45 258.699Z" fill="#263238"/>
<path d="M190.702 257.455C188.649 259.813 187.191 263.284 187.986 266.362C187.986 266.493 188.185 266.428 188.185 266.362C188.847 263.284 189.708 260.533 191.033 257.651C191.099 257.455 190.834 257.258 190.702 257.455Z" fill="#263238"/>
<path d="M192.954 256.211C190.9 258.568 189.443 262.039 190.238 265.118C190.238 265.249 190.437 265.183 190.437 265.118C191.099 262.039 191.96 259.289 193.285 256.407C193.351 256.211 193.086 256.014 192.954 256.211Z" fill="#263238"/>
<path d="M195.206 254.966C193.153 257.324 191.696 260.795 192.491 263.873C192.491 264.004 192.689 263.939 192.689 263.873C193.352 260.795 194.213 258.044 195.538 255.163C195.67 254.966 195.339 254.77 195.206 254.966Z" fill="#263238"/>
<path d="M175.732 283.587C173.48 286.272 177.719 289.678 179.971 286.993C182.157 284.307 177.918 280.902 175.732 283.587Z" fill="white"/>
<path d="M184.144 250.84C182.157 251.233 181.826 253.525 182.289 255.163C183.018 257.782 184.674 260.533 186.661 262.367C186.727 262.432 186.794 262.367 186.794 262.367C186.992 262.432 187.324 262.367 187.324 262.105C187.522 259.42 188.118 256.603 187.522 253.984C187.191 252.412 186.065 250.512 184.144 250.84ZM186.86 257.979C186.794 259.289 186.661 260.598 186.595 261.908C185.734 260.533 184.873 259.158 184.144 257.651C183.813 256.931 183.482 256.21 183.217 255.424C182.819 254.246 182.819 250.25 185.601 252.15C187.191 253.263 186.926 256.407 186.86 257.979Z" fill="#263238"/>
<path d="M182.555 269.047C184.608 267.213 185.8 264.593 187.191 262.301C187.324 262.039 187.125 261.843 186.926 261.777C186.926 261.712 186.926 261.646 186.86 261.712C184.211 262.039 181.164 263.349 179.11 265.052C177.785 266.1 176.659 268.196 178.117 269.636C179.375 271.012 181.362 270.095 182.555 269.047ZM180.038 269.374C176.593 269.309 179.044 266.1 179.971 265.379C180.634 264.921 181.296 264.462 182.025 264.135C183.482 263.349 185.005 262.76 186.529 262.105C185.8 263.218 185.138 264.331 184.409 265.445C183.548 266.689 181.892 269.374 180.038 269.374Z" fill="#263238"/>
<path d="M180.832 253.329L158.841 279.133L92.4693 232.371L85.9117 227.786C85.9117 227.786 84.057 229.031 81.2087 230.537C77.3006 232.633 71.5379 235.252 66.4375 235.907C57.9589 237.021 45.1086 236.759 38.0873 227.197C32.192 219.141 34.1792 208.793 34.1792 208.793L43.5188 204.929C43.5188 204.929 65.7751 187.049 80.0827 186.656C86.1766 186.46 94.9202 191.175 103.068 196.022C111.215 200.868 180.832 253.329 180.832 253.329Z" fill="#263238"/>
<path d="M85.8453 227.786C85.8453 227.786 83.9906 229.031 81.1423 230.537C76.2406 224.577 65.8411 213.771 65.5762 213.378L85.8453 227.786Z" fill="#37474F"/>
<path d="M51.6661 198.969C50.3413 199.886 49.0166 200.803 47.758 201.72C46.4995 202.637 45.1085 203.488 43.9162 204.471C42.6576 205.453 41.4653 206.566 40.273 207.614C39.6769 208.138 39.147 208.662 38.6171 209.186C38.0872 209.71 37.491 210.234 37.0273 210.889C36.9611 210.955 37.0936 211.02 37.0936 210.955C37.756 210.562 38.2859 210.038 38.882 209.579C39.4782 209.055 40.1406 208.531 40.7367 208.073C41.929 207.09 43.1875 206.108 44.3798 205.126C45.5721 204.143 46.6982 203.095 47.8243 202.113C49.0828 201 50.4076 200.017 51.6661 198.969C51.7324 198.969 51.7324 198.969 51.6661 198.969Z" fill="#37474F"/>
<path d="M174.009 250.84C172.684 252.215 171.426 253.722 170.167 255.162C168.909 256.603 167.65 258.11 166.458 259.616C164.007 262.563 161.49 265.576 159.105 268.523C157.781 270.16 156.456 271.863 155.197 273.566C155.131 273.632 155.263 273.763 155.33 273.632C157.979 270.815 160.43 267.803 162.881 264.855C165.332 261.908 167.783 258.896 170.233 255.883C171.558 254.246 172.949 252.608 174.142 250.84C174.142 250.84 174.075 250.774 174.009 250.84Z" fill="#37474F"/>
<path d="M124.131 254.638C120.753 251.953 113.069 246.648 109.625 244.159C106.114 241.671 102.67 239.117 99.1592 236.693C98.1656 235.973 97.1058 235.318 96.1122 234.597C95.1186 233.877 94.0588 233.288 92.9989 232.567C92.9327 232.502 92.8665 232.633 92.9327 232.633C93.8601 233.288 94.7212 234.074 95.6485 234.728C96.5096 235.383 97.3707 236.038 98.2318 236.693C99.954 237.938 101.61 239.182 103.332 240.492C106.777 243.046 110.287 245.535 113.798 248.024C115.785 249.399 121.945 253.525 123.999 254.835C124.065 254.9 124.197 254.704 124.131 254.638Z" fill="#37474F"/>
<path d="M145.924 226.935C142.811 224.315 135.723 219.272 132.411 216.849C129.099 214.426 125.853 211.937 122.475 209.514C119.163 207.09 115.918 204.667 112.606 202.244C109.426 199.886 106.247 197.528 102.868 195.432C101.014 194.319 99.1591 193.271 97.1719 192.289C95.251 191.372 93.3301 190.389 91.2767 189.8C91.2105 189.8 91.2104 189.866 91.2104 189.931C92.8664 190.848 94.6549 191.699 96.3108 192.616C97.9668 193.533 99.6228 194.45 101.213 195.432C104.591 197.528 107.704 199.821 110.883 202.178C117.441 206.959 124.065 211.806 130.689 216.521C134.398 219.207 141.817 224.643 145.659 227.066C145.857 227.262 145.99 227.066 145.924 226.935Z" fill="#37474F"/>
</svg>
