<svg width="414" height="431" viewBox="0 0 414 431" fill="none" xmlns="http://www.w3.org/2000/svg">
<path d="M129.508 93.7823C164.958 101.245 202.484 98.343 237.38 85.9046C328.634 53.5649 403.687 95.4407 422.52 121.838C444.399 152.519 447.999 192.874 437.89 229.775C427.782 266.675 404.934 300.259 377.654 329.558C356.329 352.5 331.265 373.507 301.493 385.393C272.275 397.002 240.288 399.351 208.992 400.871C168.835 402.945 127.846 403.912 89.6276 394.514C58.4708 386.913 26.3448 367.979 23.5753 338.127C21.2213 312.697 41.3 287.682 38.5305 262.253C34.6533 226.734 -10.0739 209.183 -24.8907 176.566C-42.2 138.699 -20.1826 96.8227 9.72789 87.8395C40.8846 78.8562 90.3199 85.49 129.508 93.7823Z" fill="#E7E7E7"/>
<path d="M150.484 69.0257C126.657 110.71 50.0077 123.486 23.2813 144.908C-1.17585 164.524 -14.2869 209.822 -12.9002 245.956C-11.6395 282.091 15.213 317.968 50.3859 321.065C65.6402 322.355 81.0205 317.71 96.4007 318.871C145.441 322.355 172.798 378.622 215.913 402.755C265.71 430.63 328.996 410.885 375.011 377.074C404.259 355.522 430.607 326.872 439.936 291.254C449.265 255.635 437.162 212.403 405.393 194.981C376.776 179.236 333.282 181.559 322.062 150.329C314.246 128.519 329.5 105.677 332.904 82.7052C338.199 46.6996 311.473 10.8231 277.56 -0.146391C243.774 -11.3739 212.635 -13.3097 187.674 12.6298C176.076 24.7607 158.93 54.3137 150.484 69.0257Z" fill="#63BD92"/>
</svg>
