<svg width="273" height="216" viewBox="0 0 273 216" fill="none" xmlns="http://www.w3.org/2000/svg">
<g opacity="0.8">
<path d="M97.8499 141.415C122.098 117.686 186.003 120.758 210.282 110.728C232.502 101.541 248.477 73.8542 251.781 50.0387C255.085 26.2231 237.567 -1.23237 209.362 -8.49227C197.124 -11.6064 184.072 -10.8575 171.716 -13.9059C132.291 -23.4828 116.806 -64.3463 84.6685 -86.543C47.5511 -112.181 -6.22946 -108.689 -47.6633 -93.4282C-74.0065 -83.6887 -98.8443 -68.8764 -110.69 -46.9745C-122.536 -25.0725 -117.882 4.99777 -94.1584 21.1179C-72.7947 35.6719 -37.1812 40.626 -31.8066 62.7171C-28.0689 78.1415 -43.198 90.8074 -48.715 105.321C-57.3295 128.077 -39.9136 155.514 -13.6763 167.734C12.5611 179.953 37.6272 185.853 61.0138 172.607C71.7563 166.551 89.2255 149.778 97.8499 141.415Z" fill="#63BD92"/>
</g>
</svg>
