<svg width="414" height="454" viewBox="0 0 414 454" fill="none" xmlns="http://www.w3.org/2000/svg">
<path d="M129.508 116.783C164.958 124.246 202.484 121.343 237.38 108.905C328.634 76.5652 403.687 118.441 422.52 144.838C444.399 175.519 447.999 215.875 437.89 252.775C427.782 289.676 404.934 323.259 377.654 352.558C356.329 375.5 331.265 396.507 301.493 408.393C272.275 420.002 240.288 422.351 208.992 423.872C168.835 425.945 127.846 426.912 89.6276 417.514C58.4708 409.913 26.3448 390.979 23.5753 361.127C21.2213 335.698 41.3 310.683 38.5305 285.253C34.6533 249.735 -10.0739 232.183 -24.8907 199.567C-42.2 161.699 -20.1826 119.823 9.72789 110.84C40.8846 101.856 90.3199 108.49 129.508 116.783Z" fill="#E7E7E7"/>
<path d="M150.484 92.0257C126.657 133.71 50.0077 146.486 23.2813 167.908C-1.17585 187.524 -14.2869 232.822 -12.9002 268.956C-11.6395 305.091 15.213 340.968 50.3859 344.065C65.6402 345.355 81.0205 340.71 96.4007 341.871C145.441 345.355 172.798 401.622 215.913 425.755C265.71 453.63 328.996 433.885 375.011 400.074C404.259 378.522 430.607 349.872 439.936 314.254C449.265 278.635 437.162 235.403 405.393 217.981C376.776 202.236 333.282 204.559 322.062 173.329C314.246 151.519 329.5 128.677 332.904 105.705C338.199 69.6996 311.473 33.8231 277.56 22.8536C243.774 11.6261 212.635 9.69027 187.674 35.6298C176.076 47.7607 158.93 77.3137 150.484 92.0257Z" fill="#63BD92"/>
</svg>
