<svg width="150" height="136" viewBox="0 0 150 136" fill="none" xmlns="http://www.w3.org/2000/svg">
<path d="M102.36 133.159C102.36 133.159 102.36 133.159 102.36 133.159C102.36 134.017 101.843 134.791 101.05 135.119C100.258 135.448 99.346 135.266 98.7395 134.659C98.133 134.053 97.9512 133.141 98.2793 132.348C98.6074 131.556 99.3814 131.039 100.239 131.039C100.802 131.039 101.342 131.262 101.739 131.659C102.137 132.057 102.36 132.597 102.36 133.159C102.36 133.159 102.36 133.159 102.36 133.159ZM14.6035 37.0255H15.9188C17.0891 37.0255 18.0393 36.0767 18.0393 34.9049C18.0393 33.7332 17.0891 32.7844 15.9188 32.7844H14.6035C13.4317 32.7844 12.483 33.7332 12.483 34.9049C12.483 36.0767 13.4318 37.0255 14.6035 37.0255ZM26.0102 37.0255H27.3297C28.5015 37.0255 29.4503 36.0767 29.4503 34.9049C29.4503 33.7332 28.5015 32.7844 27.3297 32.7844H26.0102C24.8384 32.7844 23.8897 33.7332 23.8897 34.9049C23.8897 36.0767 24.8385 37.0255 26.0102 37.0255ZM20.9303 31.9757C20.9264 31.9796 20.9292 31.9862 20.9347 31.9862C21.4918 31.9823 22.0254 31.7597 22.4196 31.3656C22.8173 30.9679 23.0403 30.4282 23.0403 29.8657V25.8108C23.0403 24.639 22.0915 23.6888 20.9197 23.6888C19.7479 23.6888 18.7992 24.639 18.7992 25.8108V29.8657C18.8049 30.4282 19.0335 30.965 19.4355 31.3585C19.8324 31.7498 20.3689 31.9667 20.9259 31.9651C20.9314 31.9651 20.9342 31.9718 20.9303 31.9757ZM20.92 46.171C20.9198 46.1712 20.9197 46.1714 20.9197 46.1717C20.9197 46.1722 20.9202 46.1727 20.9207 46.1727C21.4828 46.1724 22.0221 45.948 22.4196 45.5506C22.8173 45.1529 23.0403 44.6132 23.0403 44.0507V39.9958C23.0403 38.824 22.0915 37.8752 20.9197 37.8752C19.7479 37.8752 18.7992 38.824 18.7992 39.9958V44.0507C18.8049 44.6132 19.0335 45.1515 19.4355 45.5449C19.8301 45.9325 20.3626 46.1506 20.9161 46.1515C20.9249 46.1515 20.9293 46.1624 20.9228 46.1684L20.92 46.171ZM149.999 120.423C149.999 120.423 150 120.424 150 120.425C150 120.987 149.777 121.526 149.379 121.923C148.982 122.321 148.442 122.545 147.879 122.545H2.12055C0.948758 122.545 0 121.595 0 120.423C0 119.252 0.948795 118.303 2.12055 118.303H17.1542C18.2526 118.303 18.8873 116.937 18.3676 115.969C17.2484 113.982 16.6931 111.727 16.7612 109.447C16.828 107.167 17.5154 104.949 18.7497 103.031L32.8259 80.6641C33.2702 79.9581 33.4569 79.1203 33.3545 78.2925L32.9619 75.119C32.9618 75.1186 32.9615 75.1183 32.9611 75.1183C32.9607 75.1183 32.9603 75.118 32.9603 75.1176C32.7475 73.3055 33.3142 71.4906 34.5199 70.1217C35.7272 68.7539 37.4572 67.9642 39.281 67.9485H78.6215C80.9169 67.9485 82.4921 65.5871 82.0858 63.3279C81.9537 62.5932 81.8586 61.8513 81.8013 61.1053C81.7648 60.6301 81.381 60.3426 80.9044 60.3426H69.4508C69.0517 60.3426 68.6782 60.2532 68.289 60.2233C68.2882 60.2233 68.2875 60.224 68.2875 60.2248C68.2292 61.6276 68.0531 63.0219 67.7578 64.3935C67.5447 65.3665 66.6826 66.0596 65.6869 66.061C65.535 66.0596 65.383 66.044 65.2339 66.0141C64.6799 65.8934 64.1984 65.5568 63.8945 65.0795C63.5905 64.6009 63.4911 64.0214 63.6175 63.4689C64.1391 61.0068 62.4177 58.8164 60.3742 57.3475C58.9638 56.3337 57.7258 55.0843 56.719 53.6446C54.9052 51.0511 53.928 47.9647 53.9195 44.8002V41.9736C53.9195 37.7135 53.9195 35.5835 53.3045 33.5777C52.6896 31.5719 51.4957 29.8079 49.1079 26.2799L43.0553 17.3367C42.6164 16.6876 42.5724 15.8482 42.9402 15.155C43.3081 14.4619 44.0282 14.0287 44.8122 14.0287C47.4044 14.0287 49.0357 11.2355 47.7621 8.97779L44.8802 3.86918C44.4839 3.16611 44.5223 2.29829 44.9768 1.63358C45.4228 0.956073 46.2224 0.602428 47.0221 0.728818L79.1729 5.20845C83.9438 5.89163 88.3085 8.26787 91.473 11.9039C94.636 15.54 96.386 20.1916 96.4042 25.0108V44.8088C96.3928 48.0259 95.3816 51.1607 93.5096 53.7768C92.6085 55.0362 91.5294 56.1454 90.3132 57.0742C87.9479 58.8806 85.7945 61.4556 86.6596 64.3034C87.3783 66.6695 89.7852 67.9404 92.258 67.9404H110.717C112.541 67.956 114.271 68.7457 115.478 70.1135C116.684 71.4827 117.251 73.2979 117.038 75.1102L114.11 98.8115C114.11 98.8107 114.111 98.81 114.112 98.81C116.466 98.6922 118.826 98.7604 121.169 99.0132C122.341 99.0814 123.236 100.084 123.169 101.256C123.107 102.344 122.237 103.194 121.175 103.256C121.011 103.265 120.845 103.27 120.681 103.256C120.483 103.235 120.286 103.216 120.089 103.198C116.339 102.859 113.264 105.858 112.806 109.595C112.241 114.204 115.83 118.324 120.475 118.324H120.473C122.504 118.328 124.468 117.604 126.011 116.282C127.552 114.961 128.569 113.13 128.877 111.123C129.184 109.116 128.761 107.065 127.684 105.343L118.097 90.1153C118.097 90.1148 118.097 90.1142 118.098 90.1138C118.098 90.1133 118.098 90.1127 118.098 90.1122C117.539 89.1337 117.844 87.8886 118.793 87.2781C119.742 86.6687 121.001 86.9074 121.66 87.8235L131.248 103.052C132.482 104.97 133.169 107.188 133.236 109.468C133.304 111.748 132.749 114.003 131.63 115.991C131.11 116.958 131.745 118.324 132.843 118.324H147.877C149.04 118.324 149.985 119.26 149.997 120.422C149.997 120.423 149.998 120.423 149.999 120.423ZM38.2638 118.303C38.2638 118.303 38.2637 118.303 38.2637 118.303L37.2604 110.123C36.7602 106.044 33.4053 102.81 29.3184 103.234C29.1542 103.248 28.9883 103.244 28.8238 103.234C27.7625 103.172 26.8919 102.323 26.8299 101.234C26.7632 100.063 27.658 99.0599 28.8298 98.9931C29.9222 98.8767 31.0178 98.8 32.1146 98.7631C34.0837 98.6968 35.665 97.0016 35.4207 95.0466C35.0513 92.09 31.177 91.2296 29.5908 93.7519L22.3145 105.322C21.2379 107.044 20.8146 109.095 21.1215 111.102C21.4297 113.109 22.4466 114.94 23.9877 116.261C25.5302 117.583 27.4945 118.307 29.5254 118.303H38.2638C38.2639 118.303 38.2639 118.303 38.2638 118.303ZM80.8541 96.4564C80.854 96.4564 80.854 96.4566 80.8541 96.4566H80.8543C80.8543 96.4566 80.8544 96.4565 80.8544 96.4565C80.8657 94.9013 80.2578 93.4057 79.1642 92.2991C78.072 91.1926 76.5834 90.5663 75.0282 90.5592C73.4729 90.5521 71.9787 91.1628 70.8751 92.2593C69.7714 93.3544 69.1494 94.8443 69.1465 96.3997C69.1423 97.9535 69.7573 99.4463 70.8552 100.547C71.9531 101.649 73.4445 102.267 74.9996 102.267C76.5435 102.264 78.0249 101.652 79.1199 100.564C80.2164 99.4761 80.8385 98.0004 80.8542 96.4565C80.8542 96.4564 80.8541 96.4564 80.8541 96.4564ZM83.5347 55.7404C83.5346 55.7359 83.5377 55.7319 83.5421 55.7308C85.9934 55.1361 88.1751 53.7379 89.7384 51.757C91.3022 49.7756 92.1572 47.3254 92.1629 44.8001V25.0192C92.1502 21.2228 90.771 17.5569 88.2782 14.692C85.7855 11.8286 82.347 9.95535 78.5888 9.41684L61.8382 7.07595C57.2717 6.43778 53.9522 11.3082 56.2158 15.3252L56.9328 16.5975C56.933 16.5979 56.9331 16.5983 56.9331 16.5988C56.9331 16.5992 56.9333 16.5997 56.9335 16.6001C57.2201 17.09 57.2981 17.6749 57.1504 18.2244C57.0027 18.7726 56.6391 19.2399 56.1448 19.5183C55.6491 19.7981 55.0625 19.8663 54.5157 19.7086C53.9689 19.5524 53.5087 19.1817 53.2374 18.6817C53.0938 18.4198 52.8188 18.257 52.5201 18.257H51.9979C50.6358 18.257 49.8267 19.7787 50.5884 20.9079L57.7728 31.5599C57.811 31.6151 57.8154 31.6787 57.8491 31.7326C57.8494 31.733 57.8495 31.7335 57.8495 31.734C57.8495 31.7344 57.8496 31.7348 57.8498 31.7352C57.9221 31.8686 57.9774 32.0118 58.0143 32.1593C58.0384 32.2347 58.0578 32.3114 58.0725 32.3889C58.0968 32.5168 58.121 32.6452 58.1378 32.7744V44.8345C58.1421 47.8257 59.3338 50.6947 61.4487 52.8098C63.565 54.9247 66.4341 56.1149 69.4265 56.1178H80.8801C81.5908 56.1164 82.3002 56.0464 82.999 55.909C83.037 55.9015 83.0739 55.8895 83.1096 55.8747C83.2442 55.8192 83.3839 55.7777 83.5268 55.75C83.5314 55.7491 83.5347 55.7451 83.5347 55.7404ZM74.9996 94.8458C74.1091 94.8458 73.3875 95.5673 73.3875 96.4579C73.3875 97.347 74.1091 98.0686 74.9996 98.0686C75.8902 98.0686 76.6117 97.347 76.6117 96.4579C76.6117 96.0304 76.4413 95.6199 76.1402 95.3174C75.8376 95.0148 75.4272 94.8458 74.9996 94.8458ZM125.69 131.039C125.69 131.039 125.69 131.039 125.69 131.039C124.832 131.039 124.058 131.556 123.73 132.348C123.402 133.141 123.584 134.053 124.19 134.659C124.797 135.266 125.708 135.448 126.501 135.119C127.294 134.791 127.811 134.017 127.811 133.159C127.811 131.988 126.86 131.039 125.69 131.039C125.69 131.039 125.69 131.039 125.69 131.039ZM112.964 131.039C112.964 131.039 112.964 131.039 112.964 131.039C112.106 131.039 111.332 131.556 111.004 132.348C110.676 133.141 110.857 134.053 111.464 134.659C112.07 135.266 112.982 135.448 113.775 135.119C114.567 134.791 115.084 134.017 115.084 133.159C115.084 131.988 114.134 131.039 112.964 131.039C112.964 131.039 112.964 131.039 112.964 131.039Z" fill="url(#paint0_linear_432_1577)"/>
<defs>
<linearGradient id="paint0_linear_432_1577" x1="7.36994" y1="0.70347" x2="149.966" y2="7.35505" gradientUnits="userSpaceOnUse">
<stop stop-color="#63BD92"/>
<stop offset="1" stop-color="#B4EEA1"/>
</linearGradient>
</defs>
</svg>
