<svg width="164" height="115" viewBox="0 0 164 115" fill="none" xmlns="http://www.w3.org/2000/svg">
<path d="M137.036 110.64L133.552 93.2195C133.006 90.4632 131.658 87.9301 129.675 85.9391C127.692 83.9482 125.165 82.588 122.411 82.0308C117.609 81.0534 104.853 78.4591 102.603 76.7703C100.357 75.0869 98.67 69.68 97.957 65.9973C101.453 62.7536 103.877 58.5214 104.906 53.8648C107.021 53.623 108.974 52.6119 110.392 51.024C111.81 49.4369 112.595 47.3834 112.598 45.2548V41.1752C112.595 39.4833 112.099 37.8281 111.169 36.4147C110.239 35.0013 108.916 33.89 107.362 33.2186C107.389 33.1466 112.597 18.2275 102.277 8.98534C92.0299 -0.191305 72.1577 1.76523 65.9852 4.07857C59.3324 6.57182 55.1753 1.81692 55.0094 1.62279C54.5438 1.0648 53.8176 0.796378 53.1007 0.917685C52.3847 1.03899 51.7868 1.53201 51.5317 2.21207C48.924 9.16372 47.1953 19.7309 50.9001 26.6317V26.6325C52.4019 29.4795 54.9029 31.6715 57.9231 32.786C56.0605 33.2633 54.4093 34.3472 53.2291 35.8654C52.0482 37.3836 51.4057 39.2508 51.4025 41.1745V45.254C51.4057 47.3826 52.1906 49.4361 53.6087 51.0232C55.0267 52.6111 56.9792 53.6223 59.0938 53.8641C60.1229 58.5204 62.5465 62.7526 66.0425 65.9966C65.3303 69.6795 63.6424 75.0863 61.397 76.7695C59.1463 78.4568 46.3902 81.0526 41.5882 82.0301C38.8351 82.5873 36.3074 83.9474 34.325 85.9384C32.3427 87.9293 30.9936 90.4625 30.448 93.2188L26.9639 110.639C26.8528 111.171 26.9592 111.726 27.2589 112.18C27.5587 112.634 28.0274 112.949 28.5604 113.056C29.0941 113.162 29.6474 113.052 30.0989 112.748C30.5505 112.444 30.8619 111.973 30.9637 111.439L34.4478 94.0186C34.8375 92.0504 35.8001 90.2411 37.2157 88.8199C38.6314 87.3979 40.4352 86.426 42.402 86.0275C53.7964 83.7088 61.3593 81.8979 63.8465 80.0329C66.3476 83.855 72.1701 90.6408 82.0001 90.6408C91.83 90.6408 97.6525 83.8558 100.154 80.0329C102.641 81.8978 110.203 83.7088 121.598 86.0275C123.564 86.4267 125.368 87.3978 126.784 88.8199C128.199 90.2419 129.162 92.0504 129.551 94.0186L133.035 111.439C133.137 111.973 133.449 112.444 133.9 112.748C134.351 113.052 134.905 113.162 135.438 113.056C135.972 112.949 136.441 112.634 136.74 112.18C137.04 111.726 137.146 111.171 137.035 110.639L137.036 110.64ZM108.518 45.2544C108.515 46.2036 108.217 47.1286 107.666 47.9019C107.114 48.6743 106.336 49.2565 105.439 49.568C105.447 49.3207 105.458 36.8673 105.458 36.8673C106.35 37.1812 107.123 37.7642 107.671 38.535C108.219 39.3067 108.515 40.2285 108.518 41.1747L108.518 45.2544ZM54.4957 24.7033C51.7629 19.6126 52.8969 11.7915 54.4269 6.46604C57.3498 8.4139 61.9623 9.94237 67.4178 7.89816C72.0882 6.14752 90.6334 4.06202 99.5606 12.0294C104.031 16.0166 105.495 22.0605 103.926 30.0147C101.293 29.1882 96.0178 27.033 89.3933 21.7341C88.6545 21.1425 87.6058 21.1378 86.8607 21.7216C86.7254 21.8281 73.1664 32.2958 61.0407 29.4981C57.9901 28.7938 55.8483 27.227 54.4952 24.7031L54.4957 24.7033ZM55.4826 45.2544V41.1748C55.4857 40.2286 55.7815 39.3068 56.3293 38.5359C56.8771 37.765 57.6503 37.182 58.5425 36.8682C58.5425 36.8682 58.5535 49.3214 58.5613 49.5689C57.6644 49.2574 56.8866 48.6752 56.3349 47.902C55.7832 47.1295 55.4858 46.2038 55.4827 45.2545L55.4826 45.2544ZM62.6221 48.8236V33.8966C73.6119 35.155 84.4053 28.4521 88.0795 25.8837C93.6915 30.1714 98.3478 32.3604 101.38 33.4615V48.8244V48.8237C101.38 54.5294 98.8589 59.9434 94.4929 63.6161C94.4232 63.6701 94.3575 63.7288 94.2957 63.7914C90.8336 66.6438 86.4869 68.2035 82.0013 68.2035C77.5157 68.2035 73.169 66.6438 69.7069 63.7914C69.6451 63.7288 69.5794 63.6701 69.5097 63.6161C65.1445 59.9434 62.6238 54.5296 62.623 48.8237L62.6221 48.8236ZM82.0006 86.56C73.0313 86.56 68.1065 79.3703 66.6039 76.7378C68.094 74.1905 69.0565 71.0625 69.6193 68.7352C73.3334 71.0531 77.6227 72.2818 82.0006 72.2818C86.3784 72.2818 90.6678 71.0532 94.3819 68.7352C94.9446 71.0625 95.9064 74.1913 97.3972 76.7378C95.8915 79.3751 90.9675 86.56 82.0006 86.56Z" fill="#131522"/>
<path d="M2 112.755H162" stroke="#131522" stroke-width="4" stroke-linecap="round"/>
</svg>
